<svg width="28" height="28" viewBox="0 0 28 28" fill="none" xmlns="http://www.w3.org/2000/svg">
<path d="M2.33332 19.3503L6.51699 15.1667H17.5C18.1188 15.1667 18.7123 14.9208 19.1499 14.4832C19.5875 14.0457 19.8333 13.4522 19.8333 12.8333V7C19.8333 6.38116 19.5875 5.78767 19.1499 5.35008C18.7123 4.9125 18.1188 4.66667 17.5 4.66667H4.66666C4.04782 4.66667 3.45433 4.9125 3.01674 5.35008C2.57916 5.78767 2.33332 6.38116 2.33332 7V19.3503ZM2.33332 21H1.16666V7C1.16666 6.07174 1.53541 5.1815 2.19178 4.52513C2.84816 3.86875 3.7384 3.5 4.66666 3.5H17.5C18.4282 3.5 19.3185 3.86875 19.9749 4.52513C20.6312 5.1815 21 6.07174 21 7V12.8333C21 13.7616 20.6312 14.6518 19.9749 15.3082C19.3185 15.9646 18.4282 16.3333 17.5 16.3333H6.99999L2.33332 21ZM24.5 24.017V11.6667C24.5 11.0478 24.2542 10.4543 23.8166 10.0168C23.379 9.57917 22.7855 9.33333 22.1667 9.33333V8.16667C23.0949 8.16667 23.9852 8.53542 24.6415 9.19179C25.2979 9.84817 25.6667 10.7384 25.6667 11.6667V25.6667H24.5L19.8333 21H9.33332C8.64676 21.0002 7.97532 20.7984 7.40257 20.4198C6.82982 20.0412 6.38106 19.5025 6.11216 18.8708L7.04199 17.941C7.14449 18.4736 7.42929 18.9538 7.84745 19.2991C8.26561 19.6444 8.791 19.8333 9.33332 19.8333H20.3163L24.5 24.017Z" fill="#0099DA"/>
</svg>
