<svg width="50" height="50" viewBox="0 0 50 50" fill="none" xmlns="http://www.w3.org/2000/svg">
<path d="M48.3817 17.6786L46.8192 13.7724C46.7811 13.6771 46.7246 13.5903 46.6529 13.5168C46.5812 13.4434 46.4958 13.3848 46.4015 13.3444C46.3072 13.3039 46.2058 13.2825 46.1032 13.2813C46.0006 13.28 45.8988 13.299 45.8035 13.3371L42.5701 14.6305C42.2171 14.0527 41.6971 13.5956 41.0788 13.3197C40.9316 13.2543 40.78 13.1993 40.625 13.1552V10.9375H43.75C43.8786 10.9375 44.0052 10.9057 44.1186 10.8451C44.232 10.7844 44.3287 10.6967 44.4 10.5896L47.2931 6.25H47.6563C47.8635 6.25 48.0622 6.16769 48.2087 6.02118C48.3552 5.87466 48.4375 5.67595 48.4375 5.46875V2.34375C48.4375 2.13655 48.3552 1.93784 48.2087 1.79132C48.0622 1.64481 47.8635 1.5625 47.6563 1.5625H2.34378C2.13657 1.5625 1.93786 1.64481 1.79135 1.79132C1.64484 1.93784 1.56253 2.13655 1.56253 2.34375V5.46875C1.56253 5.67595 1.64484 5.87466 1.79135 6.02118C1.93786 6.16769 2.13657 6.25 2.34378 6.25H2.70696L5.60002 10.5896C5.67137 10.6967 5.76802 10.7844 5.88141 10.8451C5.9948 10.9057 6.12142 10.9375 6.25002 10.9375H9.37502V13.1552C9.22005 13.1993 9.06837 13.2543 8.92112 13.3197C8.30281 13.5956 7.78279 14.0527 7.42981 14.6305L4.19641 13.3371C4.10115 13.299 3.99931 13.28 3.89671 13.2813C3.7941 13.2825 3.69275 13.3039 3.59844 13.3444C3.50413 13.3848 3.4187 13.4434 3.34704 13.5168C3.27538 13.5903 3.21889 13.6771 3.18079 13.7724L1.61829 17.6786C1.58017 17.7739 1.56119 17.8757 1.56244 17.9783C1.56368 18.0809 1.58512 18.1823 1.62554 18.2766C1.66596 18.3709 1.72456 18.4563 1.798 18.528C1.87143 18.5996 1.95827 18.6561 2.05354 18.6942L5.25159 19.9735C5.2468 20.9195 5.60402 21.8314 6.25002 22.5224V43.6283L1.86419 47.0396C1.73571 47.1396 1.64167 47.2772 1.5952 47.4332C1.54872 47.5892 1.55214 47.7558 1.60496 47.9098C1.65779 48.0637 1.75738 48.1974 1.88984 48.292C2.0223 48.3866 2.181 48.4375 2.34378 48.4375H47.6563C47.819 48.4375 47.9777 48.3866 48.1102 48.292C48.2427 48.1974 48.3423 48.0637 48.3951 47.9098C48.4479 47.7558 48.4513 47.5892 48.4048 47.4332C48.3584 47.2772 48.2643 47.1396 48.1359 47.0396L43.75 43.6283V22.6562H43.616C43.977 22.3093 44.2636 21.8926 44.4584 21.4313C44.6531 20.9701 44.752 20.474 44.7488 19.9733L47.9469 18.694C48.1392 18.617 48.293 18.4668 48.3745 18.2763C48.456 18.0859 48.4586 17.8709 48.3817 17.6786ZM41.4532 15.892C41.4635 15.9201 41.4754 15.9476 41.4888 15.9744L43.0301 19.0571C43.5168 20.4519 42.8333 21.5564 41.8973 21.9309C41.8773 21.9389 41.8574 21.9478 41.8381 21.9575L39.4383 23.1574L36.179 15.9871L38.6001 14.7762C39.2589 14.5196 39.9113 14.5087 40.4407 14.7455C40.9063 14.9542 41.2565 15.3505 41.4532 15.892ZM11.0403 9.375H7.71018L9.37502 6.87715L11.0403 9.375ZM10.8352 6.25H14.1653L12.5 8.74785L10.8352 6.25ZM15.625 6.87715L17.2903 9.375H13.9602L15.625 6.87715ZM17.0848 6.25H20.4149L18.75 8.74785L17.0848 6.25ZM21.875 6.87715L23.5403 9.375H20.2102L21.875 6.87715ZM23.3348 6.25H26.6649L25 8.74785L23.3348 6.25ZM28.125 6.87715L29.7903 9.375H26.4602L28.125 6.87715ZM29.5848 6.25H32.9149L31.25 8.74785L29.5848 6.25ZM34.375 6.87715L36.0402 9.375H32.7102L34.375 6.87715ZM35.8348 6.25H39.1649L37.5 8.74785L35.8348 6.25ZM40.625 6.87715L42.2902 9.375H38.9602L40.625 6.87715ZM43.75 8.74785L42.0848 6.25H45.4149L43.75 8.74785ZM3.12502 3.125H46.875V4.6875H3.12502V3.125ZM4.58479 6.25H7.91487L6.25002 8.74785L4.58479 6.25ZM39.0625 10.9375V13.0519C38.6951 13.1028 38.3353 13.1986 37.9911 13.3371C37.971 13.3451 37.9513 13.354 37.9319 13.3638L34.8069 14.9263C34.626 15.0167 34.4873 15.1737 34.4198 15.3643C34.3523 15.5549 34.3614 15.7643 34.445 15.9483L38.3513 24.5421C38.4134 24.6786 38.5134 24.7944 38.6396 24.8756C38.7657 24.9568 38.9125 25 39.0625 25V39.9043C39.0625 40.8104 39.0625 41.938 40.1367 42.7976C40.1395 42.7998 40.1423 42.802 40.1451 42.8041L41.5611 43.9057L37.9981 46.875H12.002L8.4384 43.9057L9.85442 42.8041C9.85725 42.802 9.86008 42.7998 9.86282 42.7976C10.937 41.9382 10.937 40.8104 10.937 39.9043V25C11.087 25 11.2339 24.9568 11.36 24.8756C11.4861 24.7944 11.5862 24.6786 11.6483 24.5421L15.5545 15.9483C15.6382 15.7643 15.6473 15.555 15.58 15.3644C15.5126 15.1738 15.3739 15.0168 15.1932 14.9263L12.0682 13.3638C12.0487 13.354 12.0289 13.3451 12.0089 13.3371C11.6648 13.1986 11.305 13.1028 10.9375 13.0519V10.9375H39.0625ZM42.1875 45.418V46.875H40.4395L42.1875 45.418ZM9.56057 46.875H7.81252V45.418L9.56057 46.875ZM8.5468 15.892C8.74358 15.3505 9.09368 14.9545 9.5593 14.7459C10.0887 14.5091 10.7409 14.5201 11.3999 14.7766L13.821 15.9875L10.5617 23.1578L8.16194 21.9575C8.14241 21.9478 8.12288 21.9389 8.10276 21.9309C7.16672 21.5564 6.48323 20.4519 6.96995 19.0571L8.51125 15.9744C8.52464 15.9476 8.53651 15.9201 8.5468 15.892ZM4.34153 15.0781L6.73411 16.0352L5.55129 18.4006C5.54993 18.4032 5.54905 18.4062 5.54768 18.4089L3.3594 17.5335L4.34153 15.0781ZM7.81252 23.5298L9.37502 24.311V39.9043C9.37502 40.8793 9.30813 41.2386 8.89094 41.5742L7.81252 42.413V23.5298ZM6.25002 45.6078V46.875H4.62073L6.25002 45.6078ZM45.3793 46.875H43.75V45.6078L45.3793 46.875ZM41.1091 41.5742C40.6919 41.2386 40.625 40.8793 40.625 39.9043V24.311L42.1875 23.5298V42.413L41.1091 41.5742ZM44.4524 18.4089C44.451 18.4062 44.4501 18.4032 44.4487 18.4006L43.266 16.0352L45.6586 15.0781L46.6406 17.5335L44.4524 18.4089Z" fill="#0099da"/>
<path d="M14.0625 32.0312V34.9737C13.8167 35.1931 13.62 35.462 13.4854 35.7627C13.3507 36.0635 13.2812 36.3893 13.2812 36.7188V40.625C13.074 40.625 12.8753 40.7073 12.7288 40.8538C12.5823 41.0003 12.5 41.199 12.5 41.4062C12.5 41.6135 12.5823 41.8122 12.7288 41.9587C12.8753 42.1052 13.074 42.1875 13.2812 42.1875H36.7188C36.926 42.1875 37.1247 42.1052 37.2712 41.9587C37.4177 41.8122 37.5 41.6135 37.5 41.4062C37.5 41.199 37.4177 41.0003 37.2712 40.8538C37.1247 40.7073 36.926 40.625 36.7188 40.625V36.7188C36.7188 36.3893 36.6493 36.0635 36.5146 35.7627C36.38 35.462 36.1833 35.1931 35.9375 34.9737V32.0312C35.9363 30.9956 35.5244 30.0027 34.7921 29.2704C34.0598 28.5381 33.0669 28.1262 32.0312 28.125H17.9688C16.9331 28.1262 15.9402 28.5381 15.2079 29.2704C14.4756 30.0027 14.0637 30.9956 14.0625 32.0312ZM14.8438 40.625V36.7188C14.844 36.5116 14.9264 36.313 15.0728 36.1666C15.2193 36.0201 15.4179 35.9377 15.625 35.9375H16.4062V37.5C16.4062 37.7072 16.4886 37.9059 16.6351 38.0524C16.7816 38.1989 16.9803 38.2812 17.1875 38.2812H32.8125C33.0197 38.2812 33.2184 38.1989 33.3649 38.0524C33.5114 37.9059 33.5938 37.7072 33.5938 37.5V35.9375H34.375C34.5821 35.9377 34.7807 36.0201 34.9272 36.1666C35.0736 36.313 35.156 36.5116 35.1562 36.7188V40.625H14.8438ZM15.625 32.0312C15.6257 31.4099 15.8729 30.8141 16.3123 30.3748C16.7516 29.9354 17.3474 29.6882 17.9688 29.6875H32.0312C32.6526 29.6882 33.2484 29.9354 33.6877 30.3748C34.1271 30.8141 34.3743 31.4099 34.375 32.0312V34.375H32.8125C32.6053 34.375 32.4066 34.4573 32.2601 34.6038C32.1136 34.7503 32.0312 34.949 32.0312 35.1562V36.7188H17.9688V35.1562C17.9688 34.949 17.8864 34.7503 17.7399 34.6038C17.5934 34.4573 17.3947 34.375 17.1875 34.375H15.625V32.0312Z" fill="#0099da"/>
</svg>
