<svg width="50" height="50" viewBox="0 0 50 50" fill="none" xmlns="http://www.w3.org/2000/svg">
<path d="M47.9167 27.0401H2.08333C0.933329 27.0401 0 26.1068 0 24.9567C0 23.8067 0.933329 22.8734 2.08333 22.8734H47.9167C49.0667 22.8734 50 23.8067 50 24.9567C50 26.1068 49.0667 27.0401 47.9167 27.0401Z" fill="#0099DA"/>
<path d="M47.9167 11.0677H2.08333C0.933329 11.0677 0 10.1343 0 8.98433C0 7.83433 0.933329 6.901 2.08333 6.901H47.9167C49.0667 6.901 50 7.83433 50 8.98433C50 10.1343 49.0667 11.0677 47.9167 11.0677Z" fill="#0099DA"/>
<path d="M47.9167 43.012H2.08333C0.933329 43.012 0 42.0787 0 40.9287C0 39.7787 0.933329 38.8453 2.08333 38.8453H47.9167C49.0667 38.8453 50 39.7787 50 40.9287C50 42.0787 49.0667 43.012 47.9167 43.012Z" fill="#0099DA"/>
</svg>
