<svg width="50" height="50" viewBox="0 0 50 50" fill="none" xmlns="http://www.w3.org/2000/svg">
<g clip-path="url(#clip0)">
<path d="M40.8332 10.9231L41.515 8.69231L43.712 8L41.515 7.30769L40.8332 5L40.1514 7.30769L37.8787 8L40.1514 8.69231L40.8332 10.9231Z" fill="black"/>
<path d="M47.5756 9.92307L47.1211 8.53845L46.7423 9.92307L45.3787 10.3077L46.7423 10.6923L47.1211 12.0769L47.5756 10.6923L48.8635 10.3077L47.5756 9.92307Z" fill="black"/>
<path d="M46.2119 6.38466L46.818 4.46159L48.7119 3.8462L46.818 3.30774L46.2119 1.30774L45.6816 3.30774L43.7119 3.8462L45.6816 4.46159L46.2119 6.38466Z" fill="black"/>
<path d="M46.6666 13.4616L42.5756 12.3847C42.3484 12.3077 42.1969 12.3847 41.9696 12.4616C41.8181 12.5385 41.6666 12.7693 41.5908 12.9231C41.5908 13.077 39.9241 19.4616 40.0756 19.1539L34.015 1.69235C33.8635 1.30773 33.409 1.07696 33.0302 1.23081L1.66656 12.3077C1.28777 12.4616 1.06049 12.9231 1.21201 13.3077L12.9544 47.6154C13.0302 47.9231 13.3332 48.1539 13.6363 48.1539C13.712 48.1539 13.7878 48.1539 13.8635 48.077L34.6969 40.6924C32.9544 47.8462 32.8029 47.6924 33.0302 48.1539C33.1059 48.3077 33.3332 48.4616 33.4847 48.5385L37.5756 49.6154C37.9544 49.6924 38.409 49.4616 38.4847 49.077L41.1363 38.4616L45.2272 37C45.6059 36.8462 45.8332 36.3847 45.6817 36L43.409 29.3077C44.8484 23.6154 45.7575 19.8462 47.1211 14.4616C47.2726 14 47.0453 13.6154 46.6666 13.4616ZM14.0908 46.3077L2.87868 13.5385L32.8787 2.92311L39.3938 21.9231L38.7878 24.3077C38.5605 24.077 38.3332 24 38.0302 24.1539L35.0756 25.1539C34.8484 25.2308 34.6969 25.3847 34.6211 25.5385C34.5453 25.6924 34.5453 25.9231 34.6211 26.1539L35.6059 28.9231C35.7575 29.3077 36.212 29.5385 36.5908 29.3847L37.6514 29L36.212 34.6923L32.2726 23.1539C32.1211 22.7693 31.6666 22.5385 31.2878 22.6923L16.212 28C15.8332 28.1539 15.6059 28.6154 15.7575 29L19.9999 41.3077C20.1514 41.6924 20.6059 41.9231 20.9847 41.7693L35.8332 36.5385L35.2272 38.8462L14.0908 46.3077ZM38.1817 26.8462L38.1059 27.2308L36.7423 27.6924L36.2878 26.3847L37.8029 25.8462L38.1817 26.8462ZM28.8635 33.1539L24.5453 34.6923C23.1817 35.1539 22.4241 36.6924 22.9544 38.077L23.3332 39.3077L21.1363 40.077L17.4241 29.2308L31.0605 24.3847L34.7726 35.2308L32.5756 36L32.1969 34.7693C31.7423 33.4616 30.2272 32.6924 28.8635 33.1539ZM31.212 36.5385L24.7726 38.8462L24.3938 37.6154C24.1666 37 24.4696 36.3847 25.0756 36.1539C29.5453 34.6154 29.4696 34.5385 29.7726 34.5385C30.2272 34.5385 30.6817 34.8462 30.8332 35.3077L31.212 36.5385ZM44.0908 35.6924L41.6666 36.6154L42.8029 32L44.0908 35.6924ZM37.2726 47.9231L34.6211 47.2308L36.515 39.6924C40.8332 22.4616 33.1059 53.3077 41.6666 19.1539L44.3181 19.8462C40.8332 33.5385 39.2423 40 37.2726 47.9231ZM44.6211 18.3077L41.9696 17.6154L42.8787 14.077L45.5302 14.7693L44.6211 18.3077Z" fill="black"/>
<path d="M14.6969 26.0769C14.8484 26.4615 15.3029 26.6923 15.6817 26.5384C15.606 26.5384 22.9544 24 30.7575 21.2308C30.9847 21.1538 31.1363 21 31.212 20.8461C31.2878 20.6923 31.2878 20.4615 31.212 20.2307L26.9696 7.92306C26.8181 7.53844 26.3635 7.30767 25.9847 7.46152L10.909 12.7692C10.5302 12.9231 10.3029 13.3077 10.4544 13.7692L14.6969 26.0769ZM19.4696 23.5384L19.0908 22.3077C18.8635 21.6923 19.1666 21.0769 19.7726 20.8461C24.2423 19.3077 24.1666 19.2307 24.4696 19.2307C24.9241 19.2307 25.3787 19.5384 25.5302 20L25.909 21.2308L19.4696 23.5384ZM25.8332 9.15383L29.5453 20L27.3484 20.7692L26.9696 19.5384C26.515 18.1538 24.9999 17.3846 23.6363 17.9231L19.3181 19.4615C17.9544 19.9231 17.1969 21.4615 17.7272 22.8461L18.106 24.0769L15.909 24.8461L12.1969 14L25.8332 9.15383Z" fill="black"/>
<path d="M29.0908 10.1538C29.2423 10.5384 29.6969 10.7692 30.0757 10.6154L33.0302 9.61537C33.2575 9.53844 33.409 9.3846 33.4848 9.23075C33.5605 9.0769 33.5605 8.84614 33.4848 8.61537L32.4999 5.84614C32.4242 5.3846 31.9696 5.23075 31.5908 5.3846L28.6363 6.3846C28.2575 6.53844 28.0302 6.99998 28.1817 7.3846L29.0908 10.1538ZM31.3636 7.0769L31.8181 8.3846L30.3029 8.92306L29.8484 7.61537L31.3636 7.0769Z" fill="black"/>
<path d="M30.3028 13.6154L31.2877 16.3847C31.4392 16.7693 31.8937 17 32.2725 16.8462L35.2271 15.8462C35.6059 15.6924 35.8331 15.2308 35.6816 14.8462L34.6968 12.077C34.621 11.8462 34.4695 11.6924 34.318 11.6154C34.1665 11.5385 33.9392 11.5385 33.7119 11.6154L30.7574 12.6154C30.3786 12.7693 30.1513 13.2308 30.3028 13.6154ZM33.4846 13.3077L33.9392 14.6154L32.424 15.1539L31.9695 13.8462L33.4846 13.3077Z" fill="black"/>
<path d="M32.4999 19.3078C32.4242 19.4616 32.4242 19.6924 32.4999 19.9232L33.4848 22.6924C33.6363 23.077 34.0908 23.3078 34.4696 23.1539L37.4242 22.1539C37.803 22.0001 38.0302 21.5386 37.8787 21.1539C36.8939 18.5386 37.0454 18.1539 36.5151 17.9232C36.3636 17.8462 36.1363 17.8462 35.909 17.9232L32.9545 18.9232C32.7272 19.0001 32.5757 19.1539 32.4999 19.3078ZM35.606 19.6155L36.0605 20.9232L34.5454 21.4616L34.0908 20.1539L35.606 19.6155Z" fill="black"/>
<path d="M10.3028 17.7693L9.39372 15.077C9.24221 14.6924 8.78766 14.4616 8.40888 14.6155L5.60585 15.6154C5.37857 15.6924 5.22706 15.8462 5.1513 16.0001C5.07554 16.1539 5.07554 16.3847 5.1513 16.6154L6.06039 19.3078C6.21191 19.6924 6.66645 19.9231 7.04524 19.7693L9.84827 18.7693C10.3028 18.6154 10.4543 18.1539 10.3028 17.7693ZM7.27251 18.077L6.81797 16.8462L8.25736 16.3847L8.71191 17.6154L7.27251 18.077Z" fill="black"/>
<path d="M12.4241 23.8462L11.515 21.1539C11.4392 20.9231 11.2877 20.7693 11.1362 20.6923C10.9847 20.6154 10.7574 20.6154 10.5301 20.6923L7.7271 21.6923C7.34831 21.8462 7.12104 22.3077 7.27256 22.6923L8.18165 25.3846C8.33316 25.7693 8.78771 26 9.1665 25.8462L11.9695 24.8462C12.3483 24.6923 12.5756 24.2308 12.4241 23.8462ZM9.31801 24.0769L8.86347 22.8462L10.3029 22.3846L10.7574 23.6154L9.31801 24.0769Z" fill="black"/>
<path d="M14.4695 29.9231L13.5604 27.2308C13.4846 27 13.3331 26.8462 13.1816 26.7692C13.0301 26.6923 12.8028 26.6923 12.5755 26.7692L9.77251 27.7692C9.39372 27.9231 9.16645 28.3846 9.31797 28.7692L10.2271 31.4615C10.3786 31.8462 10.8331 32.0769 11.2119 31.9231L14.0149 30.9231C14.3937 30.7692 14.621 30.3077 14.4695 29.9231ZM11.4392 30.1539L10.9846 28.9231L12.424 28.4615L12.8786 29.6923L11.4392 30.1539Z" fill="black"/>
<path d="M16.5907 36L15.6816 33.3077C15.5301 32.9231 15.0756 32.6923 14.6968 32.8462L11.818 33.8462C11.5907 33.9231 11.4392 34.0769 11.3635 34.2308C11.2877 34.3846 11.2877 34.6154 11.3635 34.8462L12.2726 37.5385C12.4241 37.9231 12.8786 38.1539 13.2574 38L16.0604 37C16.515 36.7692 16.7422 36.3846 16.5907 36ZM13.4847 36.2308L13.0301 35L14.4695 34.5385L14.9241 35.7692L13.4847 36.2308Z" fill="black"/>
<path d="M17.7271 39.3846C17.6514 39.1538 17.4999 39 17.3484 38.923C17.1968 38.8461 16.9696 38.8461 16.7423 38.923L13.9393 39.9231C13.5605 40.0769 13.3332 40.5384 13.4847 40.9231L14.3938 43.6154C14.5453 44 14.9999 44.2307 15.3787 44.0769L18.1817 43.0769C18.5605 42.9231 18.7877 42.4615 18.6362 42.0769L17.7271 39.3846ZM15.6059 42.3077L15.1514 41.0769L16.5908 40.6154L17.0453 41.8461L15.6059 42.3077Z" fill="black"/>
<path d="M22.7271 29.0769C21.7422 31.0769 23.1816 33.4615 25.4543 33.4615C27.4998 33.4615 29.0149 31.3846 28.3331 29.3846C27.424 26.8462 23.9392 26.6154 22.7271 29.0769ZM24.0149 30.9231C23.3331 29 26.2119 28 26.8937 29.9231C27.5755 31.7692 24.6968 32.8462 24.0149 30.9231Z" fill="black"/>
<path d="M18.9393 17.9232C21.3635 19.077 24.015 16.6924 23.1059 14.1539C22.5756 12.5386 20.8332 11.6924 19.2423 12.2309C16.6665 13.1539 16.515 16.6924 18.9393 17.9232ZM21.6665 14.6155C22.3484 16.5386 19.4696 17.5386 18.7878 15.6155C18.1059 13.6924 20.9847 12.6924 21.6665 14.6155Z" fill="black"/>
</g>
<defs>
<clipPath id="clip0">
<rect width="50" height="50" fill="white"/>
</clipPath>
</defs>
</svg>
