<svg width="28" height="28" viewBox="0 0 28 28" fill="none" xmlns="http://www.w3.org/2000/svg">
<path d="M7.85611 20.4532C7.83623 20.379 7.79718 20.3114 7.74289 20.2571C7.68859 20.2028 7.62096 20.1637 7.5468 20.1439L5.10686 19.4902C5.03267 19.4704 4.95455 19.4704 4.88037 19.4903C4.80618 19.5102 4.73854 19.5492 4.68424 19.6036L2.89837 21.3899C2.84412 21.4441 2.80509 21.5117 2.7852 21.5858C2.76531 21.6599 2.76526 21.7379 2.78505 21.8121L3.43868 24.252C3.45856 24.3262 3.49761 24.3938 3.5519 24.4481C3.6062 24.5024 3.67382 24.5414 3.74799 24.5613L6.18792 25.2149C6.22473 25.2248 6.26268 25.2298 6.3008 25.2298C6.41682 25.2298 6.52808 25.1837 6.61011 25.1016L8.39642 23.3157C8.45074 23.2614 8.48982 23.1938 8.50971 23.1196C8.5296 23.0454 8.52961 22.9673 8.50973 22.8931L7.85611 20.4532ZM6.17042 24.3032L4.2183 23.7782L3.69549 21.8313L5.12436 20.4024L7.07605 20.9274L7.60105 22.8791L6.17042 24.3032Z" fill="#0099DA"/>
<path d="M26.9937 20.8075L24.5175 18.3312C24.4767 18.2905 24.4283 18.2583 24.3749 18.2365C24.3216 18.2147 24.2644 18.2038 24.2068 18.2043C24.1499 18.2038 24.0934 18.2147 24.0408 18.2365C23.9881 18.2583 23.9405 18.2905 23.9006 18.3312L23.6031 18.6287C23.0789 18.0247 22.7508 17.2755 22.6625 16.4806L22.3475 13.6718C22.2492 12.7828 21.8529 11.9532 21.2231 11.3181L21.1181 11.2131L21.6825 10.6443C21.7223 10.6024 21.7706 10.5695 21.8242 10.5476C21.8777 10.5257 21.9353 10.5155 21.9931 10.5175C22.7995 10.5675 23.6055 10.4133 24.3366 10.0692C25.0677 9.72516 25.7001 9.20226 26.1755 8.54893C26.6509 7.8956 26.9539 7.13293 27.0563 6.33147C27.1588 5.53001 27.0575 4.71565 26.7618 3.96372C26.7357 3.89566 26.6931 3.8352 26.6377 3.78783C26.5823 3.74046 26.5159 3.70767 26.4446 3.69246C26.3733 3.67725 26.2994 3.68009 26.2295 3.70072C26.1596 3.72135 26.0959 3.75912 26.0443 3.8106L23.3668 6.49247L21.7393 6.2606L21.5075 4.6331L24.1893 1.9556C24.2408 1.90442 24.2785 1.84115 24.2992 1.7716C24.3198 1.70204 24.3227 1.62842 24.3075 1.55747C24.292 1.48602 24.2592 1.41949 24.2119 1.36378C24.1646 1.30806 24.1042 1.26489 24.0362 1.2381C23.2843 0.9424 22.4699 0.841108 21.6685 0.943591C20.867 1.04607 20.1043 1.34902 19.451 1.82441C18.7977 2.2998 18.2748 2.93228 17.9307 3.66333C17.5866 4.39439 17.4324 5.20041 17.4825 6.00685C17.4834 6.06451 17.4727 6.12178 17.4509 6.17517C17.4291 6.22857 17.3966 6.27698 17.3556 6.31747L15.5487 8.12435L14.3106 6.88622C14.0756 6.64868 13.7773 6.48374 13.4512 6.41106C13.1251 6.33839 12.7849 6.36105 12.4713 6.47634C12.1577 6.59163 11.8839 6.79469 11.6825 7.0613C11.4812 7.3279 11.3607 7.6468 11.3356 7.97997C11.0125 7.89527 10.6719 7.90557 10.3546 8.00964C10.0372 8.11372 9.75665 8.30714 9.5465 8.5667C9.33635 8.82627 9.20556 9.14096 9.16981 9.47301C9.13406 9.80506 9.19487 10.1404 9.34496 10.4387C8.99931 10.4971 8.68005 10.6606 8.43058 10.9068C8.2154 11.1231 8.06089 11.3922 7.98256 11.6871C7.90424 11.982 7.90485 12.2923 7.98433 12.5868C7.65145 12.6095 7.33218 12.7278 7.06493 12.9275C6.79767 13.1273 6.59379 13.4 6.4778 13.7128C6.36182 14.0256 6.33866 14.3653 6.41111 14.691C6.48356 15.0167 6.64853 15.3145 6.88621 15.5487L7.50308 16.1656L6.24746 17.4212C6.20684 17.4634 6.15779 17.4964 6.10351 17.5183C6.04922 17.5402 5.99093 17.5503 5.93246 17.5481C5.83621 17.5437 5.74433 17.5437 5.64371 17.5393C5.01172 17.5391 4.38586 17.6633 3.80188 17.9048C3.21789 18.1464 2.6872 18.5007 2.24011 18.9473C1.33718 19.8495 0.829598 21.0733 0.829018 22.3497C0.828438 23.626 1.33491 24.8503 2.23702 25.7533C3.13913 26.6562 4.36298 27.1638 5.63933 27.1643H5.65246C6.28417 27.1641 6.90965 27.0394 7.49318 26.7975C8.07671 26.5555 8.60686 26.2009 9.05335 25.754C9.49984 25.3071 9.85392 24.7767 10.0954 24.1929C10.3368 23.6092 10.4609 22.9836 10.4606 22.3518C10.4606 22.2556 10.4562 22.1593 10.4518 22.0675C10.449 22.0089 10.4589 21.9505 10.4808 21.8961C10.5027 21.8417 10.5361 21.7927 10.5787 21.7525L11.8343 20.4968L16.7868 25.445L16.4762 25.7556C16.4349 25.7961 16.402 25.8444 16.3794 25.8978C16.3569 25.9511 16.3452 26.0083 16.345 26.0662C16.3452 26.1235 16.3569 26.1801 16.3795 26.2327C16.402 26.2853 16.4349 26.3328 16.4762 26.3725L17.0931 26.9937C17.1763 27.0747 17.2876 27.1201 17.4037 27.1206C17.5196 27.1193 17.6307 27.074 17.7143 26.9937C17.7963 26.9111 17.8423 26.7995 17.8423 26.6831C17.8423 26.5667 17.7963 26.4551 17.7143 26.3725L17.4037 26.0662L24.2068 19.2587L26.3725 21.4243C26.4551 21.5063 26.5667 21.5523 26.6831 21.5523C26.7994 21.5523 26.9111 21.5063 26.9937 21.4243C27.0752 21.3424 27.1209 21.2315 27.1209 21.1159C27.1209 21.0003 27.0752 20.8894 26.9937 20.8075ZM17.9725 6.93435C18.1019 6.80745 18.2029 6.6544 18.2685 6.48541C18.3341 6.31642 18.363 6.13537 18.3531 5.95435C18.3171 5.35381 18.4192 4.75301 18.6518 4.19813C18.8843 3.64326 19.2409 3.14908 19.6943 2.7536C20.1476 2.35812 20.6856 2.07187 21.267 1.91684C21.8483 1.76181 22.4574 1.74214 23.0475 1.85935L20.7375 4.16935C20.689 4.21731 20.6523 4.27585 20.6303 4.34037C20.6083 4.4049 20.6015 4.47365 20.6106 4.54122L20.9212 6.70685C20.9345 6.80077 20.978 6.88782 21.045 6.9549C21.1121 7.02197 21.1992 7.06543 21.2931 7.07872L23.4587 7.38935C23.5263 7.39838 23.595 7.39163 23.6596 7.36961C23.7241 7.3476 23.7826 7.31093 23.8306 7.26247L26.1406 4.95247C26.2578 5.54256 26.2381 6.15167 26.0831 6.73297C25.9281 7.31428 25.6418 7.85229 25.2463 8.30566C24.8508 8.75902 24.3567 9.11567 23.8018 9.34817C23.2469 9.58068 22.6461 9.68285 22.0456 9.64685C21.8646 9.63733 21.6837 9.66634 21.5147 9.73195C21.3458 9.79757 21.1927 9.89829 21.0656 10.0275L20.4968 10.5962L19.2587 9.3581C18.9251 9.03983 18.4817 8.86226 18.0206 8.86226C17.5595 8.86226 17.1161 9.03983 16.7825 9.3581L16.1656 8.74122L17.9725 6.93435ZM12.4512 7.5031C12.6186 7.34505 12.8401 7.257 13.0703 7.257C13.3005 7.257 13.522 7.34505 13.6893 7.5031L16.1656 9.97935L14.9275 11.2175L12.4512 8.74122C12.2883 8.57637 12.1969 8.35394 12.1969 8.12216C12.1969 7.89038 12.2883 7.66795 12.4512 7.5031ZM10.2856 9.05185C10.4519 8.89181 10.6738 8.80241 10.9046 8.80241C11.1355 8.80241 11.3574 8.89181 11.5237 9.05185L14.3106 11.8343L14.3631 11.9C14.281 12.0729 14.2384 12.262 14.2384 12.4534C14.2384 12.6449 14.281 12.8339 14.3631 13.0068L14.3106 13.0725C14.1432 13.2305 13.9217 13.3186 13.6915 13.3186C13.4613 13.3186 13.2398 13.2305 13.0725 13.0725L11.9875 11.9875L10.2856 10.2856C10.2045 10.2046 10.1401 10.1085 10.0962 10.0026C10.0523 9.89679 10.0297 9.78332 10.0297 9.66872C10.0297 9.55412 10.0523 9.44065 10.0962 9.3348C10.1401 9.22895 10.2045 9.1328 10.2856 9.05185ZM9.05183 11.5237C9.21577 11.3608 9.43754 11.2693 9.66871 11.2693C9.89987 11.2693 10.1216 11.3608 10.2856 11.5237L11.3706 12.6087L12.4512 13.6893H12.4556L13.0725 14.3106C13.2366 14.4748 13.3289 14.6975 13.3289 14.9297C13.3289 15.1619 13.2366 15.3845 13.0725 15.5487C12.9083 15.7129 12.6856 15.8051 12.4534 15.8051C12.2212 15.8051 11.9985 15.7129 11.8343 15.5487L9.35808 13.0725L9.05183 12.7618C8.97048 12.6806 8.90594 12.5841 8.8619 12.4779C8.81787 12.3716 8.7952 12.2578 8.7952 12.1428C8.7952 12.0278 8.81787 11.9139 8.8619 11.8077C8.90594 11.7015 8.97048 11.605 9.05183 11.5237ZM7.24496 14.3106C7.2446 14.1951 7.26724 14.0807 7.31155 13.974C7.35587 13.8674 7.42098 13.7706 7.50308 13.6893C7.66756 13.5273 7.88904 13.4362 8.11996 13.4356C8.23518 13.4344 8.34948 13.4563 8.45615 13.4999C8.56283 13.5434 8.65974 13.6079 8.74121 13.6893L11.2175 16.1656L11.5237 16.4762C11.6879 16.6404 11.7801 16.8631 11.7801 17.0953C11.7801 17.3275 11.6879 17.5502 11.5237 17.7143C11.3595 17.8785 11.1368 17.9708 10.9046 17.9708C10.6724 17.9708 10.4498 17.8785 10.2856 17.7143L7.50308 14.9275C7.42139 14.8468 7.3565 14.7508 7.3122 14.6449C7.26789 14.539 7.24503 14.4254 7.24496 14.3106ZM17.4037 24.8281L12.4512 19.88L17.0931 15.2381C17.175 15.1555 17.221 15.0438 17.221 14.9275C17.221 14.8111 17.175 14.6994 17.0931 14.6168C17.0111 14.5354 16.9002 14.4896 16.7846 14.4896C16.6691 14.4896 16.5582 14.5354 16.4762 14.6168L9.95746 21.1356C9.82848 21.2629 9.72789 21.416 9.66229 21.5849C9.59669 21.7538 9.56757 21.9346 9.57683 22.1156C9.58121 22.1943 9.58558 22.2731 9.58558 22.3518C9.58558 23.3954 9.17134 24.3962 8.43386 25.1345C7.69638 25.8728 6.69599 26.2882 5.65246 26.2893H5.63933C4.59504 26.2888 3.59375 25.8734 2.85574 25.1345C2.11772 24.3957 1.70344 23.3939 1.70402 22.3497C1.7046 21.3054 2.12 20.3041 2.85883 19.5661C3.59767 18.8281 4.59942 18.4138 5.64371 18.4143C5.70933 18.4143 5.80558 18.4187 5.88433 18.4231C6.06517 18.4313 6.24575 18.4018 6.4145 18.3362C6.58325 18.2707 6.73646 18.1706 6.86433 18.0425L8.11996 16.7825L9.66871 18.3312C9.93884 18.6032 10.291 18.7786 10.6708 18.8303C11.0506 18.8821 11.4369 18.8074 11.7699 18.6177C12.103 18.428 12.3644 18.1339 12.5136 17.7809C12.6628 17.4278 12.6916 17.0354 12.5956 16.6643C12.8785 16.6435 13.152 16.5535 13.392 16.4023C13.632 16.251 13.8312 16.0431 13.9721 15.7969C14.1129 15.5506 14.1911 15.2735 14.1998 14.9899C14.2085 14.7064 14.1474 14.425 14.0218 14.1706C14.3657 14.1063 14.6817 13.9384 14.9275 13.6893C14.9406 13.6806 14.945 13.6675 14.9581 13.6587C15.3793 13.9364 15.8832 14.0605 16.3851 14.0104C16.8871 13.9602 17.3565 13.7387 17.7143 13.3831C17.7971 13.3031 17.9077 13.2583 18.0228 13.2583C18.1379 13.2583 18.2485 13.3031 18.3312 13.3831C18.3719 13.423 18.4041 13.4707 18.4259 13.5233C18.4477 13.5759 18.4586 13.6324 18.4581 13.6893C18.4587 13.747 18.4477 13.8041 18.4259 13.8574C18.4042 13.9108 18.372 13.9592 18.3312 14L18.0206 14.3106C17.4469 14.8853 17.1248 15.6642 17.1248 16.4762C17.1248 17.2883 17.4469 18.0671 18.0206 18.6418L18.3312 18.9481C18.3711 18.9896 18.419 19.0227 18.472 19.0452C18.525 19.0678 18.582 19.0794 18.6396 19.0794C18.6972 19.0794 18.7543 19.0678 18.8073 19.0452C18.8603 19.0227 18.9082 18.9896 18.9481 18.9481C19.0296 18.8661 19.0753 18.7552 19.0753 18.6397C19.0753 18.5241 19.0296 18.4132 18.9481 18.3312L18.6418 18.0206C18.2317 17.6104 18.0014 17.0541 18.0014 16.474C18.0014 15.894 18.2317 15.3377 18.6418 14.9275L18.9481 14.6168C19.0701 14.4952 19.1669 14.3506 19.233 14.1914C19.299 14.0323 19.333 13.8617 19.333 13.6893C19.333 13.517 19.299 13.3464 19.233 13.1872C19.1669 13.0281 19.0701 12.8835 18.9481 12.7618C18.698 12.5238 18.3659 12.391 18.0206 12.391C17.6753 12.391 17.3432 12.5238 17.0931 12.7618C16.847 13.0076 16.5134 13.1457 16.1656 13.1457C15.8178 13.1457 15.4842 13.0076 15.2381 12.7618C15.1566 12.6799 15.1109 12.569 15.1109 12.4534C15.1109 12.3378 15.1566 12.2269 15.2381 12.145L17.4037 9.97935C17.5701 9.81931 17.7919 9.72991 18.0228 9.72991C18.2536 9.72991 18.4755 9.81931 18.6418 9.97935L20.6018 11.935C21.0914 12.4307 21.401 13.076 21.4812 13.7681L21.7962 16.5768C21.9065 17.5675 22.3206 18.4997 22.9818 19.2456L17.4037 24.8281Z" fill="#0099DA"/>
</svg>
