<svg width="420" height="250" viewBox="0 0 420 250" fill="none" xmlns="http://www.w3.org/2000/svg">
<rect width="420" height="250" rx="10" fill="#F1F3F8"/>
<path fill-rule="evenodd" clip-rule="evenodd" d="M193.667 120.438V120.037C193.667 111.18 200.979 104 210 104V104C219.021 104 226.334 111.18 226.334 120.037V120.438C226.334 128.514 215.92 140.671 211.723 145.244C210.799 146.252 209.202 146.252 208.277 145.244C204.081 140.671 193.667 128.514 193.667 120.438Z" stroke="#C7CBCF" stroke-width="3" stroke-linecap="round" stroke-linejoin="round"/>
<path d="M203 120.398C203 124.23 206.132 127.333 210 127.333V127.333C213.868 127.333 217 124.23 217 120.398V120.269C217 116.437 213.868 113.333 210 113.333V113.333C206.132 113.333 203 116.437 203 120.269" stroke="#C7CBCF" stroke-width="3" stroke-linecap="round" stroke-linejoin="round"/>
</svg>
