<svg width="20" height="20" viewBox="0 0 20 20" fill="none" xmlns="http://www.w3.org/2000/svg">
<path fill-rule="evenodd" clip-rule="evenodd" d="M2.00256 4.78152C1.94883 6.69861 2.72752 9.90956 6.30847 13.4905C9.88941 17.0714 13.1004 17.8501 15.0175 17.7964C15.8816 17.7722 16.7093 17.2318 17.5622 16.3789C17.91 16.0311 17.8691 15.456 17.4757 15.1609L14.8743 13.2099C14.4762 12.9113 13.9191 12.9509 13.5672 13.3028L13.3401 13.5299C12.8294 14.0407 11.8277 14.7431 10.6623 14.2508C9.89501 13.9266 8.91214 13.2657 7.72268 12.0763C6.53322 10.8868 5.87235 9.90396 5.5482 9.1367C5.05586 7.97131 5.7583 6.96961 6.26906 6.45884L6.49614 6.23176C6.84803 5.87987 6.88762 5.32278 6.58903 4.92466L4.63803 2.32332C4.34295 1.92988 3.76783 1.88901 3.42007 2.23676C2.56719 3.08965 2.02678 3.91741 2.00256 4.78152ZM4.89425 14.9047C0.976511 10.987 -0.0677427 7.2617 0.00334312 4.72549C0.0500161 3.06025 1.06952 1.75889 2.00586 0.822549C3.21423 -0.385819 5.21269 -0.243798 6.23803 1.12332L8.18903 3.72465C9.0848 4.91901 8.96603 6.5903 7.91035 7.64598L7.68327 7.87305C7.52492 8.03141 7.43796 8.168 7.4025 8.2615C7.37683 8.32917 7.38535 8.34726 7.38961 8.35632L7.39054 8.35836C7.58208 8.81175 8.0603 9.58548 9.13689 10.6621C10.2135 11.7387 10.9872 12.2169 11.4406 12.4084L11.4427 12.4094C11.4517 12.4136 11.4698 12.4221 11.5375 12.3965C11.631 12.361 11.7676 12.274 11.9259 12.1157L12.153 11.8886C13.2087 10.8329 14.88 10.7142 16.0743 11.6099L18.6757 13.5609C20.0428 14.5863 20.1848 16.5847 18.9764 17.7931C18.0401 18.7295 16.7387 19.749 15.0735 19.7956C12.5373 19.8667 8.812 18.8225 4.89425 14.9047Z" fill="#7E7E3F"/>
</svg>
