<svg width="32" height="32" viewBox="0 0 32 32" fill="none" xmlns="http://www.w3.org/2000/svg">
<rect width="32" height="32" rx="4" fill="#00AFF0"/>
<path d="M25.2921 17.6655C25.2858 17.7007 25.2813 17.7361 25.2747 17.7713L25.2405 17.5699C25.2592 17.6012 25.2747 17.6338 25.2921 17.6655C25.3954 17.1036 25.4495 16.5284 25.4495 15.9536C25.4495 14.6787 25.1999 13.4419 24.7068 12.2776C24.2311 11.1529 23.5504 10.1428 22.6826 9.27561C21.816 8.4084 20.8053 7.72775 19.6812 7.25202C18.5172 6.7595 17.2804 6.50991 16.0055 6.50991C15.4047 6.50991 14.8029 6.56629 14.2173 6.67873C14.216 6.67905 14.2144 6.67905 14.2128 6.67936C14.2458 6.69679 14.279 6.7123 14.3113 6.73036L14.1128 6.69932C14.146 6.69298 14.1796 6.68602 14.2128 6.67936C13.4093 6.25209 12.5057 6.02405 11.5909 6.02405C10.0976 6.02405 8.69348 6.60557 7.6375 7.66187C6.58184 8.71785 6 10.1219 6 11.6153C6 12.5658 6.24452 13.5002 6.70346 14.3259C6.70948 14.2917 6.7136 14.2572 6.72025 14.223L6.75445 14.4209C6.73672 14.3899 6.7212 14.3576 6.70346 14.3259C6.61034 14.8609 6.56125 15.4075 6.56125 15.9536C6.56125 17.2287 6.81083 18.4653 7.30398 19.6299C7.77908 20.7549 8.46005 21.7643 9.32695 22.6315C10.1948 23.4987 11.2042 24.1804 12.3296 24.6548C13.4935 25.1483 14.7307 25.3982 16.0055 25.3982C16.5605 25.3982 17.1166 25.3475 17.6595 25.2512C17.6278 25.2335 17.5955 25.2173 17.5632 25.1986L17.765 25.2341C17.7301 25.2408 17.695 25.2449 17.6595 25.2512C18.496 25.7244 19.443 25.9759 20.41 25.9759C21.9031 25.9759 23.3065 25.3953 24.3625 24.3387C25.4188 23.2834 26 21.879 26 20.3856C26 19.4319 25.7542 18.4944 25.2921 17.6655ZM16.0432 21.7374C12.6881 21.7374 11.1871 20.0879 11.1871 18.8517C11.1871 18.2176 11.6552 17.7732 12.3004 17.7732C13.7362 17.7732 13.3643 19.8348 16.0432 19.8348C17.4147 19.8348 18.172 19.0902 18.172 18.3281C18.172 17.8698 17.9458 17.3618 17.0428 17.1391L14.0586 16.3941C11.6552 15.7914 11.2191 14.4922 11.2191 13.2709C11.2191 10.7351 13.6066 9.78302 15.8488 9.78302C17.9142 9.78302 20.3489 10.9245 20.3489 12.4458C20.3489 13.0976 19.7845 13.4767 19.1396 13.4767C17.9142 13.4767 18.1397 11.7806 15.6714 11.7806C14.4466 11.7806 13.7682 12.3352 13.7682 13.129C13.7682 13.9211 14.7355 14.1742 15.5754 14.3655L17.7843 14.8558C20.2038 15.3949 20.8173 16.8075 20.8173 18.1381C20.8173 20.1987 19.2356 21.7374 16.0432 21.7374ZM17.5632 25.1986C17.5955 25.2173 17.6278 25.2335 17.6595 25.2512C17.695 25.2449 17.7301 25.2408 17.765 25.2341L17.5632 25.1986ZM25.2747 17.7713C25.2813 17.7361 25.2858 17.7007 25.2921 17.6655C25.2747 17.6338 25.2592 17.6012 25.2405 17.5699L25.2747 17.7713ZM6.72025 14.223C6.7136 14.2572 6.70948 14.2917 6.70346 14.3259C6.7212 14.3576 6.73672 14.3899 6.75445 14.4209L6.72025 14.223ZM14.3113 6.73036C14.279 6.7123 14.2458 6.69679 14.2128 6.67936C14.1796 6.68602 14.146 6.69298 14.1128 6.69932L14.3113 6.73036Z" fill="white"/>
</svg>
