<svg width="32" height="32" viewBox="0 0 32 32" fill="none" xmlns="http://www.w3.org/2000/svg">
<rect width="32" height="32" rx="4" fill="#1DA1F2"/>
<path d="M23.84 12.5416C23.84 12.7166 23.84 12.8916 23.84 13.0416C23.84 18.2166 19.89 24.1916 12.69 24.1916C10.465 24.1916 8.41504 23.5416 6.66504 22.4416C6.96504 22.4666 7.29004 22.4916 7.59004 22.4916C9.41504 22.4916 11.115 21.8666 12.465 20.8166C10.74 20.7916 9.29004 19.6416 8.81504 18.0916C9.06504 18.1416 9.29004 18.1666 9.56504 18.1666C9.91504 18.1666 10.265 18.1166 10.59 18.0166C8.79004 17.6666 7.44004 16.0916 7.44004 14.1916C7.44004 14.1666 7.44004 14.1666 7.44004 14.1416C7.96504 14.4416 8.56504 14.6166 9.21504 14.6416C8.16504 13.9416 7.46504 12.7416 7.46504 11.3666C7.46504 10.6416 7.66504 9.96663 7.99004 9.39163C9.91504 11.7666 12.815 13.3166 16.065 13.4916C15.99 13.2166 15.965 12.8916 15.965 12.5916C15.965 10.4166 17.715 8.66663 19.89 8.66663C21.015 8.66663 22.04 9.14163 22.74 9.89163C23.64 9.71663 24.465 9.39163 25.24 8.94163C24.94 9.86663 24.315 10.6166 23.515 11.1166C24.315 11.0166 25.065 10.8166 25.765 10.4916C25.265 11.2916 24.615 11.9916 23.84 12.5416Z" fill="white"/>
</svg>
