<svg width="420" height="250" viewBox="0 0 420 250" fill="none" xmlns="http://www.w3.org/2000/svg">
<rect width="420" height="250" rx="10" fill="#F1F3F8"/>
<path d="M240.607 110.977C239.873 108.209 238.264 105.867 235.506 105.131C230.508 103.789 210 103.667 210 103.667C210 103.667 189.492 103.789 184.494 105.131C181.736 105.867 180.136 108.209 179.393 110.977C178.056 115.992 178 126.333 178 126.333C178 126.333 178.056 136.675 179.393 141.69C180.127 144.457 181.736 146.799 184.494 147.536C189.492 148.877 210 149 210 149C210 149 230.508 148.877 235.506 147.536C238.264 146.799 239.873 144.457 240.607 141.69C241.944 136.675 242 126.333 242 126.333C242 126.333 241.944 115.992 240.607 110.977Z" fill="#D9DBE0"/>
<path d="M220.667 126.333L204.667 117V135.667" fill="white"/>
</svg>
