<svg width="32" height="32" viewBox="0 0 32 32" fill="none" xmlns="http://www.w3.org/2000/svg">
<rect width="32" height="32" rx="4" fill="#5181B8"/>
<path fill-rule="evenodd" clip-rule="evenodd" d="M26.1788 11.0227C26.3272 10.5282 26.1788 10.1648 25.473 10.1648H23.1391C22.5456 10.1648 22.2722 10.4787 22.1239 10.8249C22.1239 10.8249 20.9369 13.7178 19.2555 15.5969C18.7116 16.1409 18.4644 16.3137 18.1676 16.3137C18.0193 16.3137 17.8045 16.1409 17.8045 15.6464V11.0227C17.8045 10.4292 17.6323 10.1648 17.1377 10.1648H13.4702C13.0994 10.1648 12.8764 10.4402 12.8764 10.7013C12.8764 11.2639 13.7169 11.3936 13.8036 12.976V16.4129C13.8036 17.1664 13.6676 17.3031 13.3708 17.3031C12.5797 17.3031 10.6552 14.3971 9.5136 11.0722C9.28988 10.4259 9.0655 10.1648 8.46903 10.1648H6.13515C5.46833 10.1648 5.33496 10.4787 5.33496 10.8249C5.33496 11.4431 6.12631 14.5091 9.01915 18.5641C10.9479 21.3331 13.6649 22.8344 16.1375 22.8344C17.6212 22.8344 17.8045 22.501 17.8045 21.9267V19.8337C17.8045 19.1669 17.9451 19.0339 18.4147 19.0339C18.7611 19.0339 19.3544 19.2069 20.7392 20.542C22.3216 22.1243 22.5823 22.8344 23.4725 22.8344H25.8064C26.4732 22.8344 26.8066 22.501 26.6143 21.843C26.4039 21.1872 25.6484 20.236 24.6458 19.108C24.1018 18.4651 23.2858 17.7727 23.0388 17.4267C22.6925 16.9816 22.7914 16.7838 23.0388 16.3884C23.0388 16.3884 25.8821 12.3828 26.1788 11.0228V11.0227Z" fill="white"/>
</svg>
