<svg width="32" height="32" viewBox="0 0 32 32" fill="none" xmlns="http://www.w3.org/2000/svg">
<rect width="32" height="32" rx="4" fill="#0DC143"/>
<path d="M23.1657 8.8077C21.4503 7.04193 19.0792 6.08337 16.6576 6.08337C11.5116 6.08337 7.37467 10.2708 7.42512 15.3663C7.42512 16.9807 7.87917 18.5446 8.63593 19.9572L7.32422 24.75L12.2179 23.4888C13.5801 24.2455 15.0936 24.5987 16.6071 24.5987C21.7026 24.5987 25.8395 20.4113 25.8395 15.3158C25.8395 12.8437 24.881 10.523 23.1657 8.8077ZM16.6576 23.0347C15.2954 23.0347 13.9332 22.6816 12.7729 21.9753L12.4702 21.8239L9.54404 22.5807L10.3008 19.705L10.099 19.4023C7.87917 15.8203 8.93863 11.078 12.5711 8.85815C16.2035 6.63833 20.8954 7.69779 23.1152 11.3302C25.335 14.9627 24.2756 19.6545 20.6431 21.8744C19.4828 22.6311 18.0702 23.0347 16.6576 23.0347ZM21.0972 17.4347L20.5422 17.1825C20.5422 17.1825 19.735 16.8293 19.2305 16.5771C19.1801 16.5771 19.1296 16.5266 19.0792 16.5266C18.9278 16.5266 18.8269 16.5771 18.726 16.6275C18.726 16.6275 18.6756 16.678 17.9693 17.4852C17.9188 17.5861 17.8179 17.6365 17.717 17.6365H17.6666C17.6161 17.6365 17.5152 17.5861 17.4648 17.5356L17.2125 17.4347C16.6576 17.1825 16.153 16.8798 15.7494 16.4762C15.6485 16.3753 15.4972 16.2744 15.3963 16.1735C15.0431 15.8203 14.69 15.4167 14.4377 14.9627L14.3873 14.8618C14.3368 14.8113 14.3368 14.7609 14.2864 14.66C14.2864 14.5591 14.2864 14.4581 14.3368 14.4077C14.3368 14.4077 14.5386 14.1554 14.69 14.0041C14.7909 13.9032 14.8413 13.7518 14.9422 13.6509C15.0431 13.4996 15.0936 13.2978 15.0431 13.1464C14.9927 12.8942 14.3873 11.532 14.2359 11.2293C14.135 11.078 14.0341 11.0275 13.8828 10.9771H13.7314C13.6305 10.9771 13.4792 10.9771 13.3278 10.9771C13.2269 10.9771 13.126 11.0275 13.0251 11.0275L12.9747 11.078C12.8738 11.1284 12.7729 11.2293 12.672 11.2798C12.5711 11.3807 12.5206 11.4816 12.4197 11.5825C12.0666 12.0365 11.8648 12.5915 11.8648 13.1464C11.8648 13.55 11.9657 13.9536 12.117 14.3068L12.1675 14.4581C12.6215 15.4167 13.2269 16.2744 14.0341 17.0311L14.2359 17.2329C14.3873 17.3843 14.5386 17.4852 14.6395 17.6365C15.699 18.5446 16.9098 19.2005 18.272 19.5536C18.4233 19.6041 18.6251 19.6041 18.7765 19.6545C18.9278 19.6545 19.1296 19.6545 19.281 19.6545C19.5332 19.6545 19.8359 19.5536 20.0377 19.4527C20.1891 19.3518 20.29 19.3518 20.3909 19.2509L20.4918 19.15C20.5927 19.0491 20.6936 18.9987 20.7945 18.8978C20.8954 18.7969 20.9963 18.696 21.0467 18.5951C21.1476 18.3933 21.1981 18.141 21.2485 17.8888C21.2485 17.7879 21.2485 17.6365 21.2485 17.5356C21.2485 17.5356 21.1981 17.4852 21.0972 17.4347Z" fill="white"/>
</svg>
