<svg width="40" height="40" viewBox="0 0 40 40" fill="none" xmlns="http://www.w3.org/2000/svg">
<path d="M27.6012 12.3985C27.8569 12.6542 27.8569 13.0687 27.6012 13.3244C27.3455 13.5801 26.931 13.5801 26.6753 13.3244C26.4196 13.0687 26.4196 12.6542 26.6753 12.3985C26.931 12.1428 27.3455 12.1428 27.6012 12.3985" stroke="#7E7E3F" stroke-width="2.5" stroke-linecap="round" stroke-linejoin="round"/>
<path d="M27.6012 12.3985C27.8569 12.6542 27.8569 13.0687 27.6012 13.3244C27.3455 13.5801 26.931 13.5801 26.6753 13.3244C26.4196 13.0687 26.4196 12.6542 26.6753 12.3985C26.931 12.1428 27.3455 12.1428 27.6012 12.3985" stroke="#FB5314" stroke-width="2.5" stroke-linecap="round" stroke-linejoin="round"/>
<path fill-rule="evenodd" clip-rule="evenodd" d="M23.5504 5H31.2888C33.3394 5 35 6.66061 35 8.70947V16.4478C35 17.4325 34.6082 18.3749 33.9129 19.072L19.0715 33.9134C17.6227 35.3622 15.2738 35.3622 13.825 33.9134L6.08663 26.175C4.63779 24.7262 4.63779 22.3773 6.08663 20.9285L20.928 6.08707C21.6233 5.39177 22.5675 5 23.5504 5Z" stroke="#7E7E3F" stroke-width="2.5" stroke-linecap="round" stroke-linejoin="round"/>
<path fill-rule="evenodd" clip-rule="evenodd" d="M23.5504 5H31.2888C33.3394 5 35 6.66061 35 8.70947V16.4478C35 17.4325 34.6082 18.3749 33.9129 19.072L19.0715 33.9134C17.6227 35.3622 15.2738 35.3622 13.825 33.9134L6.08663 26.175C4.63779 24.7262 4.63779 22.3773 6.08663 20.9285L20.928 6.08707C21.6233 5.39177 22.5675 5 23.5504 5Z" stroke="#FB5314" stroke-width="2.5" stroke-linecap="round" stroke-linejoin="round"/>
<path d="M9.95801 17.0703L22.9288 30.0411" stroke="#7E7E3F" stroke-width="2.5" stroke-linecap="round" stroke-linejoin="round"/>
<path d="M9.95801 17.0703L22.9288 30.0411" stroke="#FB5314" stroke-width="2.5" stroke-linecap="round" stroke-linejoin="round"/>
</svg>
