<svg width="470" height="263" viewBox="0 0 470 263" fill="none" xmlns="http://www.w3.org/2000/svg">
<g filter="url(#filter0_d)">
<mask id="path-1-inside-1" fill="white">
<path fill-rule="evenodd" clip-rule="evenodd" d="M28 15C23.5817 15 20 18.5817 20 23V225C20 229.418 23.5817 233 28 233H419.787L424.222 237.435C424.613 237.826 425.246 237.826 425.636 237.435L430.071 233H442C446.418 233 450 229.418 450 225V23C450 18.5817 446.418 15 442 15H28Z"/>
</mask>
<path fill-rule="evenodd" clip-rule="evenodd" d="M28 15C23.5817 15 20 18.5817 20 23V225C20 229.418 23.5817 233 28 233H419.787L424.222 237.435C424.613 237.826 425.246 237.826 425.636 237.435L430.071 233H442C446.418 233 450 229.418 450 225V23C450 18.5817 446.418 15 442 15H28Z" fill="white"/>
<path d="M419.787 233L420.494 232.293L420.201 232H419.787V233ZM424.222 237.435L423.515 238.142V238.142L424.222 237.435ZM425.636 237.435L426.343 238.142V238.142L425.636 237.435ZM430.071 233V232H429.657L429.364 232.293L430.071 233ZM21 23C21 19.134 24.134 16 28 16V14C23.0294 14 19 18.0294 19 23H21ZM21 225V23H19V225H21ZM28 232C24.134 232 21 228.866 21 225H19C19 229.971 23.0294 234 28 234V232ZM419.787 232H28V234H419.787V232ZM424.929 236.728L420.494 232.293L419.08 233.707L423.515 238.142L424.929 236.728ZM424.929 236.728H424.929L423.515 238.142C424.296 238.923 425.562 238.923 426.343 238.142L424.929 236.728ZM429.364 232.293L424.929 236.728L426.343 238.142L430.778 233.707L429.364 232.293ZM442 232H430.071V234H442V232ZM449 225C449 228.866 445.866 232 442 232V234C446.971 234 451 229.971 451 225H449ZM449 23V225H451V23H449ZM442 16C445.866 16 449 19.134 449 23H451C451 18.0294 446.971 14 442 14V16ZM28 16H442V14H28V16Z" fill="#F1F3F8" mask="url(#path-1-inside-1)"/>
</g>
<defs>
<filter id="filter0_d" x="0" y="0" width="470" height="262.728" filterUnits="userSpaceOnUse" color-interpolation-filters="sRGB">
<feFlood flood-opacity="0" result="BackgroundImageFix"/>
<feColorMatrix in="SourceAlpha" type="matrix" values="0 0 0 0 0 0 0 0 0 0 0 0 0 0 0 0 0 0 127 0"/>
<feOffset dy="5"/>
<feGaussianBlur stdDeviation="10"/>
<feColorMatrix type="matrix" values="0 0 0 0 0 0 0 0 0 0 0 0 0 0 0 0 0 0 0.1 0"/>
<feBlend mode="normal" in2="BackgroundImageFix" result="effect1_dropShadow"/>
<feBlend mode="normal" in="SourceGraphic" in2="effect1_dropShadow" result="shape"/>
</filter>
</defs>
</svg>
