<svg width="18" height="16" viewBox="0 0 18 16" fill="none" xmlns="http://www.w3.org/2000/svg">
<g clip-path="url(#clip0)">
<path d="M5.23 9.27853C5.71717 9.27922 6.20387 9.24816 6.687 9.18553V4.11353C6.20389 4.0506 5.71719 4.0192 5.23 4.01953C2.341 4.01953 0 5.08153 0 6.39153V6.90553C0 8.21653 2.341 9.27853 5.23 9.27853Z" fill="#C7CBCF"/>
<path d="M5.23 11.9267C5.71717 11.9273 6.20387 11.8963 6.687 11.8337V10.3467C6.20389 10.4096 5.71719 10.441 5.23 10.4407C2.709 10.4407 0.6 9.63169 0.11 8.55469C0.0386111 8.70647 0.00107754 8.87196 0 9.03969L0 9.55369C0 10.8647 2.341 11.9267 5.23 11.9267Z" fill="#C7CBCF"/>
<path d="M6.687 13.1112V13.0002C6.20389 13.0631 5.71719 13.0945 5.23 13.0942C2.709 13.0892 0.6 12.2802 0.11 11.2002C0.0384392 11.3523 0.000900523 11.5181 0 11.6862L0 12.2002C0 13.5102 2.341 14.5722 5.23 14.5722C5.78324 14.5731 6.33578 14.5326 6.883 14.4512C6.75341 14.1939 6.68496 13.9102 6.683 13.6222L6.687 13.1112Z" fill="#C7CBCF"/>
<path d="M12.77 0C9.88204 0 7.54004 1.062 7.54004 2.372V2.886C7.54004 4.196 9.88104 5.258 12.77 5.258C15.659 5.258 18 4.2 18 2.889V2.375C18 1.065 15.659 0 12.77 0Z" fill="#C7CBCF"/>
<path d="M12.77 6.42311C10.249 6.42311 8.14504 5.61411 7.65004 4.53711C7.57851 4.6892 7.54097 4.85504 7.54004 5.02311V5.53711C7.54004 6.84711 9.88104 7.90911 12.77 7.90911C15.659 7.90911 18 6.84811 18 5.53811V5.02311C17.9991 4.85504 17.9616 4.68919 17.89 4.53711C17.4 5.61411 15.291 6.42311 12.77 6.42311Z" fill="#C7CBCF"/>
<path d="M12.77 9.07157C10.249 9.07157 8.14504 8.26257 7.65004 7.18557C7.57851 7.33766 7.54097 7.5035 7.54004 7.67157V8.18557C7.54004 9.49557 9.88104 10.5576 12.77 10.5576C15.659 10.5576 18 9.49957 18 8.18557V7.67057C17.9991 7.5025 17.9616 7.33665 17.89 7.18457C17.4 8.26157 15.291 9.07157 12.77 9.07157Z" fill="#C7CBCF"/>
<path d="M12.77 11.8626C10.249 11.8626 8.14504 11.0536 7.65004 9.97656C7.57851 10.1287 7.54097 10.2945 7.54004 10.4626V10.9766C7.54004 12.2866 9.88104 13.3486 12.77 13.3486C15.659 13.3486 18 12.2866 18 10.9766V10.4626C17.9991 10.2945 17.9616 10.1286 17.89 9.97656C17.4 11.0536 15.291 11.8626 12.77 11.8626Z" fill="#C7CBCF"/>
<path d="M12.77 14.511C10.249 14.511 8.14504 13.702 7.65004 12.625C7.57851 12.7771 7.54097 12.9429 7.54004 13.111V13.625C7.54004 14.935 9.88104 15.997 12.77 15.997C15.659 15.997 18 14.935 18 13.625V13.111C17.9991 12.9429 17.9616 12.7771 17.89 12.625C17.4 13.7 15.291 14.511 12.77 14.511Z" fill="#C7CBCF"/>
</g>
<defs>
<clipPath id="clip0">
<rect width="18" height="15.997" fill="white"/>
</clipPath>
</defs>
</svg>
