<svg width="24" height="24" viewBox="0 0 24 24" fill="none" xmlns="http://www.w3.org/2000/svg">
<path fill-rule="evenodd" clip-rule="evenodd" d="M15.25 3.5H18.75C19.7169 3.5 20.5 4.28312 20.5 5.25V8.75C20.5 9.71688 19.7169 10.5 18.75 10.5H15.25C14.2831 10.5 13.5 9.71688 13.5 8.75V5.25C13.5 4.28312 14.2831 3.5 15.25 3.5Z" stroke="#222222" stroke-width="1.5" stroke-linecap="round" stroke-linejoin="round"/>
<path fill-rule="evenodd" clip-rule="evenodd" d="M5.25 13.5H8.75C9.71688 13.5 10.5 14.2831 10.5 15.25V18.75C10.5 19.7169 9.71688 20.5 8.75 20.5H5.25C4.28312 20.5 3.5 19.7169 3.5 18.75V15.25C3.5 14.2831 4.28312 13.5 5.25 13.5Z" stroke="#222222" stroke-width="1.5" stroke-linecap="round" stroke-linejoin="round"/>
<path fill-rule="evenodd" clip-rule="evenodd" d="M15.25 13.5H18.75C19.7169 13.5 20.5 14.2831 20.5 15.25V18.75C20.5 19.7169 19.7169 20.5 18.75 20.5H15.25C14.2831 20.5 13.5 19.7169 13.5 18.75V15.25C13.5 14.2831 14.2831 13.5 15.25 13.5Z" stroke="#222222" stroke-width="1.5" stroke-linecap="round" stroke-linejoin="round"/>
<path fill-rule="evenodd" clip-rule="evenodd" d="M3.5 8.75V5.25C3.5 4.28312 4.28312 3.5 5.25 3.5H8.75C9.71688 3.5 10.5 4.28312 10.5 5.25V8.75C10.5 9.71688 9.71688 10.5 8.75 10.5H5.25C4.28312 10.5 3.5 9.71688 3.5 8.75Z" stroke="#222222" stroke-width="1.5" stroke-linecap="round" stroke-linejoin="round"/>
</svg>
