<svg width="20" height="16" viewBox="0 0 20 16" fill="none" xmlns="http://www.w3.org/2000/svg">
<path d="M17.175 3.875C17.175 4.05 17.175 4.225 17.175 4.375C17.175 9.55 13.225 15.525 6.025 15.525C3.8 15.525 1.75 14.875 0 13.775C0.3 13.8 0.625 13.825 0.925 13.825C2.75 13.825 4.45 13.2 5.8 12.15C4.075 12.125 2.625 10.975 2.15 9.425C2.4 9.475 2.625 9.5 2.9 9.5C3.25 9.5 3.6 9.45 3.925 9.35C2.125 9 0.775 7.425 0.775 5.525C0.775 5.5 0.775 5.5 0.775 5.475C1.3 5.775 1.9 5.95 2.55 5.975C1.5 5.275 0.8 4.075 0.8 2.7C0.8 1.975 1 1.3 1.325 0.725C3.25 3.1 6.15 4.65 9.4 4.825C9.325 4.55 9.3 4.225 9.3 3.925C9.3 1.75 11.05 0 13.225 0C14.35 0 15.375 0.475 16.075 1.225C16.975 1.05 17.8 0.725 18.575 0.275C18.275 1.2 17.65 1.95 16.85 2.45C17.65 2.35 18.4 2.15 19.1 1.825C18.6 2.625 17.95 3.325 17.175 3.875Z" fill="#7E7E3F"/>
<path d="M17.175 3.875C17.175 4.05 17.175 4.225 17.175 4.375C17.175 9.55 13.225 15.525 6.025 15.525C3.8 15.525 1.75 14.875 0 13.775C0.3 13.8 0.625 13.825 0.925 13.825C2.75 13.825 4.45 13.2 5.8 12.15C4.075 12.125 2.625 10.975 2.15 9.425C2.4 9.475 2.625 9.5 2.9 9.5C3.25 9.5 3.6 9.45 3.925 9.35C2.125 9 0.775 7.425 0.775 5.525C0.775 5.5 0.775 5.5 0.775 5.475C1.3 5.775 1.9 5.95 2.55 5.975C1.5 5.275 0.8 4.075 0.8 2.7C0.8 1.975 1 1.3 1.325 0.725C3.25 3.1 6.15 4.65 9.4 4.825C9.325 4.55 9.3 4.225 9.3 3.925C9.3 1.75 11.05 0 13.225 0C14.35 0 15.375 0.475 16.075 1.225C16.975 1.05 17.8 0.725 18.575 0.275C18.275 1.2 17.65 1.95 16.85 2.45C17.65 2.35 18.4 2.15 19.1 1.825C18.6 2.625 17.95 3.325 17.175 3.875Z" fill="#FB5314"/>
</svg>
