<svg width="20" height="16" viewBox="0 0 20 16" fill="none" xmlns="http://www.w3.org/2000/svg">
<path d="M17.1752 3.875C17.1752 4.05 17.1752 4.225 17.1752 4.375C17.1752 9.55 13.2252 15.525 6.02524 15.525C3.80024 15.525 1.75024 14.875 0.000244141 13.775C0.300244 13.8 0.625244 13.825 0.925244 13.825C2.75024 13.825 4.45024 13.2 5.80024 12.15C4.07524 12.125 2.62524 10.975 2.15024 9.425C2.40024 9.475 2.62524 9.5 2.90024 9.5C3.25024 9.5 3.60024 9.45 3.92524 9.35C2.12524 9 0.775244 7.425 0.775244 5.525C0.775244 5.5 0.775244 5.5 0.775244 5.475C1.30024 5.775 1.90024 5.95 2.55024 5.975C1.50024 5.275 0.800244 4.075 0.800244 2.7C0.800244 1.975 1.00024 1.3 1.32524 0.725C3.25024 3.1 6.15024 4.65 9.40024 4.825C9.32524 4.55 9.30024 4.225 9.30024 3.925C9.30024 1.75 11.0502 0 13.2252 0C14.3502 0 15.3752 0.475 16.0752 1.225C16.9752 1.05 17.8002 0.725 18.5752 0.275C18.2752 1.2 17.6502 1.95 16.8502 2.45C17.6502 2.35 18.4002 2.15 19.1002 1.825C18.6002 2.625 17.9502 3.325 17.1752 3.875Z" fill="#1DA1F2"/>
</svg>
