<svg width="20" height="20" viewBox="0 0 20 20" fill="none" xmlns="http://www.w3.org/2000/svg">
<path fill-rule="evenodd" clip-rule="evenodd" d="M18.1998 4.6002L14.8998 7.9002L16.6998 16.8002C16.7998 17.1002 16.6998 17.5002 16.3998 17.7002L15.6998 18.4002C15.1998 18.9002 14.2998 18.7002 14.0998 18.1002L11.4998 11.4002L8.0998 14.8002L8.2998 17.0002C8.2998 17.3002 8.1998 17.6002 7.9998 17.8002L6.8998 18.9002L4.7998 15.4002L1.2998 13.3002L2.2998 12.0002C2.4998 11.8002 2.7998 11.7002 3.0998 11.7002L5.2998 11.9002L8.6998 8.5002L1.8998 5.9002C1.2998 5.6002 1.0998 4.8002 1.5998 4.3002L2.2998 3.6002C2.4998 3.4002 2.8998 3.3002 3.1998 3.3002L12.0998 5.1002L15.3998 1.8002C16.1998 1.0002 17.3998 1.0002 18.1998 1.8002V1.8002C18.9998 2.6002 18.9998 3.8002 18.1998 4.6002V4.6002Z" stroke="#FB5314" stroke-width="1.5" stroke-linecap="round" stroke-linejoin="round"/>
</svg>
