<svg width="24" height="24" viewBox="0 0 24 24" fill="none" xmlns="http://www.w3.org/2000/svg">
<path d="M10.7224 7.36333L11.1556 6.93015C12.3281 5.75766 14.2279 5.75766 15.4004 6.93015L19.9152 11.445C21.3668 12.8966 21.3668 15.2496 19.9152 16.7012L19.6941 16.9223C18.2425 18.3739 15.8896 18.3739 14.438 16.9223L10.9235 13.4078" stroke="#7E7E3F" stroke-width="1.5" stroke-linecap="round" stroke-linejoin="round"/>
<path d="M10.7224 7.36333L11.1556 6.93015C12.3281 5.75766 14.2279 5.75766 15.4004 6.93015L19.9152 11.445C21.3668 12.8966 21.3668 15.2496 19.9152 16.7012L19.6941 16.9223C18.2425 18.3739 15.8896 18.3739 14.438 16.9223L10.9235 13.4078" stroke="#FB5314" stroke-width="1.5" stroke-linecap="round" stroke-linejoin="round"/>
<path d="M5.49926 14.5146C4.02164 13.7763 2.99622 12.2647 2.99622 10.4999C2.99622 8.01389 5.01206 5.99805 7.49809 5.99805C9.98413 5.99805 12 8.01389 12 10.4999C12 12.2637 10.9755 13.7753 9.49892 14.5136V14.5116L9.49792 19.0075C9.49692 19.2716 9.39188 19.5247 9.2048 19.7108L8.20238 20.7132C7.81222 21.1023 7.18196 21.1013 6.7928 20.7122L5.78938 19.7068C5.6023 19.5197 5.49726 19.2656 5.49726 19.0015L5.49926 14.5126" stroke="#7E7E3F" stroke-width="1.5" stroke-linecap="round" stroke-linejoin="round"/>
<path d="M5.49926 14.5146C4.02164 13.7763 2.99622 12.2647 2.99622 10.4999C2.99622 8.01389 5.01206 5.99805 7.49809 5.99805C9.98413 5.99805 12 8.01389 12 10.4999C12 12.2637 10.9755 13.7753 9.49892 14.5136V14.5116L9.49792 19.0075C9.49692 19.2716 9.39188 19.5247 9.2048 19.7108L8.20238 20.7132C7.81222 21.1023 7.18196 21.1013 6.7928 20.7122L5.78938 19.7068C5.6023 19.5197 5.49726 19.2656 5.49726 19.0015L5.49926 14.5126" stroke="#FB5314" stroke-width="1.5" stroke-linecap="round" stroke-linejoin="round"/>
<path d="M7.49805 10.2496V5.74773C7.49805 4.2281 8.72956 2.99658 10.2492 2.99658V2.99658C11.7688 2.99658 13.0003 4.2281 13.0003 5.74773V6.06486" stroke="#7E7E3F" stroke-width="1.5" stroke-linecap="round" stroke-linejoin="round"/>
<path d="M7.49805 10.2496V5.74773C7.49805 4.2281 8.72956 2.99658 10.2492 2.99658V2.99658C11.7688 2.99658 13.0003 4.2281 13.0003 5.74773V6.06486" stroke="#FB5314" stroke-width="1.5" stroke-linecap="round" stroke-linejoin="round"/>
<path d="M7.49712 10.2496C7.35906 10.2496 7.24702 10.3617 7.24902 10.4997C7.24902 10.6378 7.36107 10.7498 7.49912 10.7498C7.63718 10.7498 7.74923 10.6378 7.74923 10.4997C7.74823 10.3617 7.63618 10.2496 7.49712 10.2496" stroke="#7E7E3F" stroke-width="1.5" stroke-linecap="round" stroke-linejoin="round"/>
<path d="M7.49712 10.2496C7.35906 10.2496 7.24702 10.3617 7.24902 10.4997C7.24902 10.6378 7.36107 10.7498 7.49912 10.7498C7.63718 10.7498 7.74923 10.6378 7.74923 10.4997C7.74823 10.3617 7.63618 10.2496 7.49712 10.2496" stroke="#FB5314" stroke-width="1.5" stroke-linecap="round" stroke-linejoin="round"/>
</svg>
