<svg width="48" height="48" viewBox="0 0 48 48" fill="none" xmlns="http://www.w3.org/2000/svg">
<path d="M34 42V8C34 6.896 33.104 6 32 6H16C14.896 6 14 6.896 14 8V42" stroke="#7E7E3F" stroke-width="2" stroke-linecap="round" stroke-linejoin="round"/>
<path d="M34 42V8C34 6.896 33.104 6 32 6H16C14.896 6 14 6.896 14 8V42" stroke="#FB5314" stroke-width="2" stroke-linecap="round" stroke-linejoin="round"/>
<path d="M14 18H6C4.896 18 4 18.896 4 20V42" stroke="#7E7E3F" stroke-width="2" stroke-linecap="round" stroke-linejoin="round"/>
<path d="M14 18H6C4.896 18 4 18.896 4 20V42" stroke="#FB5314" stroke-width="2" stroke-linecap="round" stroke-linejoin="round"/>
<path d="M44 42V20C44 18.896 43.104 18 42 18H34" stroke="#7E7E3F" stroke-width="2" stroke-linecap="round" stroke-linejoin="round"/>
<path d="M44 42V20C44 18.896 43.104 18 42 18H34" stroke="#FB5314" stroke-width="2" stroke-linecap="round" stroke-linejoin="round"/>
<path d="M19 34H29" stroke="#7E7E3F" stroke-width="2" stroke-linecap="round" stroke-linejoin="round"/>
<path d="M19 34H29" stroke="#FB5314" stroke-width="2" stroke-linecap="round" stroke-linejoin="round"/>
<path d="M27 34V42" stroke="#7E7E3F" stroke-width="2" stroke-linecap="round" stroke-linejoin="round"/>
<path d="M27 34V42" stroke="#FB5314" stroke-width="2" stroke-linecap="round" stroke-linejoin="round"/>
<path d="M21 42V34" stroke="#7E7E3F" stroke-width="2" stroke-linecap="round" stroke-linejoin="round"/>
<path d="M21 42V34" stroke="#FB5314" stroke-width="2" stroke-linecap="round" stroke-linejoin="round"/>
<path d="M20 21H28" stroke="#7E7E3F" stroke-width="2" stroke-linecap="round" stroke-linejoin="round"/>
<path d="M20 21H28" stroke="#FB5314" stroke-width="2" stroke-linecap="round" stroke-linejoin="round"/>
<path d="M20 27H28" stroke="#7E7E3F" stroke-width="2" stroke-linecap="round" stroke-linejoin="round"/>
<path d="M20 27H28" stroke="#FB5314" stroke-width="2" stroke-linecap="round" stroke-linejoin="round"/>
<path d="M20 15H28" stroke="#7E7E3F" stroke-width="2" stroke-linecap="round" stroke-linejoin="round"/>
<path d="M20 15H28" stroke="#FB5314" stroke-width="2" stroke-linecap="round" stroke-linejoin="round"/>
<path d="M10 27H14" stroke="#7E7E3F" stroke-width="2" stroke-linecap="round" stroke-linejoin="round"/>
<path d="M10 27H14" stroke="#FB5314" stroke-width="2" stroke-linecap="round" stroke-linejoin="round"/>
<path d="M10 34H14" stroke="#7E7E3F" stroke-width="2" stroke-linecap="round" stroke-linejoin="round"/>
<path d="M10 34H14" stroke="#FB5314" stroke-width="2" stroke-linecap="round" stroke-linejoin="round"/>
<path d="M34 27H38" stroke="#7E7E3F" stroke-width="2" stroke-linecap="round" stroke-linejoin="round"/>
<path d="M34 27H38" stroke="#FB5314" stroke-width="2" stroke-linecap="round" stroke-linejoin="round"/>
<path d="M34 34H38" stroke="#7E7E3F" stroke-width="2" stroke-linecap="round" stroke-linejoin="round"/>
<path d="M34 34H38" stroke="#FB5314" stroke-width="2" stroke-linecap="round" stroke-linejoin="round"/>
<path d="M46 42H2" stroke="#7E7E3F" stroke-width="2" stroke-linecap="round" stroke-linejoin="round"/>
<path d="M46 42H2" stroke="#FB5314" stroke-width="2" stroke-linecap="round" stroke-linejoin="round"/>
</svg>
