<svg xmlns="http://www.w3.org/2000/svg" width="45" height="45" viewBox="0 0 45 45"><style>
@keyframes a0_t { 0% { transform: translate(40.5px,40.5px) scale(1,1) translate(-42px,-42px); } 50% { transform: translate(40.5px,40.5px) scale(1.3,1.3) translate(-42px,-42px); } 100% { transform: translate(40.5px,40.5px) scale(1,1) translate(-42px,-42px); } }
@keyframes a1_t { 0% { transform: translate(19.4px,19.3px) scale(1,1) translate(-20.9px,-20.8px); } 50% { transform: translate(19.4px,19.3px) scale(.5,.5) translate(-20.9px,-20.8px); } 100% { transform: translate(19.4px,19.3px) scale(1,1) translate(-20.9px,-20.8px); } }
</style><title>ic02</title><g transform="translate(40.5,40.5) translate(-42,-42)" style="animation: 4s linear infinite both a0_t;"><path d="M28 32v9c0 .6 .4 1 1 1h10c.6 0 1-0.4 1-1v-9" fill="none" stroke="#fb5314" stroke-width="2px"/><path d="M26 33.3l8.2-5.3l7.8 5.3" fill="none" stroke="#fb5314" stroke-width="2px"/></g><path d="M20.9 25.7c2.8 0 5-2.2 5-4.9c0-2.8-2.2-5-5-5c-2.7 0-5 2.2-5 5c0 2.7 2.3 4.9 5 4.9Z" fill="none" stroke="#fb5314" stroke-width="2px" transform="translate(19.4,19.3) translate(-20.9,-20.8)" style="animation: 4s linear infinite both a1_t;"/><path d="M34.3 20.3c.2-4.1-1.2-8.3-4.3-11.4c-5.9-5.9-15.3-5.9-21.1 0c-5.9 5.8-5.9 15.2 0 21.1l10.5 10.5" fill="none" stroke="#fb5314" stroke-width="2px"/></svg>