<svg width="20" height="20" viewBox="0 0 20 20" fill="none" xmlns="http://www.w3.org/2000/svg">
<mask id="mask0" mask-type="alpha" maskUnits="userSpaceOnUse" x="0" y="0" width="20" height="20">
<rect width="20" height="20" rx="10" fill="#C4C4C4"/>
</mask>
<g mask="url(#mask0)">
<rect x="-4" width="28" height="20" rx="2" fill="white"/>
<mask id="mask1" mask-type="alpha" maskUnits="userSpaceOnUse" x="-4" y="0" width="28" height="20">
<rect x="-4" width="28" height="20" rx="2" fill="white"/>
</mask>
<g mask="url(#mask1)">
<path fill-rule="evenodd" clip-rule="evenodd" d="M24 0H-4V1.33333H24V0ZM24 2.66667H-4V4H24V2.66667ZM-4 5.33333H24V6.66667H-4V5.33333ZM24 8H-4V9.33333H24V8ZM-4 10.6667H24V12H-4V10.6667ZM24 13.3333H-4V14.6667H24V13.3333ZM-4 16H24V17.3333H-4V16ZM24 18.6667H-4V20H24V18.6667Z" fill="#D02F44"/>
<rect x="-4" width="12" height="9.33333" fill="#46467F"/>
<g filter="url(#filter0_d)">
<path fill-rule="evenodd" clip-rule="evenodd" d="M-1.33268 2.00004C-1.33268 2.36823 -1.63116 2.66671 -1.99935 2.66671C-2.36754 2.66671 -2.66602 2.36823 -2.66602 2.00004C-2.66602 1.63185 -2.36754 1.33337 -1.99935 1.33337C-1.63116 1.33337 -1.33268 1.63185 -1.33268 2.00004ZM1.33398 2.00004C1.33398 2.36823 1.03551 2.66671 0.667318 2.66671C0.299128 2.66671 0.000651121 2.36823 0.000651121 2.00004C0.000651121 1.63185 0.299128 1.33337 0.667318 1.33337C1.03551 1.33337 1.33398 1.63185 1.33398 2.00004ZM3.33398 2.66671C3.70217 2.66671 4.00065 2.36823 4.00065 2.00004C4.00065 1.63185 3.70217 1.33337 3.33398 1.33337C2.96579 1.33337 2.66732 1.63185 2.66732 2.00004C2.66732 2.36823 2.96579 2.66671 3.33398 2.66671ZM6.66732 2.00004C6.66732 2.36823 6.36884 2.66671 6.00065 2.66671C5.63246 2.66671 5.33398 2.36823 5.33398 2.00004C5.33398 1.63185 5.63246 1.33337 6.00065 1.33337C6.36884 1.33337 6.66732 1.63185 6.66732 2.00004ZM-0.666016 4.00004C-0.297826 4.00004 0.000651121 3.70156 0.000651121 3.33337C0.000651121 2.96518 -0.297826 2.66671 -0.666016 2.66671C-1.03421 2.66671 -1.33268 2.96518 -1.33268 3.33337C-1.33268 3.70156 -1.03421 4.00004 -0.666016 4.00004ZM2.66732 3.33337C2.66732 3.70156 2.36884 4.00004 2.00065 4.00004C1.63246 4.00004 1.33398 3.70156 1.33398 3.33337C1.33398 2.96518 1.63246 2.66671 2.00065 2.66671C2.36884 2.66671 2.66732 2.96518 2.66732 3.33337ZM4.66732 4.00004C5.03551 4.00004 5.33398 3.70156 5.33398 3.33337C5.33398 2.96518 5.03551 2.66671 4.66732 2.66671C4.29913 2.66671 4.00065 2.96518 4.00065 3.33337C4.00065 3.70156 4.29913 4.00004 4.66732 4.00004ZM6.66732 4.66671C6.66732 5.0349 6.36884 5.33337 6.00065 5.33337C5.63246 5.33337 5.33398 5.0349 5.33398 4.66671C5.33398 4.29852 5.63246 4.00004 6.00065 4.00004C6.36884 4.00004 6.66732 4.29852 6.66732 4.66671ZM3.33398 5.33337C3.70217 5.33337 4.00065 5.0349 4.00065 4.66671C4.00065 4.29852 3.70217 4.00004 3.33398 4.00004C2.96579 4.00004 2.66732 4.29852 2.66732 4.66671C2.66732 5.0349 2.96579 5.33337 3.33398 5.33337ZM1.33398 4.66671C1.33398 5.0349 1.03551 5.33337 0.667318 5.33337C0.299128 5.33337 0.000651121 5.0349 0.000651121 4.66671C0.000651121 4.29852 0.299128 4.00004 0.667318 4.00004C1.03551 4.00004 1.33398 4.29852 1.33398 4.66671ZM-1.99935 5.33337C-1.63116 5.33337 -1.33268 5.0349 -1.33268 4.66671C-1.33268 4.29852 -1.63116 4.00004 -1.99935 4.00004C-2.36754 4.00004 -2.66602 4.29852 -2.66602 4.66671C-2.66602 5.0349 -2.36754 5.33337 -1.99935 5.33337ZM0.000651121 6.00004C0.000651121 6.36823 -0.297826 6.66671 -0.666016 6.66671C-1.03421 6.66671 -1.33268 6.36823 -1.33268 6.00004C-1.33268 5.63185 -1.03421 5.33337 -0.666016 5.33337C-0.297826 5.33337 0.000651121 5.63185 0.000651121 6.00004ZM2.00065 6.66671C2.36884 6.66671 2.66732 6.36823 2.66732 6.00004C2.66732 5.63185 2.36884 5.33337 2.00065 5.33337C1.63246 5.33337 1.33398 5.63185 1.33398 6.00004C1.33398 6.36823 1.63246 6.66671 2.00065 6.66671ZM5.33398 6.00004C5.33398 6.36823 5.03551 6.66671 4.66732 6.66671C4.29913 6.66671 4.00065 6.36823 4.00065 6.00004C4.00065 5.63185 4.29913 5.33337 4.66732 5.33337C5.03551 5.33337 5.33398 5.63185 5.33398 6.00004ZM6.00065 8.00004C6.36884 8.00004 6.66732 7.70156 6.66732 7.33337C6.66732 6.96518 6.36884 6.66671 6.00065 6.66671C5.63246 6.66671 5.33398 6.96518 5.33398 7.33337C5.33398 7.70156 5.63246 8.00004 6.00065 8.00004ZM4.00065 7.33337C4.00065 7.70156 3.70217 8.00004 3.33398 8.00004C2.96579 8.00004 2.66732 7.70156 2.66732 7.33337C2.66732 6.96518 2.96579 6.66671 3.33398 6.66671C3.70217 6.66671 4.00065 6.96518 4.00065 7.33337ZM0.667318 8.00004C1.03551 8.00004 1.33398 7.70156 1.33398 7.33337C1.33398 6.96518 1.03551 6.66671 0.667318 6.66671C0.299128 6.66671 0.000651121 6.96518 0.000651121 7.33337C0.000651121 7.70156 0.299128 8.00004 0.667318 8.00004ZM-1.33268 7.33337C-1.33268 7.70156 -1.63116 8.00004 -1.99935 8.00004C-2.36754 8.00004 -2.66602 7.70156 -2.66602 7.33337C-2.66602 6.96518 -2.36754 6.66671 -1.99935 6.66671C-1.63116 6.66671 -1.33268 6.96518 -1.33268 7.33337Z" fill="url(#paint0_linear)"/>
</g>
</g>
</g>
<defs>
<filter id="filter0_d" x="-2.66602" y="1.33337" width="9.33333" height="7.66667" filterUnits="userSpaceOnUse" color-interpolation-filters="sRGB">
<feFlood flood-opacity="0" result="BackgroundImageFix"/>
<feColorMatrix in="SourceAlpha" type="matrix" values="0 0 0 0 0 0 0 0 0 0 0 0 0 0 0 0 0 0 127 0"/>
<feOffset dy="1"/>
<feColorMatrix type="matrix" values="0 0 0 0 0 0 0 0 0 0 0 0 0 0 0 0 0 0 0.06 0"/>
<feBlend mode="normal" in2="BackgroundImageFix" result="effect1_dropShadow"/>
<feBlend mode="normal" in="SourceGraphic" in2="effect1_dropShadow" result="shape"/>
</filter>
<linearGradient id="paint0_linear" x1="-2.66602" y1="1.33337" x2="-2.66602" y2="8.00004" gradientUnits="userSpaceOnUse">
<stop stop-color="white"/>
<stop offset="1" stop-color="#F0F0F0"/>
</linearGradient>
</defs>
</svg>
