<svg width="40" height="40" viewBox="0 0 40 40" fill="none" xmlns="http://www.w3.org/2000/svg">
<path d="M28.3337 35V6.66667C28.3337 5.74667 27.587 5 26.667 5H13.3337C12.4137 5 11.667 5.74667 11.667 6.66667V35" stroke="#7E7E3F" stroke-width="2.5" stroke-linecap="round" stroke-linejoin="round"/>
<path d="M28.3337 35V6.66667C28.3337 5.74667 27.587 5 26.667 5H13.3337C12.4137 5 11.667 5.74667 11.667 6.66667V35" stroke="#FB5314" stroke-width="2.5" stroke-linecap="round" stroke-linejoin="round"/>
<path d="M11.6673 15H5.00065C4.08065 15 3.33398 15.7467 3.33398 16.6667V35" stroke="#7E7E3F" stroke-width="2.5" stroke-linecap="round" stroke-linejoin="round"/>
<path d="M11.6673 15H5.00065C4.08065 15 3.33398 15.7467 3.33398 16.6667V35" stroke="#FB5314" stroke-width="2.5" stroke-linecap="round" stroke-linejoin="round"/>
<path d="M36.6673 35V16.6667C36.6673 15.7467 35.9207 15 35.0007 15H28.334" stroke="#7E7E3F" stroke-width="2.5" stroke-linecap="round" stroke-linejoin="round"/>
<path d="M36.6673 35V16.6667C36.6673 15.7467 35.9207 15 35.0007 15H28.334" stroke="#FB5314" stroke-width="2.5" stroke-linecap="round" stroke-linejoin="round"/>
<path d="M15.834 28.3333H24.1673" stroke="#7E7E3F" stroke-width="2.5" stroke-linecap="round" stroke-linejoin="round"/>
<path d="M15.834 28.3333H24.1673" stroke="#FB5314" stroke-width="2.5" stroke-linecap="round" stroke-linejoin="round"/>
<path d="M22.5003 28.3333V35" stroke="#7E7E3F" stroke-width="2.5" stroke-linecap="round" stroke-linejoin="round"/>
<path d="M22.5003 28.3333V35" stroke="#FB5314" stroke-width="2.5" stroke-linecap="round" stroke-linejoin="round"/>
<path d="M17.5003 35V28.3333" stroke="#7E7E3F" stroke-width="2.5" stroke-linecap="round" stroke-linejoin="round"/>
<path d="M17.5003 35V28.3333" stroke="#FB5314" stroke-width="2.5" stroke-linecap="round" stroke-linejoin="round"/>
<path d="M16.667 17.5H23.3337" stroke="#7E7E3F" stroke-width="2.5" stroke-linecap="round" stroke-linejoin="round"/>
<path d="M16.667 17.5H23.3337" stroke="#FB5314" stroke-width="2.5" stroke-linecap="round" stroke-linejoin="round"/>
<path d="M16.667 22.5H23.3337" stroke="#7E7E3F" stroke-width="2.5" stroke-linecap="round" stroke-linejoin="round"/>
<path d="M16.667 22.5H23.3337" stroke="#FB5314" stroke-width="2.5" stroke-linecap="round" stroke-linejoin="round"/>
<path d="M16.667 12.5H23.3337" stroke="#7E7E3F" stroke-width="2.5" stroke-linecap="round" stroke-linejoin="round"/>
<path d="M16.667 12.5H23.3337" stroke="#FB5314" stroke-width="2.5" stroke-linecap="round" stroke-linejoin="round"/>
<path d="M8.33398 22.5H11.6673" stroke="#7E7E3F" stroke-width="2.5" stroke-linecap="round" stroke-linejoin="round"/>
<path d="M8.33398 22.5H11.6673" stroke="#FB5314" stroke-width="2.5" stroke-linecap="round" stroke-linejoin="round"/>
<path d="M8.33398 28.3333H11.6673" stroke="#7E7E3F" stroke-width="2.5" stroke-linecap="round" stroke-linejoin="round"/>
<path d="M8.33398 28.3333H11.6673" stroke="#FB5314" stroke-width="2.5" stroke-linecap="round" stroke-linejoin="round"/>
<path d="M28.334 22.5H31.6673" stroke="#7E7E3F" stroke-width="2.5" stroke-linecap="round" stroke-linejoin="round"/>
<path d="M28.334 22.5H31.6673" stroke="#FB5314" stroke-width="2.5" stroke-linecap="round" stroke-linejoin="round"/>
<path d="M28.334 28.3333H31.6673" stroke="#7E7E3F" stroke-width="2.5" stroke-linecap="round" stroke-linejoin="round"/>
<path d="M28.334 28.3333H31.6673" stroke="#FB5314" stroke-width="2.5" stroke-linecap="round" stroke-linejoin="round"/>
<path d="M38.3337 35H1.66699" stroke="#7E7E3F" stroke-width="2.5" stroke-linecap="round" stroke-linejoin="round"/>
<path d="M38.3337 35H1.66699" stroke="#FB5314" stroke-width="2.5" stroke-linecap="round" stroke-linejoin="round"/>
</svg>
