<svg width="40" height="34" viewBox="0 0 40 34" fill="none" xmlns="http://www.w3.org/2000/svg">
<path fill-rule="evenodd" clip-rule="evenodd" d="M11.0428 27.3425C12.3447 23.7843 29.929 13.442 39.6545 14.1378C32.5957 16.2411 26.682 18.882 22.6349 22.6299C24.8624 21.2857 27.1526 20.0522 29.7094 20.0206L37.129 33.6838H25.2232L18.9643 21.4122L11.3722 33.6838H0.344727C3.99963 29.082 8.43884 25.0494 13.882 21.4597C12.5957 23.2308 11.5447 25.5555 11.0428 27.3425ZM18.9486 0.316406L10.8075 14.9285C12.8153 13.9006 14.8859 13.0941 16.9879 12.6829C12.0467 14.5964 6.25845 19.9415 0.909432 25.5238C6.98002 21.1276 13.4428 17.4113 20.1879 14.8494C19.0741 16.0829 17.9134 17.5378 16.9408 19.2615C20.031 17.6327 23.3408 16.0829 26.8545 14.8178L18.9486 0.316406V0.316406Z" fill="#E51D3F"/>
<path opacity="0.8" d="M6.84546 -3.67575L-1.26074 -5.86548L-12.8089 37.5838L-4.70274 39.7735L6.84546 -3.67575Z" fill="url(#paint0_linear)"/>
<defs>
<linearGradient id="paint0_linear" x1="-6.46124" y1="13.09" x2="1.72954" y2="15.267" gradientUnits="userSpaceOnUse">
<stop stop-color="white" stop-opacity="0"/>
<stop offset="0.5" stop-color="white"/>
<stop offset="1" stop-color="white" stop-opacity="0"/>
</linearGradient>
</defs>
</svg>
