<?xml version="1.0" encoding="UTF-8"?>
<!DOCTYPE svg PUBLIC "-//W3C//DTD SVG 1.1//EN" "http://www.w3.org/Graphics/SVG/1.1/DTD/svg11.dtd">
<!-- Creator: CorelDRAW 2020 (64-Bit) -->
<svg xmlns="http://www.w3.org/2000/svg" xml:space="preserve" width="788px" height="262px" version="1.1" style="shape-rendering:geometricPrecision; text-rendering:geometricPrecision; image-rendering:optimizeQuality; fill-rule:evenodd; clip-rule:evenodd"
viewBox="0 0 722.58 240.04"
 xmlns:xlink="http://www.w3.org/1999/xlink"
 xmlns:xodm="http://www.corel.com/coreldraw/odm/2003">
 <defs>
  <style type="text/css">
   <![CDATA[
    .fil0 {fill:#FB5314}
    .fil2 {fill:#B2B3B3;fill-rule:nonzero}
    .fil1 {fill:#5B5B5B;fill-rule:nonzero}
   ]]>
  </style>
 </defs>
 <g id="Layer_x0020_1">
  <metadata id="CorelCorpID_0Corel-Layer"/>
  <path class="fil0" d="M21.3 71.87c28.4,-28.4 74.44,-28.4 102.83,0 24.91,24.91 27.97,63.41 9.16,91.65l29.41 29.41c5.59,5.59 5.59,14.74 0,20.33l0 0.01c-5.6,5.59 -14.75,5.59 -20.35,0l-29.4 -29.4c-28.24,18.8 -66.74,15.75 -91.65,-9.17 -28.4,-28.39 -28.4,-74.43 0,-102.83zm13.39 13.39c21,-21 55.05,-21 76.05,0 21,21 21,55.05 0,76.05 -21,21 -55.05,21 -76.05,0 -21,-21 -21,-55.05 0,-76.05z"/>
  <path class="fil1" d="M533.4 122.01c0,-9.13 2.24,-17.96 6.72,-26.48 4.5,-8.55 10.87,-15.06 19.09,-19.55 8.22,-4.49 17.38,-6.76 27.54,-6.76 15.69,0 28.53,5.09 38.54,15.28 10.02,10.21 15.02,23.09 15.02,38.67 0,15.72 -5.06,28.76 -15.16,39.07 -10.11,10.33 -22.84,15.49 -38.2,15.49 -9.49,0 -18.56,-2.17 -27.17,-6.47 -8.59,-4.28 -15.16,-10.6 -19.66,-18.91 -4.48,-8.29 -6.72,-18.42 -6.72,-30.34zm161.74 53.12l0 -161.41c0,-7.55 6.18,-13.72 13.72,-13.72l0 0c7.55,0 13.72,6.18 13.72,13.72l-0.06 161.41 -27.38 0zm-43.06 -143.08l27.37 0 0 161.41c0,7.54 -6.17,13.72 -13.72,13.72l0 0c-7.54,0 -13.72,-6.18 -13.65,-13.72l0 -161.41zm-435.34 143.08l0 -143.08 28.97 0 0 143.08 -28.97 0zm138.41 0l-27.38 0 0 -52.86c0,-11.19 -0.59,-18.42 -1.76,-21.68 -1.19,-3.3 -3.1,-5.83 -5.76,-7.66 -2.67,-1.83 -5.87,-2.73 -9.6,-2.73 -4.79,0 -9.08,1.31 -12.88,3.89 -3.83,2.61 -6.42,6.07 -7.83,10.33 -1.42,4.3 -2.13,12.23 -2.13,23.81l0 46.9 -27.38 0 0 -103.72 25.38 0 0 15.22c9.09,-11.62 20.51,-17.41 34.34,-17.41 6.06,0 11.63,1.09 16.65,3.26 5.06,2.19 8.86,4.97 11.42,8.33 2.6,3.4 4.39,7.23 5.4,11.52 1.01,4.3 1.53,10.43 1.53,18.42l0 64.38zm14.74 -103.72l25.18 0 0 14.16c9.03,-10.89 19.78,-16.35 32.27,-16.35 6.63,0 12.39,1.37 17.26,4.09 4.88,2.74 8.89,6.86 11.98,12.39 4.57,-5.53 9.5,-9.66 14.76,-12.39 5.26,-2.73 10.89,-4.09 16.88,-4.09 7.6,0 14.03,1.52 19.32,4.63 5.27,3.08 9.2,7.62 11.79,13.62 1.9,4.39 2.83,11.56 2.83,21.45l0 66.21 -27.37 0 0 -59.19c0,-10.29 -0.93,-16.93 -2.83,-19.88 -2.52,-3.9 -6.47,-5.86 -11.73,-5.86 -3.83,0 -7.47,1.15 -10.86,3.5 -3.37,2.34 -5.83,5.79 -7.32,10.29 -1.5,4.52 -2.23,11.66 -2.23,21.41l0 49.73 -27.38 0 0 -56.76c0,-10.05 -0.51,-16.58 -1.47,-19.48 -0.96,-2.92 -2.47,-5.12 -4.53,-6.56 -2.03,-1.42 -4.83,-2.13 -8.32,-2.13 -4.23,0 -8.03,1.13 -11.39,3.4 -3.4,2.29 -5.8,5.56 -7.26,9.85 -1.47,4.3 -2.2,11.44 -2.2,21.35l0 50.33 -27.38 0 0 -103.72zm191.69 52.06c0,10.29 2.43,18.19 7.29,23.65 4.89,5.49 10.89,8.22 18.05,8.22 7.13,0 13.12,-2.74 17.95,-8.22 4.82,-5.47 7.26,-13.42 7.26,-23.85 0,-10.16 -2.44,-17.98 -7.26,-23.45 -4.83,-5.48 -10.82,-8.22 -17.95,-8.22 -7.16,0 -13.16,2.73 -18.05,8.22 -4.86,5.46 -7.29,13.36 -7.29,23.65z"/>
  <path class="fil2" d="M217.52 228.74l0 -38.52 7.8 0 0 15.17 15.17 0 0 -15.17 7.81 0 0 38.52 -7.81 0 0 -16.84 -15.17 0 0 16.84 -7.8 0zm33.31 -14.3c0,-2.46 0.6,-4.83 1.82,-7.13 1.21,-2.31 2.92,-4.05 5.13,-5.26 2.22,-1.22 4.69,-1.83 7.42,-1.83 4.22,0 7.68,1.38 10.38,4.12 2.7,2.75 4.04,6.22 4.04,10.41 0,4.24 -1.36,7.74 -4.08,10.52 -2.73,2.78 -6.15,4.17 -10.29,4.17 -2.55,0 -4.99,-0.58 -7.31,-1.74 -2.32,-1.15 -4.08,-2.85 -5.29,-5.09 -1.22,-2.23 -1.82,-4.96 -1.82,-8.17zm7.59 0.39c0,2.77 0.66,4.9 1.97,6.37 1.31,1.48 2.93,2.22 4.86,2.22 1.91,0 3.53,-0.74 4.83,-2.22 1.3,-1.47 1.95,-3.61 1.95,-6.42 0,-2.74 -0.65,-4.84 -1.95,-6.31 -1.3,-1.48 -2.92,-2.22 -4.83,-2.22 -1.93,0 -3.55,0.74 -4.86,2.22 -1.31,1.47 -1.97,3.59 -1.97,6.36zm23.77 -14.01l6.78 0 0 3.81c2.43,-2.93 5.33,-4.41 8.69,-4.41 1.79,0 3.34,0.37 4.65,1.11 1.32,0.73 2.39,1.84 3.23,3.33 1.23,-1.49 2.55,-2.6 3.97,-3.33 1.42,-0.74 2.93,-1.11 4.55,-1.11 2.04,0 3.77,0.42 5.2,1.25 1.42,0.84 2.48,2.05 3.17,3.67 0.52,1.18 0.77,3.11 0.77,5.77l0 17.83 -7.38 0 0 -15.93c0,-2.77 -0.25,-4.56 -0.76,-5.36 -0.68,-1.05 -1.74,-1.58 -3.15,-1.58 -1.04,0 -2.01,0.32 -2.93,0.95 -0.9,0.63 -1.57,1.56 -1.97,2.77 -0.4,1.22 -0.6,3.14 -0.6,5.76l0 13.39 -7.37 0 0 -15.28c0,-2.71 -0.14,-4.46 -0.4,-5.24 -0.26,-0.79 -0.66,-1.39 -1.22,-1.77 -0.54,-0.39 -1.3,-0.58 -2.24,-0.58 -1.14,0 -2.16,0.31 -3.07,0.92 -0.91,0.62 -1.56,1.5 -1.95,2.65 -0.4,1.16 -0.59,3.08 -0.59,5.75l0 13.55 -7.38 0 0 -27.92zm62.38 19.1l7.37 1.24c-0.94,2.7 -2.44,4.75 -4.48,6.17 -2.04,1.4 -4.6,2.11 -7.65,2.11 -4.86,0 -8.45,-1.58 -10.77,-4.76 -1.84,-2.55 -2.77,-5.76 -2.77,-9.64 0,-4.63 1.21,-8.26 3.63,-10.88 2.41,-2.63 5.47,-3.94 9.16,-3.94 4.15,0 7.42,1.38 9.82,4.12 2.4,2.75 3.54,6.95 3.44,12.62l-18.46 0c0.05,2.19 0.65,3.89 1.78,5.11 1.13,1.22 2.55,1.83 4.24,1.83 1.15,0 2.12,-0.31 2.9,-0.94 0.79,-0.63 1.38,-1.64 1.79,-3.04zm0.43 -7.48c-0.06,-2.14 -0.6,-3.78 -1.65,-4.89 -1.05,-1.12 -2.32,-1.68 -3.83,-1.68 -1.61,0 -2.93,0.6 -3.98,1.77 -1.05,1.18 -1.56,2.78 -1.55,4.8l11.01 0zm20.28 8.45l7.43 -1.13c0.31,1.42 0.95,2.51 1.92,3.24 0.96,0.75 2.31,1.12 4.04,1.12 1.91,0 3.35,-0.35 4.32,-1.05 0.64,-0.5 0.96,-1.16 0.96,-1.99 0,-0.55 -0.17,-1.02 -0.52,-1.39 -0.37,-0.35 -1.2,-0.68 -2.47,-0.97 -5.96,-1.32 -9.74,-2.52 -11.34,-3.61 -2.21,-1.51 -3.31,-3.61 -3.31,-6.29 0,-2.43 0.96,-4.47 2.87,-6.12 1.91,-1.65 4.87,-2.48 8.87,-2.48 3.82,0 6.67,0.63 8.52,1.88 1.86,1.25 3.14,3.1 3.84,5.55l-6.94 1.29c-0.3,-1.09 -0.87,-1.94 -1.7,-2.52 -0.84,-0.58 -2.03,-0.87 -3.58,-0.87 -1.96,0 -3.36,0.27 -4.21,0.82 -0.56,0.38 -0.84,0.89 -0.84,1.5 0,0.52 0.24,0.97 0.73,1.34 0.68,0.49 2.98,1.18 6.93,2.08 3.94,0.9 6.7,1.99 8.26,3.29 1.55,1.31 2.32,3.15 2.32,5.5 0,2.56 -1.07,4.76 -3.21,6.6 -2.13,1.84 -5.3,2.76 -9.5,2.76 -3.8,0 -6.81,-0.77 -9.04,-2.3 -2.21,-1.54 -3.66,-3.62 -4.35,-6.25zm47.1 -0.97l7.37 1.24c-0.94,2.7 -2.44,4.75 -4.48,6.17 -2.04,1.4 -4.6,2.11 -7.66,2.11 -4.85,0 -8.45,-1.58 -10.77,-4.76 -1.84,-2.55 -2.76,-5.76 -2.76,-9.64 0,-4.63 1.21,-8.26 3.62,-10.88 2.42,-2.63 5.47,-3.94 9.17,-3.94 4.14,0 7.42,1.38 9.82,4.12 2.39,2.75 3.54,6.95 3.43,12.62l-18.45 0c0.05,2.19 0.64,3.89 1.78,5.11 1.13,1.22 2.55,1.83 4.23,1.83 1.16,0 2.13,-0.31 2.91,-0.94 0.79,-0.63 1.38,-1.64 1.79,-3.04zm0.43 -7.48c-0.06,-2.14 -0.61,-3.78 -1.65,-4.89 -1.05,-1.12 -2.33,-1.68 -3.83,-1.68 -1.61,0 -2.94,0.6 -3.99,1.77 -1.04,1.18 -1.56,2.78 -1.54,4.8l11.01 0zm28.95 7.48l7.37 1.24c-0.94,2.7 -2.43,4.75 -4.47,6.17 -2.04,1.4 -4.6,2.11 -7.66,2.11 -4.85,0 -8.45,-1.58 -10.77,-4.76 -1.84,-2.55 -2.76,-5.76 -2.76,-9.64 0,-4.63 1.21,-8.26 3.62,-10.88 2.41,-2.63 5.47,-3.94 9.17,-3.94 4.14,0 7.41,1.38 9.82,4.12 2.39,2.75 3.54,6.95 3.43,12.62l-18.45 0c0.05,2.19 0.64,3.89 1.78,5.11 1.13,1.22 2.55,1.83 4.23,1.83 1.16,0 2.13,-0.31 2.91,-0.94 0.79,-0.63 1.38,-1.64 1.78,-3.04zm0.43 -7.48c-0.05,-2.14 -0.6,-3.78 -1.65,-4.89 -1.05,-1.12 -2.32,-1.68 -3.83,-1.68 -1.6,0 -2.93,0.6 -3.98,1.77 -1.05,1.18 -1.56,2.78 -1.54,4.8l11 0zm10.4 16.3l0 -38.52 7.37 0 0 20.43 8.64 -9.83 9.09 0 -9.52 10.2 10.22 17.72 -7.96 0 -7.05 -12.6 -3.42 3.66 0 8.94 -7.37 0zm28.04 -31.69l0 -6.83 7.37 0 0 6.83 -7.37 0zm0 31.69l0 -27.92 7.37 0 0 27.92 -7.37 0zm37.12 0l-7.37 0 0 -14.23c0,-3.01 -0.16,-4.96 -0.48,-5.84 -0.32,-0.89 -0.83,-1.57 -1.55,-2.06 -0.72,-0.49 -1.58,-0.74 -2.58,-0.74 -1.29,0 -2.45,0.35 -3.47,1.05 -1.03,0.7 -1.73,1.64 -2.11,2.78 -0.39,1.16 -0.57,3.29 -0.57,6.42l0 12.62 -7.38 0 0 -27.92 6.84 0 0 4.09c2.45,-3.13 5.52,-4.69 9.24,-4.69 1.64,0 3.13,0.3 4.49,0.88 1.36,0.6 2.38,1.34 3.07,2.25 0.7,0.91 1.19,1.94 1.46,3.1 0.28,1.16 0.41,2.81 0.41,4.96l0 17.33zm4.62 1.78l8.45 1.02c0.14,1 0.46,1.68 0.96,2.05 0.71,0.53 1.82,0.8 3.32,0.8 1.93,0 3.37,-0.28 4.34,-0.87 0.65,-0.38 1.14,-1 1.47,-1.86 0.23,-0.61 0.34,-1.75 0.34,-3.39l0.04 -4.08c-2.22,3.04 -5.02,4.55 -8.39,4.55 -3.75,0 -6.73,-1.58 -8.92,-4.75 -1.72,-2.5 -2.58,-5.62 -2.58,-9.34 0,-4.69 1.13,-8.26 3.38,-10.72 2.25,-2.47 5.06,-3.71 8.41,-3.71 3.46,0 6.31,1.52 8.55,4.55l0 -3.95 6.89 0 0 25.04c0,3.29 -0.27,5.75 -0.82,7.38 -0.54,1.63 -1.3,2.9 -2.29,3.83 -0.97,0.93 -2.28,1.66 -3.92,2.18 -1.65,0.53 -3.72,0.79 -6.22,0.79 -4.73,0 -8.09,-0.81 -10.07,-2.44 -1.98,-1.63 -2.97,-3.68 -2.97,-6.18 0,-0.25 0.01,-0.55 0.03,-0.9zm6.62 -16.31c0,2.96 0.57,5.13 1.71,6.5 1.15,1.37 2.56,2.06 4.24,2.06 1.79,0 3.32,-0.71 4.56,-2.12 1.24,-1.4 1.86,-3.48 1.86,-6.25 0,-2.88 -0.59,-5.03 -1.78,-6.43 -1.19,-1.4 -2.69,-2.1 -4.51,-2.1 -1.77,0 -3.22,0.69 -4.37,2.07 -1.14,1.37 -1.71,3.46 -1.71,6.27z"/>
 </g>
</svg>
