<svg width="24" height="24" viewBox="0 0 24 24" fill="none" xmlns="http://www.w3.org/2000/svg">
<path d="M3.75 3.75V20.25H20.25V3.75H3.75ZM5.25 5.25H18.75V18.75H5.25V5.25ZM8.55469 6.91406C8.55469 6.91406 6.75 8.1416 6.75 10.125C6.75 11.1152 7.24219 11.8447 7.61719 12.4219C7.99219 12.999 8.25 13.4209 8.25 13.875C8.25 14.7832 7.03125 15.9141 7.03125 15.9141L7.96875 17.0859C7.96875 17.0859 9.75 15.832 9.75 13.875C9.75 12.8965 9.25781 12.1729 8.88281 11.6016C8.50781 11.0303 8.25 10.6055 8.25 10.125C8.25 9.16113 9.44531 8.08594 9.44531 8.08594L8.55469 6.91406ZM12.3047 6.91406C12.3047 6.91406 10.5 8.1416 10.5 10.125C10.5 11.1152 10.9922 11.8447 11.3672 12.4219C11.7422 12.999 12 13.4209 12 13.875C12 14.7832 10.7812 15.9141 10.7812 15.9141L11.7188 17.0859C11.7188 17.0859 13.5 15.832 13.5 13.875C13.5 12.8965 13.0078 12.1729 12.6328 11.6016C12.2578 11.0303 12 10.6055 12 10.125C12 9.16113 13.1953 8.08594 13.1953 8.08594L12.3047 6.91406ZM16.0547 6.91406C16.0547 6.91406 14.25 8.1416 14.25 10.125C14.25 11.1152 14.7422 11.8447 15.1172 12.4219C15.4922 12.999 15.75 13.4209 15.75 13.875C15.75 14.7832 14.5312 15.9141 14.5312 15.9141L15.4688 17.0859C15.4688 17.0859 17.25 15.832 17.25 13.875C17.25 12.8965 16.7578 12.1729 16.3828 11.6016C16.0078 11.0303 15.75 10.6055 15.75 10.125C15.75 9.16113 16.9453 8.08594 16.9453 8.08594L16.0547 6.91406Z" fill="#55585E"/>
</svg>
