<svg width="24" height="24" viewBox="0 0 24 24" fill="none" xmlns="http://www.w3.org/2000/svg">
<path d="M12.0006 11.5717V13.0003" stroke="#55585E" stroke-width="1.5" stroke-linecap="round" stroke-linejoin="round"/>
<path d="M12.0006 3V4.42861" stroke="#55585E" stroke-width="1.5" stroke-linecap="round" stroke-linejoin="round"/>
<path fill-rule="evenodd" clip-rule="evenodd" d="M12.0001 11.0002C13.657 11.0002 15.0002 9.65697 15.0002 8.00008C15.0002 6.34318 13.657 5 12.0001 5C10.3432 5 9 6.34318 9 8.00008C9 9.65697 10.3432 11.0002 12.0001 11.0002Z" stroke="#55585E" stroke-width="1.5" stroke-linecap="round" stroke-linejoin="round"/>
<path d="M9.47434 10.5259L8.46289 11.5373" stroke="#55585E" stroke-width="1.5" stroke-linecap="round" stroke-linejoin="round"/>
<path d="M15.5368 4.46289L14.5254 5.47434" stroke="#55585E" stroke-width="1.5" stroke-linecap="round" stroke-linejoin="round"/>
<path d="M8.42861 8.00008H7" stroke="#55585E" stroke-width="1.5" stroke-linecap="round" stroke-linejoin="round"/>
<path d="M17.0009 8.00008H15.5723" stroke="#55585E" stroke-width="1.5" stroke-linecap="round" stroke-linejoin="round"/>
<path d="M9.47434 5.47434L8.46289 4.46289" stroke="#55585E" stroke-width="1.5" stroke-linecap="round" stroke-linejoin="round"/>
<path d="M15.5368 11.5373L14.5254 10.5259" stroke="#55585E" stroke-width="1.5" stroke-linecap="round" stroke-linejoin="round"/>
<path d="M4 20.0001C4 20.0001 5.10043 21.0001 6 21.0001C6.89957 21.0001 8 20.0001 8 20.0001C8 20.0001 9.10043 21.0001 10 21.0001C10.8996 21.0001 12 20.0001 12 20.0001C12 20.0001 13.1004 21.0001 14 21.0001C14.8996 21.0001 16 20.0001 16 20.0001C16 20.0001 17.1004 21.0001 18 21.0001C18.8996 21.0001 20 20.0001 20 20.0001" stroke="#55585E" stroke-width="1.5" stroke-linecap="round" stroke-linejoin="round"/>
<path d="M4 16.5001C4 16.5001 5.10043 17.5001 6 17.5001C6.89957 17.5001 8 16.5001 8 16.5001C8 16.5001 9.10043 17.5001 10 17.5001C10.8996 17.5001 12 16.5001 12 16.5001C12 16.5001 13.1004 17.5001 14 17.5001C14.8996 17.5001 16 16.5001 16 16.5001C16 16.5001 17.1004 17.5001 18 17.5001C18.8996 17.5001 20 16.5001 20 16.5001" stroke="#55585E" stroke-width="1.5" stroke-linecap="round" stroke-linejoin="round"/>
</svg>
