<svg xmlns="http://www.w3.org/2000/svg" width="100" height="100" viewBox="0 0 100 100" clip-rule="evenodd" fill-rule="evenodd" stroke-linecap="round" stroke-linejoin="round"><style>
@keyframes a0_do { 0% { stroke-dashoffset: 8px; } 13.333% { stroke-dashoffset: 8px; } 16.667% { stroke-dashoffset: 0px; } 88.333% { stroke-dashoffset: 0px; } 91.667% { stroke-dashoffset: -8px; } 100% { stroke-dashoffset: -8px; } }
@keyframes a1_do { 0% { stroke-dashoffset: 8px; } 13.333% { stroke-dashoffset: 8px; } 16.667% { stroke-dashoffset: 0px; } 88.333% { stroke-dashoffset: 0px; } 91.667% { stroke-dashoffset: -8px; } 100% { stroke-dashoffset: -8px; } }
@keyframes a2_do { 0% { stroke-dashoffset: 238.4px; } 8.333% { stroke-dashoffset: 0px; } 91.667% { stroke-dashoffset: 0px; } 100% { stroke-dashoffset: -238.4px; } }
@keyframes a3_do { 0% { stroke-dashoffset: 93.5px; } 6.667% { stroke-dashoffset: 93.5px; } 13.333% { stroke-dashoffset: 0px; } 16.667% { stroke-dashoffset: 0px; } 91.667% { stroke-dashoffset: 0px; } 100% { stroke-dashoffset: -93.5px; } }
</style><title>ic-4</title><path d="M22 72v8" fill="none" stroke="#55585e" stroke-width="6px" stroke-dasharray="8 8" stroke-dashoffset="8" style="animation: 6s linear infinite both a0_do;"/><path d="M78 72v8" fill="none" stroke="#55585e" stroke-width="6px" stroke-dasharray="8 8" stroke-dashoffset="8" style="animation: 6s linear infinite both a1_do;"/><path d="M74 56h-48v-10c0-3.3-2.7-6-6-6h-4c-3.3 0-6 2.7-6 6v18c0 4.4 3.6 8 8 8h64c4.4 0 8-3.6 8-8v-18c0-3.3-2.7-6-6-6h-4c-3.3 0-6 2.7-6 6v10Z" fill="none" stroke="#55585e" stroke-width="6px" stroke-dasharray="238.4 238.4" stroke-dashoffset="238.4" style="animation: 6s linear infinite both a2_do;"/><path d="M18 40v-8c0-6.6 5.4-12 12-12h40c6.6 0 12 5.4 12 12v8" fill="none" stroke="#55585e" stroke-width="6px" stroke-dasharray="93.5 93.5" stroke-dashoffset="93.5" style="animation: 6s linear infinite both a3_do;"/></svg>