<svg xmlns="http://www.w3.org/2000/svg" width="100" height="99" viewBox="0 0 100 99" clip-rule="evenodd" fill-rule="evenodd" stroke-linecap="round" stroke-linejoin="round"><style>
@keyframes a0_t { 0% { transform: translate(50.5px,30px) rotate(0deg) translate(-50.5px,-30px); } 100% { transform: translate(50.5px,30px) rotate(180deg) translate(-50.5px,-30px); } }
@keyframes a1_t { 0% { transform: translate(0px,0px); animation-timing-function: cubic-bezier(0,0,.6,1); } 25% { transform: translate(2.5px,-3.5px); animation-timing-function: cubic-bezier(.4,0,1,1); } 50% { transform: translate(0px,0px); animation-timing-function: cubic-bezier(0,0,.6,1); } 75% { transform: translate(-1.5px,-3.5px); animation-timing-function: cubic-bezier(.4,0,1,1); } 100% { transform: translate(0px,0px); } }
@keyframes a2_t { 0% { transform: translate(0px,0px); animation-timing-function: cubic-bezier(0,0,.6,1); } 25% { transform: translate(-2.5px,-3px); animation-timing-function: cubic-bezier(.4,0,1,1); } 50% { transform: translate(0px,0px); animation-timing-function: cubic-bezier(0,0,.6,1); } 75% { transform: translate(2.5px,-3px); animation-timing-function: cubic-bezier(.4,0,1,1); } 100% { transform: translate(0px,0px); } }
</style><title>icon4</title><g transform="translate(50.5,30) translate(-50.5,-30)" style="animation: 6s linear infinite both a0_t;"><path d="M50.5 47.9v7.1" fill="none" stroke="#ffa900" stroke-width="7.5px"/><path d="M50.5 5v7.1" fill="none" stroke="#ffa900" stroke-width="7.5px"/><path d="M50.5 45c8.3 0 15-6.7 15-15c0-8.3-6.7-15-15-15c-8.3 0-15 6.7-15 15c0 8.3 6.7 15 15 15Z" fill="none" stroke="#ffa900" stroke-width="7.5px"/><path d="M37.9 42.6l-5.1 5.1" fill="none" stroke="#ffa900" stroke-width="7.5px"/><path d="M68.2 12.3l-5.1 5.1" fill="none" stroke="#ffa900" stroke-width="7.5px"/><path d="M32.6 30h-7.1" fill="none" stroke="#ffa900" stroke-width="7.5px"/><path d="M75.5 30h-7.1" fill="none" stroke="#ffa900" stroke-width="7.5px"/><path d="M37.9 17.4l-5.1-5.1" fill="none" stroke="#ffa900" stroke-width="7.5px"/><path d="M68.2 47.7l-5.1-5.1" fill="none" stroke="#ffa900" stroke-width="7.5px"/></g><path d="M10.5 90c0 0 5.5 5 10 5c4.5 0 10-5 10-5c0 0 5.5 5 10 5c4.5 0 10-5 10-5c0 0 5.5 5 10 5c4.5 0 10-5 10-5c0 0 5.5 5 10 5c4.5 0 10-5 10-5" fill="none" stroke="#5a81b2" stroke-width="7.5px" transform="translate(50.5,92.5) translate(-50.5,-92.5)" style="animation: 4s linear infinite both a1_t;"/><path d="M10.5 72.5c0 0 5.5 5 10 5c4.5 0 10-5 10-5c0 0 5.5 5 10 5c4.5 0 10-5 10-5c0 0 5.5 5 10 5c4.5 0 10-5 10-5c0 0 5.5 5 10 5c4.5 0 10-5 10-5" fill="none" stroke="#5a81b2" stroke-width="7.5px" transform="translate(50.5,75) translate(-50.5,-75)" style="animation: 4s linear infinite both a2_t;"/></svg>