<svg xmlns="http://www.w3.org/2000/svg" width="100" height="100" viewBox="0 0 100 100" clip-rule="evenodd" fill-rule="evenodd" stroke-linecap="round" stroke-linejoin="round"><style>
@keyframes a0_s { 0% { stroke: #55585e; animation-timing-function: steps(1); } 23.333% { stroke: #ffa900; animation-timing-function: steps(1); } 26.667% { stroke: #55585e; animation-timing-function: steps(1); } 30% { stroke: #ffa900; animation-timing-function: steps(1); } 33.333% { stroke: #55585e; animation-timing-function: steps(1); } 58.333% { stroke: #ffa900; animation-timing-function: steps(1); } 61.667% { stroke: #55585e; animation-timing-function: steps(1); } 65% { stroke: #ffa900; animation-timing-function: steps(1); } 68.333% { stroke: #55585e; } 100% { stroke: #55585e; } }
@keyframes a1_s { 0% { stroke: #55585e; animation-timing-function: steps(1); } 23.333% { stroke: #ffa900; animation-timing-function: steps(1); } 26.667% { stroke: #55585e; animation-timing-function: steps(1); } 30% { stroke: #ffa900; animation-timing-function: steps(1); } 33.333% { stroke: #55585e; animation-timing-function: steps(1); } 58.333% { stroke: #ffa900; animation-timing-function: steps(1); } 61.667% { stroke: #55585e; animation-timing-function: steps(1); } 65% { stroke: #ffa900; animation-timing-function: steps(1); } 68.333% { stroke: #55585e; } 100% { stroke: #55585e; } }
</style><title>ic-5</title><g><path d="M90 38l-10.5 4" fill="none" stroke="#55585e" stroke-width="6px" stroke-dasharray="12 12" stroke-dashoffset="12"/><path d="M10 38l10.5 4" fill="none" stroke="#55585e" stroke-width="6px" stroke-dasharray="12 12" stroke-dashoffset="12"/><path d="M79.5 42l-3.3-16c-1-4.7-5.1-8-9.8-8h-32.4c-4.6 0-8.6 3.2-9.7 7.7l-3.8 16.3" fill="none" stroke="#55585e" stroke-width="6px" stroke-dasharray="92.4 92.4"/><path d="M15 82h9c3.3 0 6-2.7 6-6v-4h40v4c0 3.3 2.7 6 6 6h9c2.8 0 5-2.2 5-5v-23c0-6.6-5.4-12-12-12h-56c-6.6 0-12 5.4-12 12v23c0 2.8 2.2 5 5 5Z" fill="none" stroke="#55585e" stroke-width="6px" stroke-dasharray="239.5 239.5"/></g><g transform="translate(25,58)"><path d="M75 58h-10" fill="none" stroke="#55585e" stroke-width="6px" transform="translate(-25,-58)" style="animation: 6s linear infinite both a0_s;"/><path d="M35 58h-10" fill="none" stroke="#55585e" stroke-width="6px" transform="translate(-25,-58)" style="animation: 6s linear infinite both a1_s;"/></g></svg>