<svg xmlns="http://www.w3.org/2000/svg" width="100" height="100" viewBox="0 0 100 100" clip-rule="evenodd" fill-rule="evenodd" stroke-linecap="round" stroke-linejoin="round"><defs><clipPath id="ClipPath-1"><rect x="32.5" y="-8.8" width="80" height="40"/></clipPath></defs><style>
@keyframes a0_t { 0% { transform: translate(22.5px,-68.8px); } 100% { transform: translate(85.6px,-68.8px); } }
@keyframes a1_t { 0% { transform: translate(22.5px,-68.8px); } 100% { transform: translate(85.6px,-68.8px); } }
</style><title>icon1</title><g><path d="M32.2 32.2h35.6" fill="none" stroke="#55585e" stroke-width="6.7px"/><path d="M32.2 50h35.6" fill="none" stroke="#55585e" stroke-width="6.7px"/><path d="M67.8 58.9v-42.2c0-3.7 3-6.7 6.6-6.7c3.7 0 6.7 3 6.7 6.7" fill="none" stroke="#55585e" stroke-width="6.7px"/><path d="M32.2 58.9v-42.2c0-3.7 3-6.7 6.7-6.7c3.7 0 6.7 3 6.7 6.7" fill="none" stroke="#55585e" stroke-width="6.7px"/></g><g clip-path="url(#ClipPath-1)" transform="translate(-22.5,68.8)"><g transform="translate(40.5,1.7) translate(-18,-70.6)" style="animation: 2s linear infinite both a0_t;"><path d="M10 70.5c5.1-2.2 10.9-2.2 16 0c5.1 2.3 10.9 2.3 16 0c5.1-2.2 10.9-2.2 16 0c5.1 2.3 10.9 2.3 16 0c5.1-2.2 10.9-2.2 16 0" fill="none" stroke="#5a81b2" stroke-width="6.7px"/><path d="M-54.1 70.6c5.1-2.3 11-2.3 16 0c5.1 2.3 11 2.3 16 0c5.1-2.3 11-2.3 16 0c5.1 2.3 10.9 2.3 16 0c5.1-2.3 10.6-2.4 16 0" fill="none" stroke="#5a81b2" stroke-width="6.7px"/></g><g transform="translate(40.5,19.5) translate(-18,-88.3)" style="animation: 2s linear infinite both a1_t;"><path d="M10 88.3c5.1-2.3 10.9-2.3 16 0c5.1 2.3 10.9 2.3 16 0c5.1-2.3 10.9-2.3 16 0c5.1 2.3 10.9 2.3 16 0c5.1-2.3 10.9-2.3 16 0" fill="none" stroke="#5a81b2" stroke-width="6.7px"/><path d="M-54.1 88.4c5.1-2.3 11-2.3 16 0c5.1 2.2 11 2.2 16 0c5.1-2.3 11-2.3 16 0c5.1 2.2 10.9 2.2 16 0c5.1-2.3 10.6-2.4 16 0" fill="none" stroke="#5a81b2" stroke-width="6.7px"/></g></g></svg>