<svg xmlns="http://www.w3.org/2000/svg" width="100" height="100" viewBox="0 0 100 100" clip-rule="evenodd" fill-rule="evenodd" stroke-linecap="round" stroke-linejoin="round"><style>
@keyframes a0_o { 0% { opacity: 0; } 16.667% { opacity: 0; } 20% { opacity: 1; } 91.667% { opacity: 1; } 95% { opacity: 0; } 100% { opacity: 0; } }
@keyframes a1_t { 0% { transform: translate(48px,79.5px) scale(1,0) translate(-48px,-82.8px); } 16.667% { transform: translate(48px,79.5px) scale(1,1) translate(-48px,-82.8px); } 91.667% { transform: translate(48px,79.5px) scale(1,1) translate(-48px,-82.8px); } 95% { transform: translate(48px,79.5px) scale(1,0) translate(-48px,-82.8px); } 100% { transform: translate(48px,79.5px) scale(1,0) translate(-48px,-82.8px); } }
@keyframes a2_t { 0% { transform: translate(50px,79.4px) scale(1,0) translate(-9.1px,-14.5px); } 13.333% { transform: translate(50px,79.4px) scale(1,0) translate(-9.1px,-14.5px); } 16.667% { transform: translate(50px,79.4px) scale(1,1) translate(-9.1px,-14.5px); } 91.667% { transform: translate(50px,79.4px) scale(1,1) translate(-9.1px,-14.5px); } 95% { transform: translate(50px,79.4px) scale(1,0) translate(-9.1px,-14.5px); } 100% { transform: translate(50px,79.4px) scale(1,0) translate(-9.1px,-14.5px); } }
</style><title>ic-2</title><g opacity="0" style="animation: 6s linear infinite both a0_o;"><path d="M42.7 44.5h14.6" fill="none" stroke="#55585e" stroke-width="5.5px"/><path d="M42.7 55.5h14.6" fill="none" stroke="#55585e" stroke-width="5.5px"/><path d="M42.7 33.6h14.6" fill="none" stroke="#55585e" stroke-width="5.5px"/><path d="M24.5 55.5h7.3" fill="none" stroke="#55585e" stroke-width="5.5px"/><path d="M24.5 68.2h7.3" fill="none" stroke="#55585e" stroke-width="5.5px"/><path d="M68.2 55.5h7.3" fill="none" stroke="#55585e" stroke-width="5.5px"/><path d="M68.2 68.2h7.3" fill="none" stroke="#55585e" stroke-width="5.5px"/></g><g transform="translate(48,79.5) scale(1,0) translate(-48,-82.8)" style="animation: 6s linear infinite both a1_t;"><path d="M90 82.7h-80" fill="none" stroke="#55585e" stroke-width="5.5px"/><path d="M68.2 82.7v-61.8c0-2-1.6-3.6-3.7-3.6h-29c-2.1 0-3.7 1.6-3.7 3.6v61.8" fill="none" stroke="#55585e" stroke-width="5.5px" stroke-dasharray="163.9 163.9"/><path d="M31.8 39.1h-14.5c-2 0-3.7 1.6-3.7 3.6v40" fill="none" stroke="#55585e" stroke-width="5.5px" stroke-dasharray="60.1 60.1"/><path d="M86.4 82.7v-40c0-2-1.7-3.6-3.7-3.6h-14.5" fill="none" stroke="#55585e" stroke-width="5.5px" stroke-dasharray="60.1 60.1"/></g><g transform="translate(50,79.4) scale(1,0) translate(-9.1,-14.5)" style="animation: 6s linear infinite both a2_t;"><path d="M0 0h18.2" fill="none" stroke="#55585e" stroke-width="5.5px"/><path d="M14.6 0v14.5" fill="none" stroke="#55585e" stroke-width="5.5px"/><path d="M3.6 14.5v-14.5" fill="none" stroke="#55585e" stroke-width="5.5px"/></g></svg>