<svg width="20" height="20" viewBox="0 0 20 20" fill="none" xmlns="http://www.w3.org/2000/svg">
<path d="M19.193 8.60781L19.1864 8.60445L1.38971 0.0878334C1.24002 0.0155466 1.07714 -0.0128034 0.91563 0.0053194C0.75412 0.0234422 0.599022 0.0874726 0.46421 0.191683C0.321778 0.299363 0.204783 0.446211 0.123751 0.619012C0.0427195 0.791813 0.000193807 0.985146 2.27526e-07 1.18162V6.62842C7.93735e-05 6.89701 0.0813656 7.15716 0.229849 7.36402C0.378332 7.57088 0.584709 7.7115 0.81341 7.76163L10.5197 9.83237C10.5579 9.84071 10.5923 9.86415 10.6171 9.89865C10.6418 9.93314 10.6554 9.97653 10.6554 10.0213C10.6554 10.0661 10.6418 10.1095 10.6171 10.144C10.5923 10.1785 10.5579 10.2019 10.5197 10.2103L0.813826 12.281C0.58519 12.331 0.378824 12.4714 0.230275 12.6781C0.0817253 12.8848 0.000291703 13.1448 2.27526e-07 13.4133V18.861C-0.00011044 19.0486 0.0401514 19.2333 0.117173 19.3986C0.194194 19.5638 0.305565 19.7044 0.441291 19.8077C0.604556 19.9328 0.79616 19.9997 0.992176 20C1.12845 19.9999 1.26332 19.9683 1.38888 19.9072L19.1851 11.4392L19.193 11.4348C19.4326 11.316 19.6367 11.1188 19.7801 10.8676C19.9236 10.6164 20 10.3222 20 10.0213C20 9.72049 19.9236 9.42626 19.7801 9.17503C19.6367 8.9238 19.4326 8.72659 19.193 8.60781Z" fill="#7CBC42"/>
<path d="M19.193 8.60781L19.1864 8.60445L1.38971 0.0878334C1.24002 0.0155466 1.07714 -0.0128034 0.91563 0.0053194C0.75412 0.0234422 0.599022 0.0874726 0.46421 0.191683C0.321778 0.299363 0.204783 0.446211 0.123751 0.619012C0.0427195 0.791813 0.000193807 0.985146 2.27526e-07 1.18162V6.62842C7.93735e-05 6.89701 0.0813656 7.15716 0.229849 7.36402C0.378332 7.57088 0.584709 7.7115 0.81341 7.76163L10.5197 9.83237C10.5579 9.84071 10.5923 9.86415 10.6171 9.89865C10.6418 9.93314 10.6554 9.97653 10.6554 10.0213C10.6554 10.0661 10.6418 10.1095 10.6171 10.144C10.5923 10.1785 10.5579 10.2019 10.5197 10.2103L0.813826 12.281C0.58519 12.331 0.378824 12.4714 0.230275 12.6781C0.0817253 12.8848 0.000291703 13.1448 2.27526e-07 13.4133V18.861C-0.00011044 19.0486 0.0401514 19.2333 0.117173 19.3986C0.194194 19.5638 0.305565 19.7044 0.441291 19.8077C0.604556 19.9328 0.79616 19.9997 0.992176 20C1.12845 19.9999 1.26332 19.9683 1.38888 19.9072L19.1851 11.4392L19.193 11.4348C19.4326 11.316 19.6367 11.1188 19.7801 10.8676C19.9236 10.6164 20 10.3222 20 10.0213C20 9.72049 19.9236 9.42626 19.7801 9.17503C19.6367 8.9238 19.4326 8.72659 19.193 8.60781Z" fill="#39A046"/>
<path d="M19.193 8.60781L19.1864 8.60445L1.38971 0.0878334C1.24002 0.0155466 1.07714 -0.0128034 0.91563 0.0053194C0.75412 0.0234422 0.599022 0.0874726 0.46421 0.191683C0.321778 0.299363 0.204783 0.446211 0.123751 0.619012C0.0427195 0.791813 0.000193807 0.985146 2.27526e-07 1.18162V6.62842C7.93735e-05 6.89701 0.0813656 7.15716 0.229849 7.36402C0.378332 7.57088 0.584709 7.7115 0.81341 7.76163L10.5197 9.83237C10.5579 9.84071 10.5923 9.86415 10.6171 9.89865C10.6418 9.93314 10.6554 9.97653 10.6554 10.0213C10.6554 10.0661 10.6418 10.1095 10.6171 10.144C10.5923 10.1785 10.5579 10.2019 10.5197 10.2103L0.813826 12.281C0.58519 12.331 0.378824 12.4714 0.230275 12.6781C0.0817253 12.8848 0.000291703 13.1448 2.27526e-07 13.4133V18.861C-0.00011044 19.0486 0.0401514 19.2333 0.117173 19.3986C0.194194 19.5638 0.305565 19.7044 0.441291 19.8077C0.604556 19.9328 0.79616 19.9997 0.992176 20C1.12845 19.9999 1.26332 19.9683 1.38888 19.9072L19.1851 11.4392L19.193 11.4348C19.4326 11.316 19.6367 11.1188 19.7801 10.8676C19.9236 10.6164 20 10.3222 20 10.0213C20 9.72049 19.9236 9.42626 19.7801 9.17503C19.6367 8.9238 19.4326 8.72659 19.193 8.60781Z" fill="#3272ED"/>
<path d="M19.193 8.60781L19.1864 8.60445L1.38971 0.0878334C1.24002 0.0155466 1.07714 -0.0128034 0.91563 0.0053194C0.75412 0.0234422 0.599022 0.0874726 0.46421 0.191683C0.321778 0.299363 0.204783 0.446211 0.123751 0.619012C0.0427195 0.791813 0.000193807 0.985146 2.27526e-07 1.18162V6.62842C7.93735e-05 6.89701 0.0813656 7.15716 0.229849 7.36402C0.378332 7.57088 0.584709 7.7115 0.81341 7.76163L10.5197 9.83237C10.5579 9.84071 10.5923 9.86415 10.6171 9.89865C10.6418 9.93314 10.6554 9.97653 10.6554 10.0213C10.6554 10.0661 10.6418 10.1095 10.6171 10.144C10.5923 10.1785 10.5579 10.2019 10.5197 10.2103L0.813826 12.281C0.58519 12.331 0.378824 12.4714 0.230275 12.6781C0.0817253 12.8848 0.000291703 13.1448 2.27526e-07 13.4133V18.861C-0.00011044 19.0486 0.0401514 19.2333 0.117173 19.3986C0.194194 19.5638 0.305565 19.7044 0.441291 19.8077C0.604556 19.9328 0.79616 19.9997 0.992176 20C1.12845 19.9999 1.26332 19.9683 1.38888 19.9072L19.1851 11.4392L19.193 11.4348C19.4326 11.316 19.6367 11.1188 19.7801 10.8676C19.9236 10.6164 20 10.3222 20 10.0213C20 9.72049 19.9236 9.42626 19.7801 9.17503C19.6367 8.9238 19.4326 8.72659 19.193 8.60781Z" fill="#4889DE"/>
</svg>
