<svg width="24" height="24" viewBox="0 0 24 24" fill="none" xmlns="http://www.w3.org/2000/svg">
<path d="M21.193 10.6078L21.1864 10.6044L3.38971 2.08783C3.24002 2.01555 3.07714 1.9872 2.91563 2.00532C2.75412 2.02344 2.59902 2.08747 2.46421 2.19168C2.32178 2.29936 2.20478 2.44621 2.12375 2.61901C2.04272 2.79181 2.00019 2.98515 2 3.18162V8.62842C2.00008 8.89701 2.08137 9.15716 2.22985 9.36402C2.37833 9.57088 2.58471 9.7115 2.81341 9.76163L12.5197 11.8324C12.5579 11.8407 12.5923 11.8642 12.6171 11.8987C12.6418 11.9331 12.6554 11.9765 12.6554 12.0213C12.6554 12.0661 12.6418 12.1095 12.6171 12.144C12.5923 12.1785 12.5579 12.2019 12.5197 12.2103L2.81383 14.281C2.58519 14.331 2.37882 14.4714 2.23027 14.6781C2.08173 14.8848 2.00029 15.1448 2 15.4133V20.861C1.99989 21.0486 2.04015 21.2333 2.11717 21.3986C2.19419 21.5638 2.30556 21.7044 2.44129 21.8077C2.60456 21.9328 2.79616 21.9997 2.99218 22C3.12845 21.9999 3.26332 21.9683 3.38888 21.9072L21.1851 13.4392L21.193 13.4348C21.4326 13.316 21.6367 13.1188 21.7801 12.8676C21.9236 12.6164 22 12.3222 22 12.0213C22 11.7205 21.9236 11.4263 21.7801 11.175C21.6367 10.9238 21.4326 10.7266 21.193 10.6078Z" fill="#7CBC42"/>
<path d="M21.193 10.6078L21.1864 10.6044L3.38971 2.08783C3.24002 2.01555 3.07714 1.9872 2.91563 2.00532C2.75412 2.02344 2.59902 2.08747 2.46421 2.19168C2.32178 2.29936 2.20478 2.44621 2.12375 2.61901C2.04272 2.79181 2.00019 2.98515 2 3.18162V8.62842C2.00008 8.89701 2.08137 9.15716 2.22985 9.36402C2.37833 9.57088 2.58471 9.7115 2.81341 9.76163L12.5197 11.8324C12.5579 11.8407 12.5923 11.8642 12.6171 11.8987C12.6418 11.9331 12.6554 11.9765 12.6554 12.0213C12.6554 12.0661 12.6418 12.1095 12.6171 12.144C12.5923 12.1785 12.5579 12.2019 12.5197 12.2103L2.81383 14.281C2.58519 14.331 2.37882 14.4714 2.23027 14.6781C2.08173 14.8848 2.00029 15.1448 2 15.4133V20.861C1.99989 21.0486 2.04015 21.2333 2.11717 21.3986C2.19419 21.5638 2.30556 21.7044 2.44129 21.8077C2.60456 21.9328 2.79616 21.9997 2.99218 22C3.12845 21.9999 3.26332 21.9683 3.38888 21.9072L21.1851 13.4392L21.193 13.4348C21.4326 13.316 21.6367 13.1188 21.7801 12.8676C21.9236 12.6164 22 12.3222 22 12.0213C22 11.7205 21.9236 11.4263 21.7801 11.175C21.6367 10.9238 21.4326 10.7266 21.193 10.6078Z" fill="#39A046"/>
<path d="M21.193 10.6078L21.1864 10.6044L3.38971 2.08783C3.24002 2.01555 3.07714 1.9872 2.91563 2.00532C2.75412 2.02344 2.59902 2.08747 2.46421 2.19168C2.32178 2.29936 2.20478 2.44621 2.12375 2.61901C2.04272 2.79181 2.00019 2.98515 2 3.18162V8.62842C2.00008 8.89701 2.08137 9.15716 2.22985 9.36402C2.37833 9.57088 2.58471 9.7115 2.81341 9.76163L12.5197 11.8324C12.5579 11.8407 12.5923 11.8642 12.6171 11.8987C12.6418 11.9331 12.6554 11.9765 12.6554 12.0213C12.6554 12.0661 12.6418 12.1095 12.6171 12.144C12.5923 12.1785 12.5579 12.2019 12.5197 12.2103L2.81383 14.281C2.58519 14.331 2.37882 14.4714 2.23027 14.6781C2.08173 14.8848 2.00029 15.1448 2 15.4133V20.861C1.99989 21.0486 2.04015 21.2333 2.11717 21.3986C2.19419 21.5638 2.30556 21.7044 2.44129 21.8077C2.60456 21.9328 2.79616 21.9997 2.99218 22C3.12845 21.9999 3.26332 21.9683 3.38888 21.9072L21.1851 13.4392L21.193 13.4348C21.4326 13.316 21.6367 13.1188 21.7801 12.8676C21.9236 12.6164 22 12.3222 22 12.0213C22 11.7205 21.9236 11.4263 21.7801 11.175C21.6367 10.9238 21.4326 10.7266 21.193 10.6078Z" fill="#3272ED"/>
<path d="M21.193 10.6078L21.1864 10.6044L3.38971 2.08783C3.24002 2.01555 3.07714 1.9872 2.91563 2.00532C2.75412 2.02344 2.59902 2.08747 2.46421 2.19168C2.32178 2.29936 2.20478 2.44621 2.12375 2.61901C2.04272 2.79181 2.00019 2.98515 2 3.18162V8.62842C2.00008 8.89701 2.08137 9.15716 2.22985 9.36402C2.37833 9.57088 2.58471 9.7115 2.81341 9.76163L12.5197 11.8324C12.5579 11.8407 12.5923 11.8642 12.6171 11.8987C12.6418 11.9331 12.6554 11.9765 12.6554 12.0213C12.6554 12.0661 12.6418 12.1095 12.6171 12.144C12.5923 12.1785 12.5579 12.2019 12.5197 12.2103L2.81383 14.281C2.58519 14.331 2.37882 14.4714 2.23027 14.6781C2.08173 14.8848 2.00029 15.1448 2 15.4133V20.861C1.99989 21.0486 2.04015 21.2333 2.11717 21.3986C2.19419 21.5638 2.30556 21.7044 2.44129 21.8077C2.60456 21.9328 2.79616 21.9997 2.99218 22C3.12845 21.9999 3.26332 21.9683 3.38888 21.9072L21.1851 13.4392L21.193 13.4348C21.4326 13.316 21.6367 13.1188 21.7801 12.8676C21.9236 12.6164 22 12.3222 22 12.0213C22 11.7205 21.9236 11.4263 21.7801 11.175C21.6367 10.9238 21.4326 10.7266 21.193 10.6078Z" fill="#4889DE"/>
</svg>
