<svg width="32" height="32" viewBox="0 0 32 32" fill="none" xmlns="http://www.w3.org/2000/svg">
<path d="M28.9201 7.83C24.3601 0.8 15.0501 -1.29 7.83007 3.08C0.800069 7.45 -1.47993 16.95 3.08007 23.98L3.46007 24.55L1.94007 30.25L7.64007 28.73L8.21007 29.11C10.6801 30.44 13.3401 31.2 16.0001 31.2C18.8501 31.2 21.7001 30.44 24.1701 28.92C31.2001 24.36 33.2901 15.05 28.9201 7.83ZM24.9301 22.46C24.1701 23.6 23.2201 24.36 21.8901 24.55C21.1301 24.55 20.1801 24.93 16.3801 23.41C13.1501 21.89 10.4901 19.42 8.59007 16.57C7.45007 15.24 6.88007 13.53 6.69007 11.82C6.69007 10.3 7.26007 8.97 8.21007 8.02C8.59007 7.64 8.97007 7.45 9.35007 7.45H10.3001C10.6801 7.45 11.0601 7.45 11.2501 8.21C11.6301 9.16 12.5801 11.44 12.5801 11.63C12.7701 11.82 12.7701 12.2 12.5801 12.39C12.7701 12.77 12.5801 13.15 12.3901 13.34C12.2001 13.53 12.0101 13.91 11.8201 14.1C11.4401 14.29 11.2501 14.67 11.4401 15.05C12.2001 16.19 13.1501 17.33 14.1001 18.28C15.2401 19.23 16.3801 19.99 17.7101 20.56C18.0901 20.75 18.4701 20.75 18.6601 20.37C18.8501 19.99 19.8001 19.04 20.1801 18.66C20.5601 18.28 20.7501 18.28 21.1301 18.47L24.1701 19.99C24.5501 20.18 24.9301 20.37 25.1201 20.56C25.3101 21.13 25.3101 21.89 24.9301 22.46Z" fill="#B78B52"/>
</svg>
