<svg width="21" height="18" viewBox="0 0 21 18" fill="none" xmlns="http://www.w3.org/2000/svg">
<path fill-rule="evenodd" clip-rule="evenodd" d="M18.1363 9H2.86362C1.80885 9 0.954529 9.895 0.954529 11V13.933C0.954529 14.485 1.38217 14.933 1.90907 14.933H19.0909C19.6178 14.933 20.0454 14.485 20.0454 13.933V11C20.0454 9.895 19.1911 9 18.1363 9Z" stroke="#55585E" stroke-width="1.5" stroke-linecap="round" stroke-linejoin="round"/>
<path d="M2.86365 8.99998V3.93298C2.86365 2.27598 4.1456 0.932983 5.72728 0.932983H15.2727C16.8544 0.932983 18.1364 2.27598 18.1364 3.93298V8.99998" stroke="#55585E" stroke-width="1.5" stroke-linecap="round" stroke-linejoin="round"/>
<path d="M19.0909 15V16.93" stroke="#55585E" stroke-width="1.5" stroke-linecap="round" stroke-linejoin="round"/>
<path d="M1.90912 15V16.93" stroke="#55585E" stroke-width="1.5" stroke-linecap="round" stroke-linejoin="round"/>
<path d="M6.20453 9C6.20453 7.343 7.48648 6 9.06817 6H11.9318C13.5135 6 14.7954 7.343 14.7954 9" stroke="#55585E" stroke-width="1.5" stroke-linecap="round" stroke-linejoin="round"/>
</svg>
