<svg width="33" height="33" viewBox="0 0 33 33" fill="none" xmlns="http://www.w3.org/2000/svg">
<path d="M28.0521 4.79742C26.5392 3.2705 24.7375 2.05995 22.7521 1.23631C20.7666 0.412677 18.6371 -0.00757735 16.4876 4.07091e-05C7.48069 4.07091e-05 0.14025 7.33842 0.132 16.3474C0.132 19.2329 0.886875 22.0399 2.31206 24.5252L0 33L8.67075 30.7272C11.0694 32.0326 13.7567 32.7168 16.4876 32.7175H16.4959C25.5049 32.7175 32.8433 25.3791 32.8515 16.3619C32.8536 14.2128 32.4304 12.0846 31.6063 10.0999C30.7822 8.11509 29.5736 6.313 28.05 4.79742H28.0521ZM16.4876 29.9496C14.0518 29.9504 11.6608 29.295 9.56588 28.0521L9.07087 27.7551L3.927 29.104L5.30062 24.0859L4.97888 23.5682C3.61723 21.4033 2.89708 18.8967 2.90194 16.3392C2.90194 8.86054 9.00075 2.75967 16.4959 2.75967C18.2815 2.75646 20.05 3.10673 21.6996 3.79028C23.3492 4.47383 24.8471 5.47713 26.1071 6.74235C27.3715 8.00264 28.3738 9.50079 29.0563 11.1504C29.7388 12.8 30.088 14.5684 30.0836 16.3536C30.0754 23.859 23.9766 29.9496 16.4876 29.9496ZM23.9436 19.7732C23.5373 19.569 21.5304 18.5811 21.153 18.4409C20.7776 18.3068 20.5033 18.2367 20.2352 18.645C19.9609 19.0514 19.1771 19.9774 18.942 20.2435C18.7069 20.5178 18.4635 20.5487 18.0551 20.3466C17.6488 20.1404 16.3309 19.7114 14.7716 18.315C13.5548 17.2322 12.7401 15.8916 12.4967 15.4853C12.2616 15.0769 12.474 14.8583 12.6782 14.6541C12.8576 14.4726 13.0845 14.1756 13.2887 13.9405C13.4949 13.7054 13.563 13.5321 13.6971 13.2599C13.8311 12.9835 13.7672 12.7484 13.6661 12.5442C13.563 12.34 12.7483 10.3249 12.4039 9.51229C12.0739 8.70998 11.7377 8.82135 11.4861 8.81104C11.2509 8.7966 10.9766 8.7966 10.7023 8.7966C10.4952 8.80175 10.2913 8.84966 10.1036 8.93733C9.9158 9.025 9.74819 9.15053 9.61125 9.30604C9.23588 9.71442 8.18606 10.7024 8.18606 12.7174C8.18606 14.7325 9.65044 16.6692 9.85669 16.9435C10.0588 17.2178 12.7318 21.3407 16.8341 23.1145C17.8035 23.5373 18.5666 23.7869 19.1627 23.9766C20.1424 24.2901 21.0272 24.2427 21.7326 24.1416C22.5163 24.022 24.1478 23.1516 24.4922 22.1967C24.8304 21.2397 24.8304 20.4229 24.7273 20.2517C24.6263 20.0785 24.3519 19.9774 23.9436 19.7732Z" fill="black"/>
</svg>
