<svg width="36" height="34" viewBox="0 0 36 34" fill="none" xmlns="http://www.w3.org/2000/svg">
<path fill-rule="evenodd" clip-rule="evenodd" d="M11.5684 11.2936V18.0483C12.4212 18.564 13.234 19.142 14.0067 19.7596C15.0027 20.5586 15.9243 21.437 16.7599 22.3776C17.0461 22.6723 17.3323 22.967 17.6243 23.2446L17.7216 23.137C17.9734 22.8423 18.2424 22.5476 18.5286 22.253C19.1182 21.6466 19.7822 21.0403 20.4977 20.4623C21.0071 20.0486 21.5394 19.652 22.0832 19.2723L22.0889 19.2666C22.5125 18.9663 22.9303 18.6886 23.3482 18.4223V11.2936L17.4583 7.82562L11.5684 11.2936Z" fill="#666633"/>
<path fill-rule="evenodd" clip-rule="evenodd" d="M14.0359 31.127C9.36517 29.9596 5.59312 26.571 3.91602 22.168C4.83184 22.4796 5.72477 22.8706 6.57763 23.3353C7.52208 23.851 8.42645 24.4516 9.26214 25.1203C10.0978 25.7946 10.8763 26.5426 11.5689 27.3416C12.2557 28.135 12.8568 28.9736 13.3605 29.8576C13.5951 30.2656 13.8241 30.6906 14.0359 31.127Z" fill="#666633"/>
<path fill-rule="evenodd" clip-rule="evenodd" d="M19.7706 31.4216C19.6562 31.0193 19.5302 30.6283 19.3871 30.243C19.1582 29.6026 18.8949 28.985 18.6144 28.3956C18.3339 27.8006 18.0306 27.2283 17.71 26.6673C17.1205 25.636 16.4107 24.6443 15.6094 23.715C14.7966 22.7743 13.8865 21.9016 12.8962 21.1083C11.9174 20.3206 10.8585 19.6123 9.74808 19.0116C8.66053 18.4223 7.52148 17.9293 6.35953 17.5553C5.72417 17.3513 4.83697 17.1246 3.84673 16.9206C3.73798 16.898 3.63495 16.881 3.53192 16.8583C3.40027 16.8356 3.26862 16.813 3.14269 16.796L2.98242 16.7676C2.98242 16.864 2.98242 16.9603 2.98242 17.0566C2.98242 18.156 3.10262 19.2213 3.3373 20.247C3.66357 20.332 3.95549 20.417 4.20734 20.4963C5.30633 20.8476 6.37097 21.3066 7.38983 21.862C8.42585 22.423 9.41037 23.0803 10.3319 23.817C11.2535 24.5593 12.1006 25.3753 12.8619 26.2593C13.6174 27.1263 14.2757 28.0556 14.8309 29.0246C15.1285 29.5403 15.409 30.073 15.6723 30.6283C15.804 30.9116 15.9356 31.195 16.0558 31.4896C16.5767 31.5406 17.1033 31.569 17.6413 31.569C18.3626 31.569 19.078 31.518 19.7706 31.4216Z" fill="#666633"/>
<path fill-rule="evenodd" clip-rule="evenodd" d="M30.91 23.239C30.6353 23.307 30.3605 23.3863 30.0858 23.4713C29.6794 23.596 29.273 23.7376 28.8609 23.8963C28.443 24.0606 28.0252 24.2363 27.6016 24.4346C27.2868 24.5763 26.9663 24.7406 26.64 24.9106C26.3137 25.092 25.9875 25.279 25.6669 25.4773C25.3407 25.6756 25.0144 25.8853 24.6939 26.1063C24.3733 26.3273 24.0642 26.554 23.7609 26.7863C23.4804 27.0016 23.2171 27.217 22.9653 27.4266C22.7134 27.642 22.473 27.863 22.244 28.0783C22.0265 28.2823 21.8205 28.4863 21.6316 28.6903C21.4656 28.866 21.3168 29.036 21.1737 29.206C21.1966 29.2626 21.0935 29.3703 21.002 29.478C21.1908 29.9823 21.3683 30.5093 21.5171 31.059C25.6784 29.9313 29.1013 27.0356 30.91 23.239Z" fill="#666633"/>
<path fill-rule="evenodd" clip-rule="evenodd" d="M32.3002 17.1133C31.9338 17.1586 31.5732 17.2096 31.2126 17.2719C30.2911 17.4306 29.4039 17.6573 28.5109 17.9576C27.618 18.2579 26.7251 18.6319 25.7921 19.0909C25.088 19.4423 24.3783 19.8503 23.68 20.3036C22.9645 20.7683 22.2604 21.2783 21.6136 21.8053C21.0183 22.287 20.4631 22.7856 19.9709 23.2786C19.5015 23.7433 19.0894 24.208 18.7402 24.6556C18.8662 24.939 19.0722 25.3356 19.3126 25.806V25.8116C19.5645 26.2933 19.8449 26.8373 20.1311 27.4436C20.3143 27.251 20.5032 27.0526 20.7035 26.86C20.9783 26.588 21.2759 26.316 21.585 26.0496C21.8998 25.7776 22.2261 25.5113 22.5581 25.262C22.8901 25.0013 23.2335 24.752 23.5827 24.5083C23.9261 24.276 24.2867 24.0436 24.6473 23.817C25.0022 23.6016 25.3628 23.392 25.7177 23.1993C26.0668 23.0123 26.4217 22.8366 26.7709 22.6723C27.246 22.457 27.7039 22.2586 28.1561 22.083C28.6082 21.9073 29.0604 21.7486 29.5126 21.6126C29.9648 21.4709 30.417 21.3519 30.8749 21.2499C31.1554 21.1876 31.4416 21.1253 31.7335 21.0799C32.0941 19.8163 32.2944 18.4903 32.3002 17.1133Z" fill="#666633"/>
<path fill-rule="evenodd" clip-rule="evenodd" d="M24.6526 9.93931C24.7098 9.97331 24.7556 10.0073 24.7957 10.047C24.8358 10.0866 24.8644 10.1263 24.8873 10.1716C24.9846 10.251 25.059 10.3586 25.1105 10.472C25.162 10.5853 25.1907 10.71 25.1907 10.846V17.442C26.1294 16.9886 27.0452 16.609 27.9553 16.303C28.9341 15.9743 29.9072 15.7306 30.9146 15.555C31.3381 15.4813 31.7674 15.419 32.2024 15.3736C31.361 8.15431 25.162 2.54431 17.6408 2.54431C10.2455 2.54431 4.12668 7.96731 3.125 15.0166C3.49133 15.079 3.85194 15.147 4.20109 15.215C5.26002 15.436 6.21019 15.6796 6.89705 15.895C7.86439 16.2066 8.80884 16.592 9.73039 17.0396V10.846C9.73039 10.71 9.75901 10.5853 9.81052 10.472C9.86204 10.3586 9.93645 10.251 10.028 10.1716C10.0566 10.1263 10.0853 10.0866 10.1253 10.047C10.1654 10.0073 10.2112 9.97331 10.2627 9.93931C11.0984 9.44631 9.56439 10.353 16.8509 6.06331L16.8967 6.01798C16.9196 6.00664 16.9368 5.98964 16.9597 5.97831C17.2115 5.83664 17.7095 5.83664 17.9614 5.97831C17.9785 5.98964 18.0014 6.00098 18.0186 6.01798C18.0358 6.02931 18.0529 6.04631 18.0701 6.06331C24.3035 9.73531 22.3516 8.58498 24.6526 9.93931Z" fill="#666633"/>
</svg>
