<svg width="299" height="120" viewBox="0 0 299 120" fill="none" xmlns="http://www.w3.org/2000/svg">
<path fill-rule="evenodd" clip-rule="evenodd" d="M134.873 20.99V35.94C136.746 37.08 138.538 38.35 140.249 39.72C142.434 41.49 144.477 43.43 146.32 45.51C146.944 46.16 147.578 46.81 148.232 47.43L148.444 47.2C148.987 46.55 149.581 45.89 150.216 45.24C151.514 43.9 152.984 42.56 154.555 41.28C155.672 40.37 156.85 39.48 158.048 38.64H158.058L158.078 38.63C159.004 37.97 159.931 37.35 160.847 36.77V20.99L147.86 13.31L134.873 20.99Z" fill="#666633"/>
<path fill-rule="evenodd" clip-rule="evenodd" d="M140.299 64.88C130.011 62.29 121.685 54.8 117.99 45.05C120.004 45.73 121.977 46.6 123.859 47.63C125.954 48.77 127.937 50.1 129.779 51.59C131.631 53.08 133.343 54.73 134.873 56.5C136.373 58.25 137.702 60.11 138.82 62.06C139.333 62.97 139.836 63.91 140.299 64.88Z" fill="#666633"/>
<path fill-rule="evenodd" clip-rule="evenodd" d="M152.953 65.52C152.702 64.64 152.42 63.77 152.118 62.92C151.604 61.5 151.031 60.14 150.406 58.83C149.792 57.51 149.118 56.24 148.413 55.01C147.114 52.72 145.554 50.53 143.782 48.47C141.99 46.4 139.977 44.46 137.802 42.71C135.638 40.96 133.302 39.4 130.856 38.07C128.46 36.76 125.953 35.67 123.376 34.84C121.986 34.39 120.023 33.89 117.839 33.44C117.607 33.39 117.375 33.35 117.144 33.3C116.852 33.25 116.57 33.2 116.278 33.16L115.936 33.1C115.936 33.32 115.926 33.53 115.926 33.74C115.926 36.17 116.198 38.53 116.711 40.79C117.436 40.98 118.08 41.17 118.644 41.35C121.06 42.13 123.406 43.15 125.651 44.37C127.936 45.61 130.111 47.07 132.134 48.7C134.168 50.34 136.04 52.15 137.722 54.1C139.383 56.02 140.842 58.08 142.071 60.22C142.715 61.36 143.339 62.54 143.913 63.77C144.215 64.39 144.497 65.03 144.769 65.67C145.916 65.79 147.074 65.86 148.262 65.86C149.853 65.86 151.423 65.74 152.953 65.52Z" fill="#666633"/>
<path fill-rule="evenodd" clip-rule="evenodd" d="M177.518 47.41C176.914 47.57 176.3 47.74 175.696 47.93C174.8 48.2 173.904 48.52 172.998 48.87C172.072 49.23 171.155 49.63 170.219 50.06C169.525 50.38 168.82 50.74 168.105 51.12C167.39 51.51 166.665 51.93 165.951 52.37C165.236 52.81 164.521 53.27 163.816 53.76C163.112 54.25 162.417 54.76 161.753 55.27C161.138 55.74 160.555 56.22 160.001 56.69C159.447 57.17 158.903 57.65 158.4 58.13C157.927 58.58 157.474 59.03 157.051 59.49C156.699 59.87 156.356 60.25 156.044 60.63C156.095 60.75 155.873 60.98 155.672 61.22C156.085 62.34 156.477 63.51 156.809 64.72C165.991 62.22 173.531 55.82 177.518 47.41Z" fill="#666633"/>
<path fill-rule="evenodd" clip-rule="evenodd" d="M180.587 33.87C179.772 33.96 178.977 34.08 178.191 34.21C176.158 34.56 174.195 35.06 172.232 35.73C170.268 36.39 168.285 37.23 166.242 38.25C164.681 39.02 163.111 39.92 161.58 40.92C159.99 41.95 158.449 43.08 157.01 44.25C155.711 45.31 154.483 46.41 153.386 47.51C152.369 48.53 151.453 49.56 150.688 50.56C150.959 51.18 151.412 52.06 151.946 53.1V53.11C152.5 54.17 153.114 55.38 153.748 56.72C154.151 56.29 154.573 55.86 155.016 55.43C155.62 54.83 156.275 54.23 156.959 53.64C157.654 53.04 158.369 52.45 159.094 51.89C159.829 51.32 160.594 50.77 161.369 50.23C162.124 49.71 162.909 49.2 163.705 48.7C164.49 48.22 165.285 47.76 166.07 47.34C166.846 46.92 167.621 46.53 168.396 46.17C169.433 45.69 170.45 45.25 171.446 44.87C172.443 44.48 173.44 44.13 174.436 43.82C175.433 43.51 176.43 43.24 177.436 43.02C178.061 42.87 178.695 42.75 179.329 42.64C180.134 39.85 180.577 36.91 180.587 33.87Z" fill="#666633"/>
<path fill-rule="evenodd" clip-rule="evenodd" d="M163.726 17.99C163.846 18.06 163.957 18.15 164.038 18.23C164.118 18.32 164.189 18.41 164.249 18.5C164.45 18.69 164.622 18.91 164.732 19.17C164.843 19.42 164.914 19.7 164.914 19.99V34.59C166.987 33.59 168.991 32.75 171.014 32.07C173.159 31.35 175.313 30.8 177.538 30.41C178.464 30.25 179.411 30.12 180.367 30.02C178.515 14.04 164.843 1.63 148.262 1.63C131.953 1.63 118.463 13.63 116.248 29.22C117.064 29.36 117.859 29.51 118.624 29.67C120.96 30.15 123.054 30.69 124.564 31.18C126.698 31.86 128.782 32.71 130.805 33.7V19.99C130.805 19.7 130.876 19.42 130.987 19.17C131.107 18.91 131.269 18.69 131.48 18.5C131.53 18.41 131.601 18.32 131.681 18.23C131.772 18.15 131.873 18.06 131.993 17.99C133.836 16.9 130.453 18.91 146.521 9.41L146.621 9.32C146.661 9.29 146.712 9.25 146.762 9.23C147.316 8.91 148.403 8.91 148.957 9.23C149.007 9.25 149.058 9.28 149.098 9.32C149.138 9.35 149.168 9.38 149.209 9.41C162.95 17.53 158.642 14.99 163.726 17.99Z" fill="#666633"/>
<path d="M39.8164 114.63H35.4371V107.74L34.2794 109.12C34.0378 109.41 33.7861 109.7 33.5243 109.97C33.2626 110.25 32.9908 110.52 32.7189 110.77C32.4371 111.03 32.1451 111.29 31.8431 111.53C31.5411 111.78 31.239 112.02 30.927 112.24C30.5645 112.49 30.2021 112.73 29.8397 112.96C29.4672 113.18 29.0947 113.39 28.7021 113.58C28.3195 113.77 27.937 113.95 27.5443 114.11C27.1517 114.27 26.749 114.41 26.3463 114.54C25.9336 114.66 25.5208 114.78 25.098 114.87C24.6852 114.97 24.2523 115.05 23.8295 115.11C23.3966 115.17 22.9536 115.22 22.5107 115.25C22.0677 115.29 21.6147 115.3 21.1616 115.3C20.8496 115.3 20.5375 115.29 20.2354 115.28C19.9334 115.26 19.6415 115.24 19.3395 115.21C19.0475 115.18 18.7455 115.14 18.4435 115.1C18.1414 115.05 17.8495 115 17.5475 114.94C17.2454 114.87 16.9535 114.81 16.6716 114.73C16.3797 114.66 16.0978 114.57 15.8058 114.48C15.534 114.39 15.2521 114.29 14.9702 114.19C14.6883 114.08 14.4165 113.97 14.1246 113.85C13.8528 113.72 13.5809 113.6 13.3091 113.47C13.0474 113.34 12.7856 113.2 12.5339 113.06L12.5138 113.05C12.2621 112.91 12.0205 112.77 11.7688 112.62C11.5171 112.46 11.2755 112.31 11.0339 112.14C10.7923 111.98 10.5507 111.81 10.3191 111.64C10.0876 111.46 9.85602 111.28 9.62447 111.1C9.40299 110.91 9.19157 110.72 8.97009 110.53C8.75868 110.33 8.54726 110.13 8.33585 109.93C8.12443 109.72 7.92309 109.51 7.73181 109.29C7.53046 109.08 7.34925 108.87 7.16804 108.65C6.97676 108.42 6.79555 108.19 6.6244 107.95C6.44319 107.72 6.27204 107.47 6.1009 107.23C5.93982 106.99 5.77874 106.74 5.62773 106.48C5.46666 106.23 5.31565 105.97 5.1747 105.71C5.03376 105.46 4.90289 105.19 4.77201 104.93C4.64114 104.65 4.51026 104.38 4.38945 104.1C4.26864 103.82 4.1579 103.54 4.04716 103.26C3.94649 102.98 3.84582 102.69 3.75521 102.4C3.6646 102.11 3.58406 101.81 3.50353 101.51C3.42299 101.22 3.36258 100.92 3.30218 100.62C3.23171 100.31 3.18137 100.01 3.13103 99.71C3.09076 99.41 3.0505 99.1 3.02029 98.79C2.99009 98.48 2.96996 98.18 2.94982 97.87C2.93975 97.56 2.92969 97.24 2.92969 96.93C2.92969 96.61 2.93975 96.29 2.94982 95.98C2.96996 95.67 2.99009 95.37 3.02029 95.07C3.0505 94.75 3.09076 94.44 3.13103 94.14C3.18137 93.84 3.23171 93.54 3.30218 93.23C3.36258 92.93 3.42299 92.63 3.50353 92.34C3.58406 92.04 3.6646 91.74 3.75521 91.45C3.84582 91.16 3.94649 90.87 4.04716 90.59C4.1579 90.31 4.26864 90.03 4.38945 89.75C4.51026 89.47 4.64114 89.2 4.77201 88.92C4.90289 88.66 5.03376 88.39 5.1747 88.14C5.31565 87.88 5.46666 87.63 5.61767 87.37C5.77874 87.11 5.93982 86.86 6.1009 86.62C6.27204 86.38 6.44319 86.13 6.6244 85.9C6.79555 85.66 6.97676 85.43 7.16804 85.21C7.34925 84.99 7.53046 84.77 7.73181 84.56C7.92309 84.34 8.12443 84.13 8.33585 83.92C8.54726 83.71 8.75868 83.51 8.98016 83.31C9.19157 83.12 9.41305 82.93 9.63454 82.75C9.85602 82.57 10.0876 82.39 10.3292 82.22C10.5607 82.04 10.8124 81.87 11.054 81.7C11.2956 81.54 11.5473 81.38 11.8091 81.22C12.0608 81.07 12.3225 80.92 12.5843 80.78C12.8359 80.64 13.1078 80.51 13.3796 80.38C13.6514 80.25 13.9232 80.12 14.2051 80C14.4769 79.88 14.7689 79.77 15.0508 79.66C15.3326 79.56 15.6246 79.46 15.9166 79.37C16.2085 79.28 16.5105 79.19 16.8125 79.12C17.1045 79.04 17.4065 78.97 17.7085 78.91C18.0206 78.85 18.3226 78.8 18.6247 78.75C18.9267 78.71 19.2388 78.67 19.5609 78.64C19.863 78.61 20.175 78.59 20.4771 78.57C20.7891 78.56 21.1113 78.55 21.4335 78.55C21.7455 78.55 22.0677 78.56 22.3798 78.57C22.6919 78.59 23.004 78.61 23.306 78.64C23.6181 78.67 23.9302 78.71 24.2322 78.75C24.5342 78.8 24.8362 78.85 25.1483 78.91C25.4604 78.98 25.7523 79.04 26.0443 79.12C26.3463 79.19 26.6483 79.28 26.9403 79.37C27.2322 79.46 27.5242 79.56 27.8061 79.66C28.088 79.77 28.3699 79.88 28.6517 80C28.9336 80.12 29.2155 80.25 29.4873 80.38C29.7591 80.51 30.0209 80.64 30.2726 80.78C30.5343 80.92 30.7961 81.07 31.0478 81.22C31.3095 81.38 31.5612 81.54 31.8028 81.7C32.0545 81.87 32.2961 82.04 32.5277 82.21C32.7693 82.39 33.0008 82.57 33.2324 82.76C33.4539 82.94 33.6653 83.12 33.8767 83.31C34.0982 83.51 34.3096 83.71 34.521 83.92C34.9338 84.33 35.3365 84.77 35.7089 85.22C36.0814 85.66 36.4237 86.13 36.7559 86.61C37.0781 87.09 37.3902 87.6 37.6721 88.12C37.964 88.65 38.2258 89.19 38.4674 89.75C38.709 90.31 38.9305 90.88 39.1117 91.46C39.2929 92.04 39.4439 92.63 39.5647 93.22C39.6855 93.81 39.7761 94.42 39.8366 95.04C39.897 95.66 39.9272 96.29 39.9272 96.93V114.63H39.8164ZM7.49019 98.36C7.53046 98.83 7.60093 99.29 7.69154 99.75C7.78215 100.21 7.89289 100.66 8.02376 101.1C8.1647 101.54 8.31571 101.98 8.49693 102.4C8.58753 102.61 8.67814 102.81 8.77881 103.03C8.87948 103.24 8.99023 103.45 9.10097 103.65C9.21171 103.86 9.32245 104.05 9.43319 104.25C9.54393 104.44 9.66474 104.62 9.78555 104.8L9.98689 105.09H9.99696L10.299 105.51L10.5909 105.87C10.8829 106.23 11.1849 106.56 11.497 106.86C11.8091 107.18 12.1413 107.48 12.4836 107.76C12.8359 108.05 13.1984 108.32 13.5709 108.57C13.9434 108.82 14.336 109.06 14.7286 109.27C15.1313 109.49 15.534 109.69 15.9568 109.88C16.1783 109.97 16.3897 110.06 16.6112 110.14C16.8226 110.22 17.0441 110.29 17.2555 110.36C17.4669 110.43 17.6884 110.49 17.9099 110.55C18.1314 110.61 18.3629 110.66 18.5945 110.7C18.8059 110.75 19.0374 110.79 19.279 110.82C19.5106 110.86 19.7522 110.89 19.9838 110.91C20.467 110.95 20.9502 110.98 21.4335 110.98C21.6751 110.98 21.9066 110.97 22.1482 110.96C22.3999 110.95 22.6415 110.93 22.8832 110.91C23.1147 110.89 23.3463 110.86 23.5778 110.82C23.8194 110.79 24.051 110.75 24.2624 110.7C24.4939 110.66 24.7255 110.6 24.947 110.55C25.1684 110.49 25.3899 110.43 25.6013 110.36C25.8228 110.29 26.0342 110.22 26.2456 110.14C26.4671 110.06 26.6886 109.97 26.9 109.88C27.1215 109.78 27.3329 109.68 27.5443 109.58C27.7457 109.48 27.947 109.38 28.1383 109.27C28.3397 109.17 28.5309 109.05 28.7222 108.94C28.9135 108.82 29.1048 108.7 29.296 108.57C29.4873 108.44 29.6685 108.31 29.8498 108.17C30.031 108.04 30.2021 107.91 30.3733 107.77C30.5444 107.63 30.7055 107.49 30.8766 107.34C31.0377 107.19 31.1988 107.03 31.3699 106.87V106.86C31.531 106.7 31.6921 106.54 31.833 106.38C31.984 106.22 32.125 106.05 32.2659 105.88C32.4169 105.7 32.5579 105.52 32.6887 105.34C32.8196 105.17 32.9505 104.98 33.0713 104.8C33.1921 104.62 33.3129 104.43 33.4237 104.24C33.5445 104.04 33.6552 103.85 33.7659 103.64C33.8767 103.44 33.9774 103.23 34.078 103.02C34.1787 102.81 34.2794 102.6 34.3599 102.4C34.4505 102.19 34.5311 101.97 34.6116 101.76C34.6921 101.54 34.7626 101.32 34.8331 101.1C34.9036 100.87 34.964 100.65 35.0244 100.42C35.0747 100.2 35.125 99.98 35.1754 99.76C35.2156 99.54 35.2559 99.31 35.2861 99.08C35.3163 98.84 35.3465 98.6 35.3667 98.37C35.3969 98.12 35.4069 97.88 35.4271 97.64C35.4371 97.4 35.4371 97.16 35.4371 96.93C35.4371 96.44 35.417 95.96 35.3767 95.49C35.3264 95.03 35.266 94.56 35.1754 94.1C35.0747 93.64 34.964 93.19 34.8331 92.75C34.7022 92.31 34.5411 91.88 34.3599 91.45C34.2693 91.24 34.1787 91.04 34.078 90.83C33.9774 90.62 33.8767 90.41 33.7659 90.21C33.6552 90 33.5445 89.81 33.4237 89.61C33.3028 89.42 33.1921 89.23 33.0713 89.05C32.9404 88.86 32.8196 88.68 32.6887 88.51C32.5579 88.33 32.4169 88.15 32.2659 87.97C32.125 87.79 31.974 87.63 31.833 87.47C31.6921 87.31 31.531 87.15 31.3699 86.99V86.98C31.1988 86.82 31.0377 86.66 30.8766 86.51C30.7055 86.37 30.5444 86.22 30.3733 86.08C30.2021 85.94 30.031 85.81 29.8498 85.68C29.6685 85.54 29.4873 85.41 29.296 85.28C29.1048 85.15 28.9135 85.03 28.7222 84.91C28.5309 84.8 28.3397 84.69 28.1383 84.58C27.947 84.47 27.7457 84.37 27.5443 84.27C27.3329 84.17 27.1215 84.07 26.9 83.97C26.6886 83.88 26.4671 83.79 26.2456 83.71C26.0342 83.63 25.8228 83.56 25.6013 83.49C25.3899 83.42 25.1684 83.36 24.947 83.3C24.7255 83.25 24.4939 83.19 24.2624 83.15C24.051 83.1 23.8194 83.06 23.5778 83.03C23.3463 82.99 23.1147 82.96 22.8832 82.94C22.3899 82.9 21.9066 82.87 21.4335 82.87C21.1918 82.87 20.9502 82.88 20.7086 82.89C20.467 82.9 20.2254 82.92 19.9838 82.94C19.7522 82.96 19.5106 82.99 19.279 83.03C19.0374 83.06 18.8059 83.1 18.5945 83.15C18.3629 83.19 18.1314 83.25 17.9099 83.3C17.6884 83.36 17.4669 83.42 17.2555 83.49C17.0441 83.56 16.8226 83.63 16.6112 83.71C16.3897 83.79 16.1783 83.88 15.9568 83.97C15.7454 84.07 15.5239 84.17 15.3226 84.27C15.1112 84.37 14.9098 84.47 14.7185 84.58C14.5273 84.69 14.3259 84.8 14.1346 84.91C13.9434 85.03 13.7521 85.15 13.5608 85.28C13.3796 85.4 13.2084 85.53 13.0272 85.67C12.846 85.8 12.6749 85.94 12.5037 86.08C12.1413 86.37 11.799 86.68 11.497 86.99C11.1748 87.3 10.8728 87.63 10.5909 87.98C10.309 88.32 10.0372 88.68 9.78555 89.05C9.53386 89.43 9.30231 89.81 9.0909 90.21C8.87948 90.61 8.67814 91.02 8.49693 91.45C8.41639 91.66 8.32578 91.87 8.25531 92.08C8.17477 92.3 8.09423 92.52 8.02376 92.75C7.96336 92.98 7.89289 93.2 7.84255 93.43C7.78215 93.65 7.73181 93.87 7.69154 94.09C7.6412 94.31 7.611 94.54 7.57073 94.77C7.54053 95.01 7.51033 95.25 7.49019 95.48C7.47006 95.73 7.44992 95.97 7.43986 96.21C7.41972 96.45 7.41972 96.69 7.41972 96.93C7.41972 97.41 7.43986 97.89 7.49019 98.36ZM59.8706 65.77H64.2499V86.26L65.4076 84.82L65.7499 84.41C65.8506 84.29 65.9613 84.16 66.072 84.04L66.4244 83.66L66.7667 83.32C66.9177 83.17 67.0788 83.02 67.2298 82.88C67.3808 82.74 67.5419 82.6 67.7029 82.46C67.864 82.32 68.0251 82.19 68.1862 82.06C68.3573 81.93 68.5184 81.81 68.6895 81.68C68.8607 81.56 69.0318 81.44 69.2131 81.31C69.3943 81.19 69.5654 81.08 69.7466 80.97C69.9178 80.87 70.0889 80.76 70.2802 80.65C70.4614 80.55 70.6426 80.45 70.8238 80.36C71.0252 80.26 71.2064 80.16 71.3977 80.08C71.5789 79.99 71.7701 79.9 71.9614 79.82C72.1527 79.74 72.3541 79.66 72.5554 79.59C72.7467 79.51 72.9581 79.44 73.1594 79.37C73.3608 79.3 73.5621 79.24 73.7736 79.18C73.9749 79.12 74.1863 79.07 74.3877 79.01C74.5991 78.96 74.8105 78.92 75.032 78.87C75.2434 78.83 75.4548 78.79 75.6662 78.76C75.8776 78.72 76.089 78.69 76.3005 78.67C76.5219 78.64 76.7434 78.62 76.9649 78.6C77.1662 78.58 77.3877 78.57 77.6092 78.56C77.8307 78.55 78.0421 78.55 78.2535 78.55C78.5757 78.55 78.8978 78.56 79.2099 78.57C79.522 78.59 79.824 78.61 80.1361 78.64C80.4482 78.67 80.7603 78.71 81.0623 78.75C81.3643 78.8 81.6663 78.85 81.9784 78.91C82.2805 78.98 82.5825 79.04 82.8744 79.12C83.1764 79.19 83.4785 79.28 83.7704 79.37C84.0624 79.46 84.3543 79.56 84.6362 79.66C84.9181 79.77 85.2 79.88 85.4819 80C85.7638 80.12 86.0356 80.25 86.3074 80.38C86.5792 80.51 86.851 80.64 87.1027 80.78C87.3645 80.92 87.6161 81.07 87.8779 81.22C88.1396 81.38 88.3913 81.54 88.6329 81.7C88.8746 81.87 89.1262 82.04 89.3578 82.22C89.5994 82.39 89.831 82.57 90.0524 82.75C90.2739 82.93 90.4954 83.12 90.7068 83.31C90.9283 83.51 91.1397 83.71 91.3511 83.92C91.7639 84.33 92.1565 84.77 92.529 85.22C92.9015 85.66 93.2539 86.13 93.576 86.61C93.9082 87.09 94.2103 87.6 94.5022 88.12C94.7841 88.65 95.0559 89.19 95.2975 89.75C95.5391 90.31 95.7506 90.88 95.9418 91.46C96.123 92.04 96.2741 92.63 96.3949 93.22C96.5157 93.81 96.6063 94.42 96.6667 95.04C96.7271 95.66 96.7573 96.29 96.7573 96.93C96.7573 97.56 96.7271 98.19 96.6667 98.81C96.6063 99.43 96.5157 100.04 96.3949 100.63C96.2741 101.22 96.123 101.81 95.9418 102.39C95.7506 102.97 95.5391 103.54 95.2975 104.1C95.1767 104.38 95.0458 104.66 94.915 104.93C94.7841 105.19 94.6532 105.46 94.5123 105.71C94.3713 105.97 94.2203 106.23 94.0592 106.48C93.9082 106.74 93.7472 106.99 93.5861 107.23C93.4149 107.47 93.2438 107.72 93.0626 107.96C92.8914 108.19 92.7102 108.42 92.5189 108.65C92.3377 108.87 92.1565 109.08 91.9552 109.29C91.7639 109.51 91.5625 109.72 91.3511 109.93C91.1397 110.14 90.9283 110.34 90.7068 110.54C90.4954 110.73 90.2739 110.92 90.0524 111.1C89.831 111.28 89.5994 111.46 89.3578 111.64C89.1262 111.81 88.8746 111.98 88.6329 112.15C88.3913 112.31 88.1396 112.47 87.8779 112.63C87.6161 112.78 87.3645 112.93 87.1027 113.07C86.851 113.21 86.5792 113.34 86.3074 113.47C86.0356 113.6 85.7638 113.73 85.4819 113.85C85.2 113.97 84.9181 114.08 84.6362 114.19C84.3543 114.29 84.0624 114.39 83.7704 114.48C83.4785 114.57 83.1764 114.66 82.8744 114.73C82.5825 114.81 82.2805 114.88 81.9784 114.94C81.6663 115 81.3643 115.05 81.0623 115.1C80.7603 115.14 80.4482 115.18 80.126 115.21C79.824 115.24 79.5119 115.26 79.2099 115.28C78.8978 115.29 78.5757 115.3 78.2535 115.3C77.9414 115.3 77.6193 115.29 77.3072 115.28C76.9951 115.26 76.6931 115.24 76.381 115.21C76.0689 115.18 75.7568 115.14 75.4548 115.1C75.1528 115.05 74.8508 115 74.5387 114.94C74.2366 114.88 73.9346 114.81 73.6427 114.73C73.3407 114.66 73.0386 114.57 72.7467 114.48C72.4547 114.39 72.1628 114.29 71.8809 114.19C71.599 114.08 71.3071 113.97 71.0352 113.85C70.7533 113.73 70.4715 113.6 70.1996 113.47C69.9278 113.34 69.6661 113.21 69.4144 113.07C69.1526 112.93 68.8909 112.78 68.6392 112.63C68.3775 112.47 68.1258 112.31 67.8842 112.15C67.6325 111.98 67.3909 111.81 67.1593 111.64C66.9177 111.46 66.6861 111.28 66.4546 111.1C66.2331 110.92 66.0217 110.73 65.8103 110.54C65.5888 110.34 65.3774 110.14 65.166 109.93C64.7532 109.52 64.3505 109.08 63.978 108.63C63.6055 108.19 63.2633 107.72 62.931 107.24C62.6089 106.76 62.2968 106.25 62.0149 105.73C61.7229 105.21 61.4612 104.66 61.2196 104.1C60.978 103.54 60.7565 102.97 60.5753 102.39C60.3941 101.81 60.243 101.22 60.1222 100.63C60.0014 100.04 59.9108 99.43 59.8504 98.81C59.79 98.19 59.7598 97.56 59.7598 96.93V65.77H59.8706ZM92.2471 96.21C92.2371 95.97 92.2169 95.73 92.1968 95.48C92.1767 95.25 92.1464 95.01 92.1162 94.77C92.076 94.54 92.0458 94.31 91.9954 94.09C91.9552 93.87 91.9048 93.65 91.8444 93.43C91.7941 93.2 91.7236 92.98 91.6632 92.75C91.5927 92.52 91.5122 92.3 91.4317 92.08C91.3612 91.87 91.2706 91.66 91.19 91.45C91.0994 91.24 91.0088 91.04 90.9082 90.83C90.8075 90.63 90.7068 90.42 90.5961 90.21C90.4853 90.01 90.3645 89.81 90.2538 89.62C90.143 89.42 90.0222 89.24 89.8914 89.05C89.7706 88.86 89.6397 88.68 89.5088 88.51C89.3779 88.33 89.237 88.16 89.096 87.98L88.9048 87.75L88.643 87.46L88.6631 87.44L88.2001 86.98C88.039 86.83 87.8779 86.67 87.7067 86.52C87.5457 86.37 87.3745 86.23 87.1933 86.08C87.0322 85.94 86.851 85.81 86.6799 85.68C86.4987 85.54 86.3074 85.41 86.1262 85.28C85.9349 85.15 85.7436 85.03 85.5523 84.91C85.3611 84.8 85.1597 84.69 84.9684 84.58C84.7772 84.47 84.5758 84.37 84.3644 84.27C84.163 84.17 83.9416 84.07 83.7301 83.97C83.5087 83.88 83.2973 83.79 83.0758 83.71C82.8644 83.63 82.6429 83.56 82.4315 83.49C82.22 83.42 81.9986 83.36 81.7771 83.3C81.5556 83.25 81.3241 83.19 81.0925 83.15C80.8811 83.1 80.6495 83.06 80.4079 83.03C80.1764 82.99 79.9348 82.96 79.7032 82.94C79.22 82.9 78.7367 82.87 78.2535 82.87C78.0119 82.87 77.7803 82.88 77.5387 82.89C77.2871 82.9 77.0454 82.92 76.8038 82.94C76.5723 82.96 76.3407 82.99 76.0991 83.03C75.8676 83.06 75.636 83.1 75.4246 83.15C75.183 83.2 74.9514 83.25 74.7299 83.3C74.5085 83.36 74.2971 83.42 74.0856 83.49C73.8642 83.56 73.6527 83.63 73.4413 83.71C73.2198 83.79 72.9984 83.88 72.787 83.97C72.5655 84.07 72.3541 84.17 72.1426 84.27C71.9413 84.37 71.74 84.47 71.5487 84.58C71.3473 84.69 71.156 84.8 70.9648 84.91C70.7735 85.03 70.5822 85.15 70.3909 85.28C70.1996 85.41 70.0184 85.54 69.8372 85.68C69.656 85.81 69.4849 85.94 69.3137 86.08C69.1426 86.22 68.9714 86.37 68.8104 86.52C68.6392 86.67 68.4781 86.83 68.3171 86.98L67.854 87.44L67.864 87.46L67.7936 87.54C67.5821 87.78 67.3707 88.02 67.1794 88.27C66.9781 88.53 66.7969 88.79 66.6157 89.05C66.364 89.43 66.1324 89.81 65.921 90.21C65.6995 90.61 65.5083 91.02 65.3271 91.45C65.2365 91.66 65.1559 91.87 65.0754 92.08C65.0049 92.3 64.9244 92.52 64.8539 92.75C64.7834 92.98 64.723 93.2 64.6626 93.43C64.6123 93.65 64.5619 93.87 64.5116 94.09C64.4713 94.31 64.4311 94.54 64.4009 94.77C64.3707 95.01 64.3405 95.25 64.3203 95.48C64.2901 95.73 64.2801 95.97 64.2599 96.21C64.2499 96.45 64.2499 96.69 64.2499 96.93C64.2499 97.16 64.2499 97.4 64.2599 97.64C64.2801 97.88 64.2901 98.12 64.3203 98.37C64.3405 98.6 64.3707 98.84 64.4009 99.08C64.4311 99.31 64.4713 99.54 64.5116 99.76C64.5619 99.98 64.6123 100.2 64.6626 100.42C64.723 100.65 64.7834 100.87 64.8539 101.1C64.9244 101.32 64.9948 101.55 65.0754 101.76C65.1559 101.98 65.2365 102.19 65.3271 102.4C65.4177 102.61 65.5083 102.81 65.6089 103.03C65.7096 103.24 65.8204 103.45 65.9311 103.65C66.0318 103.86 66.1425 104.05 66.2633 104.25C66.3741 104.44 66.4949 104.62 66.6157 104.8L66.807 105.09H66.817L67.1291 105.51L67.4211 105.87C67.5721 106.05 67.713 106.22 67.864 106.39L67.854 106.41L68.3171 106.87C68.4781 107.02 68.6392 107.18 68.8104 107.33C68.9714 107.48 69.1426 107.63 69.3137 107.77C69.4849 107.91 69.656 108.04 69.8372 108.18C70.0184 108.31 70.1996 108.44 70.3909 108.57C70.5822 108.7 70.7735 108.82 70.9648 108.94C71.156 109.05 71.3473 109.17 71.5487 109.27C71.74 109.38 71.9413 109.48 72.1426 109.58C72.3541 109.68 72.5655 109.78 72.787 109.88C72.9984 109.97 73.2198 110.06 73.4413 110.14C73.6527 110.22 73.8642 110.29 74.0856 110.36C74.2971 110.43 74.5185 110.49 74.74 110.55C74.9615 110.61 75.193 110.66 75.4246 110.7C75.636 110.75 75.8676 110.79 76.1092 110.82C76.3407 110.86 76.5723 110.89 76.8038 110.91C77.2971 110.95 77.7803 110.98 78.2535 110.98C78.4951 110.98 78.7367 110.97 78.9784 110.96C79.22 110.95 79.4616 110.93 79.7032 110.91C79.9348 110.89 80.1764 110.86 80.4079 110.82C80.6495 110.79 80.8811 110.75 81.0925 110.7C81.3241 110.66 81.5556 110.61 81.7771 110.55C81.9986 110.49 82.22 110.43 82.4315 110.36C82.6429 110.29 82.8644 110.22 83.0758 110.14C83.2973 110.06 83.5087 109.97 83.7301 109.88C83.9416 109.78 84.163 109.68 84.3644 109.58C84.5758 109.48 84.7772 109.38 84.9684 109.27C85.1597 109.17 85.3611 109.05 85.5523 108.94C85.7436 108.82 85.9349 108.7 86.1262 108.57C86.3074 108.44 86.4987 108.31 86.6799 108.17C86.851 108.04 87.0322 107.91 87.1933 107.77C87.3745 107.63 87.5457 107.48 87.7067 107.33C87.8779 107.18 88.039 107.02 88.2001 106.87L88.6631 106.41L88.643 106.39L88.7235 106.31C88.935 106.07 89.1363 105.83 89.3377 105.58C89.5289 105.32 89.7202 105.06 89.9014 104.8C90.1531 104.42 90.3847 104.04 90.5961 103.64C90.8075 103.24 91.0088 102.83 91.19 102.4C91.2807 102.19 91.3612 101.98 91.4417 101.76C91.5122 101.55 91.5927 101.32 91.6632 101.1C91.7236 100.87 91.7941 100.65 91.8444 100.42C91.9048 100.2 91.9552 99.98 91.9954 99.76C92.0458 99.54 92.076 99.31 92.1162 99.08C92.1464 98.84 92.1767 98.6 92.1968 98.37C92.2169 98.12 92.2371 97.88 92.2471 97.64C92.2673 97.4 92.2673 97.16 92.2673 96.93C92.2673 96.69 92.2673 96.45 92.2471 96.21ZM152.108 114.63H147.738V107.74L146.581 109.12C146.339 109.41 146.087 109.7 145.826 109.97C145.564 110.25 145.292 110.52 145.02 110.77C144.738 111.03 144.446 111.29 144.144 111.53C143.842 111.78 143.53 112.02 143.218 112.24C142.866 112.49 142.503 112.73 142.141 112.96C141.768 113.18 141.386 113.39 141.003 113.58C140.621 113.77 140.238 113.95 139.846 114.11C139.453 114.27 139.05 114.41 138.637 114.54C138.235 114.66 137.822 114.78 137.399 114.87C136.986 114.97 136.553 115.05 136.131 115.11C135.698 115.17 135.255 115.22 134.812 115.25C134.369 115.29 133.916 115.3 133.463 115.3C133.151 115.3 132.839 115.29 132.537 115.28C132.235 115.26 131.933 115.24 131.641 115.21C131.339 115.18 131.047 115.14 130.745 115.1C130.443 115.05 130.141 115 129.849 114.94C129.547 114.87 129.255 114.81 128.973 114.73C128.681 114.66 128.399 114.57 128.107 114.48C127.825 114.39 127.553 114.29 127.271 114.19C126.99 114.08 126.708 113.97 126.426 113.85C126.154 113.72 125.882 113.6 125.61 113.47C125.349 113.34 125.087 113.2 124.835 113.06L124.815 113.05C124.563 112.91 124.312 112.77 124.07 112.62C123.818 112.46 123.567 112.31 123.335 112.14C123.093 111.98 122.852 111.81 122.62 111.64C122.379 111.46 122.147 111.28 121.926 111.1C121.704 110.91 121.493 110.72 121.271 110.53C121.06 110.33 120.848 110.13 120.637 109.93C120.426 109.72 120.224 109.51 120.023 109.29C119.832 109.08 119.65 108.87 119.469 108.65C119.278 108.42 119.097 108.19 118.916 107.95C118.744 107.72 118.573 107.47 118.402 107.23C118.241 106.99 118.08 106.74 117.919 106.48C117.768 106.23 117.617 105.97 117.476 105.71C117.335 105.46 117.204 105.19 117.073 104.93C116.942 104.65 116.811 104.38 116.691 104.1C116.57 103.82 116.459 103.54 116.348 103.26C116.248 102.98 116.147 102.69 116.056 102.4C115.966 102.11 115.875 101.81 115.805 101.51C115.724 101.22 115.664 100.92 115.593 100.62C115.533 100.31 115.483 100.01 115.432 99.71C115.392 99.41 115.352 99.1 115.321 98.79C115.291 98.48 115.271 98.18 115.251 97.87C115.241 97.56 115.231 97.24 115.231 96.93C115.231 96.61 115.241 96.29 115.251 95.98C115.271 95.67 115.291 95.37 115.321 95.07C115.352 94.75 115.392 94.44 115.432 94.14C115.483 93.84 115.533 93.54 115.593 93.23C115.664 92.93 115.724 92.63 115.805 92.34C115.875 92.04 115.966 91.74 116.056 91.45C116.147 91.16 116.248 90.87 116.348 90.59C116.459 90.31 116.57 90.03 116.691 89.75C116.811 89.47 116.942 89.2 117.073 88.92C117.204 88.66 117.335 88.39 117.476 88.14C117.617 87.88 117.768 87.63 117.919 87.37C118.08 87.11 118.241 86.86 118.402 86.62C118.573 86.38 118.744 86.13 118.926 85.9C119.097 85.66 119.278 85.43 119.459 85.21C119.64 84.99 119.832 84.77 120.023 84.56C120.224 84.34 120.426 84.13 120.637 83.92C120.848 83.71 121.06 83.51 121.281 83.31C121.493 83.12 121.714 82.93 121.936 82.75C122.157 82.57 122.389 82.39 122.63 82.22C122.862 82.04 123.114 81.87 123.355 81.7C123.597 81.54 123.848 81.38 124.11 81.22C124.362 81.07 124.624 80.92 124.885 80.78C125.137 80.64 125.409 80.51 125.671 80.38C125.953 80.25 126.224 80.12 126.506 80C126.778 79.88 127.07 79.77 127.352 79.66C127.634 79.56 127.926 79.46 128.218 79.37C128.51 79.28 128.812 79.19 129.114 79.12C129.406 79.04 129.708 78.97 130.01 78.91C130.322 78.85 130.624 78.8 130.926 78.75C131.228 78.71 131.54 78.67 131.852 78.64C132.164 78.61 132.466 78.59 132.778 78.57C133.09 78.56 133.412 78.55 133.735 78.55C134.047 78.55 134.369 78.56 134.681 78.57C134.993 78.59 135.295 78.61 135.607 78.64C135.919 78.67 136.231 78.71 136.533 78.75C136.835 78.8 137.137 78.85 137.449 78.91C137.751 78.98 138.054 79.04 138.345 79.12C138.647 79.19 138.95 79.28 139.241 79.37C139.533 79.46 139.825 79.56 140.107 79.66C140.389 79.77 140.671 79.88 140.953 80C141.235 80.12 141.507 80.25 141.788 80.38C142.05 80.51 142.322 80.64 142.574 80.78C142.835 80.92 143.097 81.07 143.349 81.22C143.611 81.38 143.862 81.54 144.104 81.7C144.346 81.87 144.597 82.04 144.829 82.21C145.07 82.39 145.302 82.57 145.534 82.76C145.745 82.94 145.966 83.12 146.178 83.31C146.399 83.51 146.611 83.71 146.822 83.92C147.235 84.33 147.628 84.77 148.01 85.22C148.383 85.66 148.725 86.13 149.057 86.61C149.379 87.09 149.691 87.6 149.973 88.12C150.255 88.65 150.527 89.19 150.769 89.75C151.01 90.31 151.232 90.88 151.413 91.46C151.594 92.04 151.745 92.63 151.866 93.22C151.987 93.81 152.077 94.42 152.138 95.04C152.198 95.66 152.228 96.29 152.228 96.93V114.63H152.108ZM119.781 98.36C119.832 98.83 119.902 99.29 119.993 99.75C120.083 100.21 120.194 100.66 120.325 101.1C120.466 101.54 120.617 101.98 120.798 102.4C120.889 102.61 120.979 102.81 121.08 103.03C121.181 103.24 121.291 103.45 121.402 103.65C121.503 103.86 121.624 104.05 121.734 104.25C121.845 104.44 121.966 104.62 122.087 104.8L122.288 105.09H122.298L122.6 105.51L122.892 105.87C123.184 106.23 123.486 106.56 123.788 106.86C124.11 107.18 124.442 107.48 124.785 107.76C125.137 108.05 125.5 108.32 125.872 108.57C126.245 108.82 126.627 109.06 127.03 109.27C127.432 109.49 127.835 109.69 128.258 109.88C128.479 109.97 128.691 110.06 128.912 110.14C129.124 110.22 129.335 110.29 129.557 110.36C129.768 110.43 129.99 110.49 130.211 110.55C130.433 110.61 130.664 110.66 130.896 110.7C131.107 110.75 131.339 110.79 131.58 110.82C131.812 110.86 132.043 110.89 132.275 110.91C132.768 110.95 133.251 110.98 133.735 110.98C133.966 110.98 134.208 110.97 134.449 110.96C134.691 110.95 134.943 110.93 135.184 110.91C135.416 110.89 135.647 110.86 135.879 110.82C136.121 110.79 136.352 110.75 136.564 110.7C136.795 110.66 137.027 110.6 137.248 110.55C137.47 110.49 137.691 110.43 137.902 110.36C138.124 110.29 138.335 110.22 138.547 110.14C138.768 110.06 138.98 109.97 139.201 109.88C139.423 109.78 139.634 109.68 139.835 109.58C140.047 109.48 140.248 109.38 140.439 109.27C140.641 109.17 140.832 109.05 141.023 108.94C141.215 108.82 141.406 108.7 141.597 108.57C141.778 108.44 141.97 108.31 142.151 108.17C142.332 108.04 142.503 107.91 142.664 107.77C142.835 107.63 143.007 107.49 143.178 107.34C143.339 107.19 143.5 107.03 143.671 106.87V106.86C143.832 106.7 143.993 106.54 144.134 106.38C144.285 106.22 144.426 106.05 144.567 105.88C144.718 105.7 144.849 105.52 144.99 105.34C145.121 105.17 145.242 104.98 145.372 104.8C145.493 104.62 145.614 104.43 145.725 104.24C145.846 104.04 145.956 103.85 146.067 103.64C146.178 103.44 146.279 103.23 146.379 103.02C146.48 102.81 146.57 102.6 146.661 102.4C146.752 102.19 146.832 101.97 146.913 101.76C146.993 101.54 147.064 101.32 147.134 101.1C147.205 100.87 147.265 100.65 147.326 100.42C147.376 100.2 147.426 99.98 147.466 99.76C147.517 99.54 147.557 99.31 147.587 99.08C147.617 98.84 147.648 98.6 147.668 98.37C147.698 98.12 147.708 97.88 147.728 97.64C147.738 97.4 147.738 97.16 147.738 96.93C147.738 96.44 147.718 95.96 147.678 95.49C147.628 95.03 147.557 94.56 147.466 94.1C147.376 93.64 147.265 93.19 147.134 92.75C147.003 92.31 146.842 91.88 146.661 91.45C146.57 91.24 146.48 91.04 146.379 90.83C146.279 90.62 146.178 90.41 146.067 90.21C145.956 90 145.846 89.81 145.725 89.61C145.604 89.42 145.483 89.23 145.372 89.05C145.242 88.86 145.121 88.68 144.99 88.51C144.849 88.33 144.718 88.15 144.567 87.97C144.426 87.79 144.275 87.63 144.134 87.47C143.993 87.31 143.832 87.15 143.671 86.99V86.98C143.5 86.82 143.339 86.66 143.178 86.51C143.007 86.37 142.835 86.22 142.664 86.08C142.503 85.94 142.332 85.81 142.151 85.68C141.97 85.54 141.778 85.41 141.597 85.28C141.406 85.15 141.215 85.03 141.023 84.91C140.832 84.8 140.641 84.69 140.439 84.58C140.248 84.47 140.047 84.37 139.835 84.27C139.634 84.17 139.423 84.07 139.201 83.97C138.98 83.88 138.768 83.79 138.547 83.71C138.335 83.63 138.124 83.56 137.902 83.49C137.691 83.42 137.47 83.36 137.248 83.3C137.027 83.25 136.795 83.19 136.564 83.15C136.352 83.1 136.121 83.06 135.879 83.03C135.647 82.99 135.416 82.96 135.184 82.94C134.691 82.9 134.208 82.87 133.735 82.87C133.493 82.87 133.251 82.88 133.01 82.89C132.768 82.9 132.516 82.92 132.275 82.94C132.043 82.96 131.812 82.99 131.58 83.03C131.339 83.06 131.107 83.1 130.896 83.15C130.664 83.19 130.433 83.25 130.211 83.3C129.99 83.36 129.768 83.42 129.557 83.49C129.335 83.56 129.124 83.63 128.912 83.71C128.691 83.79 128.479 83.88 128.258 83.97C128.037 84.07 127.825 84.17 127.624 84.27C127.412 84.37 127.211 84.47 127.02 84.58C126.818 84.69 126.627 84.8 126.436 84.91C126.245 85.03 126.053 85.15 125.862 85.28C125.681 85.4 125.5 85.53 125.318 85.67C125.147 85.8 124.976 85.94 124.805 86.08C124.442 86.37 124.1 86.68 123.788 86.99C123.476 87.3 123.174 87.63 122.892 87.98C122.6 88.32 122.338 88.68 122.087 89.05C121.835 89.43 121.603 89.81 121.392 90.21C121.181 90.61 120.979 91.02 120.798 91.45C120.707 91.66 120.627 91.87 120.556 92.08C120.476 92.3 120.395 92.52 120.325 92.75C120.254 92.98 120.194 93.2 120.134 93.43C120.083 93.65 120.033 93.87 119.993 94.09C119.942 94.31 119.902 94.54 119.872 94.77C119.842 95.01 119.811 95.25 119.791 95.48C119.761 95.73 119.751 95.97 119.731 96.21C119.721 96.45 119.721 96.69 119.721 96.93C119.721 97.41 119.741 97.89 119.781 98.36ZM188.441 83.75C187.967 83.79 187.504 83.86 187.041 83.95C186.588 84.04 186.135 84.15 185.702 84.28C185.259 84.41 184.826 84.57 184.404 84.75C184.182 84.84 183.981 84.94 183.769 85.03C183.568 85.13 183.367 85.23 183.165 85.34C182.964 85.45 182.773 85.56 182.581 85.67C182.39 85.79 182.199 85.91 182.008 86.04C181.826 86.15 181.645 86.28 181.474 86.41C181.293 86.54 181.122 86.68 180.94 86.82C180.809 86.93 180.679 87.04 180.548 87.16L180.135 87.54H180.125L179.934 87.73C179.783 87.88 179.632 88.04 179.481 88.2C179.34 88.36 179.189 88.53 179.038 88.71C178.897 88.88 178.766 89.06 178.625 89.24C178.494 89.41 178.363 89.59 178.242 89.78C178.111 89.96 177.991 90.15 177.88 90.34C177.759 90.54 177.648 90.73 177.538 90.93C177.437 91.13 177.326 91.33 177.236 91.53C177.135 91.73 177.034 91.94 176.944 92.16C176.853 92.37 176.772 92.58 176.692 92.79C176.621 93 176.541 93.22 176.481 93.44C176.41 93.66 176.35 93.88 176.289 94.1C176.239 94.32 176.189 94.55 176.138 94.77C176.098 94.99 176.058 95.22 176.028 95.45C175.987 95.69 175.957 95.92 175.937 96.16C175.917 96.4 175.897 96.64 175.887 96.89C175.877 97.12 175.866 97.36 175.866 97.6V114.63H171.376V97.6C171.376 97.28 171.386 96.97 171.407 96.66C171.417 96.35 171.437 96.04 171.467 95.74C171.497 95.42 171.537 95.12 171.588 94.82C171.628 94.52 171.688 94.21 171.749 93.9C171.809 93.6 171.88 93.31 171.95 93.01C172.031 92.71 172.111 92.42 172.212 92.12C172.303 91.83 172.393 91.55 172.504 91.27C172.605 90.98 172.715 90.7 172.836 90.42C172.957 90.14 173.088 89.87 173.219 89.6C173.35 89.33 173.491 89.07 173.631 88.81C173.772 88.56 173.913 88.3 174.074 88.04C174.236 87.78 174.397 87.53 174.558 87.29C174.719 87.05 174.89 86.81 175.061 86.58C175.242 86.34 175.423 86.11 175.605 85.89C175.786 85.67 175.977 85.45 176.179 85.24C176.37 85.02 176.581 84.81 176.793 84.6L177.064 84.32C177.87 83.56 178.736 82.88 179.662 82.27C180.598 81.66 181.595 81.13 182.652 80.67C182.934 80.55 183.216 80.44 183.508 80.34C183.789 80.23 184.071 80.13 184.363 80.04C184.665 79.95 184.967 79.87 185.259 79.79C185.561 79.72 185.863 79.65 186.155 79.59C186.467 79.53 186.779 79.47 187.081 79.43C187.383 79.38 187.696 79.34 188.008 79.31C188.31 79.28 188.622 79.26 188.934 79.24C189.246 79.23 189.558 79.22 189.88 79.22H190.766V83.68H189.88C189.387 83.68 188.914 83.7 188.441 83.75ZM238.113 110.42V114.63H205.857V110.84L231.78 83.55H205.857V79.22H238.113V83.01L212.189 110.3H238.113V110.42ZM256.606 95.98C256.627 95.67 256.647 95.37 256.677 95.07C256.707 94.75 256.747 94.44 256.788 94.14C256.838 93.84 256.888 93.54 256.959 93.23C257.019 92.93 257.08 92.63 257.16 92.34C257.241 92.04 257.321 91.74 257.412 91.45C257.502 91.16 257.603 90.87 257.704 90.59C257.815 90.31 257.925 90.03 258.046 89.75C258.167 89.47 258.298 89.2 258.429 88.92C258.56 88.66 258.69 88.39 258.831 88.14C258.972 87.88 259.123 87.63 259.284 87.37C259.435 87.11 259.596 86.86 259.758 86.62C259.929 86.38 260.1 86.13 260.281 85.9C260.452 85.66 260.633 85.43 260.825 85.21C261.006 84.99 261.187 84.77 261.388 84.56C261.58 84.34 261.781 84.13 261.993 83.92C262.204 83.71 262.415 83.51 262.637 83.31C262.848 83.12 263.07 82.93 263.291 82.75C263.513 82.57 263.744 82.39 263.986 82.22C264.217 82.04 264.469 81.87 264.711 81.7C264.952 81.54 265.204 81.38 265.466 81.22C265.717 81.07 265.979 80.92 266.241 80.78C266.493 80.64 266.764 80.51 267.036 80.38C267.308 80.25 267.58 80.12 267.862 80C268.134 79.88 268.426 79.77 268.707 79.66C268.989 79.56 269.281 79.46 269.573 79.37C269.875 79.28 270.167 79.19 270.469 79.12C270.761 79.04 271.063 78.97 271.365 78.91C271.677 78.85 271.979 78.8 272.281 78.75C272.583 78.71 272.895 78.67 273.218 78.64C273.52 78.61 273.832 78.59 274.134 78.57C274.456 78.56 274.768 78.55 275.09 78.55C275.402 78.55 275.724 78.56 276.036 78.57C276.349 78.59 276.661 78.61 276.963 78.64C277.275 78.67 277.587 78.71 277.889 78.75C278.191 78.8 278.493 78.85 278.805 78.91C279.117 78.98 279.409 79.04 279.701 79.12C280.003 79.19 280.305 79.28 280.597 79.37C280.889 79.46 281.181 79.56 281.463 79.66C281.745 79.77 282.027 79.88 282.308 80C282.59 80.12 282.872 80.25 283.144 80.38C283.416 80.51 283.678 80.64 283.929 80.78C284.191 80.92 284.453 81.07 284.704 81.22C284.966 81.38 285.218 81.54 285.46 81.7C285.711 81.87 285.953 82.04 286.184 82.21C286.426 82.39 286.658 82.57 286.889 82.76C287.111 82.94 287.322 83.12 287.533 83.31C287.755 83.51 287.966 83.71 288.178 83.92C288.59 84.33 288.993 84.77 289.366 85.22C289.738 85.66 290.08 86.13 290.413 86.61C290.735 87.09 291.047 87.6 291.329 88.12C291.621 88.65 291.882 89.19 292.124 89.75C292.366 90.31 292.587 90.88 292.768 91.46C292.95 92.04 293.101 92.63 293.221 93.22C293.342 93.81 293.433 94.42 293.493 95.04C293.554 95.66 293.584 96.29 293.584 96.93C293.584 97.56 293.554 98.19 293.493 98.81C293.433 99.43 293.342 100.04 293.221 100.63C293.101 101.22 292.95 101.81 292.768 102.39C292.587 102.97 292.366 103.54 292.124 104.1C292.003 104.38 291.882 104.66 291.742 104.93C291.611 105.19 291.48 105.46 291.339 105.71C291.198 105.97 291.047 106.23 290.896 106.48C290.735 106.74 290.574 106.99 290.413 107.23C290.241 107.47 290.07 107.72 289.899 107.96C289.718 108.19 289.537 108.42 289.356 108.65C289.174 108.87 288.983 109.08 288.792 109.29C288.59 109.51 288.389 109.72 288.178 109.93C287.966 110.14 287.755 110.34 287.533 110.54C287.322 110.73 287.111 110.92 286.889 111.1C286.658 111.28 286.426 111.46 286.194 111.63C285.953 111.81 285.711 111.98 285.46 112.15C285.218 112.31 284.966 112.47 284.704 112.63C284.453 112.78 284.191 112.93 283.929 113.07C283.678 113.21 283.416 113.34 283.144 113.47C282.872 113.6 282.59 113.73 282.308 113.85C282.027 113.97 281.745 114.08 281.463 114.19C281.181 114.29 280.889 114.39 280.597 114.48C280.305 114.57 280.003 114.66 279.701 114.73C279.409 114.81 279.117 114.88 278.805 114.94C278.493 115 278.191 115.05 277.889 115.1C277.587 115.14 277.275 115.18 276.963 115.21C276.651 115.24 276.349 115.26 276.036 115.28C275.724 115.29 275.402 115.3 275.09 115.3C274.768 115.3 274.456 115.29 274.134 115.28C273.832 115.26 273.52 115.24 273.218 115.21C272.895 115.18 272.583 115.14 272.281 115.1C271.979 115.05 271.677 115 271.365 114.94C271.063 114.88 270.761 114.81 270.469 114.73C270.167 114.66 269.875 114.57 269.573 114.48C269.281 114.39 268.989 114.29 268.707 114.19C268.426 114.08 268.134 113.97 267.862 113.85C267.58 113.73 267.308 113.6 267.036 113.47C266.764 113.34 266.493 113.21 266.241 113.07C265.979 112.93 265.728 112.78 265.466 112.63C265.204 112.47 264.952 112.31 264.711 112.15C264.469 111.98 264.217 111.81 263.986 111.64C263.744 111.46 263.513 111.28 263.291 111.1C263.07 110.92 262.848 110.73 262.637 110.54C262.415 110.34 262.204 110.14 261.993 109.93C261.781 109.72 261.58 109.51 261.388 109.29C261.187 109.08 261.006 108.87 260.825 108.65C260.633 108.42 260.452 108.19 260.281 107.95C260.1 107.72 259.929 107.47 259.758 107.23C259.596 106.99 259.435 106.74 259.284 106.48C259.123 106.23 258.972 105.97 258.831 105.71C258.69 105.46 258.56 105.19 258.429 104.93C258.298 104.65 258.167 104.38 258.046 104.1C257.925 103.82 257.815 103.54 257.704 103.26C257.603 102.98 257.502 102.69 257.412 102.4C257.321 102.11 257.241 101.81 257.16 101.51C257.08 101.22 257.019 100.92 256.959 100.62C256.888 100.31 256.838 100.01 256.788 99.71C256.747 99.41 256.707 99.1 256.677 98.79C256.647 98.48 256.627 98.18 256.606 97.87C256.596 97.56 256.586 97.24 256.586 96.93C256.586 96.61 256.596 96.29 256.606 95.98ZM261.147 98.36C261.187 98.82 261.258 99.29 261.348 99.74C261.439 100.2 261.55 100.64 261.68 101.08C261.811 101.51 261.972 101.94 262.154 102.37C262.244 102.58 262.335 102.79 262.435 102.99C262.536 103.19 262.637 103.4 262.748 103.6C262.858 103.79 262.969 103.99 263.08 104.18C263.201 104.37 263.321 104.56 263.442 104.74C263.563 104.92 263.694 105.1 263.825 105.28C263.956 105.46 264.097 105.63 264.238 105.8C264.389 105.98 264.529 106.15 264.681 106.31C264.832 106.47 264.993 106.64 265.154 106.8C265.476 107.12 265.808 107.42 266.15 107.7C266.493 107.98 266.845 108.24 267.217 108.49C267.399 108.61 267.59 108.73 267.791 108.85C267.983 108.97 268.174 109.08 268.375 109.18C268.577 109.29 268.778 109.39 268.979 109.49C269.181 109.59 269.392 109.68 269.613 109.77C269.825 109.86 270.036 109.94 270.248 110.02C270.459 110.1 270.681 110.17 270.902 110.24C271.124 110.31 271.345 110.37 271.567 110.42C271.788 110.48 272.02 110.53 272.241 110.57C272.463 110.62 272.694 110.66 272.926 110.69C273.167 110.72 273.399 110.75 273.64 110.77C273.882 110.8 274.124 110.81 274.375 110.83C274.607 110.84 274.849 110.84 275.09 110.84C275.573 110.84 276.057 110.82 276.53 110.78C276.993 110.73 277.466 110.67 277.919 110.58C278.382 110.49 278.825 110.37 279.268 110.24C279.701 110.11 280.134 109.95 280.567 109.77C280.778 109.68 280.99 109.59 281.191 109.49C281.392 109.39 281.604 109.29 281.805 109.18C281.996 109.08 282.198 108.97 282.389 108.85C282.58 108.73 282.772 108.61 282.963 108.49C283.144 108.36 283.325 108.24 283.506 108.11C283.678 107.97 283.859 107.84 284.03 107.7C284.201 107.55 284.372 107.41 284.543 107.26C284.704 107.11 284.866 106.96 285.027 106.8L285.49 106.34L285.48 106.33L285.933 105.8C286.074 105.63 286.215 105.46 286.345 105.29C286.476 105.11 286.607 104.93 286.728 104.74C286.849 104.56 286.98 104.37 287.09 104.18C287.211 103.99 287.322 103.79 287.423 103.6C287.533 103.4 287.634 103.19 287.735 102.99C287.835 102.79 287.926 102.58 288.017 102.37C288.107 102.16 288.198 101.94 288.268 101.73C288.349 101.52 288.419 101.3 288.49 101.09C288.56 100.87 288.621 100.64 288.681 100.42C288.731 100.2 288.782 99.98 288.832 99.75C288.872 99.53 288.913 99.3 288.943 99.07C288.973 98.84 289.003 98.6 289.023 98.36C289.054 98.12 289.074 97.88 289.084 97.64C289.094 97.4 289.094 97.16 289.094 96.93C289.094 96.44 289.074 95.96 289.033 95.49C288.983 95.03 288.923 94.56 288.832 94.11C288.741 93.65 288.631 93.21 288.49 92.77C288.359 92.34 288.198 91.91 288.017 91.48C287.926 91.27 287.835 91.06 287.735 90.86C287.634 90.66 287.533 90.46 287.423 90.25C287.322 90.06 287.211 89.87 287.09 89.68C286.98 89.48 286.849 89.29 286.728 89.11C286.607 88.92 286.476 88.74 286.345 88.56C286.215 88.39 286.074 88.22 285.933 88.05C285.792 87.87 285.641 87.7 285.49 87.54C285.339 87.38 285.188 87.21 285.027 87.05C284.866 86.9 284.704 86.74 284.533 86.59C284.372 86.44 284.201 86.29 284.02 86.15C283.849 86.01 283.678 85.88 283.506 85.75C283.325 85.61 283.144 85.49 282.963 85.36C282.772 85.24 282.58 85.12 282.389 85C282.198 84.89 281.996 84.77 281.805 84.67C281.604 84.56 281.402 84.46 281.201 84.36C280.99 84.27 280.778 84.17 280.567 84.08C280.355 83.99 280.144 83.91 279.922 83.83C279.711 83.75 279.49 83.68 279.278 83.61C279.057 83.55 278.825 83.48 278.604 83.43C278.382 83.37 278.161 83.32 277.929 83.28C277.708 83.23 277.476 83.19 277.245 83.16C277.013 83.13 276.771 83.1 276.53 83.08C276.288 83.05 276.047 83.04 275.805 83.02C275.563 83.01 275.322 83.01 275.09 83.01C274.597 83.01 274.114 83.03 273.651 83.07C273.177 83.12 272.714 83.19 272.251 83.28C271.798 83.36 271.345 83.48 270.912 83.61C270.469 83.74 270.036 83.9 269.613 84.08C269.392 84.17 269.181 84.26 268.979 84.36C268.778 84.46 268.577 84.56 268.375 84.67C268.174 84.77 267.983 84.89 267.791 85C267.59 85.12 267.399 85.24 267.217 85.36C267.036 85.48 266.855 85.61 266.674 85.74C266.503 85.87 266.321 86.01 266.15 86.15C265.979 86.29 265.808 86.44 265.637 86.59C265.476 86.74 265.305 86.9 265.154 87.05C264.832 87.37 264.519 87.71 264.238 88.05C263.956 88.39 263.694 88.74 263.442 89.11C263.321 89.29 263.201 89.48 263.08 89.67C262.969 89.87 262.858 90.06 262.748 90.25C262.637 90.46 262.536 90.66 262.435 90.86C262.345 91.06 262.244 91.27 262.154 91.48C262.063 91.7 261.982 91.91 261.902 92.12C261.821 92.33 261.751 92.55 261.68 92.76C261.62 92.98 261.55 93.21 261.499 93.43C261.439 93.65 261.388 93.88 261.348 94.1C261.298 94.32 261.268 94.55 261.227 94.78C261.197 95.01 261.167 95.25 261.147 95.49C261.127 95.73 261.107 95.97 261.097 96.21C261.076 96.45 261.076 96.69 261.076 96.93C261.076 97.41 261.097 97.89 261.147 98.36Z" fill="#666666"/>
</svg>
