<svg width="170" height="34" viewBox="0 0 170 34" fill="none" xmlns="http://www.w3.org/2000/svg">
<path fill-rule="evenodd" clip-rule="evenodd" d="M11.5684 11.2937V18.0483C12.4212 18.564 13.234 19.142 14.0067 19.7597C15.0027 20.5587 15.9243 21.437 16.7599 22.3777C17.0461 22.6723 17.3323 22.967 17.6243 23.2447L17.7216 23.137C17.9734 22.8423 18.2424 22.5477 18.5286 22.253C19.1182 21.6467 19.7822 21.0403 20.4977 20.4623C21.0071 20.0487 21.5394 19.652 22.0832 19.2723L22.0889 19.2667C22.5125 18.9663 22.9303 18.6887 23.3482 18.4223V11.2937L17.4583 7.82567L11.5684 11.2937Z" fill="#666633"/>
<path fill-rule="evenodd" clip-rule="evenodd" d="M14.0349 31.127C9.3642 29.9597 5.59214 26.571 3.91504 22.168C4.83086 22.4797 5.72379 22.8707 6.57666 23.3353C7.5211 23.851 8.42548 24.4517 9.26117 25.1203C10.0969 25.7947 10.8753 26.5427 11.5679 27.3417C12.2548 28.135 12.8558 28.9737 13.3595 29.8577C13.5942 30.2657 13.8231 30.6907 14.0349 31.127Z" fill="#666633"/>
<path fill-rule="evenodd" clip-rule="evenodd" d="M19.7706 31.4217C19.6562 31.0193 19.5302 30.6283 19.3871 30.243C19.1582 29.6027 18.8949 28.985 18.6144 28.3957C18.3339 27.8007 18.0306 27.2283 17.71 26.6673C17.1205 25.636 16.4107 24.6443 15.6094 23.715C14.7966 22.7743 13.8865 21.9017 12.8962 21.1083C11.9174 20.3207 10.8585 19.6123 9.74808 19.0117C8.66053 18.4223 7.52148 17.9293 6.35953 17.5553C5.72417 17.3513 4.83697 17.1247 3.84673 16.9207C3.73798 16.898 3.63495 16.881 3.53192 16.8583C3.40027 16.8357 3.26862 16.813 3.14269 16.796L2.98242 16.7677C2.98242 16.864 2.98242 16.9603 2.98242 17.0567C2.98242 18.156 3.10262 19.2213 3.3373 20.247C3.66357 20.332 3.95549 20.417 4.20734 20.4963C5.30633 20.8477 6.37097 21.3067 7.38983 21.862C8.42585 22.423 9.41037 23.0803 10.3319 23.817C11.2535 24.5593 12.1006 25.3753 12.8619 26.2593C13.6174 27.1263 14.2757 28.0557 14.8309 29.0247C15.1285 29.5403 15.409 30.073 15.6723 30.6283C15.804 30.9117 15.9356 31.195 16.0558 31.4897C16.5767 31.5407 17.1033 31.569 17.6413 31.569C18.3626 31.569 19.078 31.518 19.7706 31.4217Z" fill="#666633"/>
<path fill-rule="evenodd" clip-rule="evenodd" d="M30.9091 23.239C30.6343 23.307 30.3596 23.3863 30.0848 23.4713C29.6784 23.596 29.272 23.7377 28.8599 23.8963C28.4421 24.0607 28.0242 24.2363 27.6006 24.4347C27.2858 24.5763 26.9653 24.7407 26.639 24.9107C26.3128 25.092 25.9865 25.279 25.666 25.4773C25.3397 25.6757 25.0134 25.8853 24.6929 26.1063C24.3724 26.3273 24.0633 26.554 23.7599 26.7863C23.4794 27.0017 23.2161 27.217 22.9643 27.4267C22.7124 27.642 22.472 27.863 22.2431 28.0783C22.0256 28.2823 21.8195 28.4863 21.6306 28.6903C21.4646 28.866 21.3158 29.036 21.1727 29.206C21.1956 29.2627 21.0926 29.3703 21.001 29.478C21.1899 29.9823 21.3673 30.5093 21.5161 31.059C25.6774 29.9313 29.1003 27.0357 30.9091 23.239Z" fill="#666633"/>
<path fill-rule="evenodd" clip-rule="evenodd" d="M32.3002 17.1133C31.9338 17.1587 31.5732 17.2097 31.2126 17.272C30.2911 17.4307 29.4039 17.6573 28.5109 17.9577C27.618 18.258 26.7251 18.632 25.7921 19.091C25.088 19.4423 24.3783 19.8503 23.68 20.3037C22.9645 20.7683 22.2604 21.2783 21.6136 21.8053C21.0183 22.287 20.4631 22.7857 19.9709 23.2787C19.5015 23.7433 19.0894 24.208 18.7402 24.6557C18.8662 24.939 19.0722 25.3357 19.3126 25.806V25.8117C19.5645 26.2933 19.8449 26.8373 20.1311 27.4437C20.3143 27.251 20.5032 27.0527 20.7035 26.86C20.9783 26.588 21.2759 26.316 21.585 26.0497C21.8998 25.7777 22.2261 25.5113 22.5581 25.262C22.8901 25.0013 23.2335 24.752 23.5827 24.5083C23.9261 24.276 24.2867 24.0437 24.6473 23.817C25.0022 23.6017 25.3628 23.392 25.7177 23.1993C26.0668 23.0123 26.4217 22.8367 26.7709 22.6723C27.246 22.457 27.7039 22.2587 28.1561 22.083C28.6082 21.9073 29.0604 21.7487 29.5126 21.6127C29.9648 21.471 30.417 21.352 30.8749 21.25C31.1554 21.1877 31.4416 21.1253 31.7335 21.08C32.0941 19.8163 32.2944 18.4903 32.3002 17.1133Z" fill="#666633"/>
<path fill-rule="evenodd" clip-rule="evenodd" d="M24.6536 9.93933C24.7108 9.97333 24.7566 10.0073 24.7967 10.047C24.8368 10.0867 24.8654 10.1263 24.8883 10.1717C24.9856 10.251 25.06 10.3587 25.1115 10.472C25.163 10.5853 25.1916 10.71 25.1916 10.846V17.442C26.1304 16.9887 27.0462 16.609 27.9563 16.303C28.9351 15.9743 29.9081 15.7307 30.9155 15.555C31.3391 15.4813 31.7684 15.419 32.2034 15.3737C31.362 8.15433 25.163 2.54433 17.6418 2.54433C10.2465 2.54433 4.12766 7.96733 3.12598 15.0167C3.49231 15.079 3.85291 15.147 4.20207 15.215C5.26099 15.436 6.21116 15.6797 6.89803 15.895C7.86537 16.2067 8.80981 16.592 9.73136 17.0397V10.846C9.73136 10.71 9.75998 10.5853 9.8115 10.472C9.86301 10.3587 9.93742 10.251 10.029 10.1717C10.0576 10.1263 10.0862 10.0867 10.1263 10.047C10.1664 10.0073 10.2122 9.97333 10.2637 9.93933C11.0994 9.44633 9.56537 10.353 16.8519 6.06333L16.8977 6.018C16.9206 6.00667 16.9378 5.98967 16.9607 5.97833C17.2125 5.83667 17.7105 5.83667 17.9623 5.97833C17.9795 5.98967 18.0024 6.001 18.0196 6.018C18.0368 6.02933 18.0539 6.04633 18.0711 6.06333C24.3044 9.73533 22.3526 8.585 24.6536 9.93933Z" fill="#666633"/>
<path d="M53.4674 25.0977H51.4812V21.981L50.9604 22.61C50.8459 22.7403 50.7314 22.865 50.6169 22.9897C50.4967 23.1143 50.3765 23.239 50.2449 23.3523C50.119 23.4713 49.9873 23.5847 49.8499 23.698C49.7183 23.8057 49.5752 23.9133 49.4321 24.0153C49.2718 24.1287 49.1115 24.242 48.9398 24.3383C48.7738 24.4403 48.6021 24.5367 48.4304 24.6217C48.253 24.7067 48.0812 24.786 47.9038 24.8597C47.7264 24.9333 47.5432 24.9957 47.3543 25.0523C47.1711 25.1147 46.9823 25.16 46.7934 25.2053C46.6045 25.2507 46.4099 25.2847 46.2153 25.313C46.0206 25.3413 45.8203 25.364 45.62 25.381C45.4196 25.3923 45.2136 25.398 45.0075 25.398C44.8644 25.398 44.727 25.398 44.5897 25.3923C44.4523 25.381 44.3149 25.3753 44.1833 25.3583C44.0459 25.347 43.9142 25.33 43.7769 25.3073C43.6395 25.2847 43.5021 25.262 43.3705 25.2337C43.2331 25.2053 43.1014 25.177 42.9698 25.143C42.8439 25.109 42.7122 25.0693 42.5806 25.0297C42.4546 24.99 42.3287 24.9447 42.2028 24.8993C42.0769 24.8483 41.9452 24.7973 41.8193 24.7407C41.6934 24.6897 41.5674 24.633 41.4472 24.5707C41.327 24.514 41.2126 24.4517 41.0981 24.3893L41.0866 24.3837C40.9722 24.3213 40.8634 24.2533 40.7489 24.1853C40.6344 24.1173 40.5257 24.0437 40.4169 23.97C40.3025 23.8963 40.1994 23.8227 40.0907 23.7433C39.9819 23.664 39.8789 23.5847 39.7759 23.4997C39.6786 23.4147 39.5755 23.3297 39.4782 23.2447C39.3809 23.154 39.2893 23.0633 39.192 22.9727C39.1004 22.8763 39.0031 22.78 38.9173 22.6837C38.8257 22.5873 38.7456 22.491 38.6597 22.389C38.5738 22.2927 38.4937 22.185 38.4136 22.0773C38.3334 21.9697 38.2533 21.862 38.1789 21.7543C38.1045 21.641 38.0358 21.5277 37.9614 21.4143C37.8927 21.2953 37.824 21.182 37.761 21.0687C37.6981 20.9497 37.6351 20.8307 37.5779 20.7117C37.5149 20.587 37.4577 20.4623 37.4004 20.3377C37.3489 20.213 37.2974 20.0827 37.2516 19.958C37.2001 19.8333 37.1543 19.703 37.1142 19.5727C37.0742 19.4367 37.0341 19.3007 36.9998 19.1703C36.9654 19.0343 36.9368 18.904 36.9082 18.768C36.8796 18.6263 36.8567 18.4903 36.8338 18.3543C36.8109 18.2183 36.7937 18.0767 36.7823 17.935C36.7651 17.799 36.7594 17.6573 36.7536 17.5213C36.7422 17.3797 36.7422 17.238 36.7422 17.0963C36.7422 16.949 36.7422 16.8073 36.7536 16.6713C36.7594 16.5297 36.7651 16.3937 36.7823 16.252C36.7937 16.1103 36.8109 15.9743 36.8338 15.8383C36.8567 15.7023 36.8796 15.5663 36.9082 15.4247C36.9368 15.2887 36.9654 15.1527 36.9998 15.0223C37.0341 14.8863 37.0742 14.7503 37.1142 14.62C37.1543 14.4897 37.2001 14.3593 37.2516 14.2347C37.2974 14.1043 37.3489 13.9797 37.4062 13.8493C37.4577 13.7247 37.5149 13.6 37.5779 13.481C37.6351 13.3563 37.6981 13.2373 37.761 13.124C37.824 13.0107 37.8927 12.8917 37.9614 12.7783C38.0358 12.6593 38.1045 12.546 38.1789 12.4383C38.2533 12.325 38.3334 12.2173 38.4136 12.1097C38.4937 12.002 38.5738 11.9 38.6597 11.798C38.7398 11.696 38.8257 11.5997 38.9173 11.5033C39.0031 11.407 39.1004 11.3107 39.192 11.22C39.2893 11.1237 39.3866 11.033 39.4839 10.9423C39.5812 10.8573 39.6786 10.7723 39.7816 10.693C39.8846 10.608 39.9876 10.523 40.0964 10.4493C40.2052 10.37 40.3139 10.2907 40.4227 10.217C40.5371 10.1433 40.6516 10.0697 40.7661 9.996C40.8806 9.928 41.0008 9.86567 41.1153 9.79767C41.2355 9.73533 41.3557 9.673 41.4759 9.61633C41.6018 9.554 41.7277 9.49733 41.8536 9.44633C41.9796 9.38967 42.1055 9.33867 42.2371 9.29333C42.3631 9.248 42.4947 9.20267 42.6264 9.163C42.7637 9.11767 42.9011 9.08367 43.0385 9.04967C43.1701 9.01567 43.3075 8.98167 43.4392 8.95333C43.5823 8.925 43.7196 8.90233 43.857 8.87967C43.9944 8.86267 44.1375 8.84567 44.2806 8.82867C44.4179 8.81733 44.561 8.806 44.6984 8.80033C44.8415 8.79467 44.9846 8.789 45.1277 8.789C45.2765 8.789 45.4196 8.79467 45.5627 8.80033C45.7001 8.806 45.8432 8.81733 45.9806 8.82867C46.1237 8.84567 46.2668 8.86267 46.3984 8.87967C46.5358 8.90233 46.6732 8.925 46.8163 8.95333C46.9536 8.98167 47.091 9.01567 47.2227 9.044C47.36 9.08367 47.4974 9.11767 47.6291 9.163C47.7607 9.20267 47.8924 9.248 48.0183 9.29333C48.1499 9.33867 48.2759 9.38967 48.4075 9.44633C48.5334 9.49733 48.6594 9.554 48.7796 9.61633C48.9055 9.673 49.0257 9.73533 49.1402 9.79767C49.2604 9.86 49.3748 9.928 49.4893 10.0017C49.6095 10.0697 49.724 10.1433 49.8328 10.217C49.9472 10.2907 50.056 10.3643 50.1647 10.4437C50.2735 10.523 50.3765 10.608 50.4796 10.693C50.5826 10.7723 50.6799 10.8573 50.7772 10.9423C50.8745 11.033 50.9718 11.1237 51.0634 11.22C51.2523 11.407 51.4355 11.5997 51.6014 11.8037C51.7732 12.0077 51.9277 12.2173 52.0765 12.4327C52.2254 12.6537 52.3627 12.8803 52.4944 13.1127C52.626 13.3507 52.7462 13.6 52.855 13.8493C52.9695 14.1043 53.0668 14.365 53.1469 14.6257C53.227 14.8863 53.3014 15.1527 53.353 15.419C53.4102 15.691 53.4503 15.963 53.4789 16.2407C53.5075 16.524 53.519 16.8073 53.519 17.0963V25.0977H53.4674ZM38.8085 17.7423C38.8257 17.952 38.86 18.1617 38.9001 18.3713C38.9402 18.581 38.9917 18.785 39.0546 18.9833C39.1119 19.1817 39.1863 19.3743 39.2664 19.5727C39.3065 19.6633 39.3466 19.754 39.3924 19.8503C39.4381 19.9467 39.4897 20.043 39.5355 20.1337C39.587 20.2243 39.6385 20.315 39.69 20.4057C39.7415 20.4907 39.793 20.5757 39.8503 20.655L39.9419 20.7853L40.0849 20.9723L40.2166 21.1367C40.3482 21.301 40.4856 21.4483 40.623 21.5843C40.7661 21.7317 40.9149 21.862 41.0752 21.9923C41.2297 22.1227 41.3957 22.2417 41.5674 22.3607C41.7334 22.474 41.9109 22.576 42.094 22.678C42.2715 22.7743 42.4604 22.865 42.6493 22.95C42.7466 22.9897 42.8439 23.0293 42.9469 23.069C43.0385 23.103 43.1358 23.137 43.2331 23.1653C43.3361 23.1993 43.4334 23.2277 43.5307 23.2503C43.6338 23.2787 43.7368 23.3013 43.8456 23.324C43.9429 23.341 44.0459 23.358 44.1546 23.375C44.2577 23.392 44.3664 23.4033 44.4695 23.4147C44.6927 23.4373 44.9102 23.443 45.1277 23.443C45.2365 23.443 45.3452 23.443 45.454 23.4373C45.5684 23.4317 45.6772 23.426 45.786 23.4147C45.8947 23.4033 45.9977 23.392 46.1065 23.375C46.2153 23.358 46.3183 23.341 46.4156 23.324C46.5186 23.3013 46.6216 23.2787 46.7247 23.2503C46.8277 23.2277 46.925 23.1993 47.0223 23.1653C47.1196 23.137 47.2169 23.103 47.3142 23.069C47.4115 23.0293 47.5146 22.9897 47.6119 22.95C47.7092 22.9047 47.8065 22.8593 47.8981 22.814C47.9954 22.7687 48.087 22.7233 48.1728 22.6723C48.2587 22.627 48.3503 22.576 48.4361 22.525C48.522 22.4683 48.6136 22.4173 48.6994 22.355C48.7796 22.2983 48.8654 22.2417 48.9513 22.1793C49.0314 22.1227 49.1058 22.0603 49.1802 21.998C49.2604 21.9357 49.3348 21.8677 49.4092 21.7997C49.4836 21.7317 49.5637 21.6637 49.6381 21.59V21.5843C49.7126 21.5107 49.7812 21.4427 49.8499 21.369C49.9129 21.2953 49.9816 21.216 50.0445 21.1423C50.1075 21.0573 50.1762 20.978 50.2334 20.8987C50.2907 20.8193 50.3536 20.7343 50.4051 20.655C50.4624 20.57 50.5196 20.485 50.5711 20.4C50.6227 20.3093 50.6742 20.2243 50.72 20.128C50.7715 20.0373 50.823 19.9467 50.8688 19.8503C50.9146 19.754 50.9546 19.6577 50.9947 19.567C51.0348 19.4707 51.0691 19.3743 51.1092 19.278C51.1435 19.1817 51.1779 19.0797 51.2065 18.9777C51.2351 18.8813 51.2695 18.7793 51.2924 18.6773C51.3153 18.5753 51.3381 18.4733 51.361 18.377C51.3782 18.275 51.3954 18.173 51.4126 18.0653C51.4297 17.9577 51.4412 17.8557 51.4526 17.748C51.4641 17.6347 51.4698 17.527 51.4755 17.4137C51.4812 17.3117 51.4812 17.204 51.4812 17.0963C51.4812 16.8753 51.4755 16.66 51.4526 16.4503C51.4297 16.235 51.4011 16.0253 51.361 15.8157C51.321 15.6117 51.2695 15.4077 51.2065 15.2093C51.1435 15.011 51.0748 14.8127 50.9947 14.62C50.9546 14.5293 50.9089 14.433 50.8688 14.3423C50.823 14.246 50.7715 14.1497 50.72 14.059C50.6742 13.9683 50.6227 13.8777 50.5711 13.787C50.5139 13.702 50.4624 13.617 50.4051 13.532C50.3536 13.4527 50.2907 13.3677 50.2334 13.2883C50.1762 13.209 50.1075 13.1297 50.0445 13.0447C49.9759 12.971 49.9129 12.8917 49.8499 12.8237C49.7812 12.75 49.7126 12.6763 49.6381 12.6027C49.5637 12.529 49.4836 12.4553 49.4092 12.3873C49.3348 12.325 49.2604 12.257 49.1802 12.1947C49.1058 12.1323 49.0314 12.07 48.9513 12.0077C48.8654 11.951 48.7796 11.8887 48.6994 11.832C48.6136 11.7753 48.522 11.7187 48.4361 11.6677C48.3503 11.611 48.2587 11.5657 48.1728 11.5147C48.087 11.4693 47.9954 11.4183 47.8981 11.373C47.8065 11.3277 47.7092 11.2823 47.6119 11.2427C47.5146 11.1973 47.4115 11.1577 47.3142 11.1237C47.2169 11.084 47.1196 11.0557 47.0223 11.0217C46.925 10.9933 46.8277 10.965 46.7247 10.9367C46.6216 10.914 46.5186 10.8913 46.4156 10.8687C46.3183 10.846 46.2153 10.829 46.1065 10.812C45.9977 10.8007 45.8947 10.7837 45.786 10.778C45.5684 10.7553 45.3452 10.744 45.1277 10.744C45.019 10.744 44.9102 10.744 44.8014 10.7497C44.6927 10.7553 44.5839 10.7667 44.4695 10.778C44.3664 10.7837 44.2577 10.8007 44.1546 10.812C44.0459 10.829 43.9429 10.846 43.8456 10.8687C43.7368 10.8913 43.6338 10.914 43.5307 10.9367C43.4334 10.965 43.3361 10.9933 43.2331 11.0217C43.1358 11.0557 43.0385 11.084 42.9469 11.1237C42.8439 11.1577 42.7466 11.1973 42.6493 11.2427C42.552 11.2823 42.4546 11.3277 42.3573 11.373C42.2658 11.4183 42.1742 11.4693 42.0826 11.5147C41.9967 11.5657 41.9109 11.611 41.825 11.6677C41.7334 11.7187 41.6476 11.7753 41.5617 11.832C41.4816 11.8887 41.4014 11.9453 41.3156 12.0077C41.2355 12.0643 41.1553 12.1267 41.0809 12.1947C40.9149 12.325 40.7661 12.4667 40.623 12.6027C40.4799 12.7443 40.3425 12.8973 40.2109 13.0503C40.0849 13.209 39.9647 13.3677 39.8503 13.5377C39.7358 13.7077 39.6328 13.8833 39.5355 14.059C39.4381 14.2403 39.3466 14.4273 39.2664 14.62C39.2264 14.7107 39.1863 14.807 39.152 14.9033C39.1176 15.0053 39.0833 15.1073 39.0546 15.2093C39.0203 15.3113 38.9917 15.4133 38.9688 15.5153C38.9402 15.6117 38.9173 15.7137 38.9001 15.8157C38.8772 15.912 38.86 16.0197 38.8486 16.1217C38.8314 16.2293 38.82 16.337 38.8085 16.4447C38.7971 16.5523 38.7913 16.6657 38.7856 16.7733C38.7799 16.881 38.7742 16.9887 38.7742 17.0963C38.7742 17.3173 38.7856 17.5327 38.8085 17.7423ZM62.5627 3.01467H64.5432V12.274L65.0698 11.6223L65.2243 11.441C65.2759 11.3843 65.3274 11.3277 65.3732 11.271L65.5334 11.101L65.688 10.9423C65.7567 10.8743 65.8253 10.812 65.8998 10.7497C65.9684 10.6817 66.0371 10.6193 66.1115 10.557C66.186 10.4947 66.2604 10.438 66.3348 10.3757C66.4092 10.319 66.4836 10.2623 66.558 10.2057C66.6381 10.149 66.7126 10.0923 66.7984 10.0413C66.8785 9.98467 66.9587 9.93367 67.0388 9.88267C67.1132 9.83733 67.1991 9.78633 67.2792 9.741C67.3594 9.69567 67.4452 9.65033 67.5311 9.605C67.6169 9.55967 67.7028 9.52 67.7887 9.48033C67.8688 9.44067 67.9604 9.401 68.0462 9.367C68.1321 9.32733 68.2237 9.29333 68.3095 9.25933C68.4011 9.22533 68.4927 9.19133 68.59 9.163C68.6816 9.129 68.7732 9.10067 68.8647 9.07233C68.9563 9.04967 69.0536 9.02133 69.1452 8.99867C69.2425 8.976 69.3398 8.95333 69.4314 8.93633C69.5287 8.91367 69.626 8.89667 69.7233 8.88533C69.8206 8.86833 69.9179 8.85133 70.0152 8.84C70.1126 8.82867 70.2099 8.823 70.3129 8.81167C70.4045 8.806 70.5018 8.80033 70.6048 8.79467C70.7021 8.79467 70.7994 8.789 70.8967 8.789C71.0456 8.789 71.1886 8.79467 71.3317 8.80033C71.4691 8.806 71.6122 8.81733 71.7496 8.82867C71.8927 8.84567 72.0358 8.86267 72.1674 8.87967C72.3048 8.90233 72.4422 8.925 72.5853 8.95333C72.7227 8.98167 72.86 9.01567 72.9917 9.044C73.1291 9.08367 73.2664 9.11767 73.3981 9.163C73.5297 9.20267 73.6614 9.248 73.7873 9.29333C73.919 9.33867 74.0449 9.38967 74.1765 9.44633C74.3025 9.49733 74.4284 9.554 74.5486 9.61633C74.6745 9.673 74.7947 9.73533 74.9092 9.79767C75.0237 9.86 75.1439 9.928 75.2583 9.996C75.3785 10.0697 75.493 10.1433 75.6018 10.217C75.7163 10.2907 75.825 10.37 75.9338 10.4493C76.0425 10.523 76.1455 10.608 76.2486 10.693C76.3516 10.7723 76.4489 10.8573 76.5462 10.9423C76.6435 11.033 76.7408 11.1237 76.8324 11.22C77.0213 11.407 77.2045 11.5997 77.3705 11.8037C77.5422 12.0077 77.6967 12.2173 77.8456 12.4327C77.9944 12.6537 78.1317 12.8803 78.2634 13.1127C78.395 13.3507 78.5152 13.6 78.624 13.8493C78.7328 14.1043 78.8358 14.365 78.9159 14.6257C78.9961 14.8863 79.0705 15.1527 79.122 15.419C79.1792 15.691 79.2193 15.963 79.2479 16.2407C79.2708 16.524 79.288 16.8073 79.288 17.0963C79.288 17.3853 79.2708 17.6687 79.2479 17.9463C79.2193 18.224 79.1792 18.5017 79.122 18.768C79.0705 19.04 78.9961 19.3007 78.9159 19.5613C78.8358 19.8277 78.7328 20.0827 78.624 20.3377C78.5725 20.4623 78.5152 20.587 78.4523 20.7117C78.395 20.8307 78.3321 20.9497 78.2691 21.0687C78.2062 21.182 78.1375 21.2953 78.0631 21.4143C77.9944 21.5277 77.92 21.641 77.8456 21.7543C77.7711 21.862 77.691 21.9697 77.6109 22.0773C77.5365 22.185 77.4506 22.2927 77.3647 22.389C77.2846 22.491 77.1987 22.5873 77.1129 22.6837C77.0213 22.78 76.9297 22.8763 76.8324 22.9727C76.7408 23.069 76.6435 23.1597 76.5462 23.2447C76.4489 23.3353 76.3516 23.4203 76.2486 23.4997C76.1455 23.5847 76.0425 23.664 75.9338 23.7433C75.825 23.8227 75.7163 23.902 75.6018 23.9757C75.493 24.0493 75.3785 24.1173 75.2583 24.191C75.1439 24.259 75.0294 24.327 74.9092 24.3893C74.7947 24.4517 74.6745 24.514 74.5486 24.5763C74.4284 24.633 74.3025 24.6897 74.1765 24.7463C74.0449 24.7973 73.919 24.8483 73.7873 24.8993C73.6614 24.9447 73.5297 24.99 73.3981 25.0297C73.2664 25.0693 73.1291 25.109 72.9917 25.143C72.86 25.177 72.7227 25.2053 72.5853 25.2337C72.4479 25.262 72.3048 25.2847 72.1674 25.3073C72.0301 25.33 71.8927 25.347 71.7496 25.3583C71.6065 25.3753 71.4691 25.381 71.326 25.3923C71.1886 25.398 71.0456 25.398 70.8967 25.398C70.7536 25.398 70.6105 25.398 70.4674 25.3923C70.3301 25.381 70.187 25.3753 70.0496 25.3583C69.9065 25.347 69.7634 25.33 69.626 25.3073C69.4887 25.2847 69.3513 25.262 69.2082 25.2337C69.0765 25.2053 68.9392 25.177 68.8075 25.143C68.6701 25.109 68.5328 25.0693 68.3954 25.0297C68.2637 24.99 68.1378 24.9447 68.0062 24.8993C67.8745 24.8483 67.7486 24.7973 67.6227 24.7463C67.4967 24.6897 67.3708 24.633 67.2449 24.5763C67.1247 24.514 67.0045 24.4517 66.8843 24.3893C66.7698 24.327 66.6553 24.259 66.5351 24.191C66.4206 24.1173 66.3062 24.0493 66.1917 23.9757C66.0829 23.902 65.9742 23.8227 65.8654 23.7433C65.7567 23.664 65.6536 23.5847 65.5506 23.4997C65.4476 23.4203 65.3503 23.3353 65.253 23.2447C65.1557 23.1597 65.0583 23.069 64.961 22.9727C64.7722 22.7857 64.5947 22.5873 64.423 22.389C64.257 22.185 64.0967 21.9753 63.9479 21.7543C63.8048 21.539 63.6617 21.3123 63.5358 21.0743C63.4041 20.8363 63.2839 20.5927 63.1695 20.3377C63.0607 20.0827 62.9634 19.8277 62.8833 19.5613C62.7974 19.3007 62.7287 19.04 62.6715 18.768C62.62 18.5017 62.5799 18.224 62.5513 17.9463C62.5227 17.6687 62.5112 17.3853 62.5112 17.0963V3.01467H62.5627ZM77.2445 16.7733C77.2388 16.6657 77.2331 16.5523 77.2216 16.4447C77.2102 16.337 77.1987 16.2293 77.1816 16.1217C77.1644 16.0197 77.1472 15.912 77.1301 15.8157C77.1072 15.7137 77.0843 15.6117 77.0614 15.5153C77.0385 15.4133 77.0041 15.3113 76.9755 15.2093C76.9469 15.1073 76.9126 15.0053 76.8725 14.909C76.8381 14.8127 76.8038 14.7163 76.7637 14.62C76.7237 14.5237 76.6779 14.433 76.6378 14.3423C76.592 14.2517 76.5405 14.1553 76.489 14.059C76.4432 13.9683 76.3917 13.8777 76.3402 13.7927C76.2887 13.7077 76.2314 13.617 76.1742 13.5377C76.1169 13.4527 76.0597 13.3677 76.0025 13.2883C75.9452 13.2147 75.8823 13.1297 75.8136 13.0503L75.7277 12.9483L75.6075 12.818L75.6132 12.8123L75.4072 12.6027C75.3328 12.529 75.2583 12.461 75.1839 12.393C75.1095 12.325 75.0294 12.257 74.955 12.1947C74.8748 12.1323 74.8004 12.07 74.7203 12.0077C74.6344 11.951 74.5486 11.8887 74.4684 11.832C74.3826 11.7753 74.291 11.7187 74.2051 11.6677C74.1193 11.611 74.0277 11.5657 73.9418 11.5147C73.856 11.4693 73.7644 11.4183 73.6671 11.373C73.5755 11.3277 73.4782 11.2823 73.3809 11.2427C73.2836 11.1973 73.1806 11.1577 73.0833 11.1237C72.986 11.084 72.8886 11.0557 72.7913 11.0217C72.694 10.9933 72.5967 10.965 72.4937 10.9367C72.3907 10.914 72.2876 10.8913 72.1846 10.8687C72.0873 10.846 71.9843 10.829 71.8755 10.812C71.7668 10.8007 71.6637 10.7837 71.555 10.778C71.3375 10.7553 71.1142 10.744 70.8967 10.744C70.788 10.744 70.6792 10.744 70.5705 10.7497C70.4617 10.7553 70.353 10.7667 70.2385 10.778C70.1355 10.7837 70.0267 10.8007 69.9237 10.812C69.8149 10.829 69.7119 10.846 69.6146 10.8687C69.5058 10.8913 69.4028 10.914 69.2998 10.9367C69.2025 10.965 69.0994 10.9933 69.0021 11.0217C68.9048 11.0557 68.8075 11.084 68.7102 11.1237C68.6129 11.1577 68.5156 11.1973 68.4183 11.2427C68.321 11.2823 68.2237 11.3277 68.1264 11.373C68.0348 11.4183 67.9432 11.4693 67.8516 11.5147C67.7658 11.5657 67.6799 11.611 67.594 11.6677C67.5025 11.7187 67.4166 11.7753 67.3307 11.832C67.2449 11.8887 67.1647 11.951 67.0789 12.0133C66.9988 12.07 66.9186 12.1323 66.8442 12.1947C66.7641 12.257 66.6897 12.325 66.6152 12.393C66.5351 12.461 66.4607 12.529 66.392 12.6027L66.1802 12.8123L66.186 12.818L66.1516 12.852C66.0543 12.9597 65.9627 13.073 65.8769 13.1863C65.7853 13.2997 65.6994 13.4187 65.6193 13.5377C65.5048 13.7077 65.4018 13.8833 65.3045 14.059C65.2072 14.2403 65.1156 14.4273 65.0355 14.62C64.9954 14.7107 64.9553 14.807 64.921 14.9033C64.8866 15.0053 64.8523 15.1073 64.8237 15.2093C64.7893 15.3113 64.7607 15.4133 64.7378 15.5153C64.7092 15.6117 64.6863 15.7137 64.6691 15.8157C64.6462 15.912 64.6291 16.0197 64.6176 16.1217C64.6004 16.2293 64.589 16.337 64.5775 16.4447C64.5661 16.5523 64.5604 16.6657 64.5546 16.7733C64.5489 16.881 64.5432 16.9887 64.5432 17.0963C64.5432 17.204 64.5489 17.3117 64.5546 17.4137C64.5604 17.527 64.5661 17.6347 64.5775 17.748C64.589 17.8557 64.6004 17.9577 64.6176 18.0653C64.6291 18.173 64.6462 18.275 64.6691 18.377C64.6863 18.4733 64.7092 18.5753 64.7378 18.6773C64.7607 18.7793 64.7893 18.8813 64.8237 18.9777C64.8523 19.0797 64.8866 19.1817 64.921 19.2837C64.9553 19.38 64.9954 19.4763 65.0355 19.5727C65.0755 19.6633 65.1156 19.754 65.1614 19.8503C65.2072 19.9467 65.2587 20.043 65.3045 20.1337C65.356 20.2243 65.4075 20.315 65.459 20.4057C65.5105 20.4907 65.562 20.5757 65.6193 20.655L65.7051 20.7853H65.7109L65.854 20.9723L65.9856 21.1367C66.0486 21.216 66.1173 21.2953 66.186 21.3747L66.1802 21.3803L66.392 21.59C66.4607 21.658 66.5351 21.7317 66.6152 21.7997C66.6897 21.862 66.7641 21.93 66.8442 21.998C66.9186 22.0603 66.9988 22.1227 67.0789 22.1793C67.1647 22.2417 67.2449 22.2983 67.3307 22.355C67.4166 22.4173 67.5025 22.4683 67.594 22.525C67.6799 22.576 67.7658 22.627 67.8516 22.6723C67.9432 22.7233 68.0348 22.7687 68.1264 22.814C68.2237 22.8593 68.321 22.9047 68.4183 22.95C68.5156 22.9897 68.6129 23.0293 68.7159 23.069C68.8132 23.103 68.9105 23.137 69.0078 23.1653C69.1051 23.1993 69.2025 23.2277 69.3055 23.2503C69.4028 23.2787 69.5058 23.3013 69.6146 23.324C69.7119 23.341 69.8149 23.358 69.9237 23.375C70.0267 23.392 70.1355 23.4033 70.2385 23.4147C70.4617 23.4373 70.6792 23.443 70.8967 23.443C71.0055 23.443 71.1142 23.443 71.223 23.4373C71.3375 23.4317 71.4462 23.426 71.555 23.4147C71.6637 23.4033 71.7668 23.392 71.8755 23.375C71.9843 23.358 72.0873 23.341 72.1846 23.324C72.2876 23.3013 72.3907 23.2787 72.4937 23.2503C72.5967 23.2277 72.694 23.1993 72.7913 23.1653C72.8886 23.137 72.986 23.103 73.0833 23.069C73.1806 23.0293 73.2836 22.9897 73.3809 22.95C73.4782 22.9047 73.5755 22.8593 73.6671 22.814C73.7644 22.7687 73.856 22.7233 73.9418 22.6723C74.0277 22.627 74.1193 22.576 74.2051 22.525C74.291 22.4683 74.3826 22.4173 74.4684 22.355C74.5486 22.2983 74.6344 22.2417 74.7203 22.1793C74.8004 22.1227 74.8748 22.0603 74.955 21.998C75.0294 21.93 75.1095 21.862 75.1839 21.794C75.2583 21.7317 75.3328 21.658 75.4072 21.59L75.6132 21.3803L75.6075 21.3747L75.6418 21.335C75.7392 21.2273 75.8307 21.1197 75.9223 21.0063C76.0082 20.893 76.094 20.774 76.1799 20.6493C76.2887 20.485 76.3974 20.3093 76.4947 20.128C76.592 19.9467 76.6779 19.7597 76.7637 19.567C76.8038 19.4763 76.8381 19.38 76.8725 19.2837C76.9126 19.1817 76.9469 19.0797 76.9755 18.9777C77.0041 18.8813 77.0385 18.7793 77.0614 18.6773C77.0843 18.5753 77.1072 18.4733 77.1301 18.377C77.1472 18.275 77.1644 18.173 77.1816 18.0653C77.1987 17.9577 77.2102 17.8557 77.2216 17.748C77.2331 17.6347 77.2388 17.527 77.2445 17.4137C77.2503 17.3117 77.2503 17.204 77.2503 17.0963C77.2503 16.9887 77.2503 16.881 77.2445 16.7733ZM104.387 25.0977H102.407V21.981L101.88 22.61C101.771 22.7403 101.657 22.865 101.537 22.9897C101.422 23.1143 101.296 23.239 101.17 23.3523C101.045 23.4713 100.913 23.5847 100.776 23.698C100.638 23.8057 100.501 23.9133 100.358 24.0153C100.197 24.1287 100.031 24.242 99.8654 24.3383C99.6994 24.4403 99.5277 24.5367 99.3503 24.6217C99.1785 24.7067 99.0011 24.786 98.8237 24.8597C98.6462 24.9333 98.4688 24.9957 98.2799 25.0523C98.0967 25.1147 97.9078 25.16 97.719 25.2053C97.5301 25.2507 97.3354 25.2847 97.1408 25.313C96.9462 25.3413 96.7459 25.364 96.5456 25.381C96.3452 25.3923 96.1392 25.398 95.9331 25.398C95.79 25.398 95.6526 25.398 95.5152 25.3923C95.3779 25.381 95.2405 25.3753 95.1031 25.3583C94.9715 25.347 94.8341 25.33 94.7025 25.3073C94.5651 25.2847 94.4277 25.262 94.2961 25.2337C94.1587 25.2053 94.027 25.177 93.8954 25.143C93.7637 25.109 93.6321 25.0693 93.5062 25.0297C93.3802 24.99 93.2486 24.9447 93.1227 24.8993C92.9967 24.8483 92.8708 24.7973 92.7449 24.7407C92.6189 24.6897 92.493 24.633 92.3728 24.5707C92.2526 24.514 92.1324 24.4517 92.0179 24.3893L92.0122 24.3837C91.8977 24.3213 91.7833 24.2533 91.6745 24.1853C91.56 24.1173 91.4455 24.0437 91.3368 23.97C91.228 23.8963 91.1193 23.8227 91.0163 23.7433C90.9075 23.664 90.8045 23.5847 90.7014 23.4997C90.6041 23.4147 90.5011 23.3297 90.4038 23.2447C90.3065 23.154 90.2092 23.0633 90.1176 22.9727C90.0203 22.8763 89.9287 22.78 89.8371 22.6837C89.7513 22.5873 89.6654 22.491 89.5853 22.389C89.4994 22.2927 89.4193 22.185 89.3392 22.0773C89.259 21.9697 89.1789 21.862 89.1045 21.7543C89.0301 21.641 88.9557 21.5277 88.887 21.4143C88.8126 21.2953 88.7496 21.182 88.6809 21.0687C88.6179 20.9497 88.5607 20.8307 88.4977 20.7117C88.4405 20.587 88.3833 20.4623 88.326 20.3377C88.2688 20.213 88.2173 20.0827 88.1715 19.958C88.1257 19.8333 88.0799 19.703 88.0398 19.5727C87.9998 19.4367 87.9597 19.3007 87.9254 19.1703C87.891 19.0343 87.8567 18.904 87.828 18.768C87.8051 18.6263 87.7765 18.4903 87.7594 18.3543C87.7365 18.2183 87.7193 18.0767 87.7078 17.935C87.6907 17.799 87.6792 17.6573 87.6735 17.5213C87.6678 17.3797 87.662 17.238 87.662 17.0963C87.662 16.949 87.6678 16.8073 87.6735 16.6713C87.6792 16.5297 87.6907 16.3937 87.7078 16.252C87.7193 16.1103 87.7365 15.9743 87.7594 15.8383C87.7765 15.7023 87.8051 15.5663 87.828 15.4247C87.8567 15.2887 87.891 15.1527 87.9254 15.0223C87.9597 14.8863 87.9998 14.7503 88.0398 14.62C88.0799 14.4897 88.1257 14.3593 88.1715 14.2347C88.2173 14.1043 88.2688 13.9797 88.326 13.8493C88.3833 13.7247 88.4405 13.6 88.4977 13.481C88.5607 13.3563 88.6179 13.2373 88.6809 13.124C88.7496 13.0107 88.8126 12.8917 88.887 12.7783C88.9557 12.6593 89.0301 12.546 89.1045 12.4383C89.1789 12.325 89.259 12.2173 89.3392 12.1097C89.4193 12.002 89.4994 11.9 89.5853 11.798C89.6654 11.696 89.7513 11.5997 89.8371 11.5033C89.9287 11.407 90.0203 11.3107 90.1176 11.22C90.2092 11.1237 90.3065 11.033 90.4095 10.9423C90.5011 10.8573 90.6041 10.7723 90.7014 10.693C90.8045 10.608 90.9132 10.523 91.0163 10.4493C91.125 10.37 91.2395 10.2907 91.3482 10.217C91.457 10.1433 91.5715 10.0697 91.6917 9.996C91.8062 9.928 91.9206 9.86567 92.0408 9.79767C92.1553 9.73533 92.2755 9.673 92.4014 9.61633C92.5274 9.554 92.6476 9.49733 92.7792 9.44633C92.9051 9.38967 93.0311 9.33867 93.1627 9.29333C93.2886 9.248 93.4203 9.20267 93.5519 9.163C93.6893 9.11767 93.821 9.08367 93.9583 9.04967C94.0957 9.01567 94.2274 8.98167 94.3647 8.95333C94.5078 8.925 94.6452 8.90233 94.7826 8.87967C94.92 8.86267 95.0631 8.84567 95.2062 8.82867C95.3435 8.81733 95.4809 8.806 95.624 8.80033C95.7671 8.79467 95.9102 8.789 96.0533 8.789C96.1964 8.789 96.3395 8.79467 96.4826 8.80033C96.6257 8.806 96.7631 8.81733 96.9004 8.82867C97.0493 8.84567 97.1866 8.86267 97.324 8.87967C97.4614 8.90233 97.5987 8.925 97.7418 8.95333C97.8792 8.98167 98.0166 9.01567 98.1482 9.044C98.2856 9.08367 98.4173 9.11767 98.5546 9.163C98.6863 9.20267 98.8179 9.248 98.9439 9.29333C99.0698 9.33867 99.2014 9.38967 99.3274 9.44633C99.4533 9.49733 99.5792 9.554 99.7051 9.61633C99.8253 9.673 99.9455 9.73533 100.066 9.79767C100.18 9.86 100.3 9.928 100.415 10.0017C100.535 10.0697 100.65 10.1433 100.758 10.217C100.867 10.2907 100.982 10.3643 101.09 10.4437C101.193 10.523 101.302 10.608 101.405 10.693C101.502 10.7723 101.605 10.8573 101.697 10.9423C101.794 11.033 101.892 11.1237 101.989 11.22C102.178 11.407 102.355 11.5997 102.527 11.8037C102.693 12.0077 102.853 12.2173 103.002 12.4327C103.151 12.6537 103.288 12.8803 103.42 13.1127C103.552 13.3507 103.672 13.6 103.781 13.8493C103.889 14.1043 103.987 14.365 104.072 14.6257C104.153 14.8863 104.221 15.1527 104.279 15.419C104.33 15.691 104.376 15.963 104.399 16.2407C104.427 16.524 104.445 16.8073 104.445 17.0963V25.0977H104.387ZM89.7284 17.7423C89.7513 17.952 89.7799 18.1617 89.82 18.3713C89.8658 18.581 89.9173 18.785 89.9745 18.9833C90.0375 19.1817 90.1062 19.3743 90.192 19.5727C90.2264 19.6633 90.2721 19.754 90.3179 19.8503C90.3637 19.9467 90.4095 20.043 90.461 20.1337C90.5126 20.2243 90.5641 20.315 90.6156 20.4057C90.6671 20.4907 90.7186 20.5757 90.7759 20.655L90.8617 20.7853H90.8674L91.0048 20.9723L91.1365 21.1367C91.2738 21.301 91.4112 21.4483 91.5486 21.5843C91.6917 21.7317 91.8405 21.862 91.995 21.9923C92.1553 22.1227 92.3213 22.2417 92.493 22.3607C92.659 22.474 92.8365 22.576 93.0139 22.678C93.1971 22.7743 93.3802 22.865 93.5748 22.95C93.6721 22.9897 93.7695 23.0293 93.8668 23.069C93.9641 23.103 94.0614 23.137 94.1587 23.1653C94.256 23.1993 94.359 23.2277 94.4563 23.2503C94.5594 23.2787 94.6624 23.3013 94.7654 23.324C94.8627 23.341 94.9715 23.358 95.0745 23.375C95.1833 23.392 95.292 23.4033 95.395 23.4147C95.6183 23.4373 95.8358 23.443 96.0533 23.443C96.162 23.443 96.2708 23.443 96.3796 23.4373C96.4883 23.4317 96.6028 23.426 96.7115 23.4147C96.8146 23.4033 96.9233 23.392 97.0264 23.375C97.1351 23.358 97.2381 23.341 97.3412 23.324C97.4442 23.3013 97.5472 23.2787 97.6503 23.2503C97.7476 23.2277 97.8506 23.1993 97.9479 23.1653C98.0452 23.137 98.1425 23.103 98.2398 23.069C98.3371 23.0293 98.4344 22.9897 98.5317 22.95C98.6348 22.9047 98.7321 22.8593 98.8237 22.814C98.9152 22.7687 99.0068 22.7233 99.0984 22.6723C99.1843 22.627 99.2701 22.576 99.3617 22.525C99.4476 22.4683 99.5334 22.4173 99.6193 22.355C99.7051 22.2983 99.791 22.2417 99.8711 22.1793C99.9513 22.1227 100.031 22.0603 100.106 21.998C100.186 21.9357 100.26 21.8677 100.335 21.7997C100.409 21.7317 100.484 21.6637 100.558 21.59V21.5843C100.632 21.5107 100.707 21.4427 100.77 21.369C100.838 21.2953 100.901 21.216 100.964 21.1423C101.033 21.0573 101.096 20.978 101.159 20.8987C101.216 20.8193 101.273 20.7343 101.331 20.655C101.388 20.57 101.439 20.485 101.491 20.4C101.548 20.3093 101.594 20.2243 101.646 20.128C101.697 20.0373 101.743 19.9467 101.789 19.8503C101.834 19.754 101.88 19.6577 101.915 19.567C101.955 19.4707 101.995 19.3743 102.029 19.278C102.063 19.1817 102.098 19.0797 102.132 18.9777C102.161 18.8813 102.189 18.7793 102.218 18.6773C102.241 18.5753 102.264 18.4733 102.287 18.377C102.304 18.275 102.321 18.173 102.338 18.0653C102.35 17.9577 102.367 17.8557 102.372 17.748C102.384 17.6347 102.395 17.527 102.401 17.4137C102.407 17.3117 102.407 17.204 102.407 17.0963C102.407 16.8753 102.395 16.66 102.378 16.4503C102.355 16.235 102.327 16.0253 102.287 15.8157C102.241 15.6117 102.189 15.4077 102.132 15.2093C102.069 15.011 102 14.8127 101.915 14.62C101.875 14.5293 101.834 14.433 101.789 14.3423C101.743 14.246 101.697 14.1497 101.646 14.059C101.594 13.9683 101.543 13.8777 101.491 13.787C101.439 13.702 101.382 13.617 101.331 13.532C101.273 13.4527 101.216 13.3677 101.159 13.2883C101.096 13.209 101.033 13.1297 100.964 13.0447C100.901 12.971 100.838 12.8917 100.77 12.8237C100.707 12.75 100.632 12.6763 100.558 12.6027C100.484 12.529 100.409 12.4553 100.335 12.3873C100.26 12.325 100.186 12.257 100.106 12.1947C100.031 12.1323 99.9513 12.07 99.8711 12.0077C99.791 11.951 99.7051 11.8887 99.6193 11.832C99.5334 11.7753 99.4476 11.7187 99.3617 11.6677C99.2701 11.611 99.1843 11.5657 99.0984 11.5147C99.0068 11.4693 98.9152 11.4183 98.8237 11.373C98.7321 11.3277 98.6348 11.2823 98.5317 11.2427C98.4344 11.1973 98.3371 11.1577 98.2398 11.1237C98.1425 11.084 98.0452 11.0557 97.9479 11.0217C97.8506 10.9933 97.7476 10.965 97.6503 10.9367C97.5472 10.914 97.4442 10.8913 97.3412 10.8687C97.2381 10.846 97.1351 10.829 97.0264 10.812C96.9233 10.8007 96.8146 10.7837 96.7115 10.778C96.4883 10.7553 96.2708 10.744 96.0533 10.744C95.9445 10.744 95.8358 10.744 95.727 10.7497C95.6126 10.7553 95.5038 10.7667 95.395 10.778C95.292 10.7837 95.1833 10.8007 95.0745 10.812C94.9715 10.829 94.8627 10.846 94.7654 10.8687C94.6624 10.8913 94.5594 10.914 94.4563 10.9367C94.359 10.965 94.256 10.9933 94.1587 11.0217C94.0614 11.0557 93.9641 11.084 93.8668 11.1237C93.7695 11.1577 93.6721 11.1973 93.5748 11.2427C93.4718 11.2823 93.3745 11.3277 93.2829 11.373C93.1913 11.4183 93.0998 11.4693 93.0082 11.5147C92.9223 11.5657 92.8307 11.611 92.7449 11.6677C92.659 11.7187 92.5732 11.7753 92.4873 11.832C92.4072 11.8887 92.3213 11.9453 92.2412 12.0077C92.161 12.0643 92.0809 12.1267 92.0065 12.1947C91.8405 12.325 91.686 12.4667 91.5486 12.6027C91.4055 12.7443 91.2681 12.8973 91.1365 13.0503C91.0105 13.209 90.8846 13.3677 90.7759 13.5377C90.6614 13.7077 90.5526 13.8833 90.4553 14.059C90.3637 14.2403 90.2721 14.4273 90.192 14.62C90.1519 14.7107 90.1119 14.807 90.0775 14.9033C90.0432 15.0053 90.0089 15.1073 89.9745 15.2093C89.9459 15.3113 89.9173 15.4133 89.8886 15.5153C89.8658 15.6117 89.8429 15.7137 89.82 15.8157C89.8028 15.912 89.7856 16.0197 89.7684 16.1217C89.757 16.2293 89.7398 16.337 89.7284 16.4447C89.7227 16.5523 89.7112 16.6657 89.7055 16.7733C89.6998 16.881 89.6998 16.9887 89.6998 17.0963C89.6998 17.3173 89.7112 17.5327 89.7284 17.7423ZM120.861 11.1407C120.649 11.1577 120.437 11.1917 120.231 11.2313C120.019 11.271 119.819 11.322 119.619 11.3787C119.418 11.441 119.224 11.509 119.029 11.594C118.932 11.6337 118.84 11.679 118.743 11.7187C118.651 11.764 118.56 11.8093 118.468 11.8603C118.382 11.9057 118.291 11.9567 118.205 12.0077C118.119 12.0643 118.027 12.1153 117.947 12.172C117.867 12.2287 117.781 12.2853 117.701 12.342C117.621 12.4043 117.541 12.4667 117.461 12.529C117.403 12.58 117.34 12.631 117.283 12.682L117.094 12.852L117.009 12.937C116.934 13.0107 116.865 13.0787 116.802 13.1523C116.734 13.226 116.665 13.3053 116.596 13.3847C116.533 13.4583 116.476 13.5377 116.413 13.6227C116.35 13.702 116.293 13.7813 116.236 13.8663C116.179 13.9457 116.127 14.0363 116.07 14.1213C116.018 14.2063 115.967 14.297 115.921 14.382C115.869 14.4727 115.824 14.5633 115.778 14.654C115.732 14.7503 115.692 14.841 115.652 14.9373C115.612 15.0337 115.572 15.13 115.537 15.2263C115.503 15.3227 115.469 15.419 115.44 15.521C115.406 15.6173 115.377 15.7193 115.354 15.8213C115.326 15.9177 115.303 16.0197 115.286 16.1217C115.263 16.2237 115.246 16.3257 115.234 16.4277C115.217 16.5353 115.205 16.643 115.194 16.7507C115.183 16.8583 115.177 16.966 115.171 17.0793C115.165 17.187 115.16 17.2947 115.16 17.3967V25.0977H113.128V17.3967C113.128 17.255 113.128 17.1133 113.139 16.9717C113.145 16.8357 113.151 16.694 113.168 16.558C113.179 16.4163 113.196 16.2747 113.219 16.1443C113.242 16.0083 113.265 15.8667 113.294 15.7307C113.322 15.5947 113.351 15.4587 113.385 15.3283C113.42 15.1923 113.46 15.0563 113.5 14.926C113.54 14.79 113.586 14.6653 113.631 14.535C113.683 14.4103 113.734 14.28 113.786 14.1553C113.843 14.0307 113.9 13.906 113.963 13.7813C114.021 13.6623 114.084 13.5433 114.147 13.43C114.21 13.311 114.278 13.1977 114.347 13.0787C114.421 12.9653 114.49 12.852 114.564 12.7443C114.639 12.631 114.719 12.5233 114.799 12.4213C114.873 12.3137 114.959 12.206 115.045 12.104C115.125 12.0077 115.211 11.9113 115.297 11.815C115.389 11.7187 115.486 11.6167 115.578 11.526L115.703 11.4013C116.07 11.0557 116.459 10.744 116.883 10.472C117.306 10.1943 117.758 9.95633 118.239 9.75233C118.365 9.69567 118.497 9.64467 118.623 9.59933C118.754 9.54833 118.88 9.503 119.012 9.46333C119.149 9.42367 119.287 9.384 119.424 9.35C119.556 9.316 119.693 9.28767 119.83 9.25933C119.968 9.231 120.105 9.20833 120.243 9.18567C120.38 9.16867 120.523 9.146 120.666 9.13467C120.803 9.12333 120.947 9.112 121.084 9.10633C121.227 9.095 121.37 9.095 121.513 9.095H121.92V11.1067H121.513C121.29 11.1067 121.072 11.118 120.861 11.1407ZM143.39 23.1937V25.0977H128.76V23.3863L140.517 11.05H128.76V9.095H143.39V10.8063L131.633 23.1427H143.39V23.1937ZM151.776 16.6713C151.781 16.5297 151.793 16.3937 151.804 16.252C151.821 16.1103 151.838 15.9743 151.856 15.8383C151.879 15.7023 151.901 15.5663 151.93 15.4247C151.959 15.2887 151.987 15.1527 152.022 15.0223C152.056 14.8863 152.096 14.7503 152.142 14.62C152.182 14.4897 152.222 14.3593 152.273 14.2347C152.319 14.1043 152.371 13.9797 152.428 13.8493C152.48 13.7247 152.537 13.6 152.6 13.481C152.657 13.3563 152.72 13.2373 152.783 13.124C152.846 13.0107 152.915 12.8917 152.983 12.7783C153.058 12.6593 153.132 12.546 153.206 12.4383C153.281 12.325 153.355 12.2173 153.435 12.1097C153.516 12.002 153.601 11.9 153.682 11.798C153.767 11.696 153.853 11.5997 153.939 11.5033C154.031 11.407 154.122 11.3107 154.214 11.22C154.311 11.1237 154.409 11.033 154.506 10.9423C154.603 10.8573 154.7 10.7723 154.803 10.693C154.906 10.608 155.01 10.523 155.118 10.4493C155.227 10.37 155.336 10.2907 155.45 10.217C155.559 10.1433 155.673 10.0697 155.794 9.996C155.908 9.928 156.023 9.86567 156.143 9.79767C156.257 9.73533 156.378 9.673 156.498 9.61633C156.624 9.554 156.75 9.49733 156.876 9.44633C157.001 9.38967 157.133 9.33867 157.259 9.29333C157.391 9.248 157.522 9.20267 157.654 9.163C157.786 9.11767 157.923 9.08367 158.06 9.04967C158.192 9.01567 158.329 8.98167 158.467 8.95333C158.604 8.925 158.747 8.90233 158.885 8.87967C159.022 8.86267 159.159 8.84567 159.302 8.82867C159.44 8.81733 159.583 8.806 159.72 8.80033C159.863 8.79467 160.006 8.789 160.155 8.789C160.298 8.789 160.442 8.79467 160.585 8.80033C160.728 8.806 160.865 8.81733 161.002 8.82867C161.146 8.84567 161.289 8.86267 161.426 8.87967C161.558 8.90233 161.701 8.925 161.838 8.95333C161.981 8.98167 162.113 9.01567 162.245 9.044C162.382 9.08367 162.519 9.11767 162.651 9.163C162.788 9.20267 162.914 9.248 163.046 9.29333C163.172 9.33867 163.298 9.38967 163.429 9.44633C163.555 9.49733 163.681 9.554 163.807 9.61633C163.927 9.673 164.048 9.73533 164.162 9.79767C164.282 9.86 164.397 9.928 164.517 10.0017C164.631 10.0697 164.746 10.1433 164.855 10.217C164.969 10.2907 165.078 10.3643 165.187 10.4437C165.295 10.523 165.398 10.608 165.501 10.693C165.604 10.7723 165.702 10.8573 165.799 10.9423C165.896 11.033 165.994 11.1237 166.091 11.22C166.28 11.407 166.457 11.5997 166.629 11.8037C166.795 12.0077 166.955 12.2173 167.104 12.4327C167.247 12.6537 167.39 12.8803 167.516 13.1127C167.648 13.3507 167.768 13.6 167.877 13.8493C167.991 14.1043 168.089 14.365 168.169 14.6257C168.255 14.8863 168.323 15.1527 168.375 15.419C168.432 15.691 168.472 15.963 168.501 16.2407C168.529 16.524 168.541 16.8073 168.541 17.0963C168.541 17.3853 168.529 17.6687 168.501 17.9463C168.472 18.224 168.432 18.5017 168.375 18.768C168.323 19.04 168.255 19.3007 168.169 19.5613C168.089 19.8277 167.991 20.0827 167.877 20.3377C167.825 20.4623 167.768 20.587 167.705 20.7117C167.648 20.8307 167.585 20.9497 167.522 21.0687C167.459 21.182 167.39 21.2953 167.322 21.4143C167.247 21.5277 167.179 21.641 167.104 21.7543C167.024 21.862 166.95 21.9697 166.869 22.0773C166.789 22.185 166.703 22.2927 166.623 22.389C166.537 22.491 166.457 22.5873 166.366 22.6837C166.28 22.78 166.183 22.8763 166.091 22.9727C165.994 23.069 165.896 23.1597 165.799 23.2447C165.702 23.3353 165.604 23.4203 165.501 23.4997C165.398 23.5847 165.295 23.664 165.187 23.7433C165.078 23.8227 164.969 23.902 164.855 23.9757C164.746 24.0493 164.631 24.1173 164.517 24.191C164.397 24.259 164.282 24.327 164.162 24.3893C164.048 24.4517 163.927 24.514 163.807 24.5707C163.681 24.633 163.555 24.6897 163.429 24.7463C163.298 24.7973 163.172 24.8483 163.046 24.8993C162.914 24.9447 162.788 24.99 162.657 25.0297C162.519 25.0693 162.382 25.109 162.245 25.143C162.113 25.177 161.981 25.2053 161.838 25.2337C161.701 25.262 161.558 25.2847 161.42 25.3073C161.289 25.33 161.146 25.347 161.002 25.3583C160.865 25.3753 160.722 25.381 160.585 25.3923C160.442 25.398 160.298 25.398 160.155 25.398C160.006 25.398 159.863 25.398 159.72 25.3923C159.583 25.381 159.44 25.3753 159.302 25.3583C159.159 25.347 159.022 25.33 158.885 25.3073C158.747 25.2847 158.604 25.262 158.467 25.2337C158.329 25.2053 158.192 25.177 158.06 25.143C157.923 25.109 157.786 25.0693 157.654 25.0297C157.522 24.99 157.391 24.9447 157.259 24.8993C157.133 24.8483 157.001 24.7973 156.876 24.7463C156.75 24.6897 156.624 24.633 156.498 24.5707C156.378 24.514 156.257 24.4517 156.143 24.3893C156.023 24.327 155.908 24.259 155.794 24.191C155.673 24.1173 155.559 24.0493 155.45 23.9757C155.336 23.902 155.227 23.8227 155.118 23.7433C155.01 23.664 154.906 23.5847 154.803 23.4997C154.7 23.4203 154.603 23.3353 154.506 23.2447C154.409 23.1597 154.311 23.069 154.214 22.9727C154.122 22.8763 154.031 22.78 153.939 22.6837C153.853 22.5873 153.767 22.491 153.682 22.389C153.601 22.2927 153.516 22.185 153.435 22.0773C153.355 21.9697 153.281 21.862 153.206 21.7543C153.132 21.641 153.058 21.5277 152.983 21.4143C152.915 21.2953 152.846 21.182 152.783 21.0687C152.72 20.9497 152.657 20.8307 152.6 20.7117C152.537 20.587 152.48 20.4623 152.428 20.3377C152.371 20.213 152.319 20.0827 152.273 19.958C152.222 19.8333 152.182 19.703 152.142 19.5727C152.096 19.4367 152.056 19.3007 152.022 19.1703C151.987 19.0343 151.959 18.904 151.93 18.768C151.901 18.6263 151.879 18.4903 151.856 18.3543C151.838 18.2183 151.821 18.0767 151.804 17.935C151.793 17.799 151.781 17.6573 151.776 17.5213C151.77 17.3797 151.764 17.238 151.764 17.0963C151.764 16.949 151.77 16.8073 151.776 16.6713ZM153.83 17.7423C153.848 17.952 153.882 18.1617 153.922 18.3657C153.962 18.5753 154.014 18.7737 154.077 18.972C154.134 19.1703 154.208 19.363 154.288 19.5557C154.328 19.652 154.374 19.7427 154.42 19.839C154.46 19.9297 154.506 20.0203 154.557 20.111C154.603 20.196 154.655 20.2867 154.712 20.3717C154.763 20.4567 154.815 20.5473 154.872 20.6267C154.929 20.706 154.987 20.791 155.05 20.8703C155.107 20.9497 155.17 21.029 155.233 21.1083C155.301 21.1877 155.364 21.2613 155.433 21.335C155.502 21.4087 155.576 21.4823 155.645 21.556C155.794 21.7033 155.943 21.8393 156.097 21.964C156.257 22.0887 156.418 22.2077 156.584 22.321C156.669 22.3777 156.755 22.4343 156.841 22.4853C156.933 22.5363 157.019 22.5873 157.11 22.6327C157.202 22.6837 157.293 22.729 157.385 22.7743C157.477 22.8197 157.574 22.8593 157.671 22.899C157.763 22.9387 157.86 22.9783 157.957 23.0123C158.055 23.0463 158.152 23.0803 158.255 23.1143C158.352 23.1427 158.455 23.171 158.558 23.1937C158.661 23.222 158.759 23.2447 158.862 23.2617C158.965 23.2843 159.068 23.3013 159.171 23.3127C159.28 23.3297 159.388 23.341 159.497 23.3523C159.606 23.3637 159.72 23.3693 159.829 23.375C159.938 23.3807 160.047 23.3863 160.155 23.3863C160.373 23.3863 160.596 23.375 160.808 23.3523C161.02 23.3353 161.231 23.307 161.437 23.2617C161.644 23.222 161.85 23.171 162.05 23.1143C162.245 23.052 162.445 22.984 162.639 22.899C162.737 22.8593 162.828 22.814 162.92 22.7743C163.012 22.729 163.109 22.6837 163.2 22.6327C163.286 22.5873 163.378 22.5363 163.464 22.4853C163.55 22.4343 163.635 22.3777 163.721 22.321C163.807 22.2643 163.887 22.2077 163.967 22.1453C164.048 22.0887 164.128 22.0263 164.208 21.964C164.288 21.896 164.362 21.8337 164.437 21.7657C164.511 21.6977 164.586 21.6297 164.66 21.556L164.872 21.3463H164.866L165.072 21.1083C165.135 21.029 165.198 20.9497 165.255 20.876C165.318 20.791 165.376 20.7117 165.433 20.6267C165.49 20.5473 165.542 20.4567 165.599 20.3717C165.65 20.2867 165.702 20.196 165.748 20.111C165.799 20.0203 165.845 19.9297 165.891 19.839C165.931 19.7483 165.977 19.652 166.017 19.5557C166.057 19.4593 166.097 19.363 166.131 19.2667C166.165 19.1703 166.2 19.074 166.228 18.9777C166.263 18.8757 166.291 18.7737 166.314 18.6717C166.343 18.5753 166.366 18.4733 166.383 18.3713C166.406 18.2693 166.423 18.1673 166.434 18.0653C166.452 17.9577 166.463 17.85 166.475 17.7423C166.486 17.6347 166.492 17.527 166.497 17.4137C166.503 17.3117 166.509 17.204 166.509 17.0963C166.509 16.8753 166.497 16.66 166.475 16.4503C166.457 16.235 166.423 16.0253 166.383 15.8213C166.343 15.6173 166.291 15.4133 166.234 15.2207C166.171 15.0223 166.097 14.8297 166.017 14.637C165.977 14.5407 165.931 14.4443 165.891 14.3537C165.845 14.263 165.799 14.1723 165.748 14.0817C165.702 13.991 165.65 13.906 165.599 13.821C165.542 13.7303 165.49 13.6453 165.433 13.5603C165.376 13.481 165.318 13.396 165.255 13.3167C165.198 13.2373 165.135 13.158 165.072 13.0843C165.003 13.005 164.94 12.9257 164.872 12.852C164.803 12.7783 164.734 12.7047 164.66 12.631C164.586 12.563 164.511 12.4893 164.437 12.427C164.362 12.359 164.282 12.291 164.208 12.223C164.128 12.1607 164.048 12.0983 163.973 12.0417C163.887 11.985 163.807 11.9227 163.721 11.8717C163.635 11.815 163.55 11.7583 163.464 11.7073C163.378 11.6563 163.286 11.6053 163.2 11.5543C163.109 11.509 163.017 11.458 162.926 11.4183C162.834 11.373 162.737 11.3333 162.639 11.288C162.542 11.2483 162.445 11.2087 162.348 11.1747C162.25 11.1407 162.153 11.1067 162.05 11.0783C161.953 11.05 161.85 11.0217 161.747 10.9933C161.649 10.9707 161.546 10.948 161.443 10.9253C161.34 10.9083 161.237 10.8913 161.134 10.8743C161.025 10.8573 160.917 10.846 160.808 10.8347C160.699 10.8233 160.59 10.8177 160.476 10.812C160.367 10.8063 160.258 10.8063 160.155 10.8063C159.932 10.8063 159.715 10.812 159.497 10.8347C159.285 10.8573 159.073 10.8857 158.867 10.9253C158.661 10.965 158.455 11.016 158.255 11.0783C158.06 11.135 157.86 11.2087 157.671 11.288C157.574 11.3277 157.477 11.373 157.385 11.4183C157.293 11.458 157.202 11.509 157.11 11.5543C157.019 11.6053 156.933 11.6507 156.841 11.7073C156.755 11.7583 156.669 11.815 156.584 11.8717C156.503 11.9227 156.423 11.9793 156.337 12.0417C156.257 12.0983 156.177 12.1607 156.103 12.223C156.023 12.291 155.943 12.359 155.868 12.4213C155.794 12.4893 155.719 12.563 155.645 12.631C155.502 12.7783 155.364 12.9257 155.233 13.0843C155.107 13.2373 154.987 13.396 154.872 13.5603C154.815 13.6453 154.763 13.7303 154.712 13.8153C154.655 13.906 154.603 13.991 154.557 14.0817C154.506 14.1723 154.46 14.263 154.42 14.3537C154.374 14.4443 154.328 14.5407 154.288 14.637C154.248 14.7333 154.208 14.824 154.174 14.9203C154.139 15.0167 154.105 15.1187 154.077 15.215C154.042 15.3113 154.014 15.4133 153.991 15.5153C153.968 15.6173 153.945 15.7137 153.922 15.8157C153.905 15.9177 153.882 16.0197 153.87 16.1273C153.853 16.2293 153.842 16.337 153.83 16.4447C153.819 16.5523 153.813 16.6657 153.807 16.7733C153.802 16.881 153.802 16.9887 153.802 17.0963C153.802 17.3173 153.807 17.5327 153.83 17.7423Z" fill="#666666"/>
</svg>
