<svg xmlns="http://www.w3.org/2000/svg" viewBox="0 0 255 215" clip-rule="evenodd" fill-rule="evenodd" stroke-linecap="round" stroke-linejoin="round" stroke-miterlimit="1.5"><defs><linearGradient id="Gradient-0" x1="-1" y1="94" x2="53" y2="94" gradientUnits="userSpaceOnUse"><stop offset="0" stop-color="#fff" stop-opacity="0"/><stop offset=".5" stop-color="#fff"/><stop offset="1" stop-color="#fff" stop-opacity="0"/></linearGradient><clipPath id="ClipPath-1"><path d="M68.2 170.9c8.3-22.5 120.4-87.9 182.4-83.5c-45 13.3-82.7 30-108.5 53.7c14.2-8.5 28.8-16.3 45.1-16.5l47.3 86.4h-75.9l-39.9-77.6l-48.4 77.6h-70.3c23.3-29.1 51.6-54.6 86.3-77.3c-8.2 11.2-14.9 25.9-18.1 37.2Zm50.4-170.9l-51.9 92.4c12.8-6.5 26-11.6 39.4-14.2c-31.5 12.1-68.4 45.9-102.5 81.2c38.7-27.8 79.9-51.3 122.9-67.5c-7.1 7.8-14.5 17-20.7 27.9c19.7-10.3 40.8-20.1 63.2-28.1l-50.4-91.7Z" fill="#e51d3f"/></clipPath></defs><style>
@keyframes a0_da { 0% { stroke-dasharray: 0px 1586px; animation-timing-function: cubic-bezier(.2,.5,.5,.9); } 80.883% { stroke-dasharray: 300px 1286px; animation-timing-function: cubic-bezier(.2,.5,.5,.9); } 100% { stroke-dasharray: 0px 1586px; } }
@keyframes a0_do { 0% { stroke-dashoffset: 1586px; animation-timing-function: cubic-bezier(.2,.5,.5,.9); } 100% { stroke-dashoffset: 0px; } }
@keyframes a1_t { 0% { transform: translate(-21.4px,106.5px) rotate(15deg) scaleY(1.3) translate(-26.8px,-108.5px); } 16.667% { transform: translate(309.6px,106.5px) rotate(15deg) scaleY(1.3) translate(-26.8px,-108.5px); } 100% { transform: translate(309.6px,106.5px) rotate(15deg) scaleY(1.3) translate(-26.8px,-108.5px); } }
</style><title>Aspera logo</title><g clip-path="url(#ClipPath-1)" transform="translate(2.2,2)"><path d="M68.2 170.9c8.3-22.5 120.4-87.9 182.4-83.5c-45 13.3-82.7 30-108.5 53.7c14.2-8.5 28.8-16.3 45.1-16.5l47.3 86.4h-75.9l-39.9-77.6l-48.4 77.6h-70.3c23.3-29.1 51.6-54.6 86.3-77.3c-8.2 11.2-14.9 25.9-18.1 37.2Zm50.4-170.9l-51.9 92.4c12.8-6.5 26-11.6 39.4-14.2c-31.5 12.1-68.4 45.9-102.5 81.2c38.7-27.8 79.9-51.3 122.9-67.5c-7.1 7.8-14.5 17-20.7 27.9c19.7-10.3 40.8-20.1 63.2-28.1l-50.4-91.7Z" fill="#e51d3f" stroke-dasharray="0 1586" stroke-dashoffset="1586" style="animation: 6s linear both a0_da, 4.85s linear both a0_do;"/><rect width="53.5" height="215" fill="url(#Gradient-0)" opacity=".8" transform="translate(-21.5,106.5) rotate(15) scale(1,1.323) translate(-26.8,-108.5)" style="animation: 6s linear infinite both a1_t;"/></g></svg>