<svg width="1440" height="520" viewBox="0 0 1440 520" fill="none" xmlns="http://www.w3.org/2000/svg">
<rect width="1440" height="520" fill="#F5F5E0"/>
<mask id="mask0" mask-type="alpha" maskUnits="userSpaceOnUse" x="0" y="0" width="1440" height="520">
<rect width="1440" height="520" fill="#666633"/>
</mask>
<g mask="url(#mask0)">
<g opacity="0.05">
<path fill-rule="evenodd" clip-rule="evenodd" d="M30.791 -156.471V-43.3474C45.0743 -34.7113 58.6865 -25.0313 71.6278 -14.687C88.3076 -1.30573 103.741 13.4041 117.737 29.1579C122.53 34.0928 127.323 39.0277 132.212 43.6779L133.842 41.8748C138.059 36.9399 142.565 32.005 147.358 27.0701C157.232 16.9155 168.351 6.76096 180.334 -2.91907C188.866 -9.84694 197.781 -16.4901 206.888 -22.8485L206.983 -22.9435C214.077 -27.9733 221.075 -32.6235 228.073 -37.0839V-156.471L129.432 -214.551L30.791 -156.471Z" fill="#666633"/>
<path fill-rule="evenodd" clip-rule="evenodd" d="M72.1071 175.687C-6.11541 156.137 -69.2878 99.3856 -97.375 25.6465C-82.0373 30.8661 -67.083 37.4144 -52.7997 45.1964C-36.9826 53.8325 -21.8366 63.8921 -7.8409 75.0906C6.15479 86.384 19.1919 98.9111 30.791 112.292C42.2944 125.579 52.3597 139.624 60.7955 154.429C64.7258 161.262 68.5602 168.38 72.1071 175.687Z" fill="#666633"/>
<path fill-rule="evenodd" clip-rule="evenodd" d="M168.16 180.622C166.243 173.884 164.134 167.336 161.737 160.882C157.903 150.158 153.493 139.814 148.796 129.944C144.099 119.979 139.018 110.394 133.65 100.999C123.776 83.7268 111.89 67.1189 98.4691 51.5549C84.8569 35.8011 69.615 21.1861 53.0311 7.89982C36.6388 -5.2916 18.9046 -17.1544 0.307564 -27.214C-17.906 -37.0839 -36.9823 -45.3404 -56.4421 -51.6039C-67.0826 -55.0204 -81.9411 -58.8165 -98.525 -62.233C-100.346 -62.6126 -102.072 -62.8973 -103.797 -63.2769C-106.002 -63.6565 -108.207 -64.0361 -110.316 -64.3208L-113 -64.7953C-113 -63.182 -113 -61.5687 -113 -59.9553C-113 -41.5443 -110.987 -23.7027 -107.057 -6.52533C-101.593 -5.1018 -96.7036 -3.67826 -92.4858 -2.34963C-74.0805 3.53431 -56.2504 11.2214 -39.1871 20.5218C-21.8363 29.9172 -5.34823 40.9258 10.0854 53.2631C25.519 65.6953 39.7064 79.3613 52.4559 94.166C65.1095 108.686 76.1335 124.25 85.432 140.478C90.4168 149.114 95.114 158.035 99.5236 167.336C101.728 172.081 103.933 176.826 105.946 181.761C114.67 182.615 123.489 183.089 132.5 183.089C144.578 183.089 156.561 182.235 168.16 180.622Z" fill="#666633"/>
<path fill-rule="evenodd" clip-rule="evenodd" d="M354.707 43.583C350.105 44.7219 345.504 46.0505 340.903 47.474C334.097 49.5619 327.29 51.9344 320.389 54.5917C313.391 57.3439 306.393 60.2858 299.299 63.6074C294.027 65.98 288.659 68.7321 283.194 71.5792C277.73 74.6161 272.266 77.7479 266.898 81.0694C261.434 84.391 255.97 87.9024 250.602 91.6036C245.234 95.3048 240.057 99.1009 234.976 102.992C230.279 106.598 225.87 110.204 221.652 113.716C217.434 117.322 213.408 121.023 209.573 124.63C205.931 128.046 202.48 131.463 199.316 134.879C196.536 137.821 194.044 140.668 191.647 143.515C192.031 144.464 190.305 146.267 188.771 148.07C191.935 156.517 194.907 165.343 197.399 174.548C267.09 155.663 324.415 107.168 354.707 43.583Z" fill="#666633"/>
<path fill-rule="evenodd" clip-rule="evenodd" d="M378.001 -59.0062C371.866 -58.247 365.826 -57.3929 359.787 -56.3489C344.354 -53.6917 329.495 -49.8956 314.541 -44.8657C299.587 -39.8359 284.632 -33.5724 269.007 -25.8853C257.216 -20.0013 245.329 -13.1684 233.634 -5.57618C221.652 2.20582 209.861 10.747 199.028 19.5729C189.059 27.6396 179.76 35.9911 171.516 44.2476C163.656 52.0295 156.754 59.8115 150.906 67.3088C153.015 72.0539 156.466 78.6971 160.492 86.574V86.6689C164.71 94.7356 169.407 103.846 174.2 114.001C177.268 110.774 180.431 107.453 183.787 104.226C188.388 99.6705 193.373 95.1152 198.549 90.6548C203.821 86.0995 209.286 81.6391 214.845 77.4634C220.405 73.0979 226.157 68.9222 232.005 64.8414C237.756 60.9504 243.795 57.0594 249.835 53.2633C255.778 49.657 261.817 46.1456 267.761 42.9189C273.608 39.7871 279.552 36.8452 285.399 34.093C293.356 30.4867 301.024 27.1651 308.597 24.2232C316.17 21.2812 323.743 18.6239 331.316 16.3463C338.89 13.9737 346.463 11.9808 354.131 10.2725C358.829 9.22859 363.622 8.18466 368.511 7.42545C374.55 -13.7378 377.905 -35.9449 378.001 -59.0062Z" fill="#666633"/>
</g>
<g opacity="0.05">
<path fill-rule="evenodd" clip-rule="evenodd" d="M1542.21 321.529V434.653C1527.93 443.289 1514.31 452.969 1501.37 463.313C1484.69 476.694 1469.26 491.404 1455.26 507.158C1450.47 512.093 1445.68 517.028 1440.79 521.678L1439.16 519.875C1434.94 514.94 1430.44 510.005 1425.64 505.07C1415.77 494.916 1404.65 484.761 1392.67 475.081C1384.13 468.153 1375.22 461.51 1366.11 455.151L1366.02 455.057C1358.92 450.027 1351.93 445.377 1344.93 440.916V321.529L1443.57 263.449L1542.21 321.529Z" fill="#666633"/>
<path fill-rule="evenodd" clip-rule="evenodd" d="M1404.84 658.622C1406.76 651.884 1408.87 645.336 1411.26 638.882C1415.1 628.158 1419.51 617.814 1424.2 607.944C1428.9 597.979 1433.98 588.394 1439.35 578.999C1449.22 561.727 1461.11 545.119 1474.53 529.555C1488.14 513.801 1503.39 499.186 1519.97 485.9C1536.36 472.708 1554.1 460.846 1572.69 450.786C1590.91 440.916 1609.98 432.66 1629.44 426.396C1640.08 422.98 1654.94 419.183 1671.53 415.767C1673.35 415.387 1675.07 415.103 1676.8 414.723C1679 414.343 1681.21 413.964 1683.32 413.679L1686 413.205C1686 414.818 1686 416.431 1686 418.045C1686 436.456 1683.99 454.297 1680.06 471.475C1674.59 472.898 1669.7 474.322 1665.49 475.65C1647.08 481.534 1629.25 489.221 1612.19 498.522C1594.84 507.917 1578.35 518.926 1562.91 531.263C1547.48 543.695 1533.29 557.361 1520.54 572.166C1507.89 586.686 1496.87 602.25 1487.57 618.478C1482.58 627.114 1477.89 636.035 1473.48 645.336C1471.27 650.081 1469.07 654.826 1467.05 659.761C1458.33 660.615 1449.51 661.089 1440.5 661.089C1428.42 661.089 1416.44 660.235 1404.84 658.622Z" fill="#666633"/>
<path fill-rule="evenodd" clip-rule="evenodd" d="M1195 418.994C1201.13 419.753 1207.17 420.607 1213.21 421.651C1228.65 424.308 1243.5 428.104 1258.46 433.134C1273.41 438.164 1288.37 444.428 1303.99 452.115C1315.78 457.999 1327.67 464.832 1339.37 472.424C1351.35 480.206 1363.14 488.747 1373.97 497.573C1383.94 505.64 1393.24 513.991 1401.48 522.248C1409.34 530.03 1416.25 537.812 1422.09 545.309C1419.98 550.054 1416.53 556.697 1412.51 564.574V564.669C1408.29 572.736 1403.59 581.846 1398.8 592.001C1395.73 588.774 1392.57 585.453 1389.21 582.226C1384.61 577.671 1379.63 573.115 1374.45 568.655C1369.18 564.099 1363.71 559.639 1358.15 555.463C1352.59 551.098 1346.84 546.922 1341 542.841C1335.24 538.95 1329.2 535.059 1323.17 531.263C1317.22 527.657 1311.18 524.146 1305.24 520.919C1299.39 517.787 1293.45 514.845 1287.6 512.093C1279.64 508.487 1271.98 505.165 1264.4 502.223C1256.83 499.281 1249.26 496.624 1241.68 494.346C1234.11 491.974 1226.54 489.981 1218.87 488.273C1214.17 487.229 1209.38 486.185 1204.49 485.425C1198.45 464.262 1195.1 442.055 1195 418.994Z" fill="#666633"/>
<path fill-rule="evenodd" clip-rule="evenodd" d="M1323.07 298.848C1322.11 299.417 1321.35 299.986 1320.67 300.651C1320 301.315 1319.52 301.979 1319.14 302.738C1317.51 304.067 1316.26 305.87 1315.4 307.768C1314.54 309.666 1314.06 311.754 1314.06 314.032V424.498C1298.34 416.906 1283 410.548 1267.76 405.423C1251.37 399.918 1235.07 395.838 1218.2 392.896C1211.11 391.662 1203.92 390.618 1196.63 389.859C1210.72 268.953 1314.54 175 1440.5 175C1564.35 175 1666.83 265.822 1683.6 383.88C1677.47 384.924 1671.43 386.063 1665.58 387.202C1647.85 390.903 1631.93 394.984 1620.43 398.59C1604.23 403.809 1588.41 410.263 1572.98 417.76V314.032C1572.98 311.754 1572.5 309.666 1571.64 307.768C1570.78 305.87 1569.53 304.067 1568 302.738C1567.52 301.979 1567.04 301.315 1566.37 300.651C1565.69 299.986 1564.93 299.417 1564.06 298.848C1550.07 290.591 1575.76 305.775 1453.73 233.934L1452.96 233.175C1452.58 232.985 1452.29 232.701 1451.91 232.511C1447.69 230.138 1439.35 230.138 1435.13 232.511C1434.84 232.701 1434.46 232.89 1434.17 233.175C1433.89 233.365 1433.6 233.65 1433.31 233.934C1328.92 295.431 1361.61 276.166 1323.07 298.848Z" fill="#666633"/>
</g>
</g>
</svg>
