<svg width="9" height="12" viewBox="0 0 9 12" fill="none" xmlns="http://www.w3.org/2000/svg">
<path d="M8.05183 2.418L8.48583 1.298C7.96783 1.018 7.15583 0.836 6.32983 0.836C4.20183 0.836 2.56383 2.152 2.03183 4.308H1.24783L0.897828 5.302H1.87783C1.84983 5.512 1.83583 5.834 1.83583 6.1C1.83583 6.324 1.84983 6.604 1.86383 6.8H1.20583L0.869828 7.794H1.98983C2.36783 9.614 3.75383 11.252 6.16183 11.252C7.15583 11.252 8.02383 11.014 8.61183 10.622L8.12183 9.558C7.57583 9.908 6.97383 10.062 6.24583 10.062C4.76183 10.062 3.59983 9.124 3.33383 7.794H6.44183L6.76383 6.8H3.17983C3.15183 6.59 3.13783 6.296 3.13783 6.1C3.13783 5.82 3.15183 5.54 3.19383 5.302H7.18383L7.50583 4.308H3.38983C3.76783 2.88 4.88783 2.012 6.25983 2.012C6.95983 2.012 7.58983 2.152 8.05183 2.418Z" fill="#70747B"/>
</svg>
