<svg width="20" height="20" viewBox="0 0 20 20" fill="none" xmlns="http://www.w3.org/2000/svg">
<path d="M6.18 1.99999H1C0.734784 1.99999 0.48043 2.10535 0.292893 2.29289C0.105357 2.48042 0 2.73478 0 2.99999C0 3.26521 0.105357 3.51957 0.292893 3.7071C0.48043 3.89464 0.734784 3.99999 1 3.99999H6.18C6.3902 4.57915 6.77363 5.07953 7.27816 5.43315C7.7827 5.78677 8.38388 5.97647 9 5.97647C9.61612 5.97647 10.2173 5.78677 10.7218 5.43315C11.2264 5.07953 11.6098 4.57915 11.82 3.99999L19 3.99999C19.2652 3.99999 19.5196 3.89464 19.7071 3.7071C19.8946 3.51957 20 3.26521 20 2.99999C20 2.73478 19.8946 2.48042 19.7071 2.29289C19.5196 2.10535 19.2652 1.99999 19 1.99999H11.82C11.6098 1.42084 11.2264 0.920454 10.7218 0.566835C10.2173 0.213217 9.61612 0.0235176 9 0.0235176C8.38388 0.0235176 7.7827 0.213217 7.27816 0.566835C6.77363 0.920454 6.3902 1.42084 6.18 1.99999ZM10 2.99999C10 3.19777 9.94135 3.39112 9.83147 3.55556C9.72159 3.72001 9.56541 3.84819 9.38268 3.92387C9.19996 3.99956 8.99889 4.01937 8.80491 3.98078C8.61093 3.94219 8.43275 3.84695 8.29289 3.7071C8.15304 3.56725 8.0578 3.38907 8.01921 3.19509C7.98063 3.0011 8.00043 2.80004 8.07612 2.61731C8.15181 2.43459 8.27998 2.27841 8.44443 2.16852C8.60888 2.05864 8.80222 1.99999 9 1.99999C9.26522 1.99999 9.51957 2.10535 9.70711 2.29289C9.89464 2.48042 10 2.73478 10 2.99999ZM12.18 8.99999H1C0.734784 8.99999 0.48043 9.10535 0.292893 9.29289C0.105357 9.48042 0 9.73478 0 9.99999C0 10.2652 0.105357 10.5196 0.292893 10.7071C0.48043 10.8946 0.734784 11 1 11H12.18C12.3902 11.5791 12.7736 12.0795 13.2782 12.4332C13.7827 12.7868 14.3839 12.9765 15 12.9765C15.6161 12.9765 16.2173 12.7868 16.7218 12.4332C17.2264 12.0795 17.6098 11.5791 17.82 11H19C19.2652 11 19.5196 10.8946 19.7071 10.7071C19.8946 10.5196 20 10.2652 20 9.99999C20 9.73478 19.8946 9.48042 19.7071 9.29289C19.5196 9.10535 19.2652 8.99999 19 8.99999H17.82C17.6098 8.42084 17.2264 7.92045 16.7218 7.56684C16.2173 7.21322 15.6161 7.02352 15 7.02352C14.3839 7.02352 13.7827 7.21322 13.2782 7.56684C12.7736 7.92045 12.3902 8.42084 12.18 8.99999ZM16 9.99999C16 10.1978 15.9414 10.3911 15.8315 10.5556C15.7216 10.72 15.5654 10.8482 15.3827 10.9239C15.2 10.9996 14.9989 11.0194 14.8049 10.9808C14.6109 10.9422 14.4327 10.847 14.2929 10.7071C14.153 10.5672 14.0578 10.3891 14.0192 10.1951C13.9806 10.0011 14.0004 9.80004 14.0761 9.61731C14.1518 9.43458 14.28 9.27841 14.4444 9.16852C14.6089 9.05864 14.8022 8.99999 15 8.99999C15.2652 8.99999 15.5196 9.10535 15.7071 9.29289C15.8946 9.48042 16 9.73478 16 9.99999ZM4.18 16H1C0.734784 16 0.48043 16.1054 0.292893 16.2929C0.105357 16.4804 0 16.7348 0 17C0 17.2652 0.105357 17.5196 0.292893 17.7071C0.48043 17.8946 0.734784 18 1 18H4.18C4.3902 18.5791 4.77363 19.0795 5.27817 19.4332C5.7827 19.7868 6.38388 19.9765 7 19.9765C7.61612 19.9765 8.2173 19.7868 8.72184 19.4332C9.22637 19.0795 9.6098 18.5791 9.82 18H19C19.2652 18 19.5196 17.8946 19.7071 17.7071C19.8946 17.5196 20 17.2652 20 17C20 16.7348 19.8946 16.4804 19.7071 16.2929C19.5196 16.1054 19.2652 16 19 16L9.82 16C9.6098 15.4208 9.22637 14.9205 8.72184 14.5668C8.2173 14.2132 7.61612 14.0235 7 14.0235C6.38388 14.0235 5.7827 14.2132 5.27817 14.5668C4.77363 14.9205 4.3902 15.4208 4.18 16ZM8 17C8 17.1978 7.94135 17.3911 7.83147 17.5556C7.72159 17.72 7.56541 17.8482 7.38268 17.9239C7.19996 17.9996 6.99889 18.0194 6.80491 17.9808C6.61093 17.9422 6.43275 17.847 6.29289 17.7071C6.15304 17.5672 6.0578 17.3891 6.01921 17.1951C5.98063 17.0011 6.00043 16.8 6.07612 16.6173C6.15181 16.4346 6.27998 16.2784 6.44443 16.1685C6.60888 16.0586 6.80222 16 7 16C7.26522 16 7.51957 16.1054 7.70711 16.2929C7.89464 16.4804 8 16.7348 8 17Z" fill="#55585E"/>
</svg>
