<svg width="40" height="40" viewBox="0 0 40 40" fill="none" xmlns="http://www.w3.org/2000/svg">
<rect width="40" height="40" rx="20" fill="#DC4E41"/>
<path d="M14.9892 21.8776L14.3626 24.2166L12.0726 24.2651C11.3882 22.9957 11 21.5433 11 20C11 18.5076 11.363 17.1002 12.0063 15.861H12.0068L14.0456 16.2347L14.9387 18.2613C14.7518 18.8062 14.6499 19.3912 14.6499 20C14.65 20.6606 14.7696 21.2936 14.9892 21.8776Z" fill="white"/>
<path d="M28.8422 18.3187C28.9455 18.8631 28.9994 19.4253 28.9994 20C28.9994 20.6443 28.9317 21.2728 28.8026 21.8791C28.3645 23.9422 27.2197 25.7437 25.6338 27.0185L25.6333 27.018L23.0654 26.887L22.7019 24.6182C23.7542 24.001 24.5766 23.0353 25.0098 21.8791H20.1973V18.3187H25.08H28.8422Z" fill="white"/>
<path d="M25.6336 27.018L25.6341 27.0185C24.0917 28.2582 22.1325 29 19.9997 29C16.5723 29 13.5924 27.0843 12.0723 24.2651L14.9889 21.8777C15.7489 23.9061 17.7057 25.3501 19.9997 25.3501C20.9857 25.3501 21.9095 25.0835 22.7021 24.6182L25.6336 27.018Z" fill="white"/>
<path d="M25.7442 13.072L22.8286 15.4589C22.0082 14.9461 21.0385 14.6499 19.9995 14.6499C17.6536 14.6499 15.6602 16.1601 14.9383 18.2613L12.0064 15.861H12.0059C13.5037 12.9731 16.5212 11 19.9995 11C22.1833 11 24.1855 11.7779 25.7442 13.072Z" fill="white"/>
</svg>
