<svg xmlns="http://www.w3.org/2000/svg" viewBox="0 0 100 100" height="100" width="100"><style>
@keyframes a0_t { 0% { transform: translate(50px,50px) rotate(0deg) translate(-48.6px,-48.5px); } 100% { transform: translate(50px,50px) rotate(120deg) translate(-48.6px,-48.5px); } }
@keyframes a1_t { 0% { transform: translate(60.7px,66.5px) scale(1,1) translate(-41.8px,-43.6px); animation-timing-function: cubic-bezier(0,0,.6,1); } 16.667% { transform: translate(60.7px,66.5px) scale(.7,.7) translate(-41.8px,-43.6px); } 50% { transform: translate(60.7px,66.5px) scale(.7,.7) translate(-41.8px,-43.6px); animation-timing-function: cubic-bezier(.4,0,1,1); } 66.667% { transform: translate(60.7px,66.5px) scale(1,1) translate(-41.8px,-43.6px); } 100% { transform: translate(60.7px,66.5px) scale(1,1) translate(-41.8px,-43.6px); } }
@keyframes a2_t { 0% { transform: translate(81.1px,77.1px) scale(1,1) translate(-28.9px,-22.4px); animation-timing-function: cubic-bezier(0,0,.6,1); } 16.667% { transform: translate(81.1px,77.1px) scale(1.3,1.3) translate(-28.9px,-22.4px); } 50% { transform: translate(81.1px,77.1px) scale(1.3,1.3) translate(-28.9px,-22.4px); animation-timing-function: cubic-bezier(.4,0,1,1); } 66.667% { transform: translate(81.1px,77.1px) scale(1,1) translate(-28.9px,-22.4px); } 100% { transform: translate(81.1px,77.1px) scale(1,1) translate(-28.9px,-22.4px); } }
@keyframes a3_t { 0% { transform: translate(14.4px,22.4px) rotate(0deg) translate(-12px,-22.4px); } 16.667% { transform: translate(14.4px,22.4px) rotate(0deg) translate(-12px,-22.4px); animation-timing-function: cubic-bezier(.4,0,.6,1); } 21.667% { transform: translate(14.4px,22.4px) rotate(-12deg) translate(-12px,-22.4px); animation-timing-function: cubic-bezier(.4,0,.6,1); } 28.333% { transform: translate(14.4px,22.4px) rotate(12deg) translate(-12px,-22.4px); animation-timing-function: cubic-bezier(.4,0,.6,1); } 38.333% { transform: translate(14.4px,22.4px) rotate(-12deg) translate(-12px,-22.4px); animation-timing-function: cubic-bezier(.4,0,.6,1); } 45% { transform: translate(14.4px,22.4px) rotate(12deg) translate(-12px,-22.4px); animation-timing-function: cubic-bezier(.4,0,.6,1); } 50% { transform: translate(14.4px,22.4px) rotate(0deg) translate(-12px,-22.4px); } 66.667% { transform: translate(14.4px,22.4px) rotate(0deg) translate(-12px,-22.4px); } 100% { transform: translate(14.4px,22.4px) rotate(0deg) translate(-12px,-22.4px); } }
</style><title>ic-03</title><path d="M47.9 0c1.3 0 2.4 1.1 2.4 2.4c0 1.3-1.1 2.3-2.4 2.3c-1.3 0-2.3-1-2.3-2.3c0-1.3 1-2.4 2.3-2.4m-10.6 1.3c1.3-0.3 2.5 .5 2.8 1.8c.3 1.3-0.5 2.5-1.8 2.8c-1.2 .3-2.5-0.5-2.8-1.8c-0.3-1.2 .5-2.5 1.8-2.8m-10.5 3.8c1.2-0.5 2.6 0 3.2 1.1c.5 1.2 0 2.6-1.1 3.2c-1.2 .5-2.6 .1-3.2-1.1c-0.5-1.2-0.1-2.6 1.1-3.2m-9.6 6.4c1-0.9 2.5-0.7 3.3 .3c.8 1 .7 2.5-0.3 3.3c-1 .8-2.5 .7-3.3-0.3c-0.9-1-0.7-2.5 .3-3.3m-7.6 8c.8-1 2.3-1.2 3.3-0.4c1 .8 1.2 2.3 .4 3.3c-0.8 1-2.2 1.2-3.3 .4c-1-0.7-1.2-2.2-0.4-3.3m-5.7 9.8c.6-1.2 2-1.7 3.1-1.2c1.2 .6 1.8 2 1.2 3.1c-0.5 1.2-1.9 1.8-3.1 1.2c-1.2-0.5-1.7-1.9-1.2-3.1m-3.3 11.1c.3-1.2 1.5-2.1 2.8-1.8c1.2 .2 2.1 1.4 1.9 2.7c-0.3 1.3-1.5 2.1-2.8 1.9c-1.3-0.2-2.1-1.5-1.9-2.8m-0.6 11.1c-0.1-1.3 1-2.4 2.3-2.5c1.3 0 2.4 1 2.4 2.3c.1 1.3-0.9 2.4-2.2 2.4c-1.3 .1-2.4-0.9-2.5-2.2m2 11.1c-0.4-1.2 .3-2.5 1.6-2.9c1.2-0.3 2.6 .4 2.9 1.6c.4 1.3-0.3 2.6-1.6 3c-1.3 .3-2.6-0.4-2.9-1.7m4.5 10.5c-0.7-1.2-0.2-2.6 .9-3.3c1.1-0.6 2.6-0.2 3.2 .9c.6 1.2 .2 2.6-0.9 3.2c-1.1 .7-2.6 .3-3.2-0.8m6.8 9c-0.9-0.9-0.9-2.4 .1-3.3c1-0.9 2.4-0.8 3.3 .1c.9 1 .9 2.5-0.1 3.3c-1 .9-2.4 .9-3.3-0.1m8.6 7.2c-1.1-0.7-1.4-2.2-0.6-3.2c.7-1.1 2.2-1.4 3.3-0.7c1 .7 1.3 2.2 .6 3.3c-0.7 1.1-2.2 1.4-3.3 .6m10.2 5.1c-1.3-0.5-1.9-1.8-1.4-3c.4-1.3 1.8-1.9 3-1.4c1.2 .4 1.8 1.8 1.4 3c-0.5 1.2-1.8 1.9-3 1.4m11 2.6c-1.3-0.2-2.2-1.4-2-2.7c.1-1.2 1.3-2.2 2.6-2c1.3 .2 2.2 1.3 2 2.6c-0.1 1.3-1.3 2.2-2.6 2.1m10.9 0c-1.3 .1-2.4-0.8-2.6-2.1c-0.1-1.3 .9-2.5 2.2-2.6c1.3-0.1 2.4 .8 2.5 2.1c.2 1.3-0.8 2.4-2.1 2.6m11.2-2.7c-1.2 .5-2.5-0.2-3-1.4c-0.4-1.2 .3-2.6 1.5-3c1.2-0.4 2.6 .2 3 1.4c.4 1.3-0.2 2.6-1.5 3m10.1-5c-1.1 .7-2.6 .4-3.3-0.7c-0.7-1.1-0.4-2.6 .7-3.3c1.1-0.7 2.6-0.3 3.3 .7c.7 1.1 .4 2.6-0.7 3.3m8.6-7.3c-0.9 1-2.4 1-3.3 .1c-0.9-0.9-1-2.4-0.1-3.4c1-0.9 2.4-0.9 3.4 0c.9 .9 .9 2.4 0 3.3m6.7-8.9c-0.7 1.1-2.1 1.5-3.2 .8c-1.1-0.6-1.5-2.1-0.8-3.2c.6-1.1 2.1-1.5 3.2-0.8c1.1 .6 1.5 2.1 .8 3.2m4.5-10.5c-0.3 1.3-1.7 2-2.9 1.6c-1.3-0.4-1.9-1.7-1.6-3c.4-1.2 1.8-1.9 3-1.5c1.2 .4 1.9 1.7 1.5 2.9m2-11.2c-0.1 1.3-1.2 2.3-2.5 2.2c-1.3-0.1-2.3-1.2-2.2-2.5c.1-1.3 1.2-2.3 2.5-2.2c1.3 .1 2.3 1.2 2.2 2.5m-0.7-11.6c.2 1.3-0.6 2.5-1.9 2.7c-1.3 .3-2.5-0.6-2.7-1.9c-0.3-1.3 .6-2.5 1.9-2.7c1.3-0.2 2.5 .6 2.7 1.9m-3.2-10.6c.5 1.2-0.1 2.6-1.3 3.1c-1.2 .5-2.6 0-3.1-1.2c-0.5-1.2 .1-2.6 1.3-3.1c1.2-0.5 2.6 0 3.1 1.2m-5.8-9.9c.8 1.1 .5 2.6-0.5 3.3c-1.1 .8-2.5 .6-3.3-0.5c-0.8-1-0.5-2.5 .5-3.3c1.1-0.7 2.5-0.5 3.3 .5m-7.7-8c1 .8 1.1 2.3 .3 3.3c-0.9 1-2.4 1.1-3.4 .2c-1-0.8-1.1-2.3-0.2-3.3c.8-1 2.3-1.1 3.3-0.2m-9.5-6.2c1.2 .6 1.6 2 1 3.2c-0.6 1.1-2 1.6-3.1 1c-1.2-0.6-1.7-2-1.1-3.2c.6-1.2 2.1-1.6 3.2-1m-10.8-3.9c1.3 .3 2.1 1.6 1.8 2.9c-0.3 1.2-1.6 2-2.9 1.7c-1.3-0.3-2-1.6-1.7-2.8c.3-1.3 1.6-2.1 2.8-1.8Z" fill="#fff" clip-rule="evenodd" transform="translate(50,50) translate(-48.6,-48.5)" style="animation: 4s linear infinite both a0_t;"/><path d="M41.5 17.3l-20-17.1c-0.4-0.3-0.8-0.3-1.2 0l-20 17.1c-0.3 .2-0.4 .7-0.1 1c.1 .4 .5 .7 .9 .7h1.9v23.6c0 .6 .4 1 1 1h26.9h.6c.6 0 1-0.4 1-0.9c0-0.6-0.4-1-1-1h-3.2v-15.2c0-0.6-0.4-1-1-1h-12.8c-0.7 0-1.1 .4-1.1 1v15.2h-8.5v-22.7h32v10.4v.1v.5c0 .5 .4 .9 .9 .9c.6 0 1-0.4 1-0.9v-11h1.9c.4 0 .8-0.3 .9-0.7c.3-0.3 .2-0.8-0.1-1m-20.6-1.7c2.5 0 4.6-2.1 4.6-4.6c0-2.6-2.1-4.7-4.6-4.7c-2.5 0-4.7 2.1-4.7 4.7c0 2.5 2.1 4.6 4.7 4.6m0-7.3c1.4 0 2.6 1.2 2.6 2.7c0 1.4-1.2 2.6-2.6 2.6c-1.4 0-2.6-1.2-2.6-2.6c0-1.5 1.2-2.7 2.6-2.7m.6-5.4l16.6 14.2h-34.4l16.6-14.2c.7-0.6 .5-0.6 1.2 0m-6 24.7h10.8v14.1h-10.8v-14.1Z" fill="#fff" clip-rule="evenodd" transform="translate(60.7,66.5) translate(-41.8,-43.6)" style="animation: 6s linear infinite both a1_t;"/><g transform="translate(81.1,77.1) translate(-28.9,-22.4)" style="animation: 6s linear infinite both a2_t;"><g clip-rule="evenodd" fill-rule="evenodd" stroke-linejoin="round" stroke-miterlimit="2" transform="translate(14.4,22.4) translate(-12,-22.4)" style="animation: 6s linear infinite both a3_t;"><rect x=".6" y=".9" width="27.3" height="13" fill="transparent"/><path d="M27.9 0h-27c-0.5 0-0.9 .4-0.9 1v13c0 .5 .4 .9 .9 .9h10.2v6.5c0 .6 .5 1 1 1h4.6c.5 0 1-0.4 1-1v-6.5h10.2c.5 0 .9-0.4 .9-0.9v-13c0-0.6-0.4-1-0.9-1Zm-12.1 20.5h-2.8v-5.6h2.8v5.6Zm11.2-7.4h-25.2v-11.2h25.2v11.2Zm-21.9-4.5h-0.9v1.9c0 .2 0 .4-0.2 .5c-0.1 .1-0.3 .2-0.4 .2c-0.2 0-0.4-0.1-0.5-0.2c-0.1-0.1-0.2-0.3-0.2-0.5v-5.8c0-0.1 .1-0.3 .2-0.4c.1-0.2 .3-0.2 .5-0.2h1.5c.4 0 .9 .1 1.2 .3c.4 .2 .7 .4 .9 .8c.2 .4 .3 .8 .3 1.2c0 .4-0.1 .8-0.3 1.2c-0.2 .3-0.5 .5-0.7 .7l1.1 1.9c.1 .1 .2 .2 .2 .4c0 .2-0.1 .3-0.2 .4c-0.1 .2-0.3 .2-0.5 .2c-0.2 0-0.4-0.1-0.6-0.3l-1.4-2.3Zm4.5-3.3v1.7h2.3c.2 0 .3 0 .4 .2c.2 .1 .2 .2 .2 .4c0 .2 0 .3-0.2 .5c-0.1 .1-0.2 .1-0.4 .1h-2.3v1.7h3.3c.1 0 .3 .1 .4 .2c.1 .1 .2 .3 .2 .5c0 .1-0.1 .3-0.2 .4c-0.1 .2-0.3 .2-0.4 .2h-3.9c-0.2 0-0.4-0.1-0.5-0.2c-0.1-0.1-0.2-0.3-0.2-0.5v-5.8c0-0.1 .1-0.3 .2-0.4c.1-0.2 .3-0.2 .5-0.2h3.9c.1 0 .3 0 .4 .2c.1 .1 .2 .2 .2 .4c0 .2-0.1 .3-0.2 .5c-0.1 .1-0.3 .1-0.4 .1h-3.3Zm9.2 3.5v-4.1c0-0.1 .1-0.3 .2-0.4c.2-0.2 .3-0.2 .5-0.2c.2 0 .3 0 .5 .2c.1 .1 .2 .3 .2 .4v5.8c0 .2-0.1 .4-0.2 .5c-0.2 .1-0.3 .2-0.5 .2c-0.1 0-0.2 0-0.3 0c-0.1-0.1-0.2-0.2-0.2-0.2l-3.4-4.5v4c0 .2 0 .4-0.2 .5c-0.1 .1-0.2 .2-0.4 .2c-0.2 0-0.4-0.1-0.5-0.2c-0.1-0.1-0.2-0.3-0.2-0.5v-5.8c0-0.1 .1-0.3 .2-0.4c.1-0.2 .3-0.2 .5-0.2c.1 0 .2 0 .3 0c0 .1 .1 .1 .2 .2l3.3 4.5Zm5.5-3.5v5.2c0 .2-0.1 .4-0.2 .5c-0.1 .1-0.3 .2-0.5 .2c-0.2 0-0.3-0.1-0.4-0.2c-0.2-0.1-0.2-0.3-0.2-0.5v-5.2h-1.7c-0.1 0-0.3 0-0.4-0.1c-0.1-0.2-0.2-0.3-0.2-0.5c0-0.2 .1-0.3 .2-0.4c.1-0.2 .3-0.2 .4-0.2h4.6c.2 0 .3 0 .5 .2c.1 .1 .1 .2 .1 .4c0 .2 0 .3-0.1 .5c-0.2 .1-0.3 .1-0.5 .1h-1.6Zm-20.1 0v2.1h.9c.3 0 .6-0.1 .8-0.3c.2-0.2 .3-0.4 .3-0.7c0-0.3-0.1-0.6-0.3-0.8c-0.2-0.2-0.5-0.3-0.8-0.3h-0.9Z" fill="#fff" fill-rule="nonzero"/></g></g></svg>