<svg xmlns="http://www.w3.org/2000/svg" viewBox="0 0 100 100" height="100" width="100"><defs><clipPath id="ClipPath-1"><ellipse cx="47.5" cy="46.1" rx="41.1" ry="41.1"/></clipPath></defs><title>ic-04</title><path d="M47.9 0c1.3 0 2.4 1.1 2.4 2.4c0 1.3-1.1 2.3-2.4 2.3c-1.3 0-2.3-1-2.3-2.3c0-1.3 1-2.4 2.3-2.4m-10.6 1.3c1.3-0.3 2.5 .5 2.8 1.8c.3 1.3-0.5 2.5-1.8 2.8c-1.2 .3-2.5-0.5-2.8-1.8c-0.3-1.2 .5-2.5 1.8-2.8m-10.5 3.8c1.2-0.5 2.6 0 3.2 1.1c.5 1.2 0 2.6-1.1 3.2c-1.2 .5-2.6 .1-3.2-1.1c-0.5-1.2-0.1-2.6 1.1-3.2m-9.6 6.4c1-0.9 2.5-0.7 3.3 .3c.8 1 .7 2.5-0.3 3.3c-1 .8-2.5 .7-3.3-0.3c-0.9-1-0.7-2.5 .3-3.3m-7.6 8c.8-1 2.3-1.2 3.3-0.4c1 .8 1.2 2.3 .4 3.3c-0.8 1-2.2 1.2-3.3 .4c-1-0.7-1.2-2.2-0.4-3.3m-5.7 9.8c.6-1.2 2-1.7 3.1-1.2c1.2 .6 1.8 2 1.2 3.1c-0.5 1.2-1.9 1.8-3.1 1.2c-1.2-0.5-1.7-1.9-1.2-3.1m-3.3 11.1c.3-1.2 1.5-2.1 2.8-1.8c1.2 .2 2.1 1.4 1.9 2.7c-0.3 1.3-1.5 2.1-2.8 1.9c-1.3-0.2-2.1-1.5-1.9-2.8m-0.6 11.1c-0.1-1.3 1-2.4 2.3-2.5c1.3 0 2.4 1 2.4 2.3c.1 1.3-0.9 2.4-2.2 2.4c-1.3 .1-2.4-0.9-2.5-2.2m2 11.1c-0.4-1.2 .3-2.5 1.6-2.9c1.2-0.3 2.6 .4 2.9 1.6c.4 1.3-0.3 2.6-1.6 3c-1.3 .3-2.6-0.4-2.9-1.7m4.5 10.5c-0.7-1.2-0.2-2.6 .9-3.3c1.1-0.6 2.6-0.2 3.2 .9c.6 1.2 .2 2.6-0.9 3.2c-1.1 .7-2.6 .3-3.2-0.8m6.8 9c-0.9-0.9-0.9-2.4 .1-3.3c1-0.9 2.4-0.8 3.3 .1c.9 1 .9 2.5-0.1 3.3c-1 .9-2.4 .9-3.3-0.1m8.6 7.2c-1.1-0.7-1.4-2.2-0.6-3.2c.7-1.1 2.2-1.4 3.3-0.7c1 .7 1.3 2.2 .6 3.3c-0.7 1.1-2.2 1.4-3.3 .6m10.2 5.1c-1.3-0.5-1.9-1.8-1.4-3c.4-1.3 1.8-1.9 3-1.4c1.2 .4 1.8 1.8 1.4 3c-0.5 1.2-1.8 1.9-3 1.4m11 2.6c-1.3-0.2-2.2-1.4-2-2.7c.1-1.2 1.3-2.2 2.6-2c1.3 .2 2.2 1.3 2 2.6c-0.1 1.3-1.3 2.2-2.6 2.1m10.9 0c-1.3 .1-2.4-0.8-2.6-2.1c-0.1-1.3 .9-2.5 2.2-2.6c1.3-0.1 2.4 .8 2.5 2.1c.2 1.3-0.8 2.4-2.1 2.6m11.2-2.7c-1.2 .5-2.5-0.2-3-1.4c-0.4-1.2 .3-2.6 1.5-3c1.2-0.4 2.6 .2 3 1.4c.4 1.3-0.2 2.6-1.5 3m10.1-5c-1.1 .7-2.6 .4-3.3-0.7c-0.7-1.1-0.4-2.6 .7-3.3c1.1-0.7 2.6-0.3 3.3 .7c.7 1.1 .4 2.6-0.7 3.3m8.6-7.3c-0.9 1-2.4 1-3.3 .1c-0.9-0.9-1-2.4-0.1-3.4c1-0.9 2.4-0.9 3.4 0c.9 .9 .9 2.4 0 3.3m6.7-8.9c-0.7 1.1-2.1 1.5-3.2 .8c-1.1-0.6-1.5-2.1-0.8-3.2c.6-1.1 2.1-1.5 3.2-0.8c1.1 .6 1.5 2.1 .8 3.2m4.5-10.5c-0.3 1.3-1.7 2-2.9 1.6c-1.3-0.4-1.9-1.7-1.6-3c.4-1.2 1.8-1.9 3-1.5c1.2 .4 1.9 1.7 1.5 2.9m2-11.2c-0.1 1.3-1.2 2.3-2.5 2.2c-1.3-0.1-2.3-1.2-2.2-2.5c.1-1.3 1.2-2.3 2.5-2.2c1.3 .1 2.3 1.2 2.2 2.5m-0.7-11.6c.2 1.3-0.6 2.5-1.9 2.7c-1.3 .3-2.5-0.6-2.7-1.9c-0.3-1.3 .6-2.5 1.9-2.7c1.3-0.2 2.5 .6 2.7 1.9m-3.2-10.6c.5 1.2-0.1 2.6-1.3 3.1c-1.2 .5-2.6 0-3.1-1.2c-0.5-1.2 .1-2.6 1.3-3.1c1.2-0.5 2.6 0 3.1 1.2m-5.8-9.9c.8 1.1 .5 2.6-0.5 3.3c-1.1 .8-2.5 .6-3.3-0.5c-0.8-1-0.5-2.5 .5-3.3c1.1-0.7 2.5-0.5 3.3 .5m-7.7-8c1 .8 1.1 2.3 .3 3.3c-0.9 1-2.4 1.1-3.4 .2c-1-0.8-1.1-2.3-0.2-3.3c.8-1 2.3-1.1 3.3-0.2m-9.5-6.2c1.2 .6 1.6 2 1 3.2c-0.6 1.1-2 1.6-3.1 1c-1.2-0.6-1.7-2-1.1-3.2c.6-1.2 2.1-1.6 3.2-1m-10.8-3.9c1.3 .3 2.1 1.6 1.8 2.9c-0.3 1.2-1.6 2-2.9 1.7c-1.3-0.3-2-1.6-1.7-2.8c.3-1.3 1.6-2.1 2.8-1.8Z" fill="#797842" clip-rule="evenodd" transform="translate(50,50) translate(-48.6,-48.5)"/><g clip-path="url(#ClipPath-1)" transform="translate(2.5,3.9)"><path d="M18.9 11.1c.5 .1 1 .2 1.5 .4l5.3-4.7l-2.9 6.4c.4 .4 .7 .8 1 1.3l10.2-1.7l-9.2 4.6c0 .4 .1 .7 .1 1c0 .2 0 .5-0.1 .7l6 3.5l-6.8-0.7c-0.3 .5-0.6 1-1 1.5l4.6 8.9l-7.1-7.1c-0.5 .3-1.1 .5-1.7 .6l-1.4 6.5l-1.5-6.5c-0.6-0.1-1.2-0.3-1.7-0.6l-7.1 7.1l4.6-8.9c-0.4-0.5-0.7-1-1-1.5l-6.8 .7l6-3.5c0-0.2-0.1-0.5-0.1-0.7c0-0.3 .1-0.6 .1-1l-9.2-4.6l10.3 1.7c.2-0.5 .5-0.9 .9-1.3l-2.8-6.4l5.2 4.7c.5-0.2 1-0.3 1.5-0.4l1.6-10.3l1.5 10.3Z" fill="none" stroke="#797842" stroke-width="1.3" clip-rule="evenodd" stroke-linecap="round" stroke-linejoin="round" stroke-miterlimit="1.5" transform="translate(-19.5,22.6) translate(-17.2,-18.4)"/></g><g clip-rule="evenodd" fill-rule="evenodd" stroke-linecap="round" stroke-linejoin="round" stroke-miterlimit="1.5" transform="translate(7.3,7.8)"><path d="M32 37.9l4.5-12.8h5.9v-4.5h4.4v4.5h22.4l4.5 12.8h-41.7Z" fill="#fff"/><path d="M44.5 49.9h6.3c.3 0 .6-0.3 .6-0.6v-6.3c0-0.3-0.3-0.6-0.6-0.6h-6.3c-0.3 0-0.6 .3-0.6 .6v6.3c0 .3 .3 .6 .6 .6m10.4 0h6.3c.4 0 .6-0.3 .6-0.6v-6.3c0-0.3-0.2-0.6-0.6-0.6h-6.3c-0.3 0-0.6 .3-0.6 .6v6.3c0 .3 .3 .6 .6 .6m-10.4 11h6.3c.3 0 .6-0.3 .6-0.6v-6.3c0-0.3-0.3-0.6-0.6-0.6h-6.3c-0.3 0-0.6 .3-0.6 .6v6.3c0 .3 .3 .6 .6 .6m10.4 0h6.3c.4 0 .6-0.3 .6-0.6v-6.3c0-0.3-0.2-0.6-0.6-0.6h-6.3c-0.3 0-0.6 .3-0.6 .6v6.3c0 .3 .3 .6 .6 .6m16.3-21.3v25c0 .5-0.3 .8-0.8 .8h-35.1c-0.4 0-0.8-0.3-0.8-0.8v-25h-1.7c-0.2 0-0.5-0.1-0.7-0.4c-0.1-0.2-0.2-0.5-0.1-0.7l3.7-12.8c.1-0.4 .5-0.6 .9-0.6h4.1v-5.3c0-0.5 .3-0.8 .8-0.8h6.1c.5 0 .9 .3 .9 .8v5.3h20.7c.3 0 .7 .2 .8 .6l3.7 12.8c.1 .2 0 .5-0.1 .7c-0.2 .3-0.4 .4-0.7 .4h-1.7m-28.8-18.9v4.4h4.4v-4.4h-4.4m-5.2 6.1l-0.7 2.3h32.7l-0.7-2.3h-31.3m-1.2 4l-0.8 2.7h35.3l-0.8-2.7h-33.7m33.5 32.9v-24.1h-33.3v24.1h33.3m-35.5-25.8h37.7l-0.7-2.7h-36.3l-0.7 2.7m21.6 16.8h5v4.9h-5v-4.9m-10.4 0h4.9v4.9h-4.9v-4.9m10.4-11h5v4.9h-5v-4.9m-10.4 0h4.9v4.9h-4.9v-4.9Z" fill="#797842" fill-rule="nonzero"/><path d="M29.9 49.3c0-0.6-0.3-1.6-0.7-2.4c-0.5-1.1-1.2-1.6-2-1.6c-0.7 0-1.4 .5-1.9 1.6c-0.4 .8-0.7 1.8-0.7 2.4v2.4h-1.2v-2.4c0-0.6-0.2-1.6-0.6-2.4c-0.6-1.1-1.2-1.6-2-1.6c-0.8 0-1.5 .5-2 1.6c-0.4 .8-0.6 1.8-0.6 2.4v2.4h-1.2v-2.4c0-0.6-0.3-1.6-0.7-2.4c-0.5-1.1-1.2-1.7-2-1.7c-0.7 0-1.4 .6-2 1.7c-0.3 .8-0.6 1.8-0.6 2.4v15c0 .3 .3 .6 .7 .6h3.9c.4 0 .7-0.3 .7-0.6v-3.3h1.2v3.3c0 .3 .3 .6 .7 .6h3.8c.4 0 .7-0.3 .7-0.6v-3.3h1.2v3.3c0 .3 .3 .6 .7 .6h3.9c.4 0 .7-0.3 .7-0.6v-15m-2 11.1c0-0.3-0.3-0.6-0.7-0.6c-0.3 0-0.6 .3-0.6 .6c0 .4 .3 .7 .6 .7c.4 0 .7-0.3 .7-0.7m0-8.2c0-0.4-0.3-0.7-0.7-0.7c-0.3 0-0.6 .3-0.6 .7c0 .4 .3 .7 .6 .7c.4 0 .7-0.3 .7-0.7m-6.4 8.2c0-0.3-0.3-0.6-0.7-0.6c-0.4 0-0.7 .3-0.7 .6c0 .4 .3 .7 .7 .7c.4 0 .7-0.3 .7-0.7m0-8.2c0-0.4-0.3-0.7-0.7-0.7c-0.4 0-0.7 .3-0.7 .7c0 .4 .3 .7 .7 .7c.4 0 .7-0.3 .7-0.7m-6.5 8.2c0-0.3-0.3-0.6-0.7-0.6c-0.3 0-0.7 .3-0.7 .6c0 .4 .4 .7 .7 .7c.4 0 .7-0.3 .7-0.7m0-8.2c0-0.4-0.3-0.7-0.7-0.7c-0.3 0-0.7 .3-0.7 .7c0 .4 .4 .7 .7 .7c.4 0 .7-0.3 .7-0.7m.6 11.4h-2.5v-14.3c0-0.4 .2-1.1 .5-1.8c.3-0.7 .6-0.9 .7-0.9c.1 0 .5 .2 .8 .9c.3 .7 .5 1.4 .5 1.8v14.3m2.6-4h-1.2v-6.5h1.2v6.5m3.8 4h-2.5v-14.3c0-0.4 .2-1.1 .5-1.8c.4-0.7 .7-0.9 .8-0.9c.1 0 .4 .2 .7 .9c.4 .7 .5 1.4 .5 1.8v14.3m2.6-4h-1.2v-6.5h1.2v6.5m3.9 4h-2.5v-14.3c0-0.4 .2-1.1 .5-1.8c.3-0.7 .6-0.9 .7-0.9c.1 0 .5 .2 .8 .9c.3 .7 .5 1.4 .5 1.8v14.3Z" fill="#797842" fill-rule="nonzero"/></g></svg>