<svg xmlns="http://www.w3.org/2000/svg" viewBox="0 0 100 100" height="100" width="100"><style>
@keyframes a0_t { 0% { transform: translate(50px,50px) rotate(0deg) translate(-48.6px,-48.5px); } 100% { transform: translate(50px,50px) rotate(120deg) translate(-48.6px,-48.5px); } }
@keyframes a1_t { 0% { transform: translate(28.7px,62.9px) rotate(0deg) translate(-27.3px,-61.4px); animation-timing-function: cubic-bezier(.4,0,1,1); } 33.325% { transform: translate(28.7px,62.9px) rotate(17.1deg) translate(-27.3px,-61.4px); animation-timing-function: cubic-bezier(0,0,.6,1); } 66.65% { transform: translate(28.7px,62.9px) rotate(-16.4deg) translate(-27.3px,-61.4px); animation-timing-function: cubic-bezier(.4,0,1,1); } 100% { transform: translate(28.7px,62.9px) rotate(0deg) translate(-27.3px,-61.4px); } }
@keyframes a2_t { 0% { transform: translate(50px,38.8px) scale(1,1) translate(-48.6px,-37.3px); animation-timing-function: cubic-bezier(.4,0,1,1); } 33.325% { transform: translate(50px,49.8px) scale(.7,.7) translate(-48.6px,-37.3px); animation-timing-function: cubic-bezier(0,0,.6,1); } 66.65% { transform: translate(50px,30.5px) scale(1,1) translate(-48.6px,-37.3px); animation-timing-function: cubic-bezier(.4,0,1,1); } 100% { transform: translate(50px,38.8px) scale(1,1) translate(-48.6px,-37.3px); } }
</style><title>ic-01</title><path d="M47.9 0c1.3 0 2.4 1.1 2.4 2.4c0 1.3-1.1 2.3-2.4 2.3c-1.3 0-2.3-1-2.3-2.3c0-1.3 1-2.4 2.3-2.4m-10.6 1.3c1.3-0.3 2.5 .5 2.8 1.8c.3 1.3-0.5 2.5-1.8 2.8c-1.2 .3-2.5-0.5-2.8-1.8c-0.3-1.2 .5-2.5 1.8-2.8m-10.5 3.8c1.2-0.5 2.6 0 3.2 1.1c.5 1.2 0 2.6-1.1 3.2c-1.2 .5-2.6 .1-3.2-1.1c-0.5-1.2-0.1-2.6 1.1-3.2m-9.6 6.4c1-0.9 2.5-0.7 3.3 .3c.8 1 .7 2.5-0.3 3.3c-1 .8-2.5 .7-3.3-0.3c-0.9-1-0.7-2.5 .3-3.3m-7.6 8c.8-1 2.3-1.2 3.3-0.4c1 .8 1.2 2.3 .4 3.3c-0.8 1-2.2 1.2-3.3 .4c-1-0.7-1.2-2.2-0.4-3.3m-5.7 9.8c.6-1.2 2-1.7 3.1-1.2c1.2 .6 1.8 2 1.2 3.1c-0.5 1.2-1.9 1.8-3.1 1.2c-1.2-0.5-1.7-1.9-1.2-3.1m-3.3 11.1c.3-1.2 1.5-2.1 2.8-1.8c1.2 .2 2.1 1.4 1.9 2.7c-0.3 1.3-1.5 2.1-2.8 1.9c-1.3-0.2-2.1-1.5-1.9-2.8m-0.6 11.1c-0.1-1.3 1-2.4 2.3-2.5c1.3 0 2.4 1 2.4 2.3c.1 1.3-0.9 2.4-2.2 2.4c-1.3 .1-2.4-0.9-2.5-2.2m2 11.1c-0.4-1.2 .3-2.5 1.6-2.9c1.2-0.3 2.6 .4 2.9 1.6c.4 1.3-0.3 2.6-1.6 3c-1.3 .3-2.6-0.4-2.9-1.7m4.5 10.5c-0.7-1.2-0.2-2.6 .9-3.3c1.1-0.6 2.6-0.2 3.2 .9c.6 1.2 .2 2.6-0.9 3.2c-1.1 .7-2.6 .3-3.2-0.8m6.8 9c-0.9-0.9-0.9-2.4 .1-3.3c1-0.9 2.4-0.8 3.3 .1c.9 1 .9 2.5-0.1 3.3c-1 .9-2.4 .9-3.3-0.1m8.6 7.2c-1.1-0.7-1.4-2.2-0.6-3.2c.7-1.1 2.2-1.4 3.3-0.7c1 .7 1.3 2.2 .6 3.3c-0.7 1.1-2.2 1.4-3.3 .6m10.2 5.1c-1.3-0.5-1.9-1.8-1.4-3c.4-1.3 1.8-1.9 3-1.4c1.2 .4 1.8 1.8 1.4 3c-0.5 1.2-1.8 1.9-3 1.4m11 2.6c-1.3-0.2-2.2-1.4-2-2.7c.1-1.2 1.3-2.2 2.6-2c1.3 .2 2.2 1.3 2 2.6c-0.1 1.3-1.3 2.2-2.6 2.1m10.9 0c-1.3 .1-2.4-0.8-2.6-2.1c-0.1-1.3 .9-2.5 2.2-2.6c1.3-0.1 2.4 .8 2.5 2.1c.2 1.3-0.8 2.4-2.1 2.6m11.2-2.7c-1.2 .5-2.5-0.2-3-1.4c-0.4-1.2 .3-2.6 1.5-3c1.2-0.4 2.6 .2 3 1.4c.4 1.3-0.2 2.6-1.5 3m10.1-5c-1.1 .7-2.6 .4-3.3-0.7c-0.7-1.1-0.4-2.6 .7-3.3c1.1-0.7 2.6-0.3 3.3 .7c.7 1.1 .4 2.6-0.7 3.3m8.6-7.3c-0.9 1-2.4 1-3.3 .1c-0.9-0.9-1-2.4-0.1-3.4c1-0.9 2.4-0.9 3.4 0c.9 .9 .9 2.4 0 3.3m6.7-8.9c-0.7 1.1-2.1 1.5-3.2 .8c-1.1-0.6-1.5-2.1-0.8-3.2c.6-1.1 2.1-1.5 3.2-0.8c1.1 .6 1.5 2.1 .8 3.2m4.5-10.5c-0.3 1.3-1.7 2-2.9 1.6c-1.3-0.4-1.9-1.7-1.6-3c.4-1.2 1.8-1.9 3-1.5c1.2 .4 1.9 1.7 1.5 2.9m2-11.2c-0.1 1.3-1.2 2.3-2.5 2.2c-1.3-0.1-2.3-1.2-2.2-2.5c.1-1.3 1.2-2.3 2.5-2.2c1.3 .1 2.3 1.2 2.2 2.5m-0.7-11.6c.2 1.3-0.6 2.5-1.9 2.7c-1.3 .3-2.5-0.6-2.7-1.9c-0.3-1.3 .6-2.5 1.9-2.7c1.3-0.2 2.5 .6 2.7 1.9m-3.2-10.6c.5 1.2-0.1 2.6-1.3 3.1c-1.2 .5-2.6 0-3.1-1.2c-0.5-1.2 .1-2.6 1.3-3.1c1.2-0.5 2.6 0 3.1 1.2m-5.8-9.9c.8 1.1 .5 2.6-0.5 3.3c-1.1 .8-2.5 .6-3.3-0.5c-0.8-1-0.5-2.5 .5-3.3c1.1-0.7 2.5-0.5 3.3 .5m-7.7-8c1 .8 1.1 2.3 .3 3.3c-0.9 1-2.4 1.1-3.4 .2c-1-0.8-1.1-2.3-0.2-3.3c.8-1 2.3-1.1 3.3-0.2m-9.5-6.2c1.2 .6 1.6 2 1 3.2c-0.6 1.1-2 1.6-3.1 1c-1.2-0.6-1.7-2-1.1-3.2c.6-1.2 2.1-1.6 3.2-1m-10.8-3.9c1.3 .3 2.1 1.6 1.8 2.9c-0.3 1.2-1.6 2-2.9 1.7c-1.3-0.3-2-1.6-1.7-2.8c.3-1.3 1.6-2.1 2.8-1.8Z" fill="#fff" clip-rule="evenodd" transform="translate(50,50) translate(-48.6,-48.5)" style="animation: 4s linear infinite both a0_t;"/><path d="M67.8 64.3c-0.7-0.2-1.4-0.2-2.1 .3l-9.8 6.8c-0.4 .2-0.5 .7-0.3 1.1c.3 .4 .8 .5 1.2 .2l9.7-6.6c.4-0.2 .6-0.2 .8-0.1c.4 .1 .6 .3 .8 .6c.3 .7 0 1.6-0.6 2l-16.2 10.7c-1 .7-2 .8-3 .4l-8.2-2.7c-0.4-0.2-0.8-0.3-1.3-0.3l-2.3 .2v-11.9c1.6-0.4 5.9-1.1 7.9 1.4c.4 .5 1 .8 1.7 .8h7.5c.6 0 1.1 .6 1.1 1.3c0 .8-0.5 1.4-1.1 1.4h-7.1c-1.7 0-2.8 2-1.7 3.6c.3 .4 .7 .4 1.1 .2c.4-0.2 .4-0.8 .2-1.1c-0.3-0.5 0-1.1 .4-1.1h7.1c1.5 0 2.7-1.4 2.7-3c0-1.6-1.2-2.9-2.7-2.9h-7.4c-0.1 0-0.3 0-0.5-0.3c-2.4-3-7.1-2.3-9.1-1.9v-1.2c0-0.4-0.4-0.8-0.8-0.8h-7.7c-0.5 0-0.8 .4-0.8 .8v16.9c0 .5 .3 .8 .8 .8h7.7c.4 0 .8-0.3 .8-0.8v-0.6l1.6-0.1c1.1 0 1.1 0 2.1 .3l7.5 2.5c1.5 .5 3.1 .4 4.4-0.5l16.2-10.9c1.3-0.8 1.9-2.6 1.2-4c-0.4-0.8-1.1-1.3-1.8-1.5m-32.8 14h-6.2v-15.2h6.2v15.2Z" fill="#fff" clip-rule="evenodd" transform="translate(28.7,62.9) translate(-27.3,-61.4)" style="animation: 4s linear infinite both a1_t;"/><path d="M69.2 32.8l-20-17.1c-0.4-0.3-0.9-0.3-1.2 0l-20 17.1c-0.3 .2-0.4 .7-0.1 1c.1 .4 .5 .7 .9 .7h1.9v23.6c0 .6 .4 1 1 1h33.8c.6 0 1-0.4 1-1v-23.6h1.9c.4 0 .8-0.3 .9-0.7c.3-0.3 .2-0.8-0.1-1m-20.6-1.7c2.5 0 4.6-2.1 4.6-4.7c0-2.5-2.1-4.6-4.6-4.6c-2.6 0-4.7 2.1-4.7 4.6c0 2.6 2 4.7 4.7 4.7m0-7.3c1.4 0 2.6 1.2 2.6 2.6c0 1.5-1.2 2.7-2.6 2.7c-1.4 0-2.7-1.2-2.7-2.7c0-1.4 1.3-2.6 2.7-2.6m.6-5.4l16.6 14.2h-34.4l16.6-14.2c.7-0.6 .5-0.6 1.2 0m15.4 16.1v22.7h-8.6v-15.2c0-0.6-0.4-1-1-1h-12.9c-0.6 0-1 .4-1 1v15.2h-8.5v-22.7h32m-21.5 8.5h10.9v14.2h-10.9v-14.2Z" fill="#fff" clip-rule="evenodd" transform="translate(50,38.8) translate(-48.6,-37.3)" style="animation: 4s linear infinite both a2_t;"/></svg>