<svg xmlns="http://www.w3.org/2000/svg" viewBox="0 0 100 100" height="100" width="100"><defs><clipPath id="ClipPath-1"><ellipse cx="47.5" cy="46.1" rx="41.1" ry="41.1"/></clipPath></defs><title>ic-05</title><path d="M47.9 0c1.3 0 2.4 1.1 2.4 2.4c0 1.3-1.1 2.3-2.4 2.3c-1.3 0-2.3-1-2.3-2.3c0-1.3 1-2.4 2.3-2.4m-10.6 1.3c1.3-0.3 2.5 .5 2.8 1.8c.3 1.3-0.5 2.5-1.8 2.8c-1.2 .3-2.5-0.5-2.8-1.8c-0.3-1.2 .5-2.5 1.8-2.8m-10.5 3.8c1.2-0.5 2.6 0 3.2 1.1c.5 1.2 0 2.6-1.1 3.2c-1.2 .5-2.6 .1-3.2-1.1c-0.5-1.2-0.1-2.6 1.1-3.2m-9.6 6.4c1-0.9 2.5-0.7 3.3 .3c.8 1 .7 2.5-0.3 3.3c-1 .8-2.5 .7-3.3-0.3c-0.9-1-0.7-2.5 .3-3.3m-7.6 8c.8-1 2.3-1.2 3.3-0.4c1 .8 1.2 2.3 .4 3.3c-0.8 1-2.2 1.2-3.3 .4c-1-0.7-1.2-2.2-0.4-3.3m-5.7 9.8c.6-1.2 2-1.7 3.1-1.2c1.2 .6 1.8 2 1.2 3.1c-0.5 1.2-1.9 1.8-3.1 1.2c-1.2-0.5-1.7-1.9-1.2-3.1m-3.3 11.1c.3-1.2 1.5-2.1 2.8-1.8c1.2 .2 2.1 1.4 1.9 2.7c-0.3 1.3-1.5 2.1-2.8 1.9c-1.3-0.2-2.1-1.5-1.9-2.8m-0.6 11.1c-0.1-1.3 1-2.4 2.3-2.5c1.3 0 2.4 1 2.4 2.3c.1 1.3-0.9 2.4-2.2 2.4c-1.3 .1-2.4-0.9-2.5-2.2m2 11.1c-0.4-1.2 .3-2.5 1.6-2.9c1.2-0.3 2.6 .4 2.9 1.6c.4 1.3-0.3 2.6-1.6 3c-1.3 .3-2.6-0.4-2.9-1.7m4.5 10.5c-0.7-1.2-0.2-2.6 .9-3.3c1.1-0.6 2.6-0.2 3.2 .9c.6 1.2 .2 2.6-0.9 3.2c-1.1 .7-2.6 .3-3.2-0.8m6.8 9c-0.9-0.9-0.9-2.4 .1-3.3c1-0.9 2.4-0.8 3.3 .1c.9 1 .9 2.5-0.1 3.3c-1 .9-2.4 .9-3.3-0.1m8.6 7.2c-1.1-0.7-1.4-2.2-0.6-3.2c.7-1.1 2.2-1.4 3.3-0.7c1 .7 1.3 2.2 .6 3.3c-0.7 1.1-2.2 1.4-3.3 .6m10.2 5.1c-1.3-0.5-1.9-1.8-1.4-3c.4-1.3 1.8-1.9 3-1.4c1.2 .4 1.8 1.8 1.4 3c-0.5 1.2-1.8 1.9-3 1.4m11 2.6c-1.3-0.2-2.2-1.4-2-2.7c.1-1.2 1.3-2.2 2.6-2c1.3 .2 2.2 1.3 2 2.6c-0.1 1.3-1.3 2.2-2.6 2.1m10.9 0c-1.3 .1-2.4-0.8-2.6-2.1c-0.1-1.3 .9-2.5 2.2-2.6c1.3-0.1 2.4 .8 2.5 2.1c.2 1.3-0.8 2.4-2.1 2.6m11.2-2.7c-1.2 .5-2.5-0.2-3-1.4c-0.4-1.2 .3-2.6 1.5-3c1.2-0.4 2.6 .2 3 1.4c.4 1.3-0.2 2.6-1.5 3m10.1-5c-1.1 .7-2.6 .4-3.3-0.7c-0.7-1.1-0.4-2.6 .7-3.3c1.1-0.7 2.6-0.3 3.3 .7c.7 1.1 .4 2.6-0.7 3.3m8.6-7.3c-0.9 1-2.4 1-3.3 .1c-0.9-0.9-1-2.4-0.1-3.4c1-0.9 2.4-0.9 3.4 0c.9 .9 .9 2.4 0 3.3m6.7-8.9c-0.7 1.1-2.1 1.5-3.2 .8c-1.1-0.6-1.5-2.1-0.8-3.2c.6-1.1 2.1-1.5 3.2-0.8c1.1 .6 1.5 2.1 .8 3.2m4.5-10.5c-0.3 1.3-1.7 2-2.9 1.6c-1.3-0.4-1.9-1.7-1.6-3c.4-1.2 1.8-1.9 3-1.5c1.2 .4 1.9 1.7 1.5 2.9m2-11.2c-0.1 1.3-1.2 2.3-2.5 2.2c-1.3-0.1-2.3-1.2-2.2-2.5c.1-1.3 1.2-2.3 2.5-2.2c1.3 .1 2.3 1.2 2.2 2.5m-0.7-11.6c.2 1.3-0.6 2.5-1.9 2.7c-1.3 .3-2.5-0.6-2.7-1.9c-0.3-1.3 .6-2.5 1.9-2.7c1.3-0.2 2.5 .6 2.7 1.9m-3.2-10.6c.5 1.2-0.1 2.6-1.3 3.1c-1.2 .5-2.6 0-3.1-1.2c-0.5-1.2 .1-2.6 1.3-3.1c1.2-0.5 2.6 0 3.1 1.2m-5.8-9.9c.8 1.1 .5 2.6-0.5 3.3c-1.1 .8-2.5 .6-3.3-0.5c-0.8-1-0.5-2.5 .5-3.3c1.1-0.7 2.5-0.5 3.3 .5m-7.7-8c1 .8 1.1 2.3 .3 3.3c-0.9 1-2.4 1.1-3.4 .2c-1-0.8-1.1-2.3-0.2-3.3c.8-1 2.3-1.1 3.3-0.2m-9.5-6.2c1.2 .6 1.6 2 1 3.2c-0.6 1.1-2 1.6-3.1 1c-1.2-0.6-1.7-2-1.1-3.2c.6-1.2 2.1-1.6 3.2-1m-10.8-3.9c1.3 .3 2.1 1.6 1.8 2.9c-0.3 1.2-1.6 2-2.9 1.7c-1.3-0.3-2-1.6-1.7-2.8c.3-1.3 1.6-2.1 2.8-1.8Z" fill="#797842" clip-rule="evenodd" transform="translate(50,50) translate(-48.6,-48.5)"/><g clip-path="url(#ClipPath-1)" transform="translate(2,4.5)"><path d="M21.4 15.2h-16.8c-1.2 0-2.4-0.4-3.2-1.3c-0.9-0.9-1.4-2-1.4-3.2c0-1.3 .5-2.4 1.4-3.3c.7-0.7 1.5-1.1 2.5-1.2c0-0.1 0-0.1 0-0.1c0-3.4 2.7-6.1 6.1-6.1c1.2 0 2.4 .4 3.4 1.1c.7 .5 1.3 1.1 1.8 1.9c.7-0.5 1.5-0.7 2.4-0.7c2.3 0 4.1 1.7 4.5 3.8c.9 .2 1.8 .6 2.5 1.3c.9 .9 1.4 2 1.4 3.3c0 1.2-0.5 2.3-1.4 3.2c-0.8 .9-2 1.3-3.2 1.3Zm-16.8-7.6c-1.7 0-3.1 1.4-3.1 3.1c0 1.6 1.4 3 3.1 3h16.8c1.7 0 3.1-1.4 3.1-3c0-1.7-1.4-3.1-3.1-3.1h-0.8v-0.7c0-1.7-1.3-3.1-3-3.1c-0.8 0-1.6 .3-2.2 .9l-0.8 .8l-0.4-1.1c-0.7-1.7-2.4-2.9-4.2-2.9c-2.6 0-4.6 2.1-4.6 4.6c0 .2 0 .4 0 .6l.2 .9h-1Zm-30.1 16.9h-16.7c-1.3 0-2.4-0.5-3.3-1.3c-0.9-0.9-1.4-2-1.4-3.3c0-1.2 .5-2.3 1.4-3.2c.7-0.7 1.6-1.1 2.5-1.3c0 0 0 0 0 0c0-3.4 2.7-6.1 6.1-6.1c1.2 0 2.4 .4 3.4 1.1c.8 .5 1.4 1.1 1.8 1.8c.7-0.4 1.5-0.6 2.4-0.6c2.3 0 4.2 1.6 4.5 3.8c1 .2 1.9 .6 2.6 1.3c.8 .9 1.3 2 1.3 3.2c0 1.3-0.5 2.4-1.3 3.3c-0.9 .8-2.1 1.3-3.3 1.3Zm-16.7-7.6c-1.8 0-3.1 1.4-3.1 3c0 1.7 1.3 3.1 3.1 3.1h16.7c1.7 0 3.1-1.4 3.1-3.1c0-1.6-1.4-3-3.1-3h-0.8v-0.8c0-1.6-1.3-3-3-3c-0.8 0-1.6 .3-2.1 .9l-0.9 .8l-0.4-1.1c-0.7-1.8-2.3-2.9-4.2-2.9c-2.5 0-4.6 2.1-4.6 4.6c0 .2 0 .3 .1 .6l.1 .9h-0.9Zm-29.3-1.7h-16.8c-1.2 0-2.4-0.4-3.2-1.3c-0.9-0.9-1.4-2-1.4-3.2c0-1.3 .5-2.4 1.4-3.3c.7-0.7 1.5-1.1 2.5-1.2c0-0.1-0.1-0.1-0.1-0.1c0-3.4 2.8-6.1 6.1-6.1c1.3 0 2.5 .4 3.5 1.1c.7 .5 1.3 1.1 1.8 1.9c.7-0.5 1.5-0.7 2.4-0.7c2.2 0 4.1 1.7 4.5 3.8c.9 .2 1.8 .6 2.5 1.3c.9 .9 1.4 2 1.4 3.3c0 1.2-0.5 2.3-1.4 3.2c-0.9 .9-2 1.3-3.2 1.3Zm-16.8-7.6c-1.7 0-3.1 1.4-3.1 3.1c0 1.6 1.4 3 3.1 3h16.8c1.7 0 3.1-1.4 3.1-3c0-1.7-1.4-3.1-3.1-3.1h-0.8v-0.7c0-1.7-1.4-3.1-3-3.1c-0.8 0-1.6 .3-2.2 .9l-0.8 .8l-0.4-1.1c-0.7-1.7-2.4-2.9-4.3-2.9c-2.5 0-4.5 2.1-4.5 4.6c0 .2 0 .4 0 .6l.2 .9h-1Zm-30.1 16.9h-16.8c-1.2 0-2.3-0.5-3.2-1.3c-0.9-0.9-1.4-2-1.4-3.3c0-1.2 .5-2.3 1.4-3.2c.7-0.7 1.5-1.1 2.5-1.3c0 0 0 0 0 0c0-3.4 2.7-6.1 6.1-6.1c1.2 0 2.4 .4 3.4 1.1c.8 .5 1.3 1.1 1.8 1.8c.7-0.4 1.5-0.6 2.4-0.6c2.3 0 4.2 1.6 4.5 3.8c1 .2 1.8 .6 2.6 1.3c.8 .9 1.3 2 1.3 3.2c0 1.3-0.5 2.4-1.3 3.3c-0.9 .8-2.1 1.3-3.3 1.3Zm-16.8-7.6c-1.7 0-3.1 1.4-3.1 3c0 1.7 1.4 3.1 3.1 3.1h16.8c1.7 0 3.1-1.4 3.1-3.1c0-1.6-1.4-3-3.1-3h-0.8v-0.8c0-1.6-1.3-3-3-3c-0.8 0-1.6 .3-2.1 .9l-0.9 .8l-0.4-1.1c-0.7-1.8-2.3-2.9-4.2-2.9c-2.5 0-4.6 2.1-4.6 4.6c0 .2 0 .3 .1 .6l.1 .9h-1Z" fill="#797842" clip-rule="evenodd" transform="translate(-7.4,19) translate(-13,-7.6)"/></g><g clip-rule="evenodd" fill-rule="evenodd" stroke-linejoin="round" stroke-miterlimit="2" transform="translate(4.4,20.8)"><path d="M33.5 52.5v-40.9h2.6v-5.6h18.8v5.6h2.6v40.9h-24Z" fill="#fff"/><path d="M34.2 10.7h-1.7c-0.5 0-0.9 .4-0.9 .9v29.3h-0.1c-0.5 0-0.9 .5-0.9 1c0 .5 .4 1 .9 1h.1v10.5c0 .6 .4 1 .9 1h25.9c.5 0 1-0.4 1-1v-10.5c.6 0 1-0.5 1-1c0-0.5-0.4-1-1-1v-29.3c0-0.5-0.5-0.9-1-0.9h-1.6v-5.7c0-0.5-0.4-1-1-1h-20.7c-0.5 0-0.9 .5-0.9 1v5.7m32.7 37.3c2.2-0.4 3.8-2.3 3.8-4.6v-4.7c0-2.6-2.2-4.7-4.7-4.7c-2.6 0-4.8 2.1-4.8 4.7v4.7c0 2.3 1.6 4.2 3.8 4.6v4.5h-1.5c-0.5 0-0.9 .4-0.9 .9c0 .6 .4 1 .9 1h4.9c.5 0 .9-0.4 .9-1c0-0.5-0.4-0.9-0.9-0.9h-1.5v-4.5m-12-42v4.7h-18.8v-4.7h18.8m-11.9 46.5v-5.4h5v5.4h-5m-9.5 0v-9.6h24v9.6h-7.6v-6.4c0-0.5-0.4-0.9-0.9-0.9h-7c-0.5 0-1 .4-1 .9v6.4h-7.5m0-11.6v-28.3h24v28.3h-24m19.6-25.4c-0.5 0-0.9 .4-0.9 .9v2.2c0 .5 .4 1 .9 1c.6 0 1-0.5 1-1v-2.2c0-0.5-0.4-0.9-1-0.9m-5.1 0c-0.5 0-0.9 .4-0.9 .9v2.2c0 .5 .4 1 .9 1c.6 0 1-0.5 1-1v-2.2c0-0.5-0.4-0.9-1-0.9m-5.1 0c-0.5 0-0.9 .4-0.9 .9v2.2c0 .5 .4 1 .9 1c.6 0 1-0.5 1-1v-2.2c0-0.5-0.4-0.9-1-0.9m-5.1 0c-0.5 0-0.9 .4-0.9 .9v2.2c0 .5 .4 1 .9 1c.6 0 1-0.5 1-1v-2.2c0-0.5-0.4-0.9-1-0.9m15.3 6.2c-0.5 0-0.9 .4-0.9 .9v2.2c0 .5 .4 1 .9 1c.6 0 1-0.5 1-1v-2.2c0-0.5-0.4-0.9-1-0.9m-5.1 0c-0.5 0-0.9 .4-0.9 .9v2.2c0 .5 .4 1 .9 1c.6 0 1-0.5 1-1v-2.2c0-0.5-0.4-0.9-1-0.9m-5.1 0c-0.5 0-0.9 .4-0.9 .9v2.2c0 .5 .4 1 .9 1c.6 0 1-0.5 1-1v-2.2c0-0.5-0.4-0.9-1-0.9m-5.1 0c-0.5 0-0.9 .4-0.9 .9v2.2c0 .5 .4 1 .9 1c.6 0 1-0.5 1-1v-2.2c0-0.5-0.4-0.9-1-0.9m15.3 6.2c-0.5 0-0.9 .4-0.9 1v2.1c0 .6 .4 1 .9 1c.6 0 1-0.4 1-1v-2.1c0-0.6-0.4-1-1-1m-5.1 0c-0.5 0-0.9 .4-0.9 1v2.1c0 .6 .4 1 .9 1c.6 0 1-0.4 1-1v-2.1c0-0.6-0.4-1-1-1m-5.1 0c-0.5 0-0.9 .4-0.9 1v2.1c0 .6 .4 1 .9 1c.6 0 1-0.4 1-1v-2.1c0-0.6-0.4-1-1-1m-5.1 0c-0.5 0-0.9 .4-0.9 1v2.1c0 .6 .4 1 .9 1c.6 0 1-0.4 1-1v-2.1c0-0.6-0.4-1-1-1m15.3 6.2c-0.5 0-0.9 .4-0.9 1v2.1c0 .6 .4 1 .9 1c.6 0 1-0.4 1-1v-2.1c0-0.6-0.4-1-1-1m-5.1 0c-0.5 0-0.9 .4-0.9 1v2.1c0 .6 .4 1 .9 1c.6 0 1-0.4 1-1v-2.1c0-0.6-0.4-1-1-1m-5.1 0c-0.5 0-0.9 .4-0.9 1v2.1c0 .6 .4 1 .9 1c.6 0 1-0.4 1-1v-2.1c0-0.6-0.4-1-1-1m-5.1 0c-0.5 0-0.9 .4-0.9 1v2.1c0 .6 .4 1 .9 1c.6 0 1-0.4 1-1v-2.1c0-0.6-0.4-1-1-1m28.3 12.1c-0.1 0-0.1 0-0.1 0c-0.1 0-0.1 0-0.2 0c-1.5-0.1-2.6-1.3-2.6-2.8v-4.7c0-1.5 1.2-2.8 2.8-2.8c1.5 0 2.7 1.3 2.7 2.8v4.7c0 1.5-1.1 2.7-2.6 2.8Z" fill="#797842" fill-rule="nonzero"/></g></svg>