<svg xmlns="http://www.w3.org/2000/svg" viewBox="0 0 100 100" height="100" width="100"><style>
@keyframes a0_t { 0% { transform: translate(50px,50px) rotate(0deg) translate(-48.6px,-48.5px); } 100% { transform: translate(50px,50px) rotate(120deg) translate(-48.6px,-48.5px); } }
@keyframes a1_t { 0% { transform: translate(33.6px,71.6px) scale(1,1) translate(-10.4px,-43.2px); animation-timing-function: cubic-bezier(0,0,.6,1); } 16.667% { transform: translate(33.6px,71.6px) scale(.7,.7) translate(-10.4px,-43.2px); } 50% { transform: translate(33.6px,71.6px) scale(.7,.7) translate(-10.4px,-43.2px); animation-timing-function: cubic-bezier(.4,0,1,1); } 66.667% { transform: translate(33.6px,71.6px) scale(1,1) translate(-10.4px,-43.2px); } 100% { transform: translate(33.6px,71.6px) scale(1,1) translate(-10.4px,-43.2px); } }
@keyframes a2_t { 0% { transform: translate(23.2px,29.1px) scale(1,1) translateY(0px); animation-timing-function: cubic-bezier(0,0,.6,1); } 16.667% { transform: translate(23.2px,29.1px) scale(1.3,1.3) translateY(0px); } 50% { transform: translate(23.2px,29.1px) scale(1.3,1.3) translateY(0px); animation-timing-function: cubic-bezier(.4,0,1,1); } 66.667% { transform: translate(23.2px,29.1px) scale(1,1) translateY(0px); } 100% { transform: translate(23.2px,29.1px) scale(1,1) translateY(0px); } }
@keyframes a3_t { 0% { transform: translateX(10.7px) rotate(0deg) translate(-10.7px,-0.7px); } 16.667% { transform: translateX(10.7px) rotate(0deg) translate(-10.7px,-0.7px); } 23.333% { transform: translateX(10.7px) rotate(-7deg) translate(-10.7px,-0.7px); } 30% { transform: translateX(10.7px) rotate(7deg) translate(-10.7px,-0.7px); } 38.333% { transform: translateX(10.7px) rotate(-7deg) translate(-10.7px,-0.7px); } 45% { transform: translateX(10.7px) rotate(7deg) translate(-10.7px,-0.7px); } 50% { transform: translateX(10.7px) rotate(0deg) translate(-10.7px,-0.7px); } 66.667% { transform: translateX(10.7px) rotate(0deg) translate(-10.7px,-0.7px); } 100% { transform: translateX(10.7px) rotate(0deg) translate(-10.7px,-0.7px); } }
</style><title>ic-02</title><path d="M47.9 0c1.3 0 2.4 1.1 2.4 2.4c0 1.3-1.1 2.3-2.4 2.3c-1.3 0-2.3-1-2.3-2.3c0-1.3 1-2.4 2.3-2.4m-10.6 1.3c1.3-0.3 2.5 .5 2.8 1.8c.3 1.3-0.5 2.5-1.8 2.8c-1.2 .3-2.5-0.5-2.8-1.8c-0.3-1.2 .5-2.5 1.8-2.8m-10.5 3.8c1.2-0.5 2.6 0 3.2 1.1c.5 1.2 0 2.6-1.1 3.2c-1.2 .5-2.6 .1-3.2-1.1c-0.5-1.2-0.1-2.6 1.1-3.2m-9.6 6.4c1-0.9 2.5-0.7 3.3 .3c.8 1 .7 2.5-0.3 3.3c-1 .8-2.5 .7-3.3-0.3c-0.9-1-0.7-2.5 .3-3.3m-7.6 8c.8-1 2.3-1.2 3.3-0.4c1 .8 1.2 2.3 .4 3.3c-0.8 1-2.2 1.2-3.3 .4c-1-0.7-1.2-2.2-0.4-3.3m-5.7 9.8c.6-1.2 2-1.7 3.1-1.2c1.2 .6 1.8 2 1.2 3.1c-0.5 1.2-1.9 1.8-3.1 1.2c-1.2-0.5-1.7-1.9-1.2-3.1m-3.3 11.1c.3-1.2 1.5-2.1 2.8-1.8c1.2 .2 2.1 1.4 1.9 2.7c-0.3 1.3-1.5 2.1-2.8 1.9c-1.3-0.2-2.1-1.5-1.9-2.8m-0.6 11.1c-0.1-1.3 1-2.4 2.3-2.5c1.3 0 2.4 1 2.4 2.3c.1 1.3-0.9 2.4-2.2 2.4c-1.3 .1-2.4-0.9-2.5-2.2m2 11.1c-0.4-1.2 .3-2.5 1.6-2.9c1.2-0.3 2.6 .4 2.9 1.6c.4 1.3-0.3 2.6-1.6 3c-1.3 .3-2.6-0.4-2.9-1.7m4.5 10.5c-0.7-1.2-0.2-2.6 .9-3.3c1.1-0.6 2.6-0.2 3.2 .9c.6 1.2 .2 2.6-0.9 3.2c-1.1 .7-2.6 .3-3.2-0.8m6.8 9c-0.9-0.9-0.9-2.4 .1-3.3c1-0.9 2.4-0.8 3.3 .1c.9 1 .9 2.5-0.1 3.3c-1 .9-2.4 .9-3.3-0.1m8.6 7.2c-1.1-0.7-1.4-2.2-0.6-3.2c.7-1.1 2.2-1.4 3.3-0.7c1 .7 1.3 2.2 .6 3.3c-0.7 1.1-2.2 1.4-3.3 .6m10.2 5.1c-1.3-0.5-1.9-1.8-1.4-3c.4-1.3 1.8-1.9 3-1.4c1.2 .4 1.8 1.8 1.4 3c-0.5 1.2-1.8 1.9-3 1.4m11 2.6c-1.3-0.2-2.2-1.4-2-2.7c.1-1.2 1.3-2.2 2.6-2c1.3 .2 2.2 1.3 2 2.6c-0.1 1.3-1.3 2.2-2.6 2.1m10.9 0c-1.3 .1-2.4-0.8-2.6-2.1c-0.1-1.3 .9-2.5 2.2-2.6c1.3-0.1 2.4 .8 2.5 2.1c.2 1.3-0.8 2.4-2.1 2.6m11.2-2.7c-1.2 .5-2.5-0.2-3-1.4c-0.4-1.2 .3-2.6 1.5-3c1.2-0.4 2.6 .2 3 1.4c.4 1.3-0.2 2.6-1.5 3m10.1-5c-1.1 .7-2.6 .4-3.3-0.7c-0.7-1.1-0.4-2.6 .7-3.3c1.1-0.7 2.6-0.3 3.3 .7c.7 1.1 .4 2.6-0.7 3.3m8.6-7.3c-0.9 1-2.4 1-3.3 .1c-0.9-0.9-1-2.4-0.1-3.4c1-0.9 2.4-0.9 3.4 0c.9 .9 .9 2.4 0 3.3m6.7-8.9c-0.7 1.1-2.1 1.5-3.2 .8c-1.1-0.6-1.5-2.1-0.8-3.2c.6-1.1 2.1-1.5 3.2-0.8c1.1 .6 1.5 2.1 .8 3.2m4.5-10.5c-0.3 1.3-1.7 2-2.9 1.6c-1.3-0.4-1.9-1.7-1.6-3c.4-1.2 1.8-1.9 3-1.5c1.2 .4 1.9 1.7 1.5 2.9m2-11.2c-0.1 1.3-1.2 2.3-2.5 2.2c-1.3-0.1-2.3-1.2-2.2-2.5c.1-1.3 1.2-2.3 2.5-2.2c1.3 .1 2.3 1.2 2.2 2.5m-0.7-11.6c.2 1.3-0.6 2.5-1.9 2.7c-1.3 .3-2.5-0.6-2.7-1.9c-0.3-1.3 .6-2.5 1.9-2.7c1.3-0.2 2.5 .6 2.7 1.9m-3.2-10.6c.5 1.2-0.1 2.6-1.3 3.1c-1.2 .5-2.6 0-3.1-1.2c-0.5-1.2 .1-2.6 1.3-3.1c1.2-0.5 2.6 0 3.1 1.2m-5.8-9.9c.8 1.1 .5 2.6-0.5 3.3c-1.1 .8-2.5 .6-3.3-0.5c-0.8-1-0.5-2.5 .5-3.3c1.1-0.7 2.5-0.5 3.3 .5m-7.7-8c1 .8 1.1 2.3 .3 3.3c-0.9 1-2.4 1.1-3.4 .2c-1-0.8-1.1-2.3-0.2-3.3c.8-1 2.3-1.1 3.3-0.2m-9.5-6.2c1.2 .6 1.6 2 1 3.2c-0.6 1.1-2 1.6-3.1 1c-1.2-0.6-1.7-2-1.1-3.2c.6-1.2 2.1-1.6 3.2-1m-10.8-3.9c1.3 .3 2.1 1.6 1.8 2.9c-0.3 1.2-1.6 2-2.9 1.7c-1.3-0.3-2-1.6-1.7-2.8c.3-1.3 1.6-2.1 2.8-1.8Z" fill="#fff" clip-rule="evenodd" transform="translate(50,50) translate(-48.6,-48.5)" style="animation: 4s linear infinite both a0_t;"/><path d="M11.7 18.8c-1 .2-1.5-0.3-1.2-1.4l21.7-17.2c.4-0.3 .9-0.3 1.3 0l19.8 16.9c.3 .2 .4 .7 .1 1c-0.1 .4-0.5 .7-0.9 .7h-1.9v23.4c0 .6-0.3 1-0.9 1h-33.9c-0.6 0-1-0.4-1-1v-23.4h-3.1l2.4-1.9h35.9l-17.2-14.6l-21.1 16.5Zm3.1 0h2.1v22.6h8.5v-15.1c0-0.6 .4-1 1-1h12.9c.6 0 1 .4 1 1v15h8.5v-22.5h-31.9v.1l-2.1-0.1Zm23.5 8.5h-10.9v14h10.9v-14Zm-5.5-12.1c2.5 0 4.6-2 4.6-4.5c0-2.5-2.1-4.6-4.6-4.6c-2.4 0-4.5 2.1-4.5 4.6c0 2.5 2 4.5 4.5 4.5Zm0-7.1c1.4 0 2.6 1.2 2.6 2.6c0 1.4-1.2 2.6-2.6 2.6c-1.4 0-2.5-1.2-2.5-2.6c0-1.4 1.1-2.6 2.5-2.6Z" fill="#fff" clip-rule="evenodd" transform="translate(33.6,71.6) translate(-10.4,-43.2)" style="animation: 6s linear infinite both a1_t;"/><g transform="translate(23.2,29.1)" style="animation: 6s linear infinite both a2_t;"><g clip-rule="evenodd" fill-rule="evenodd" stroke-linejoin="round" stroke-miterlimit="2" transform="translate(10.7,0) translate(-10.7,-0.7)" style="animation: 6s linear infinite both a3_t;"><path d="M10.7 1.3l-9.5 11.5v25.5h19v-25.5l-9.5-11.5Z" fill="transparent"/><path d="M21.4 13.3c0-1-0.9-2.2-1.4-2.7l-7.6-9.2c-0.9-1-2.5-1-3.4 0l-8.3 10c-0.4 .5-0.7 1.2-0.7 1.9v23.5c0 1.3 1 2.3 2.3 2.3l16.8 .2c1.5-0.2 2.3-1 2.3-1.9c0-4.6 0-13.2 0-24.1Zm-19.3 23.6v-23.5c0-0.2 .1-0.5 .2-0.7l8.2-10c.1-0.1 .1-0.1 .2-0.1c.1 0 .1 0 .2 .1l8.3 10c.2 .2 .2 .4 .2 .7v23.5c0 .2-0.1 .3-0.3 .3h-16.7c-0.2 0-0.3-0.1-0.3-0.3Zm8.6-20.2c2.2 0 4.1-1.7 4.1-4c0-2.3-1.9-4-4.1-4c-2.1 0-4 1.8-4 4.1c0 2.3 1.9 3.9 4 3.9Zm0-6c1.1 0 2.1 .9 2.1 2.1c0 1.2-0.9 2.1-2.1 2.1c-1 0-2-0.9-2-2.1c0-1.2 1-2.1 2-2.1Z" fill="#fff" fill-rule="nonzero"/></g></g></svg>