<svg width="18" height="18" viewBox="0 0 18 18" fill="none" xmlns="http://www.w3.org/2000/svg">
<path d="M13.8423 7.35123L10.6484 4.15736" stroke="#7e7e3f" stroke-width="1.5" stroke-linecap="round" stroke-linejoin="round"/>
<path d="M13.8423 7.35123L10.6484 4.15736" stroke="#7e7e3f" stroke-width="1.5" stroke-linecap="round" stroke-linejoin="round"/>
<path d="M13.8423 7.35123L10.6484 4.15736" stroke="#7e7e3f" stroke-width="1.5" stroke-linecap="round" stroke-linejoin="round"/>
<path d="M13.8423 7.35123L10.6484 4.15736" stroke="#7e7e3f" stroke-width="1.5" stroke-linecap="round" stroke-linejoin="round"/>
<path fill-rule="evenodd" clip-rule="evenodd" d="M3.99126 16.8458H1.1543V14.0088C1.1543 13.7776 1.24592 13.5551 1.40998 13.3919L13.0458 1.7552C13.387 1.414 13.9394 1.414 14.2797 1.7552L16.244 3.71952C16.5852 4.06072 16.5852 4.6131 16.244 4.95343L4.60821 16.5901C4.44503 16.7542 4.22251 16.8458 3.99126 16.8458V16.8458Z" stroke="#7e7e3f" stroke-width="1.5" stroke-linecap="round" stroke-linejoin="round"/>
<path fill-rule="evenodd" clip-rule="evenodd" d="M3.99126 16.8458H1.1543V14.0088C1.1543 13.7776 1.24592 13.5551 1.40998 13.3919L13.0458 1.7552C13.387 1.414 13.9394 1.414 14.2797 1.7552L16.244 3.71952C16.5852 4.06072 16.5852 4.6131 16.244 4.95343L4.60821 16.5901C4.44503 16.7542 4.22251 16.8458 3.99126 16.8458V16.8458Z" stroke="#7e7e3f" stroke-width="1.5" stroke-linecap="round" stroke-linejoin="round"/>
<path fill-rule="evenodd" clip-rule="evenodd" d="M3.99126 16.8458H1.1543V14.0088C1.1543 13.7776 1.24592 13.5551 1.40998 13.3919L13.0458 1.7552C13.387 1.414 13.9394 1.414 14.2797 1.7552L16.244 3.71952C16.5852 4.06072 16.5852 4.6131 16.244 4.95343L4.60821 16.5901C4.44503 16.7542 4.22251 16.8458 3.99126 16.8458V16.8458Z" stroke="#7e7e3f" stroke-width="1.5" stroke-linecap="round" stroke-linejoin="round"/>
<path fill-rule="evenodd" clip-rule="evenodd" d="M3.99126 16.8458H1.1543V14.0088C1.1543 13.7776 1.24592 13.5551 1.40998 13.3919L13.0458 1.7552C13.387 1.414 13.9394 1.414 14.2797 1.7552L16.244 3.71952C16.5852 4.06072 16.5852 4.6131 16.244 4.95343L4.60821 16.5901C4.44503 16.7542 4.22251 16.8458 3.99126 16.8458V16.8458Z" stroke="#7e7e3f" stroke-width="1.5" stroke-linecap="round" stroke-linejoin="round"/>
</svg>
