<svg width="18" height="16" viewBox="0 0 18 16" fill="none" xmlns="http://www.w3.org/2000/svg">
<path d="M5.23 9.27902C5.71717 9.27971 6.20387 9.24865 6.687 9.18602V4.11402C6.20389 4.05109 5.71719 4.01969 5.23 4.02002C2.341 4.02002 0 5.08202 0 6.39202V6.90602C0 8.21702 2.341 9.27902 5.23 9.27902Z" fill="#C7CBCF"/>
<path d="M5.23 11.927C5.71717 11.9276 6.20387 11.8966 6.687 11.834V10.347C6.20389 10.4099 5.71719 10.4413 5.23 10.441C2.709 10.441 0.6 9.63199 0.11 8.55499C0.0386111 8.70677 0.00107754 8.87226 0 9.03999L0 9.55399C0 10.865 2.341 11.927 5.23 11.927Z" fill="#C7CBCF"/>
<path d="M6.687 13.111V13C6.20389 13.063 5.71719 13.0944 5.23 13.094C2.709 13.089 0.6 12.28 0.11 11.2C0.0384392 11.3521 0.000900523 11.5179 0 11.686L0 12.2C0 13.51 2.341 14.572 5.23 14.572C5.78324 14.5729 6.33578 14.5325 6.883 14.451C6.75341 14.1938 6.68496 13.9101 6.683 13.622L6.687 13.111Z" fill="#C7CBCF"/>
<path d="M12.7691 0C9.88106 0 7.53906 1.062 7.53906 2.372V2.886C7.53906 4.196 9.88006 5.258 12.7691 5.258C15.6581 5.258 17.9991 4.2 17.9991 2.889V2.375C17.9991 1.065 15.6581 0 12.7691 0Z" fill="#C7CBCF"/>
<path d="M12.7691 6.42299C10.2481 6.42299 8.14406 5.61399 7.64906 4.53699C7.57753 4.68907 7.54 4.85492 7.53906 5.02299V5.53699C7.53906 6.84699 9.88006 7.90899 12.7691 7.90899C15.6581 7.90899 17.9991 6.84799 17.9991 5.53799V5.02299C17.9982 4.85492 17.9606 4.68906 17.8891 4.53699C17.3991 5.61399 15.2901 6.42299 12.7691 6.42299Z" fill="#C7CBCF"/>
<path d="M12.7691 9.072C10.2481 9.072 8.14406 8.263 7.64906 7.186C7.57753 7.33808 7.54 7.50393 7.53906 7.672V8.186C7.53906 9.496 9.88006 10.558 12.7691 10.558C15.6581 10.558 17.9991 9.5 17.9991 8.186V7.671C17.9982 7.50293 17.9606 7.33707 17.8891 7.185C17.3991 8.262 15.2901 9.072 12.7691 9.072Z" fill="#C7CBCF"/>
<path d="M12.7691 11.863C10.2481 11.863 8.14406 11.054 7.64906 9.97699C7.57753 10.1291 7.54 10.2949 7.53906 10.463V10.977C7.53906 12.287 9.88006 13.349 12.7691 13.349C15.6581 13.349 17.9991 12.287 17.9991 10.977V10.463C17.9982 10.2949 17.9606 10.1291 17.8891 9.97699C17.3991 11.054 15.2901 11.863 12.7691 11.863Z" fill="#C7CBCF"/>
<path d="M12.7691 14.511C10.2481 14.511 8.14406 13.702 7.64906 12.625C7.57753 12.7771 7.54 12.9429 7.53906 13.111V13.625C7.53906 14.935 9.88006 15.997 12.7691 15.997C15.6581 15.997 17.9991 14.935 17.9991 13.625V13.111C17.9982 12.9429 17.9606 12.7771 17.8891 12.625C17.3991 13.7 15.2901 14.511 12.7691 14.511Z" fill="#C7CBCF"/>
</svg>
