<svg width="110" height="110" viewBox="0 0 110 110" fill="none" xmlns="http://www.w3.org/2000/svg">
  <circle opacity="0.2" cx="55" cy="55" r="55" fill="#7E7E3F"/>
  <path d="M55.0002 69.6667C68.1933 69.6667 78.8859 58.9975 78.8859 45.8333C78.8859 32.6691 68.1933 22 55.0002 22C41.8071 22 31.1145 32.6691 31.1145 45.8333C31.1145 58.9975 41.8071 69.6667 55.0002 69.6667ZM71.7202 75.625H68.6039C64.4612 77.5242 59.852 78.6042 55.0002 78.6042C50.1484 78.6042 45.5579 77.5242 41.3965 75.625H38.2802C24.4339 75.625 13.2002 86.8341 13.2002 100.65V108.396C13.2002 113.33 17.2122 117.333 22.1573 117.333H87.843C92.7881 117.333 96.8002 113.33 96.8002 108.396V100.65C96.8002 86.8341 85.5664 75.625 71.7202 75.625Z" fill="white"/>
</svg>
