<svg width="15" height="13" viewBox="0 0 15 13" fill="none" xmlns="http://www.w3.org/2000/svg">
<path d="M0.384 13H1.686V7.904H1.7L4.01 13H4.808L7.146 7.918H7.174V13H8.476V6.364H6.6L4.444 11.208H4.43L2.246 6.364H0.384V13ZM14.2753 5.734H11.6853L13.2813 4.166C13.7853 3.676 14.2613 3.158 14.2613 2.36C14.2613 1.212 13.3513 0.638 12.3293 0.638C11.2933 0.638 10.4813 1.38 10.3413 2.402L11.3773 2.542C11.4613 1.968 11.8253 1.59 12.3293 1.59C12.8053 1.59 13.1693 1.884 13.1693 2.36C13.1693 2.808 12.9033 3.144 12.6093 3.452L10.3133 5.762V6.7H14.2753V5.734Z" fill="#95989D"/>
</svg>
