<svg width="8" height="15" viewBox="0 0 8 15" fill="none" xmlns="http://www.w3.org/2000/svg">
<path d="M6.82998 15C6.68059 15.0005 6.53298 14.9676 6.398 14.9035C6.26302 14.8395 6.1441 14.7461 6.04998 14.63L1.21998 8.63003C1.0729 8.4511 0.992493 8.22666 0.992493 7.99503C0.992493 7.76341 1.0729 7.53896 1.21998 7.36003L6.21998 1.36003C6.38972 1.15581 6.63363 1.02739 6.89806 1.00301C7.16248 0.978631 7.42576 1.06029 7.62998 1.23003C7.8342 1.39977 7.96262 1.64368 7.987 1.90811C8.01138 2.17253 7.92972 2.43581 7.75998 2.64003L3.28998 8.00003L7.60998 13.36C7.73226 13.5068 7.80994 13.6856 7.83382 13.8751C7.8577 14.0647 7.82678 14.2571 7.74473 14.4296C7.66267 14.6021 7.53291 14.7475 7.3708 14.8486C7.20869 14.9497 7.02101 15.0023 6.82998 15Z" fill="#525252"/>
</svg>
