<svg width="38" height="32" viewBox="0 0 38 32" fill="none" xmlns="http://www.w3.org/2000/svg">
<path fill-rule="evenodd" clip-rule="evenodd" d="M10.3416 25.9146C11.6002 22.5028 28.5986 12.5858 38 13.253C31.1764 15.2698 25.4597 17.8021 21.5475 21.3958C23.7007 20.1069 25.9146 18.9242 28.3863 18.8939L35.5587 31.9952H24.0495L17.9992 20.2283L10.66 31.9952H0C3.53312 27.5826 7.82442 23.7159 13.0862 20.2737C11.8428 21.9721 10.8268 24.2011 10.3416 25.9146ZM17.984 0L10.1141 14.0112C12.0551 13.0255 14.0567 12.2522 16.0886 11.8579C11.312 13.6927 5.71668 18.818 0.54589 24.1708C6.41421 19.9553 12.6616 16.3919 19.182 13.9354C18.1053 15.1181 16.9832 16.5132 16.0431 18.166C19.0303 16.6041 22.2298 15.1181 25.6265 13.905L17.984 0V0Z" fill="white"/>
</svg>
