<svg width="34" height="34" viewBox="0 0 34 34" fill="none" xmlns="http://www.w3.org/2000/svg">
<g clip-path="url(#clip0)">
<path d="M31.157 19.8832L30.9814 3.66043C30.9646 2.10971 29.6894 0.861747 28.1387 0.878528C26.651 0.894627 25.4428 2.06908 25.3617 3.53373L22.1447 3.56855C21.9812 2.51163 21.0598 1.70518 19.9598 1.71708L13.7101 1.78471C12.6101 1.79661 11.7064 2.62282 11.5657 3.68303L8.34879 3.71784C8.23602 2.25528 7.00265 1.10725 5.51498 1.12335C3.96426 1.14013 2.7163 2.4154 2.73308 3.96612L2.90864 20.1889C1.8217 20.5877 1.04921 21.6382 1.06244 22.8603L1.10301 26.6101C1.11865 28.0552 2.22725 29.2368 3.63311 29.3776L3.66373 32.2077C3.66934 32.7254 4.0936 33.1406 4.61132 33.135L29.7349 32.8631C30.2526 32.8575 30.6678 32.4333 30.6622 31.9155L30.6315 29.0855C32.034 28.9143 33.1168 27.7089 33.1011 26.2638L33.0606 22.514C33.0473 21.2919 32.2523 20.2584 31.157 19.8832ZM27.2316 3.70101C27.2261 3.1841 27.642 2.75901 28.1589 2.75342C28.6759 2.74782 29.1009 3.16381 29.1065 3.68072L29.2803 19.7423L27.4055 19.7626L27.2316 3.70101ZM13.4213 3.97546C13.4194 3.80316 13.5581 3.66146 13.7304 3.6596L19.98 3.59197C20.1523 3.59011 20.294 3.72877 20.2959 3.90107L20.3094 5.151C20.3113 5.3233 20.1726 5.465 20.0003 5.46686L13.7507 5.53449C13.5784 5.53636 13.4367 5.39769 13.4348 5.22539L13.4213 3.97546ZM17.8333 7.36542L17.8515 9.05114L16.9208 9.68624L15.9766 9.07142L15.9584 7.38571L17.8333 7.36542ZM8.37601 5.59265L11.586 5.55792C11.7496 6.61483 12.671 7.42128 13.771 7.40938L14.0835 7.406L14.1071 9.59337C14.1105 9.90685 14.2703 10.1978 14.5331 10.3688L16.001 11.3247L16.0226 13.3229C16.0282 13.8406 16.4525 14.2558 16.9702 14.2502C17.4879 14.2446 17.9031 13.8203 17.8975 13.3026L17.8759 11.3044L19.3228 10.317C19.5817 10.1404 19.7352 9.84592 19.7318 9.5325L19.7081 7.34513L20.0206 7.34175C21.1206 7.32985 22.0244 6.50364 22.165 5.44344L25.375 5.4087L25.5306 19.7829L23.5932 19.8038L23.5627 16.9915C23.5571 16.4738 23.1329 16.0586 22.6152 16.0642L11.3658 16.1859C10.8481 16.1915 10.4329 16.6158 10.4385 17.1335L10.4689 19.9458L8.53156 19.9668L8.37601 5.59265ZM21.698 17.9492L21.7183 19.8241L12.3438 19.9256L12.3236 18.0507L21.698 17.9492ZM4.60797 3.94583C4.60238 3.42892 5.01837 3.00383 5.53527 2.99824C6.05218 2.99265 6.47727 3.40863 6.48286 3.92554L6.65667 19.9871L4.78178 20.0074L4.60797 3.94583ZM28.7771 30.9984L5.52848 31.25L5.50819 29.3751L28.7568 29.1235L28.7771 30.9984ZM31.2263 26.2841C31.2318 26.801 30.8159 27.2261 30.2989 27.2317L3.92549 27.5171C3.40859 27.5227 2.9835 27.1067 2.9779 26.5898L2.93733 22.84C2.93173 22.3231 3.34772 21.898 3.86463 21.8924L30.2381 21.607C30.755 21.6014 31.1801 22.0174 31.1857 22.5343L31.2263 26.2841Z" fill="#181818"/>
<path d="M5.78012 25.6219C6.29786 25.6163 6.71303 25.192 6.70742 24.6743C6.70182 24.1566 6.27757 23.7414 5.75983 23.747C5.2421 23.7526 4.82693 24.1768 4.83253 24.6946C4.83813 25.2123 5.26239 25.6275 5.78012 25.6219Z" fill="#E31E24"/>
<path d="M9.52988 25.5814C10.0476 25.5758 10.4628 25.1515 10.4572 24.6338C10.4516 24.116 10.0273 23.7009 9.50959 23.7065C8.99185 23.7121 8.57669 24.1363 8.58229 24.6541C8.58789 25.1718 9.01214 25.587 9.52988 25.5814Z" fill="#E31E24"/>
<path d="M13.2796 25.5408C13.7974 25.5352 14.2125 25.1109 14.2069 24.5932C14.2013 24.0754 13.7771 23.6603 13.2593 23.6659C12.7416 23.6715 12.3264 24.0957 12.332 24.6135C12.3376 25.1312 12.7619 25.5464 13.2796 25.5408Z" fill="#E31E24"/>
<path d="M28.3801 23.1897L23.3804 23.2438C22.8627 23.2494 22.4475 23.6737 22.4531 24.1914C22.4587 24.7091 22.883 25.1243 23.4007 25.1187L28.4004 25.0646C28.9182 25.059 29.3333 24.6347 29.3277 24.117C29.3221 23.5993 28.8979 23.1841 28.3801 23.1897Z" fill="#E31E24"/>
</g>
<defs>
<clipPath id="clip0">
<rect width="32" height="32" fill="white" transform="translate(0.827759 1.17407) rotate(-0.62)"/>
</clipPath>
</defs>
</svg>
