<svg width="34" height="34" viewBox="0 0 34 34" fill="none" xmlns="http://www.w3.org/2000/svg">
<g clip-path="url(#clip0)">
<path d="M32.8188 25.5488L27.6937 20.5329L27.5754 19.2488L28.9635 18.3821C29.3561 18.137 29.5111 17.642 29.3283 17.2167L28.6824 15.7133L29.7346 14.4601C30.0322 14.1056 30.0267 13.587 29.7215 13.239L28.6422 12.0084L29.2556 10.4913C29.4291 10.0622 29.2634 9.57062 28.8656 9.33404L27.459 8.49759L27.5739 6.86537C27.6064 6.40362 27.2969 5.98726 26.8455 5.88514L25.2495 5.52432L24.8541 3.93607C24.7423 3.48682 24.3184 3.1867 23.8584 3.229L22.2285 3.37914L21.3618 1.99094C21.1166 1.5982 20.6214 1.44348 20.1962 1.62616L18.6929 2.27259L17.4399 1.2204C17.0855 0.922777 16.5667 0.928391 16.2188 1.23361L14.9888 2.31267L13.4718 1.69899C13.0426 1.52543 12.5511 1.69101 12.3144 2.08891L11.4779 3.49554L9.8452 3.3807C9.38345 3.34876 8.96715 3.65759 8.86503 4.10916L8.50409 5.7056L6.91628 6.10086C6.46715 6.21273 6.16677 6.63569 6.20926 7.09663L6.3594 8.72598L4.97127 9.59267C4.57865 9.83781 4.42368 10.3328 4.60642 10.7581L5.25247 12.2616L4.20004 13.5152C3.90249 13.8697 3.90816 14.3883 4.21338 14.7363L5.2925 15.9664L4.6792 17.4835C4.50571 17.9126 4.67135 18.4042 5.06918 18.6408L6.47575 19.4772L6.38522 20.7635L1.36996 25.8891C1.14271 26.1214 1.05188 26.4547 1.12998 26.7701C1.20803 27.0855 1.4439 27.338 1.75318 27.4374L5.58221 28.6677L6.89511 32.4692C7.00119 32.7763 7.25869 33.0066 7.57573 33.0778C7.89277 33.149 8.22404 33.0511 8.45129 32.8188L15.3375 25.7826L16.4949 26.7548C16.8476 27.051 17.3664 27.0485 17.7162 26.7416L18.8523 25.7445L25.8892 32.6301C26.1214 32.8573 26.4547 32.9482 26.7701 32.8701C27.0856 32.792 27.338 32.5561 27.4374 32.2469L28.6678 28.4178L32.4693 27.1049C32.7764 26.9989 33.0067 26.7413 33.0779 26.4243C33.1491 26.1073 33.0511 25.776 32.8188 25.5488ZM8.17248 30.4233L7.20138 27.612C7.10504 27.3331 6.88293 27.1158 6.60206 27.0255L3.77105 26.1159L7.59845 22.2047L8.68536 22.4505L9.08082 24.0387C9.19269 24.488 9.6169 24.7881 10.0765 24.7458L11.7064 24.5957L12.5513 25.9489L8.17248 30.4233ZM21.1407 23.0244L20.4202 24.2359L19.1137 23.7073C18.7854 23.5745 18.4101 23.6381 18.1437 23.8718L17.0845 24.8013L16.0053 23.8949C15.6259 23.5762 15.2041 23.6775 15.0321 23.7515L13.7373 24.3082L12.9908 23.1126C12.8033 22.8122 12.463 22.6432 12.1096 22.6756L10.7059 22.8049L10.3653 21.437C10.2798 21.0933 10.0078 20.8272 9.66238 20.749L8.28788 20.4382L8.3868 19.0324C8.41166 18.6791 8.23519 18.3419 7.93071 18.1609L6.7191 17.4404L7.24736 16.1338C7.38013 15.8055 7.31657 15.4304 7.08292 15.1641L6.15347 14.1046L7.05984 13.0249C7.28748 12.7537 7.34297 12.3774 7.20313 12.052L6.64671 10.7571L7.84245 10.0106C8.14294 9.82293 8.31201 9.48202 8.27957 9.12935L8.15025 7.72604L9.51771 7.3856C9.86136 7.30006 10.1275 7.02811 10.2056 6.68262L10.5165 5.30767L11.9227 5.40653C12.276 5.43164 12.6131 5.25498 12.7942 4.95051L13.5146 3.73902L14.8211 4.2676C15.1494 4.40036 15.5247 4.33686 15.791 4.10328L16.8504 3.17382L17.9297 4.08014C18.201 4.30796 18.5775 4.36327 18.9028 4.22343L20.1976 3.6667L20.9441 4.86231C21.1317 5.16274 21.4721 5.33225 21.8253 5.29936L23.229 5.1701L23.5696 6.538C23.6551 6.88172 23.9271 7.14785 24.2725 7.22593L25.647 7.5367L25.5481 8.94248C25.5232 9.29583 25.6997 9.633 26.0042 9.81403L27.2158 10.5345L26.6875 11.8411C26.5548 12.1694 26.6183 12.5445 26.8518 12.8107L27.7814 13.8706L26.8751 14.95C26.6473 15.2212 26.5918 15.5976 26.7316 15.9229L27.2881 17.2178L26.0923 17.9644C25.7918 18.152 25.6228 18.4929 25.6552 18.8456L25.7845 20.2489L24.4171 20.5894C24.0734 20.675 23.8073 20.9469 23.7292 21.2924L23.4183 22.6673L22.0121 22.5684C21.6588 22.5435 21.3217 22.7199 21.1407 23.0244ZM27.6126 26.7982C27.3336 26.8945 27.1163 27.1165 27.0261 27.3975L26.116 30.2291L21.6416 25.8505L22.457 24.4793L24.0897 24.5941C24.5501 24.6264 24.9677 24.3172 25.0699 23.8656L25.4309 22.2692L26.5122 21.9999L30.4233 25.8274L27.6126 26.7982Z" fill="#181818"/>
<path d="M24.6301 11.2334L21.7593 8.42408C21.3892 8.06194 20.7957 8.06836 20.4335 8.43843L15.9527 13.0173L13.9112 11.0196C13.5412 10.6574 12.9476 10.6639 12.5855 11.0339L9.77612 13.9048C9.41398 14.2749 9.4204 14.8684 9.79047 15.2305L15.3728 20.6934C15.7429 21.0556 16.3366 21.049 16.6986 20.679L24.6445 12.5592C25.0066 12.1891 25.0002 11.5956 24.6301 11.2334ZM16.0142 18.6975L11.7719 14.5461L13.2698 13.0154L15.3113 15.0131C15.6813 15.3752 16.2749 15.3688 16.637 14.9988L21.1179 10.4199L22.6486 11.9178L16.0142 18.6975Z" fill="#E31E24"/>
</g>
<defs>
<clipPath id="clip0">
<rect width="32" height="32" fill="white" transform="translate(0.827881 1.17407) rotate(-0.62)"/>
</clipPath>
</defs>
</svg>
