<svg width="34" height="34" viewBox="0 0 34 34" fill="none" xmlns="http://www.w3.org/2000/svg">
<path d="M31.8886 0.838011L1.76533 1.16399C1.24761 1.16959 0.832423 1.59386 0.838025 2.11158L1.10179 26.4856C1.10739 27.0034 1.53166 27.4186 2.04938 27.413L13.6736 27.2872L13.7256 32.0988C13.7312 32.6165 14.1555 33.0317 14.6732 33.0261L19.6732 32.9719C20.1909 32.9663 20.6061 32.5421 20.6005 32.0244L20.5484 27.2128L32.1726 27.087C32.6903 27.0814 33.1055 26.6571 33.0999 26.1394L32.8362 1.76531C32.8305 1.24759 32.4063 0.832409 31.8886 0.838011ZM18.7155 31.1072L15.5904 31.141L15.5485 27.2669L18.6735 27.2331L18.7155 31.1072ZM31.2149 25.2222L2.96653 25.5279L2.72306 3.02873L7.41066 2.97801L7.43095 4.85321L6.80611 4.85997C6.34789 4.86493 5.96037 5.20046 5.8899 5.65331L5.30545 9.40985C5.26308 9.68214 5.34265 9.95929 5.5231 10.1676C5.70349 10.3759 5.96641 10.4944 6.24196 10.4914L10.6166 10.4441L10.6179 10.4441C11.1356 10.4384 11.5508 10.0142 11.5452 9.49646C11.5444 9.42603 11.5359 9.35749 11.5205 9.29166L10.8639 5.59948C10.7836 5.14826 10.3889 4.8212 9.93068 4.82616L9.30584 4.83292L9.28555 2.95772L15.9099 2.88603L15.9302 4.76124L15.3054 4.768C14.8471 4.77296 14.4596 5.10848 14.3891 5.56133L13.8047 9.31788C13.7623 9.59016 13.8419 9.86732 14.0223 10.0756C14.2027 10.2839 14.4657 10.4024 14.7412 10.3994L19.1158 10.3521L19.1171 10.3521C19.6349 10.3465 20.05 9.92221 20.0444 9.40449C20.0437 9.33405 20.0351 9.26552 20.0197 9.19968L19.3632 5.50751C19.2829 5.05629 18.8882 4.72923 18.43 4.73418L17.8052 4.74095L17.7849 2.86574L24.409 2.79406L24.4293 4.66926L23.8044 4.67603C23.3462 4.68098 22.9587 5.01651 22.8882 5.46936L22.3038 9.2259C22.2614 9.49819 22.341 9.77535 22.5214 9.98366C22.7018 10.192 22.9647 10.3104 23.2403 10.3075L27.6149 10.2601L27.6162 10.2601C28.1339 10.2545 28.5491 9.83023 28.5435 9.31252C28.5427 9.24208 28.5342 9.17355 28.5188 9.10771L27.8622 5.41553C27.782 4.96431 27.3873 4.63725 26.9291 4.64221L26.3042 4.64897L26.2839 2.77377L30.9714 2.72305L31.2149 25.2222ZM7.62054 6.72627L9.15683 6.70964L9.48966 8.58115L7.32829 8.60454L7.62054 6.72627ZM16.1198 6.63429L17.6561 6.61767L17.9889 8.48918L15.8275 8.51257L16.1198 6.63429ZM24.6188 6.54232L26.1551 6.5257L26.4879 8.39721L24.3265 8.42059L24.6188 6.54232Z" fill="#181818"/>
<path d="M21.6433 12.8245C21.1255 12.8301 20.7104 13.2543 20.716 13.772C20.7216 14.2898 21.1458 14.7049 21.6635 14.6993L28.2875 14.6277C28.8053 14.6221 29.2204 14.1978 29.2148 13.6801C29.2092 13.1623 28.785 12.7472 28.2672 12.7528L21.6433 12.8245Z" fill="#E31E24"/>
<path d="M28.3113 16.8149L19.8122 16.9068C19.2945 16.9125 18.8793 17.3367 18.8849 17.8544C18.8905 18.3721 19.3148 18.7873 19.8325 18.7817L28.3316 18.6897C28.8493 18.6841 29.2645 18.2599 29.2589 17.7422C29.2533 17.2245 28.829 16.8093 28.3113 16.8149Z" fill="#181818"/>
<path d="M28.3552 20.8768L19.8561 20.9688C19.3384 20.9744 18.9232 21.3987 18.9288 21.9164C18.9344 22.4341 19.3587 22.8493 19.8764 22.8437L28.3755 22.7517C28.8932 22.7461 29.3084 22.3218 29.3028 21.8041C29.2972 21.2864 28.8729 20.8712 28.3552 20.8768Z" fill="#181818"/>
<path d="M16.0114 12.2603L5.63691 12.3725C5.11919 12.3781 4.704 12.8024 4.70961 13.3201L4.81105 22.6944C4.81665 23.2121 5.24092 23.6273 5.75864 23.6217L16.1331 23.5094C16.6508 23.5038 17.066 23.0796 17.0604 22.5618L16.959 13.1876C16.9533 12.6698 16.5291 12.2547 16.0114 12.2603ZM15.1754 21.6447L6.6758 21.7367L6.59464 14.2373L15.0942 14.1453L15.1754 21.6447Z" fill="#E31E24"/>
</svg>
