<svg width="34" height="34" viewBox="0 0 34 34" fill="none" xmlns="http://www.w3.org/2000/svg">
<g clip-path="url(#clip0)">
<path d="M31.9427 5.78112L23.9377 5.86711L23.9174 3.9771L26.745 3.94672C27.2629 3.94116 27.6782 3.51683 27.6726 2.99899C27.6671 2.48115 27.2427 2.06584 26.7249 2.0714L22.9596 2.11185C22.4417 2.11741 22.0264 2.54174 22.032 3.05958L22.0624 5.88725L15.9363 5.95305L15.916 4.06304L18.7437 4.03267C19.2615 4.02711 19.6768 3.60278 19.6713 3.08494C19.6657 2.5671 19.2414 2.15179 18.7235 2.15735L14.9582 2.1978C14.4404 2.20336 14.0251 2.62769 14.0306 3.14553L14.061 5.9732L7.93495 6.039L7.91464 4.14899L10.7423 4.11862C11.2602 4.11305 11.6755 3.68872 11.6699 3.17088C11.6643 2.65305 11.24 2.23773 10.7222 2.2433L6.95684 2.28374C6.439 2.2893 6.02369 2.71364 6.02925 3.23147L6.05963 6.05914L1.8199 6.10468C1.30206 6.11025 0.886752 6.53458 0.892314 7.05242L1.0541 22.1138C1.05966 22.6316 1.48399 23.047 2.00183 23.0414L14.2429 22.9099L14.3188 29.9773L10.5498 30.0178C10.032 30.0233 9.61666 30.4477 9.62222 30.9655C9.62779 31.4834 10.0521 31.8987 10.57 31.8931L23.7486 31.7515C24.2665 31.746 24.6818 31.3216 24.6762 30.8038C24.6707 30.286 24.2463 29.8707 23.7285 29.8762L19.9595 29.9167L19.8836 22.8493L32.1247 22.7178C32.6425 22.7123 33.0578 22.2879 33.0522 21.7701L32.8905 6.70871C32.8849 6.19087 32.4606 5.77556 31.9427 5.78112ZM18.0842 29.9369L16.1942 29.9572L16.1182 22.8898L18.0082 22.8695L18.0842 29.9369ZM31.1669 20.8526C30.2172 20.8628 3.86982 21.1458 2.91934 21.156L2.77771 7.96993L31.0252 7.66651L31.1669 20.8526Z" fill="#181818"/>
<path d="M17.8768 10.6357C17.8823 11.1536 18.3067 11.5689 18.8245 11.5633L28.2379 11.4622C28.7557 11.4566 29.171 11.0323 29.1655 10.5145C29.1599 9.99662 28.7356 9.58131 28.2177 9.58687L18.8044 9.68799C18.2865 9.69355 17.8712 10.1179 17.8768 10.6357Z" fill="#181818"/>
<path d="M28.2583 13.3523L18.8449 13.4534C18.327 13.4589 17.9117 13.8833 17.9173 14.4011L17.9577 18.1664C17.9633 18.6843 18.3876 19.0996 18.9055 19.094L28.3188 18.9929C28.8367 18.9873 29.252 18.563 29.2464 18.0452L29.206 14.2798C29.2004 13.762 28.7762 13.3467 28.2583 13.3523ZM27.361 17.1277L19.823 17.2086L19.8027 15.3186L27.3407 15.2376L27.361 17.1277Z" fill="#E31E24"/>
<path d="M15.1199 17.2592L5.70646 17.3603C5.18862 17.3659 4.77331 17.7902 4.77887 18.308C4.78443 18.8259 5.20876 19.2412 5.7266 19.2356L15.14 19.1345C15.6578 19.1289 16.0731 18.7046 16.0675 18.1868C16.062 17.6689 15.6377 17.2536 15.1199 17.2592Z" fill="#181818"/>
<path d="M15.0796 13.4939L5.66618 13.595C5.14834 13.6005 4.73303 14.0249 4.73859 14.5427C4.74415 15.0605 5.16848 15.4759 5.68632 15.4703L15.0997 15.3692C15.6175 15.3636 16.0328 14.9393 16.0273 14.4214C16.0217 13.9036 15.5974 13.4883 15.0796 13.4939Z" fill="#181818"/>
<path d="M15.0391 9.72841L5.62565 9.82953C5.10781 9.83509 4.6925 10.2594 4.69806 10.7773C4.70362 11.2951 5.12795 11.7104 5.64579 11.7049L15.0591 11.6037C15.577 11.5982 15.9923 11.1738 15.9867 10.656C15.9812 10.1382 15.5569 9.72285 15.0391 9.72841Z" fill="#E31E24"/>
</g>
<defs>
<clipPath id="clip0">
<rect width="32" height="32" fill="white" transform="translate(0.829102 1.17279) rotate(-0.615418)"/>
</clipPath>
</defs>
</svg>
