<svg width="34" height="34" viewBox="0 0 34 34" fill="none" xmlns="http://www.w3.org/2000/svg">
<g clip-path="url(#clip0)">
<path d="M32.8186 25.5488L27.6935 20.5329L27.5751 19.2488L28.9633 18.3821C29.3559 18.137 29.5108 17.642 29.3281 17.2167L28.6821 15.7133L29.7344 14.4601C30.032 14.1056 30.0264 13.587 29.7213 13.239L28.642 12.0084L29.2553 10.4913C29.4288 10.0622 29.2632 9.57062 28.8653 9.33404L27.4588 8.49759L27.5736 6.86537C27.6061 6.40362 27.2967 5.98726 26.8452 5.88514L25.2492 5.52432L24.8538 3.93607C24.742 3.48682 24.3182 3.1867 23.8581 3.229L22.2283 3.37914L21.3615 1.99094C21.1164 1.5982 20.6211 1.44348 20.196 1.62616L18.6927 2.27259L17.4397 1.2204C17.0853 0.922777 16.5665 0.928391 16.2186 1.23361L14.9886 2.31267L13.4715 1.69899C13.0423 1.52543 12.5508 1.69101 12.3142 2.08891L11.4777 3.49554L9.84496 3.3807C9.38321 3.34876 8.9669 3.65759 8.86478 4.10916L8.50385 5.7056L6.91604 6.10086C6.46691 6.21273 6.16653 6.63569 6.20902 7.09663L6.35916 8.72598L4.97102 9.59267C4.5784 9.83781 4.42344 10.3328 4.60617 10.7581L5.25223 12.2616L4.1998 13.5152C3.90224 13.8697 3.90792 14.3883 4.21314 14.7363L5.29226 15.9664L4.67895 17.4835C4.50546 17.9126 4.6711 18.4042 5.06893 18.6408L6.4755 19.4772L6.38498 20.7635L1.36972 25.8891C1.14247 26.1214 1.05163 26.4547 1.12974 26.7701C1.20778 27.0855 1.44365 27.338 1.75293 27.4374L5.58196 28.6677L6.89486 32.4692C7.00094 32.7763 7.25845 33.0066 7.57549 33.0778C7.89253 33.149 8.2238 33.0511 8.45105 32.8188L15.3372 25.7826L16.4946 26.7548C16.8474 27.051 17.3662 27.0485 17.716 26.7416L18.8521 25.7445L25.8889 32.6301C26.1212 32.8573 26.4545 32.9482 26.7699 32.8701C27.0853 32.792 27.3378 32.5561 27.4372 32.2469L28.6675 28.4178L32.469 27.1049C32.7761 26.9989 33.0064 26.7413 33.0776 26.4243C33.1488 26.1073 33.0508 25.776 32.8186 25.5488ZM8.17223 30.4233L7.20113 27.612C7.1048 27.3331 6.88268 27.1158 6.60182 27.0255L3.77081 26.1159L7.59821 22.2047L8.68512 22.4505L9.08057 24.0387C9.19244 24.488 9.61665 24.7881 10.0763 24.7458L11.7061 24.5957L12.551 25.9489L8.17223 30.4233ZM21.1404 23.0244L20.42 24.2359L19.1134 23.7073C18.7852 23.5745 18.4098 23.6381 18.1435 23.8718L17.0842 24.8013L16.0051 23.8949C15.6257 23.5762 15.2039 23.6775 15.0318 23.7515L13.737 24.3082L12.9905 23.1126C12.803 22.8122 12.4628 22.6432 12.1094 22.6756L10.7056 22.8049L10.3651 21.437C10.2795 21.0933 10.0076 20.8272 9.66214 20.749L8.28763 20.4382L8.38655 19.0324C8.41142 18.6791 8.23494 18.3419 7.93047 18.1609L6.71885 17.4404L7.24712 16.1338C7.37989 15.8055 7.31632 15.4304 7.08268 15.1641L6.15323 14.1046L7.05959 13.0249C7.28723 12.7537 7.34273 12.3774 7.20289 12.052L6.64647 10.7571L7.84221 10.0106C8.14269 9.82293 8.31177 9.48202 8.27932 9.12935L8.15 7.72604L9.51746 7.3856C9.86112 7.30006 10.1273 7.02811 10.2053 6.68262L10.5162 5.30767L11.9224 5.40653C12.2758 5.43164 12.6129 5.25498 12.7939 4.95051L13.5144 3.73902L14.8209 4.2676C15.1491 4.40036 15.5244 4.33686 15.7907 4.10328L16.8502 3.17382L17.9294 4.08014C18.2008 4.30796 18.5772 4.36327 18.9026 4.22343L20.1974 3.6667L20.9439 4.86231C21.1314 5.16274 21.4719 5.33225 21.825 5.29936L23.2288 5.1701L23.5693 6.538C23.6549 6.88172 23.9268 7.14785 24.2723 7.22593L25.6468 7.5367L25.5479 8.94248C25.523 9.29583 25.6995 9.633 26.0039 9.81403L27.2155 10.5345L26.6873 11.8411C26.5545 12.1694 26.6181 12.5445 26.8516 12.8107L27.7811 13.8706L26.8748 14.95C26.647 15.2212 26.5915 15.5976 26.7314 15.9229L27.2878 17.2178L26.0921 17.9644C25.7916 18.152 25.6225 18.4929 25.655 18.8456L25.7843 20.2489L24.4168 20.5894C24.0732 20.675 23.807 20.9469 23.7289 21.2924L23.4181 22.6673L22.0118 22.5684C21.6586 22.5435 21.3214 22.7199 21.1404 23.0244ZM27.6123 26.7982C27.3334 26.8945 27.1161 27.1165 27.0258 27.3975L26.1158 30.2291L21.6413 25.8505L22.4567 24.4793L24.0894 24.5941C24.5498 24.6264 24.9675 24.3172 25.0696 23.8656L25.4306 22.2692L26.5119 21.9999L30.4231 25.8274L27.6123 26.7982Z" fill="white"/>
<path d="M24.6298 11.2334L21.759 8.42408C21.389 8.06194 20.7954 8.06836 20.4333 8.43843L15.9524 13.0173L13.911 11.0196C13.541 10.6574 12.9474 10.6639 12.5852 11.0339L9.77588 13.9048C9.41374 14.2749 9.42016 14.8684 9.79022 15.2305L15.3726 20.6934C15.7427 21.0556 16.3363 21.049 16.6983 20.679L24.6442 12.5592C25.0064 12.1891 24.9999 11.5956 24.6298 11.2334ZM16.0139 18.6975L11.7716 14.5461L13.2696 13.0154L15.3111 15.0131C15.6811 15.3752 16.2747 15.3688 16.6368 14.9988L21.1176 10.4199L22.6484 11.9178L16.0139 18.6975Z" fill="#E31E24"/>
</g>
<defs>
<clipPath id="clip0">
<rect width="32" height="32" fill="white" transform="translate(0.827637 1.17407) rotate(-0.62)"/>
</clipPath>
</defs>
</svg>
