<svg width="34" height="34" viewBox="0 0 34 34" fill="none" xmlns="http://www.w3.org/2000/svg">
<g clip-path="url(#clip0)">
<path d="M31.1569 19.8832L30.9813 3.66043C30.9645 2.10971 29.6893 0.861747 28.1385 0.878528C26.6509 0.894627 25.4426 2.06908 25.3615 3.53373L22.1446 3.56855C21.981 2.51163 21.0596 1.70518 19.9596 1.71708L13.71 1.78471C12.61 1.79661 11.7063 2.62282 11.5656 3.68303L8.34867 3.71784C8.2359 2.25528 7.00253 1.10725 5.51486 1.12335C3.96414 1.14013 2.71618 2.4154 2.73296 3.96612L2.90852 20.1889C1.82158 20.5877 1.04909 21.6382 1.06231 22.8603L1.10289 26.6101C1.11853 28.0552 2.22713 29.2368 3.63299 29.3776L3.66361 32.2077C3.66921 32.7254 4.09348 33.1406 4.6112 33.135L29.7347 32.8631C30.2525 32.8575 30.6676 32.4333 30.662 31.9155L30.6314 29.0855C32.0339 28.9143 33.1167 27.7089 33.101 26.2638L33.0604 22.514C33.0472 21.2919 32.2522 20.2584 31.1569 19.8832ZM27.2315 3.70101C27.2259 3.1841 27.6419 2.75901 28.1588 2.75342C28.6757 2.74782 29.1008 3.16381 29.1064 3.68072L29.2802 19.7423L27.4053 19.7626L27.2315 3.70101ZM13.4212 3.97546C13.4193 3.80316 13.558 3.66146 13.7303 3.6596L19.9799 3.59197C20.1522 3.59011 20.2939 3.72877 20.2958 3.90107L20.3093 5.151C20.3112 5.3233 20.1725 5.465 20.0002 5.46686L13.7506 5.53449C13.5783 5.53636 13.4366 5.39769 13.4347 5.22539L13.4212 3.97546ZM17.8331 7.36542L17.8514 9.05114L16.9207 9.68624L15.9765 9.07142L15.9582 7.38571L17.8331 7.36542ZM8.37589 5.59265L11.5859 5.55792C11.7495 6.61483 12.6709 7.42128 13.7709 7.40938L14.0833 7.406L14.107 9.59337C14.1104 9.90685 14.2702 10.1978 14.5329 10.3688L16.0009 11.3247L16.0225 13.3229C16.0281 13.8406 16.4524 14.2558 16.9701 14.2502C17.4878 14.2446 17.903 13.8203 17.8974 13.3026L17.8758 11.3044L19.3227 10.317C19.5816 10.1404 19.7351 9.84592 19.7317 9.5325L19.708 7.34513L20.0205 7.34175C21.1205 7.32985 22.0242 6.50364 22.1649 5.44344L25.3749 5.4087L25.5304 19.7829L23.5931 19.8038L23.5626 16.9915C23.557 16.4738 23.1328 16.0586 22.615 16.0642L11.3657 16.1859C10.848 16.1915 10.4328 16.6158 10.4384 17.1335L10.4688 19.9458L8.53144 19.9668L8.37589 5.59265ZM21.6979 17.9492L21.7182 19.8241L12.3437 19.9256L12.3234 18.0507L21.6979 17.9492ZM4.60785 3.94583C4.60226 3.42892 5.01824 3.00383 5.53515 2.99824C6.05206 2.99265 6.47715 3.40863 6.48274 3.92554L6.65655 19.9871L4.78166 20.0074L4.60785 3.94583ZM28.777 30.9984L5.52836 31.25L5.50807 29.3751L28.7567 29.1235L28.777 30.9984ZM31.2261 26.2841C31.2317 26.801 30.8157 27.2261 30.2988 27.2317L3.92537 27.5171C3.40846 27.5227 2.98338 27.1067 2.97778 26.5898L2.9372 22.84C2.93161 22.3231 3.3476 21.898 3.8645 21.8924L30.238 21.607C30.7549 21.6014 31.18 22.0174 31.1856 22.5343L31.2261 26.2841Z" fill="white"/>
<path d="M5.78 25.6219C6.29774 25.6163 6.7129 25.1921 6.7073 24.6743C6.7017 24.1566 6.27745 23.7414 5.75971 23.747C5.24197 23.7526 4.82681 24.1769 4.83241 24.6946C4.83801 25.2124 5.26226 25.6275 5.78 25.6219Z" fill="#E31E24"/>
<path d="M9.52951 25.5813C10.0472 25.5757 10.4624 25.1515 10.4568 24.6338C10.4512 24.116 10.027 23.7009 9.50922 23.7065C8.99149 23.7121 8.57632 24.1363 8.58192 24.654C8.58752 25.1718 9.01177 25.5869 9.52951 25.5813Z" fill="#E31E24"/>
<path d="M13.2795 25.5408C13.7972 25.5352 14.2124 25.1109 14.2068 24.5932C14.2012 24.0754 13.777 23.6603 13.2592 23.6659C12.7415 23.6715 12.3263 24.0957 12.3319 24.6135C12.3375 25.1312 12.7618 25.5464 13.2795 25.5408Z" fill="#E31E24"/>
<path d="M28.38 23.1897L23.3803 23.2438C22.8626 23.2494 22.4474 23.6737 22.453 24.1914C22.4586 24.7091 22.8829 25.1243 23.4006 25.1187L28.4003 25.0646C28.918 25.059 29.3332 24.6347 29.3276 24.117C29.322 23.5993 28.8977 23.1841 28.38 23.1897Z" fill="#E31E24"/>
</g>
<defs>
<clipPath id="clip0">
<rect width="32" height="32" fill="white" transform="translate(0.827637 1.17407) rotate(-0.62)"/>
</clipPath>
</defs>
</svg>
