<svg xmlns="http://www.w3.org/2000/svg" width="100%" height="100%" viewBox="0 0 510 210" clip-rule="evenodd" fill-rule="evenodd" stroke-linejoin="round" stroke-miterlimit="2"><defs><radialGradient id="Gradient-0" cx="0" cy="0" r="14.1" fx="0" fy="0" gradientUnits="userSpaceOnUse"><stop offset="0" stop-color="#e31e24"/><stop offset=".6" stop-color="#ff0003"/><stop offset="1" stop-color="#fff" stop-opacity="0"/></radialGradient></defs><style>
@keyframes a0_o { 0% { opacity: 1; } 32.743% { opacity: 1; animation-timing-function: steps(1, start); } 100% { opacity: 0; } }
@keyframes a1_o { 0% { opacity: 0; animation-timing-function: steps(1); } 32.743% { opacity: 1; } 65.585% { opacity: 1; animation-timing-function: steps(1, start); } 100% { opacity: 0; } }
@keyframes a2_o { 0% { opacity: 0; animation-timing-function: steps(1); } 65.585% { opacity: 1; } 98.328% { opacity: 1; animation-timing-function: steps(1, start); } 100% { opacity: 0; } }
</style><g transform="translate(345.1,42.1)" style="animation: 1.02s linear infinite both a0_o;"><ellipse rx="14.1" ry="14.1" fill="url(#Gradient-0)" transform="translate(14.1,14.1)"/><ellipse rx="14.1" ry="14.1" fill="url(#Gradient-0)" transform="translate(93.8,35.9)"/></g><g opacity="0" transform="translate(345.1,42.1)" style="animation: 1.02s linear infinite both a1_o;"><ellipse rx="14.1" ry="14.1" fill="url(#Gradient-0)" transform="translate(45.1,14.1)"/><ellipse rx="14.1" ry="14.1" fill="url(#Gradient-0)" transform="translate(74.2,61.7)"/></g><g opacity="0" transform="translate(345.1,42.1)" style="animation: 1.02s linear infinite both a2_o;"><ellipse rx="14.1" ry="14.1" fill="url(#Gradient-0)" transform="translate(74.1,14.1)"/><ellipse rx="14.1" ry="14.1" fill="url(#Gradient-0)" transform="translate(45.1,62.7)"/></g><path d="M407.1 202.9h-304.2c-53.9 0-97.9-44-97.9-97.9c0-53.8 44-97.8 97.9-97.8h304.2c53.9 0 97.9 44 97.9 97.8c0 53.9-44 97.9-97.9 97.9Zm-278.4-34.2h-9.4c-40.5 0-71.6-27.7-71.6-63.7c0-35.9 31.1-63.6 71.6-63.6h9.4v30.6h-7c-22.7 0-40.1 14.4-40.1 33c0 18.6 17.4 33.1 40.1 33.1h7v30.6Zm266.9-69.4c-1.4-1.4-3.3-2.3-5.5-2.3c-2.1 0-4.1 .9-5.5 2.3c-1.4 1.4-2.3 3.4-2.3 5.5c0 2.1 .9 4.1 2.3 5.5c1.4 1.4 3.4 2.3 5.5 2.3c2.2 0 4.1-0.9 5.5-2.3c1.4-1.4 2.3-3.4 2.3-5.5c0-2.1-0.9-4.1-2.3-5.5Zm29.2-48.6c-1.4-1.4-3.4-2.3-5.5-2.3c-2.2 0-4.1 .9-5.5 2.3c-1.4 1.4-2.3 3.3-2.3 5.5c0 2.1 .9 4.1 2.3 5.5c1.4 1.4 3.3 2.2 5.5 2.2c2.1 0 4.1-0.8 5.5-2.2c1.4-1.4 2.2-3.4 2.2-5.5c0-2.2-0.8-4.1-2.2-5.5Zm-29.2 0c-1.4-1.4-3.3-2.3-5.5-2.3c-2.1 0-4.1 .9-5.5 2.3c-1.4 1.4-2.3 3.3-2.3 5.5c0 2.1 .9 4.1 2.3 5.5c1.4 1.4 3.4 2.2 5.5 2.2c2.2 0 4.1-0.8 5.5-2.2c1.4-1.4 2.3-3.4 2.3-5.5c0-2.2-0.9-4.1-2.3-5.5Zm-31 0c-1.4-1.4-3.3-2.3-5.5-2.3c-2.1 0-4.1 .9-5.5 2.3c-1.4 1.4-2.2 3.3-2.2 5.5c0 2.1 .8 4.1 2.2 5.5c1.4 1.4 3.4 2.2 5.5 2.2c2.2 0 4.1-0.8 5.5-2.2c1.4-1.4 2.3-3.4 2.3-5.5c0-2.2-0.9-4.1-2.3-5.5Zm79.5 21.8c-1.4-1.4-3.3-2.3-5.4-2.3c-2.2 0-4.2 .9-5.6 2.3c-1.3 1.4-2.2 3.3-2.2 5.5c0 2.1 .9 4.1 2.2 5.5c1.4 1.4 3.4 2.2 5.6 2.2c2.1 0 4-0.8 5.4-2.2c1.4-1.4 2.3-3.4 2.3-5.5c0-2.2-0.9-4.1-2.3-5.5Zm-19.3 25.8c-1.4-1.4-3.4-2.3-5.5-2.3c-2.2 0-4.1 .9-5.5 2.3c-1.4 1.4-2.3 3.3-2.3 5.5c0 2.1 .9 4.1 2.3 5.5c1.4 1.4 3.3 2.2 5.5 2.2c2.1 0 4.1-0.8 5.5-2.2c1.4-1.4 2.2-3.4 2.2-5.5c0-2.2-0.8-4.1-2.2-5.5Zm-233.4 70.4c-34.1 0-43.7-16.7-43.7-48.4v-78.9h33.8l-0.1 78.9c0 14.3 3.6 17.8 17.7 17.8h9.6v-96.7h33.9v96.7h17.7v30.6h-68.9Zm158.9-79v30.6h-39v48.4h-33.9v-127.3h33.9v48.3h39Zm17.6 0h44.3c4.9 0 8.5-3.9 8.5-8.9c0-5-3.6-8.8-8.5-8.8h-82.4v-30.6h89.1c19.8 0 36.1 15.6 36 39c-0.1 23.4-16.3 39.9-35.8 39.9h-17.4v48.4h-33.8v-79Z" fill="#e31e24"/></svg>