<svg width="33" height="33" viewBox="0 0 33 33" fill="none" xmlns="http://www.w3.org/2000/svg">
<g clip-path="url(#clip0)">
<path d="M31.4427 4.95208L23.4376 5.03807L23.4173 3.14806L26.245 3.11768C26.7628 3.11212 27.1781 2.68779 27.1726 2.16995C27.167 1.65211 26.7427 1.2368 26.2248 1.24236L22.4595 1.28281C21.9417 1.28837 21.5264 1.7127 21.5319 2.23054L21.5623 5.05821L15.4362 5.12401L15.4159 3.234L18.2436 3.20363C18.7615 3.19807 19.1768 2.77374 19.1712 2.2559C19.1656 1.73806 18.7413 1.32275 18.2235 1.32831L14.4581 1.36875C13.9403 1.37432 13.525 1.79865 13.5306 2.31649L13.5609 5.14416L7.43488 5.20996L7.41458 3.31995L10.2423 3.28958C10.7601 3.28401 11.1754 2.85968 11.1698 2.34184C11.1643 1.82401 10.7399 1.40869 10.2221 1.41426L6.45678 1.4547C5.93894 1.46026 5.52363 1.88459 5.52919 2.40243L5.55956 5.2301L1.31984 5.27564C0.802003 5.28121 0.386691 5.70554 0.392253 6.22338L0.554035 21.2848C0.559597 21.8026 0.983928 22.2179 1.50177 22.2123L13.7429 22.0809L13.8188 29.1483L10.0498 29.1887C9.53191 29.1943 9.1166 29.6186 9.12216 30.1365C9.12773 30.6543 9.55206 31.0696 10.0699 31.0641L23.2486 30.9225C23.7664 30.9169 24.1817 30.4926 24.1762 29.9748C24.1706 29.4569 23.7463 29.0416 23.2284 29.0472L19.4594 29.0877L19.3835 22.0203L31.6246 21.8888C32.1424 21.8832 32.5577 21.4589 32.5522 20.9411L32.3904 5.87967C32.3848 5.36183 31.9605 4.94652 31.4427 4.95208ZM17.5841 29.1078L15.6941 29.1281L15.6182 22.0607L17.5082 22.0404L17.5841 29.1078ZM30.6668 20.0235C29.7171 20.0337 3.36976 20.3167 2.41928 20.327L2.27764 7.14089L30.5252 6.83747L30.6668 20.0235Z" fill="#181818"/>
<path d="M17.3768 9.80668C17.3823 10.3245 17.8067 10.7398 18.3245 10.7343L27.7379 10.6332C28.2557 10.6276 28.671 10.2033 28.6655 9.68542C28.6599 9.16758 28.2356 8.75227 27.7177 8.75783L18.3044 8.85895C17.7865 8.86451 17.3712 9.28884 17.3768 9.80668Z" fill="#181818"/>
<path d="M27.7581 12.5232L18.3448 12.6243C17.8269 12.6299 17.4116 13.0542 17.4172 13.5721L17.4576 17.3374C17.4632 17.8552 17.8875 18.2705 18.4054 18.265L27.8187 18.1639C28.3366 18.1583 28.7519 17.734 28.7463 17.2161L28.7059 13.4508C28.7003 12.933 28.276 12.5177 27.7581 12.5232ZM26.8609 16.2986L19.3229 16.3796L19.3026 14.4896L26.8406 14.4086L26.8609 16.2986Z" fill="#181818"/>
<path d="M14.6199 16.4302L5.20652 16.5313C4.68868 16.5369 4.27337 16.9612 4.27893 17.479C4.28449 17.9969 4.70883 18.4122 5.22666 18.4066L14.64 18.3055C15.1579 18.2999 15.5732 17.8756 15.5676 17.3578C15.562 16.8399 15.1378 16.4246 14.6199 16.4302Z" fill="#181818"/>
<path d="M14.5795 12.6648L5.16605 12.7659C4.64822 12.7715 4.2329 13.1958 4.23847 13.7137C4.24403 14.2315 4.66836 14.6468 5.1862 14.6413L14.5996 14.5401C15.1174 14.5346 15.5327 14.1102 15.5271 13.5924C15.5216 13.0746 15.0973 12.6593 14.5795 12.6648Z" fill="#181818"/>
<path d="M14.539 8.89943L5.12559 9.00055C4.60775 9.00611 4.19244 9.43044 4.198 9.94828C4.20356 10.4661 4.62789 10.8814 5.14573 10.8759L14.5591 10.7748C15.0769 10.7692 15.4922 10.3449 15.4867 9.82702C15.4811 9.30919 15.0568 8.89387 14.539 8.89943Z" fill="#181818"/>
</g>
<defs>
<clipPath id="clip0">
<rect width="32" height="32" fill="white" transform="translate(0.329102 0.34375) rotate(-0.615418)"/>
</clipPath>
</defs>
</svg>
