<svg width="32" height="32" viewBox="0 0 32 32" fill="none" xmlns="http://www.w3.org/2000/svg">
<g clip-path="url(#clip0)">
<path d="M23.8286 0H8.05718C7.37149 0 6.91431 0.457125 6.91431 1.14287V22.9715C6.91431 23.6572 7.37143 24.1144 8.05718 24.1144H12.8572V29.7144H12.0572C11.3716 29.7144 10.9144 30.1715 10.9144 30.8573C10.9144 31.5429 11.3715 32.0001 12.0572 32.0001H14H18H19.9429C20.6286 32.0001 21.0857 31.543 21.0857 30.8573C21.0857 30.1716 20.6286 29.7144 19.9429 29.7144H19.1429V24.1144H23.9429C24.6286 24.1144 25.0857 23.6572 25.0857 22.9715V1.14287C24.9714 0.457125 24.5143 0 23.8286 0ZM16.7429 29.7143H15.0286V24.1143H16.7429V29.7143ZM22.6857 21.8286H17.8857H13.8857H9.08581V2.28569H22.6858L22.6857 21.8286Z" fill="#E31E24"/>
</g>
<defs>
<clipPath id="clip0">
<rect width="32" height="32" fill="white"/>
</clipPath>
</defs>
</svg>
