<svg width="32" height="32" viewBox="0 0 32 32" fill="none" xmlns="http://www.w3.org/2000/svg">
<path d="M7 6C3.14 6 0 9.14 0 13C0 16.592 5.616 22.954 6.256 23.668C6.446 23.878 6.716 24 7 24C7.284 24 7.554 23.878 7.744 23.668C8.384 22.954 14 16.592 14 13C14 9.14 10.86 6 7 6ZM7 21.474C4.816 18.884 2 14.908 2 13C2 10.244 4.244 8 7 8C9.756 8 12 10.244 12 13C12 14.906 9.184 18.884 7 21.474Z" fill="#181818"/>
<path d="M7 10C5.346 10 4 11.346 4 13C4 14.654 5.346 16 7 16C8.654 16 10 14.654 10 13C10 11.346 8.654 10 7 10ZM7 14C6.448 14 6 13.552 6 13C6 12.448 6.448 12 7 12C7.552 12 8 12.448 8 13C8 13.552 7.552 14 7 14Z" fill="#181818"/>
<path d="M31 0H23C22.448 0 22 0.448 22 1V7V11C22 11.552 22.448 12 23 12C23.552 12 24 11.552 24 11V8H31C31.552 8 32 7.552 32 7V1C32 0.448 31.552 0 31 0ZM30 6H24V2H30V6Z" fill="#181818"/>
<path d="M28 22H18C16.898 22 16 21.102 16 20C16 18.898 16.898 18 18 18H20.184C20.598 19.162 21.698 20 23 20C24.654 20 26 18.654 26 17C26 15.346 24.654 14 23 14C21.698 14 20.598 14.838 20.184 16H18C15.794 16 14 17.794 14 20C14 22.206 15.794 24 18 24H28C29.102 24 30 24.898 30 26C30 27.102 29.102 28 28 28H9.816C9.402 26.838 8.302 26 7 26C5.346 26 4 27.346 4 29C4 30.654 5.346 32 7 32C8.302 32 9.402 31.162 9.816 30H28C30.206 30 32 28.206 32 26C32 23.794 30.206 22 28 22ZM23 16C23.552 16 24 16.448 24 17C24 17.552 23.552 18 23 18C22.448 18 22 17.552 22 17C22 16.448 22.448 16 23 16ZM7 30C6.448 30 6 29.552 6 29C6 28.448 6.448 28 7 28C7.552 28 8 28.448 8 29C8 29.552 7.552 30 7 30Z" fill="#181818"/>
</svg>
