<svg width="32" height="32" viewBox="0 0 32 32" fill="none" xmlns="http://www.w3.org/2000/svg">
<g clip-path="url(#clip0)">
<path d="M29.6667 6H2.33333C1.04667 6 0 4.95333 0 3.66667V2.33333C0 1.04667 1.04667 0 2.33333 0H29.6667C30.9533 0 32 1.04667 32 2.33333V3.66667C32 4.95333 30.9533 6 29.6667 6ZM2.33333 2C2.14933 2 2 2.14933 2 2.33333V3.66667C2 3.85067 2.14933 4 2.33333 4H29.6667C29.8507 4 30 3.85067 30 3.66667V2.33333C30 2.14933 29.8507 2 29.6667 2H2.33333Z" fill="#181818"/>
<path d="M29.6667 24H2.33337C1.78137 24 1.33337 23.552 1.33337 23C1.33337 22.448 1.78137 22 2.33337 22H29.6667C30.2187 22 30.6667 22.448 30.6667 23C30.6667 23.552 30.2187 24 29.6667 24Z" fill="#181818"/>
<path d="M16 31.9999C15.448 31.9999 15 31.5519 15 30.9999V23.3333C15 22.7813 15.448 22.3333 16 22.3333C16.552 22.3333 17 22.7813 17 23.3333V30.9999C17 31.5519 16.552 31.9999 16 31.9999Z" fill="#181818"/>
<path d="M21.6666 32C21.3613 32 21.0573 31.86 20.8613 31.5947L15.9999 25.016L11.1373 31.5947C10.8093 32.04 10.1839 32.132 9.7386 31.804C9.2946 31.476 9.20127 30.8494 9.52927 30.4054L15.1959 22.7387C15.5719 22.228 16.4279 22.228 16.8039 22.7387L22.4706 30.4054C22.7986 30.8494 22.7053 31.476 22.2613 31.804C22.0826 31.936 21.8733 32 21.6666 32Z" fill="#181818"/>
<path d="M28.3333 24C27.7813 24 27.3333 23.552 27.3333 23V5C27.3333 4.448 27.7813 4 28.3333 4C28.8853 4 29.3333 4.448 29.3333 5V23C29.3333 23.552 28.8853 24 28.3333 24Z" fill="#181818"/>
<path d="M3.66663 24C3.11463 24 2.66663 23.552 2.66663 23V5C2.66663 4.448 3.11463 4 3.66663 4C4.21863 4 4.66663 4.448 4.66663 5V23C4.66663 23.552 4.21863 24 3.66663 24Z" fill="#181818"/>
</g>
<defs>
<clipPath id="clip0">
<rect width="32" height="32" fill="white"/>
</clipPath>
</defs>
</svg>
