<svg width="24" height="24" viewBox="0 0 24 24" fill="none" xmlns="http://www.w3.org/2000/svg">
<g clip-path="url(#clip0)">
<path d="M21.2438 18.1075L17.7431 14.6067C17.0144 13.8781 15.8329 13.8772 15.1034 14.6067L14.0839 15.6262C11.7544 14.2036 9.79725 12.2465 8.37459 9.91696L9.49247 8.79914C10.2202 8.07136 10.2202 6.88715 9.49242 6.15937L5.9917 2.65866C5.26504 1.93209 4.08525 1.92534 3.34978 2.66086L1.14994 4.87781C0.0974045 5.76159 -0.272814 7.21265 0.207186 8.58792C2.67028 15.6462 8.35472 21.3306 15.413 23.7937C16.7409 24.257 18.1046 23.9105 18.9717 23.0172C18.9842 23.0061 18.9964 22.9947 19.0084 22.9827L21.2438 20.7472C21.9716 20.0195 21.9716 18.8353 21.2438 18.1075ZM20.1287 19.632L17.9437 21.817C17.9171 21.8391 17.8919 21.8631 17.8681 21.8889C17.4082 22.3888 16.6684 22.5614 15.9327 22.3046C9.32433 19.9985 4.00237 14.6766 1.69631 8.06817C1.43226 7.31156 1.62276 6.52767 2.18165 6.07106C2.20289 6.05372 2.22323 6.03525 2.24254 6.01579L4.46719 3.77381C4.54092 3.70003 4.62712 3.68901 4.67189 3.68901C4.7167 3.68901 4.80281 3.69998 4.87659 3.77381L8.37722 7.27453C8.49009 7.3874 8.49009 7.57101 8.37726 7.68389L6.82837 9.23278C6.57801 9.48309 6.52519 9.86948 6.69909 10.1778C8.37994 13.1576 10.8433 15.621 13.8231 17.3017C14.1314 17.4757 14.5177 17.4228 14.7681 17.1725L16.2187 15.722C16.3316 15.609 16.5149 15.6089 16.628 15.722L20.1287 19.2227C20.2415 19.3356 20.2415 19.5192 20.1287 19.632Z" fill="#E31E24"/>
<path d="M12.6047 6.15619C12.1692 6.15619 11.8162 6.50925 11.8162 6.94477C11.8162 7.38028 12.1692 7.73334 12.6047 7.73334C14.6244 7.73334 16.2675 9.37645 16.2675 11.3961C16.2675 11.8316 16.6206 12.1847 17.0561 12.1847C17.4916 12.1847 17.8446 11.8316 17.8446 11.3961C17.8446 8.50683 15.494 6.15619 12.6047 6.15619Z" fill="#E31E24"/>
<path d="M12.6047 3.06113C12.1692 3.06113 11.8162 3.41419 11.8162 3.8497C11.8162 4.28522 12.1692 4.63828 12.6047 4.63828C16.331 4.63828 19.3626 7.66983 19.3626 11.3961C19.3626 11.8316 19.7156 12.1847 20.1512 12.1847C20.5867 12.1847 20.9397 11.8316 20.9397 11.3961C20.9397 6.8002 17.2007 3.06113 12.6047 3.06113Z" fill="#E31E24"/>
<path d="M20.6625 3.33844C18.5102 1.18618 15.6485 0.000893354 12.6047 0.000893354C12.1692 0.000893354 11.8162 0.353956 11.8162 0.789472C11.8162 1.22499 12.1692 1.57805 12.6047 1.57805C18.0185 1.57805 22.4229 5.98243 22.4229 11.3962C22.4229 11.8317 22.776 12.1848 23.2115 12.1848C23.647 12.1848 24.0001 11.8317 24.0001 11.3962C24 8.35234 22.8147 5.49076 20.6625 3.33844Z" fill="#E31E24"/>
</g>
<defs>
<clipPath id="clip0">
<rect width="24" height="24" fill="white"/>
</clipPath>
</defs>
</svg>
