<svg width="24" height="24" viewBox="0 0 24 24" fill="none" xmlns="http://www.w3.org/2000/svg">
<g clip-path="url(#clip0)">
<path d="M21.2438 18.1076L17.7431 14.6068C17.0144 13.8782 15.8329 13.8773 15.1034 14.6068L14.0839 15.6263C11.7544 14.2037 9.79725 12.2466 8.37459 9.91706L9.49247 8.79923C10.2202 8.07145 10.2202 6.88725 9.49242 6.15947L5.9917 2.65875C5.26504 1.93219 4.08525 1.92544 3.34978 2.66095L1.14994 4.87791C0.0974045 5.76169 -0.272814 7.21275 0.207186 8.58801C2.67028 15.6463 8.35472 21.3307 15.413 23.7938C16.7409 24.2571 18.1046 23.9106 18.9717 23.0173C18.9842 23.0062 18.9964 22.9948 19.0084 22.9828L21.2438 20.7473C21.9716 20.0196 21.9716 18.8354 21.2438 18.1076ZM20.1287 19.6321L17.9437 21.8171C17.9171 21.8392 17.8919 21.8632 17.8681 21.889C17.4082 22.3889 16.6684 22.5615 15.9327 22.3047C9.32433 19.9986 4.00237 14.6766 1.69631 8.06826C1.43226 7.31165 1.62276 6.52776 2.18165 6.07116C2.20289 6.05381 2.22323 6.03534 2.24254 6.01589L4.46719 3.77391C4.54092 3.70013 4.62712 3.68911 4.67189 3.68911C4.7167 3.68911 4.80281 3.70008 4.87659 3.77391L8.37722 7.27462C8.49009 7.3875 8.49009 7.57111 8.37726 7.68398L6.82837 9.23287C6.57801 9.48318 6.52519 9.86957 6.69909 10.1779C8.37994 13.1577 10.8433 15.6211 13.8231 17.3018C14.1314 17.4758 14.5177 17.4229 14.7681 17.1726L16.2187 15.7221C16.3316 15.6091 16.5149 15.609 16.628 15.7221L20.1287 19.2228C20.2415 19.3356 20.2415 19.5193 20.1287 19.6321Z" fill="#525252"/>
<path d="M12.6047 6.15625C12.1692 6.15625 11.8162 6.50931 11.8162 6.94483C11.8162 7.38034 12.1692 7.73341 12.6047 7.73341C14.6244 7.73341 16.2675 9.37652 16.2675 11.3962C16.2675 11.8317 16.6206 12.1848 17.0561 12.1848C17.4916 12.1848 17.8446 11.8317 17.8446 11.3962C17.8446 8.50689 15.494 6.15625 12.6047 6.15625Z" fill="#525252"/>
<path d="M12.6047 3.06104C12.1692 3.06104 11.8162 3.4141 11.8162 3.84961C11.8162 4.28513 12.1692 4.63819 12.6047 4.63819C16.331 4.63819 19.3626 7.66974 19.3626 11.396C19.3626 11.8315 19.7156 12.1846 20.1512 12.1846C20.5867 12.1846 20.9397 11.8315 20.9397 11.396C20.9397 6.80011 17.2007 3.06104 12.6047 3.06104Z" fill="#525252"/>
<path d="M20.6625 3.33853C18.5102 1.18626 15.6485 0.000976562 12.6047 0.000976562C12.1692 0.000976562 11.8162 0.354039 11.8162 0.789556C11.8162 1.22507 12.1692 1.57813 12.6047 1.57813C18.0185 1.57813 22.4229 5.98251 22.4229 11.3963C22.4229 11.8318 22.776 12.1848 23.2115 12.1848C23.647 12.1848 24.0001 11.8318 24.0001 11.3963C24 8.35242 22.8147 5.49084 20.6625 3.33853Z" fill="#525252"/>
</g>
<defs>
<clipPath id="clip0">
<rect width="24" height="24" fill="white"/>
</clipPath>
</defs>
</svg>
