<svg width="24" height="24" viewBox="0 0 24 24" fill="none" xmlns="http://www.w3.org/2000/svg">
<g clip-path="url(#clip0)">
<path d="M0.415036 11.196L6.28404 14.121C6.51104 14.233 6.77904 14.225 6.99604 14.098L12.22 11.061L9.05804 13.863C8.89704 14.006 8.80504 14.21 8.80504 14.425V21.25C8.80504 21.97 9.72404 22.273 10.155 21.701L12.692 18.328L18.966 21.901C19.406 22.154 19.97 21.9 20.072 21.397L23.985 1.89702C24.102 1.31102 23.519 0.83302 22.977 1.05102L0.477036 9.82602C-0.126964 10.062 -0.165964 10.907 0.415036 11.196ZM22.245 2.94702L18.806 20.084L12.861 16.698C12.537 16.513 12.12 16.595 11.89 16.899L10.305 19.006V14.762L18.856 7.18602C19.533 6.58702 18.755 5.52202 17.982 5.97602L6.59204 12.598L2.60004 10.609L22.245 2.94702Z" fill="#E31E24"/>
</g>
<defs>
<clipPath id="clip0">
<rect width="24" height="24" fill="white"/>
</clipPath>
</defs>
</svg>
