<svg width="580" height="350" viewBox="0 0 580 350" fill="none" xmlns="http://www.w3.org/2000/svg">
<rect x="2.5" y="2.5" width="575" height="345" fill="#E31E24" stroke="white" stroke-width="5"/>
<path fill-rule="evenodd" clip-rule="evenodd" d="M201.456 190.754H95.7437C77.048 190.754 61.7487 175.397 61.7487 156.611C61.7487 137.824 77.048 122.451 95.7437 122.451H201.456C220.151 122.451 235.451 137.824 235.451 156.611C235.451 175.397 220.151 190.754 201.456 190.754ZM104.738 178.825H101.452C87.4101 178.825 76.592 169.156 76.592 156.611C76.592 144.05 87.4101 134.38 101.452 134.38H104.738V145.077H102.285C94.3915 145.077 88.3535 150.117 88.3535 156.611C88.3535 163.089 94.3915 168.129 102.285 168.129H104.738V178.825ZM197.446 154.604C196.959 154.114 196.282 153.814 195.528 153.814C194.789 153.814 194.113 154.114 193.625 154.604C193.138 155.094 192.839 155.773 192.839 156.532C192.839 157.274 193.138 157.954 193.625 158.443C194.113 158.933 194.789 159.233 195.528 159.233C196.282 159.233 196.959 158.933 197.446 158.443C197.933 157.954 198.232 157.274 198.232 156.532C198.232 155.773 197.933 155.094 197.446 154.604ZM207.572 137.635C207.085 137.145 206.409 136.829 205.67 136.829C204.915 136.829 204.239 137.145 203.751 137.635C203.264 138.125 202.965 138.804 202.965 139.547C202.965 140.289 203.264 140.969 203.751 141.458C204.239 141.948 204.915 142.264 205.67 142.264C206.409 142.264 207.085 141.948 207.572 141.458C208.06 140.969 208.358 140.289 208.358 139.547C208.358 138.804 208.06 138.125 207.572 137.635ZM197.446 137.635C196.959 137.145 196.282 136.829 195.528 136.829C194.789 136.829 194.113 137.145 193.625 137.635C193.138 138.125 192.839 138.804 192.839 139.547C192.839 140.289 193.138 140.969 193.625 141.458C194.113 141.948 194.789 142.264 195.528 142.264C196.282 142.264 196.959 141.948 197.446 141.458C197.933 140.969 198.232 140.289 198.232 139.547C198.232 138.804 197.933 138.125 197.446 137.635ZM186.675 137.635C186.188 137.145 185.512 136.829 184.772 136.829C184.018 136.829 183.342 137.145 182.854 137.635C182.367 138.125 182.068 138.804 182.068 139.547C182.068 140.289 182.367 140.969 182.854 141.458C183.342 141.948 184.018 142.264 184.772 142.264C185.512 142.264 186.188 141.948 186.675 141.458C187.163 140.969 187.461 140.289 187.461 139.547C187.461 138.804 187.163 138.125 186.675 137.635ZM214.302 145.25C213.815 144.761 213.138 144.445 212.399 144.445C211.645 144.445 210.969 144.761 210.481 145.25C209.994 145.74 209.695 146.42 209.695 147.162C209.695 147.921 209.994 148.584 210.481 149.074C210.969 149.564 211.645 149.88 212.399 149.88C213.138 149.88 213.815 149.564 214.302 149.074C214.789 148.584 215.088 147.921 215.088 147.162C215.088 146.42 214.789 145.74 214.302 145.25ZM207.572 154.256C207.085 153.767 206.409 153.451 205.67 153.451C204.915 153.451 204.239 153.767 203.751 154.256C203.264 154.746 202.965 155.426 202.965 156.168C202.965 156.911 203.264 157.59 203.751 158.08C204.239 158.57 204.915 158.886 205.67 158.886C206.409 158.886 207.085 158.57 207.572 158.08C208.06 157.59 208.358 156.911 208.358 156.168C208.358 155.426 208.06 154.746 207.572 154.256ZM126.484 178.825C114.66 178.825 111.31 172.995 111.31 161.951V134.38H123.088L123.025 161.951C123.025 166.928 124.283 168.129 129.173 168.129H132.522V134.38H144.299V168.129H150.447V178.825H126.484ZM181.706 151.254V161.951H168.137V178.825H156.375V134.38H168.137V151.254H181.706ZM187.807 151.254H203.217C204.899 151.254 206.141 149.88 206.141 148.142C206.141 146.404 204.883 145.077 203.217 145.077H174.599V134.38H205.544C212.415 134.38 218.076 139.847 218.044 148.015C218.013 156.184 212.368 161.951 205.607 161.951H199.569V178.825H187.807V151.254Z" fill="white"/>
<path fill-rule="evenodd" clip-rule="evenodd" d="M245.844 142.912C245.844 139.831 248.344 137.319 251.41 137.319C252.936 137.319 254.335 137.951 255.326 138.978L257.731 136.576C256.096 134.949 253.879 133.922 251.41 133.922C246.473 133.922 242.463 137.951 242.463 142.912C242.463 147.873 246.473 151.902 251.41 151.902C253.879 151.902 256.096 150.907 257.731 149.279L255.326 146.878C254.335 147.873 252.936 148.505 251.41 148.505C248.344 148.505 245.844 145.993 245.844 142.912ZM264.257 137.809H272.229V134.412H260.86V151.412H272.229V148.015H264.257V144.618H272.229V141.206H264.257V137.809ZM276.097 134.412V151.412H279.493V145.345H282.748C285.751 145.345 288.189 142.896 288.189 139.878C288.189 136.861 285.751 134.412 282.748 134.412H276.097ZM282.748 137.809C283.896 137.809 284.808 138.741 284.808 139.878C284.808 141.016 283.896 141.948 282.748 141.948H279.493V137.809H282.748ZM297.749 144.366C298.739 144.366 299.557 145.203 299.557 146.198C299.557 147.194 298.739 148.015 297.749 148.015H294.478V144.366H297.749ZM297.749 137.809C298.614 137.809 299.321 138.52 299.321 139.389C299.321 140.258 298.614 140.969 297.749 140.969H294.478V137.809H297.749ZM298.551 151.412C300.972 151.412 302.953 149.453 302.953 147.02C302.953 144.666 301.066 142.691 298.708 142.596C300.909 142.549 302.702 140.747 302.702 138.52C302.702 136.26 300.862 134.412 298.614 134.412H291.097V151.412H298.551ZM317.215 140.242V151.412H320.596V134.412H317.215L309.243 145.566V134.412H305.847V151.412H309.243L317.215 140.242ZM327.137 142.912C327.137 139.831 329.621 137.319 332.687 137.319C334.212 137.319 335.628 137.951 336.618 138.978L339.008 136.576C337.389 134.949 335.156 133.922 332.687 133.922C327.766 133.922 323.74 137.951 323.74 142.912C323.74 147.873 327.766 151.902 332.687 151.902C335.156 151.902 337.389 150.907 339.008 149.279L336.618 146.878C335.628 147.873 334.212 148.505 332.687 148.505C329.621 148.505 327.137 145.993 327.137 142.912ZM353.521 151.412H356.902V134.412H353.521V141.206H345.534V134.412H342.153V151.412H345.534V144.618H353.521V151.412ZM367.421 151.412C370.425 151.412 372.862 148.963 372.862 145.946C372.862 142.944 370.425 140.479 367.421 140.479H364.151V134.412H360.77V151.412H367.421ZM364.151 148.015V143.892H367.421C368.553 143.892 369.481 144.808 369.481 145.946C369.481 147.099 368.553 148.015 367.421 148.015H364.151ZM378.428 134.412H375.047V151.412H378.428V134.412ZM393.665 140.242V151.412H397.045V134.412H393.665L385.677 145.566V134.412H382.296V151.412H385.677L393.665 140.242ZM408.901 151.412C414.719 151.412 420.521 151.412 426.339 151.412V148.015H422.927V134.412H419.546V148.015H412.297V134.412H408.901V151.412ZM432.314 137.809H440.286V134.412H428.917V151.412C432.707 151.412 436.496 151.412 440.286 151.412V148.015H432.314V144.618H440.286V141.206H432.314V137.809ZM455.522 151.412H458.919V134.412H455.522V141.206H447.55V134.412H444.154V151.412H447.55V144.618H455.522V151.412ZM461.576 134.412V137.809H467.127V151.412H470.523V137.809H476.089V134.412H461.576ZM478.747 134.412V151.412H482.127V145.345H485.398C488.385 145.345 490.838 142.896 490.838 139.878C490.838 136.861 488.385 134.412 485.398 134.412H478.747ZM485.398 137.809C486.53 137.809 487.442 138.741 487.442 139.878C487.442 141.016 486.53 141.948 485.398 141.948H482.127V137.809H485.398Z" fill="white"/>
<path fill-rule="evenodd" clip-rule="evenodd" d="M253.832 179.126H257.212V162.109H253.832V168.919H245.844V162.109H242.463V179.126H245.844V172.316H253.832V179.126ZM259.398 179.126H263.046L264.493 175.476H271.285L272.748 179.126H276.411L269.603 162.109H266.207L259.398 179.126ZM267.905 166.991L269.933 172.079H265.876L267.905 166.991ZM278.597 162.109V179.126H281.978V173.043H285.248C288.236 173.043 290.689 170.594 290.689 167.576C290.689 164.558 288.236 162.109 285.248 162.109H278.597ZM285.248 165.506C286.38 165.506 287.308 166.438 287.308 167.576C287.308 168.729 286.38 169.646 285.248 169.646H281.978V165.506H285.248ZM296.774 179.126H300.658L310.076 162.109H306.208L301.711 170.23L296.035 162.109H291.899L299.871 173.564L296.774 179.126ZM316.727 170.609L310.815 179.126H314.966L319.715 172.316V179.126H323.096V172.316L327.829 179.126H331.995L326.067 170.609L331.995 162.109H327.829L323.096 168.919V162.109H319.715V168.919L314.966 162.109H310.815L316.727 170.609ZM345.785 179.126H349.166V162.109H345.785V168.919H337.797V162.109H334.417V179.126H337.797V172.316H345.785V179.126ZM352.311 170.609C352.311 175.571 356.32 179.615 361.258 179.615C366.195 179.615 370.204 175.571 370.204 170.609C370.204 165.664 366.195 161.619 361.258 161.619C356.32 161.619 352.311 165.664 352.311 170.609ZM355.691 170.609C355.691 167.528 358.191 165.032 361.258 165.032C364.324 165.032 366.824 167.528 366.824 170.609C366.824 173.706 364.324 176.203 361.258 176.203C358.191 176.203 355.691 173.706 355.691 170.609ZM384.718 167.939V179.126H388.098V162.109H384.718L376.73 173.264V162.109H373.349V179.126H376.73L384.718 167.939ZM398.743 162.109V179.126H402.124V173.043H405.395C408.398 173.043 410.835 170.594 410.835 167.576C410.835 164.558 408.398 162.109 405.395 162.109H398.743ZM405.395 165.506C406.527 165.506 407.454 166.438 407.454 167.576C407.454 168.729 406.527 169.646 405.395 169.646H402.124V165.506H405.395ZM417.125 165.506H425.097V162.109H413.744V179.126H425.097V175.713H417.125V172.316H425.097V168.919H417.125V165.506ZM442.707 162.109H438.305L432.361 169.203V162.109H428.965V179.126H432.361V172.031L438.305 179.126H442.707L435.6 170.609L442.707 162.109ZM443.431 179.126H447.079L451.953 166.991L456.78 179.126H460.46L453.635 162.109H450.255L443.431 179.126ZM460.947 179.126H464.595L466.042 175.476H472.85L474.297 179.126H477.976L471.152 162.109H467.771L460.947 179.126ZM469.454 166.991L471.482 172.079H467.425L469.454 166.991ZM486.671 172.347H490.068L493.213 167.971V179.126H496.593V162.109H493.213L488.37 168.887L483.527 162.109H480.146V179.126H483.527V167.971L486.671 172.347ZM507.113 179.126C510.116 179.126 512.553 176.661 512.553 173.659C512.553 170.641 510.116 168.192 507.113 168.192H503.842V162.109H500.461V179.126H507.113ZM503.842 175.713V171.589H507.113C508.245 171.589 509.172 172.505 509.172 173.659C509.172 174.796 508.245 175.713 507.113 175.713H503.842ZM518.119 162.109H514.723V179.126H518.119V162.109Z" fill="white"/>
<path d="M515.682 138.14H499.031C497.693 138.14 496.609 140.276 496.609 142.912C496.609 145.547 497.693 147.683 499.031 147.683H515.682C517.02 147.683 518.104 145.547 518.104 142.912C518.104 140.276 517.02 138.14 515.682 138.14Z" fill="white"/>
<path d="M385.991 129.759L385.991 133.157L393.624 133.157L393.624 129.759L385.991 129.759Z" fill="white"/>
<path d="M377.071 157.528L377.071 160.926L384.411 160.926L384.411 157.528L377.071 157.528Z" fill="white"/>
<circle opacity="0.3" cx="290" cy="175" r="49.5" stroke="white"/>
<g filter="url(#filter0_b)">
<ellipse cx="290" cy="175" rx="40" ry="40" fill="white" fill-opacity="0.2"/>
</g>
<path d="M306 175C306 179.243 304.314 183.313 301.314 186.314C298.313 189.314 294.243 191 290 191C285.757 191 281.687 189.314 278.686 186.314C275.686 183.313 274 179.243 274 175C274 170.757 275.686 166.687 278.686 163.686C281.687 160.686 285.757 159 290 159C294.243 159 298.313 160.686 301.314 163.686C304.314 166.687 306 170.757 306 175ZM287.58 169.186C287.43 169.08 287.255 169.016 287.071 169.003C286.888 168.99 286.705 169.028 286.542 169.112C286.379 169.196 286.242 169.323 286.146 169.48C286.051 169.636 286 169.816 286 170V180C286 180.184 286.051 180.364 286.146 180.52C286.242 180.677 286.379 180.804 286.542 180.888C286.705 180.972 286.888 181.01 287.071 180.997C287.255 180.984 287.43 180.92 287.58 180.814L294.58 175.814C294.71 175.721 294.815 175.599 294.888 175.458C294.961 175.316 294.999 175.159 294.999 175C294.999 174.841 294.961 174.684 294.888 174.542C294.815 174.401 294.71 174.279 294.58 174.186L287.58 169.186Z" fill="white"/>
<defs>
<filter id="filter0_b" x="242" y="127" width="96" height="96" filterUnits="userSpaceOnUse" color-interpolation-filters="sRGB">
<feFlood flood-opacity="0" result="BackgroundImageFix"/>
<feGaussianBlur in="BackgroundImage" stdDeviation="4"/>
<feComposite in2="SourceAlpha" operator="in" result="effect1_backgroundBlur"/>
<feBlend mode="normal" in="SourceGraphic" in2="effect1_backgroundBlur" result="shape"/>
</filter>
</defs>
</svg>
