<svg width="24" height="24" viewBox="0 0 24 24" fill="none" xmlns="http://www.w3.org/2000/svg">
<g clip-path="url(#clip0)">
<path d="M13.33 18.076C17.38 19.04 18.805 15.576 18.091 14.283C17.805 13.767 15.235 12.776 15.11 12.728C14.006 12.326 13.598 13.076 12.833 14.063C11.364 13.328 10.379 12.749 9.367 11.103C9.424 11.032 9.5 10.948 9.557 10.884C9.911 10.488 10.574 9.74998 10.122 8.84698C9.742 8.08998 9.553 7.56198 9.414 7.17498C9.011 6.05398 8.704 5.74998 7.316 5.74998C5.871 5.74998 4.75 7.64898 4.75 9.28398C4.75 12.853 9.548 17.173 13.33 18.076ZM7.316 7.24998C7.616 7.24998 7.768 7.25998 7.844 7.27198C8.006 7.61498 8.17 8.33098 8.774 9.44498C8.68 9.79598 7.345 10.619 7.964 11.683C9.229 13.831 10.495 14.576 12.309 15.478C13.517 16.024 13.903 15.035 14.669 14.166C15.024 14.31 16.222 14.84 16.748 15.106C16.701 16.142 15.701 17.098 13.678 16.616C10.206 15.787 6.249 11.881 6.249 9.28298C6.25 8.29498 6.943 7.24998 7.316 7.24998Z" fill="#181818"/>
<path d="M0.0830696 23.085C-0.0479304 23.559 0.30707 24.034 0.80607 24.034C0.98607 24.034 0.69207 24.08 6.65407 22.534C9.08107 23.77 10.9261 23.731 12.1041 23.842C22.6591 23.842 27.8291 10.969 20.5651 3.479C10.6081 -6.145 -4.89893 5.815 1.59007 17.606L0.0830696 23.085ZM19.3711 4.413C19.5441 4.729 24.5061 9.204 21.7431 15.891C20.0421 20.011 16.1171 22.55 11.7191 22.312C8.14107 22.113 7.21507 20.835 6.55607 21.01L1.87307 22.23L3.11807 17.706C3.17207 17.512 3.14507 17.305 3.04507 17.131C-2.93793 6.807 10.5911 -3.808 19.3711 4.413Z" fill="#181818"/>
</g>
<defs>
<clipPath id="clip0">
<rect width="24" height="24" fill="white"/>
</clipPath>
</defs>
</svg>
