<svg width="40" height="40" viewBox="0 0 40 40" fill="none" xmlns="http://www.w3.org/2000/svg">
<path d="M25.1785 31.3783C24.5971 31.3783 24.0926 30.9462 24.0173 30.3545C23.9358 29.7124 24.3899 29.1258 25.0317 29.044C28.7347 28.5722 32.0507 27.5688 34.3688 26.2181C36.4889 24.9831 37.6562 23.531 37.6562 22.1297C37.6562 20.5852 36.2902 19.3214 35.144 18.5329C34.6108 18.166 34.4759 17.4367 34.8428 16.9032C35.2096 16.3701 35.9393 16.2352 36.4724 16.602C38.7801 18.1895 39.9999 20.1009 39.9999 22.13C39.9999 24.4328 38.4609 26.5468 35.5489 28.2433C32.9278 29.7704 29.3936 30.8513 25.328 31.3692C25.2776 31.3753 25.2276 31.3783 25.1785 31.3783Z" fill="#FB5314"/>
<path d="M19.7144 29.6994L16.5894 26.5744C16.1316 26.1167 15.3897 26.1167 14.9319 26.5744C14.4745 27.0319 14.4745 27.7741 14.9319 28.2315L15.845 29.1446C12.3441 28.783 9.16351 27.9679 6.70074 26.7835C3.93188 25.452 2.34375 23.7555 2.34375 22.1295C2.34375 20.7505 3.48083 19.317 5.54535 18.0933C6.10229 17.7634 6.28601 17.0444 5.95612 16.4878C5.62592 15.9308 4.90692 15.7471 4.35028 16.077C0.7547 18.2083 0 20.5448 0 22.1295C0 24.7296 2.01904 27.1326 5.68512 28.8959C8.53058 30.264 12.2113 31.1804 16.2213 31.5351L14.9319 32.8244C14.4745 33.2819 14.4745 34.0241 14.9319 34.4818C15.1608 34.7104 15.4608 34.8249 15.7608 34.8249C16.0605 34.8249 16.3605 34.7104 16.5894 34.4818L19.7144 31.3568C20.1718 30.8991 20.1718 30.1569 19.7144 29.6994Z" fill="#FB5314"/>
<path d="M12.2731 19.7834V19.5014C12.2731 18.5068 11.6643 18.314 10.848 18.314C10.3432 18.314 10.1799 17.8687 10.1799 17.4235C10.1799 16.9779 10.3432 16.5327 10.848 16.5327C11.4119 16.5327 12.0058 16.4585 12.0058 15.2561C12.0058 14.3952 11.516 14.1874 10.9072 14.1874C10.1799 14.1874 9.80884 14.3656 9.80884 14.9445C9.80884 15.449 9.58606 15.7905 8.72516 15.7905C7.65643 15.7905 7.52307 15.5677 7.52307 14.8551C7.52307 13.6976 8.35406 12.1982 10.9072 12.1982C12.7925 12.1982 14.2174 12.8809 14.2174 14.885C14.2174 15.9684 13.8167 16.9779 13.0745 17.3194C13.9504 17.6459 14.5885 18.299 14.5885 19.5014V19.7834C14.5885 22.2178 12.9113 23.1382 10.833 23.1382C8.27991 23.1382 7.30029 21.5796 7.30029 20.3327C7.30029 19.6647 7.58228 19.4864 8.39862 19.4864C9.34863 19.4864 9.58606 19.6943 9.58606 20.2585C9.58606 20.9562 10.2394 21.1194 10.9072 21.1194C11.9167 21.1194 12.2731 20.7484 12.2731 19.7834Z" fill="#FB5314"/>
<path d="M23.5991 19.5014V19.6351C23.5991 22.1882 22.0106 23.1382 19.9623 23.1382C17.9139 23.1382 16.3105 22.1882 16.3105 19.6351V15.7014C16.3105 13.1483 17.9582 12.1982 20.0959 12.1982C22.6045 12.1982 23.5991 13.7568 23.5991 14.9888C23.5991 15.7014 23.2576 15.9238 22.5154 15.9238C21.8773 15.9238 21.313 15.7606 21.313 15.0779C21.313 14.5139 20.7194 14.217 20.0218 14.217C19.1459 14.217 18.6262 14.6772 18.6262 15.7014V17.0371C19.1014 16.5177 19.7694 16.384 20.482 16.384C22.1739 16.384 23.5991 17.1262 23.5991 19.5014ZM18.6262 19.7983C18.6262 20.8225 19.131 21.2678 19.9623 21.2678C20.7936 21.2678 21.2834 20.8225 21.2834 19.7983V19.6647C21.2834 18.581 20.7936 18.1653 19.9473 18.1653C19.1459 18.1653 18.6262 18.5514 18.6262 19.531V19.7983Z" fill="#FB5314"/>
<path d="M25.395 19.6351V15.7014C25.395 13.1483 26.9832 12.1982 29.0318 12.1982C31.0801 12.1982 32.6832 13.1483 32.6832 15.7014V19.6351C32.6832 22.1882 31.0801 23.1382 29.0318 23.1382C26.9832 23.1382 25.395 22.1882 25.395 19.6351ZM30.3676 15.7014C30.3676 14.6772 29.8631 14.217 29.0318 14.217C28.2005 14.217 27.7107 14.6772 27.7107 15.7014V19.6351C27.7107 20.6592 28.2005 21.1194 29.0318 21.1194C29.8631 21.1194 30.3676 20.6592 30.3676 19.6351V15.7014Z" fill="#FB5314"/>
<path d="M35.4961 12.1875C33.5573 12.1875 31.9805 10.6104 31.9805 8.67188C31.9805 6.7334 33.5573 5.15625 35.4961 5.15625C37.4346 5.15625 39.0117 6.7334 39.0117 8.67188C39.0117 10.6104 37.4346 12.1875 35.4961 12.1875ZM35.4961 7.5C34.8497 7.5 34.3242 8.02582 34.3242 8.67188C34.3242 9.31824 34.8497 9.84375 35.4961 9.84375C36.1422 9.84375 36.668 9.31824 36.668 8.67188C36.668 8.02582 36.1422 7.5 35.4961 7.5Z" fill="#FB5314"/>
</svg>
