<svg width="19" height="19" viewBox="0 0 19 19" fill="none" xmlns="http://www.w3.org/2000/svg">
<g clip-path="url(#clip0)">
<path d="M13.7288 8.88569L8.01113 3.73344C7.82357 3.54943 7.51915 3.54943 7.33159 3.73344C7.14403 3.91744 7.14403 4.21699 7.33159 4.40243L12.7044 9.24372L7.33159 14.0864C7.14403 14.2705 7.14403 14.57 7.33159 14.7554C7.51915 14.9409 7.82357 14.9394 8.01113 14.7554L13.7288 9.60318C13.8284 9.50476 13.8716 9.37495 13.8644 9.24515C13.8716 9.11535 13.8284 8.98411 13.7288 8.88569Z" fill="#C1C1C1"/>
</g>
<path fill-rule="evenodd" clip-rule="evenodd" d="M9.5 18.2297C14.3213 18.2297 18.2297 14.3213 18.2297 9.5C18.2297 4.67871 14.3213 0.770271 9.5 0.770271C4.67871 0.770271 0.770271 4.67871 0.770271 9.5C0.770271 14.3213 4.67871 18.2297 9.5 18.2297ZM9.5 19C14.7467 19 19 14.7467 19 9.5C19 4.2533 14.7467 0 9.5 0C4.2533 0 0 4.2533 0 9.5C0 14.7467 4.2533 19 9.5 19Z" fill="#C1C1C1"/>
<defs>
<clipPath id="clip0">
<rect width="6.67568" height="11.2973" fill="white" transform="translate(7.18921 3.5946)"/>
</clipPath>
</defs>
</svg>
