<svg width="19" height="19" viewBox="0 0 19 19" fill="none" xmlns="http://www.w3.org/2000/svg">
<g clip-path="url(#clip0)">
<path d="M5.27119 10.1143L10.9889 15.2666C11.1764 15.4506 11.4809 15.4506 11.6684 15.2666C11.856 15.0826 11.856 14.783 11.6684 14.5976L6.29555 9.75628L11.6684 4.91356C11.856 4.72955 11.856 4.43 11.6684 4.24456C11.4809 4.05913 11.1764 4.06055 10.9889 4.24456L5.27119 9.39682C5.17164 9.49524 5.12836 9.62504 5.13557 9.75485C5.12836 9.88465 5.17164 10.0159 5.27119 10.1143Z" fill="#C1C1C1"/>
</g>
<path fill-rule="evenodd" clip-rule="evenodd" d="M9.5 0.770263C4.6787 0.770262 0.770265 4.6787 0.770265 9.5C0.770264 14.3213 4.6787 18.2297 9.5 18.2297C14.3213 18.2297 18.2297 14.3213 18.2297 9.5C18.2297 4.6787 14.3213 0.770263 9.5 0.770263ZM9.5 -6.55256e-06C4.25329 -7.01124e-06 -4.43285e-06 4.25329 -4.89153e-06 9.5C-5.35021e-06 14.7467 4.25329 19 9.5 19C14.7467 19 19 14.7467 19 9.5C19 4.25329 14.7467 -6.09388e-06 9.5 -6.55256e-06Z" fill="#C1C1C1"/>
<defs>
<clipPath id="clip0">
<rect width="6.67568" height="11.2973" fill="white" transform="translate(11.8108 15.4054) rotate(-180)"/>
</clipPath>
</defs>
</svg>
