<svg width="32" height="32" viewBox="0 0 32 32" fill="none" xmlns="http://www.w3.org/2000/svg">
<path d="M16 21C18.2091 21 20 19.2091 20 17C20 14.7909 18.2091 13 16 13C13.7909 13 12 14.7909 12 17C12 19.2091 13.7909 21 16 21Z" fill="#C7CBCF"/>
<path d="M28.5 9H23.3125C23.125 9 22.8925 8.87875 22.7113 8.6875L21.0063 6.0125C20.3125 5 20 5 18.875 5H13.125C12 5 11.625 5 10.9956 6.01312L9.28875 8.6875C9.15 8.83875 8.955 9 8.75 9H5.25H3.5C3.10218 9 2.72064 9.15804 2.43934 9.43934C2.15804 9.72064 2 10.1022 2 10.5V25.5C2 25.8978 2.15804 26.2794 2.43934 26.5607C2.72064 26.842 3.10218 27 3.5 27H28.5C28.8978 27 29.2794 26.842 29.5607 26.5607C29.842 26.2794 30 25.8978 30 25.5V10.5C30 10.1022 29.842 9.72064 29.5607 9.43934C29.2794 9.15804 28.8978 9 28.5 9ZM16.2819 22.9937C15.0725 23.0506 13.8743 22.7402 12.8446 22.1034C11.8149 21.4666 11.0019 20.5333 10.5125 19.4259C10.0231 18.3186 9.88007 17.0891 10.1023 15.8989C10.3246 14.7088 10.9016 13.6138 11.7577 12.7577C12.6138 11.9016 13.7088 11.3246 14.8989 11.1023C16.0891 10.8801 17.3186 11.0231 18.4259 11.5125C19.5333 12.0019 20.4666 12.8149 21.1034 13.8446C21.7402 14.8743 22.0506 16.0725 21.9937 17.2819C21.9221 18.7736 21.2973 20.1852 20.2413 21.2413C19.1852 22.2973 17.7736 22.9221 16.2819 22.9937Z" fill="#C7CBCF"/>
</svg>
