<svg width="14" height="15" viewBox="0 0 14 15" fill="none" xmlns="http://www.w3.org/2000/svg">
<path d="M13.8804 6.75103L9.6806 2.08461C9.591 1.98568 9.46594 1.92969 9.33342 1.92969H6.53357C6.34972 1.92969 6.18266 2.03795 6.10706 2.20594C6.0324 2.37486 6.0632 2.57179 6.18639 2.70805L10.1052 7.06274L6.18639 11.4165C6.0632 11.5537 6.03147 11.7506 6.10706 11.9186C6.18266 12.0875 6.34972 12.1958 6.53357 12.1958H9.33342C9.46594 12.1958 9.591 12.1389 9.6806 12.0418L13.8804 7.37539C14.04 7.19807 14.04 6.92742 13.8804 6.75103Z" fill="white"/>
<path d="M7.81397 6.75103L3.6142 2.08461C3.5246 1.98568 3.39954 1.92969 3.26701 1.92969H0.467166C0.283309 1.92969 0.116252 2.03795 0.0406559 2.20594C-0.0340067 2.37486 -0.00320837 2.57179 0.119985 2.70805L4.03884 7.06274L0.119985 11.4165C-0.00320837 11.5537 -0.03494 11.7506 0.0406559 11.9186C0.116252 12.0875 0.283309 12.1958 0.467166 12.1958H3.26701C3.39954 12.1958 3.5246 12.1389 3.6142 12.0418L7.81397 7.37539C7.97356 7.19807 7.97356 6.92742 7.81397 6.75103Z" fill="white"/>
</svg>
