<svg width="46" height="46" viewBox="0 0 46 46" fill="none" xmlns="http://www.w3.org/2000/svg">
<g clip-path="url(#clip0)">
<path d="M40.1517 26.9324C39.6248 20.072 36.4307 15.7729 33.6128 11.9791C31.0036 8.46696 28.75 5.43401 28.75 0.959975C28.75 0.6006 28.5487 0.272131 28.2296 0.107447C27.9095 -0.0582244 27.5249 -0.0310917 27.2339 0.180401C23.0019 3.20867 19.4708 8.31261 18.2374 13.1825C17.3811 16.5729 17.2678 20.3845 17.2519 22.9018C13.3437 22.0671 12.4584 16.2211 12.449 16.1574C12.405 15.8542 12.2197 15.5903 11.9502 15.4462C11.6779 15.304 11.3578 15.2936 11.0817 15.4303C10.8768 15.5295 6.05134 17.9813 5.77057 27.7708C5.7509 28.0965 5.75 28.4231 5.75 28.7497C5.75 38.2603 13.4887 45.9986 23 45.9986C23.0131 45.9995 23.0271 46.0013 23.0384 45.9986C23.0421 45.9986 23.0458 45.9986 23.0505 45.9986C32.5384 45.9713 40.25 38.2435 40.25 28.7497C40.25 28.2715 40.1517 26.9324 40.1517 26.9324ZM23 44.082C19.8292 44.082 17.25 41.3345 17.25 37.9572C17.25 37.8421 17.2491 37.726 17.2575 37.5838C17.2958 36.1595 17.5663 35.1872 17.863 34.5405C18.419 35.7346 19.4128 36.8323 21.0272 36.8323C21.5569 36.8323 21.9856 36.4037 21.9856 35.8741C21.9856 34.5097 22.0137 32.9356 22.3534 31.515C22.6557 30.2554 23.3782 28.9153 24.2935 27.841C24.7006 29.2354 25.4942 30.3639 26.2691 31.4654C27.3782 33.0413 28.5246 34.6706 28.7258 37.449C28.738 37.6137 28.7502 37.7794 28.7502 37.9572C28.75 41.3344 26.1708 44.082 23 44.082Z" fill="url(#paint0_linear)"/>
</g>
<defs>
<linearGradient id="paint0_linear" x1="6.29094" y1="17.8448" x2="38.6736" y2="18.202" gradientUnits="userSpaceOnUse">
<stop stop-color="#E95D0F"/>
<stop offset="0.493478" stop-color="#FF6B00"/>
<stop offset="0.979167" stop-color="#EB650E"/>
</linearGradient>
<clipPath id="clip0">
<rect width="46" height="46" fill="white"/>
</clipPath>
</defs>
</svg>
