<svg width="16" height="12" viewBox="0 0 16 12" fill="none" xmlns="http://www.w3.org/2000/svg">
<path d="M14.3874 2.99517C14.3874 3.13043 14.3874 3.2657 14.3874 3.38164C14.3874 7.38164 11.0785 12 5.04712 12C3.18325 12 1.46597 11.4976 0 10.6473C0.251309 10.6667 0.52356 10.686 0.774869 10.686C2.30366 10.686 3.72775 10.2029 4.85864 9.3913C3.41361 9.37198 2.19895 8.48309 1.80105 7.28502C2.01047 7.32367 2.19895 7.343 2.42932 7.343C2.72251 7.343 3.01571 7.30435 3.28796 7.22705C1.7801 6.95652 0.649215 5.73913 0.649215 4.27053C0.649215 4.25121 0.649215 4.25121 0.649215 4.23188C1.08901 4.46377 1.59162 4.59903 2.13613 4.61836C1.25654 4.07729 0.670157 3.14976 0.670157 2.08696C0.670157 1.52657 0.837696 1.00483 1.10995 0.560386C2.72251 2.39614 5.15183 3.5942 7.87435 3.72947C7.81152 3.51691 7.79058 3.2657 7.79058 3.03382C7.79058 1.35266 9.25654 0 11.0785 0C12.0209 0 12.8796 0.36715 13.466 0.94686C14.2199 0.811594 14.911 0.560386 15.5602 0.21256C15.3089 0.927536 14.7853 1.50725 14.1152 1.89372C14.7853 1.81643 15.4136 1.66184 16 1.41063C15.5812 2.02899 15.0366 2.57005 14.3874 2.99517Z" fill="#95989D"/>
</svg>
