<svg width="20" height="21" viewBox="0 0 20 21" fill="none" xmlns="http://www.w3.org/2000/svg">
<path d="M18.9999 9.29102C18.9999 13.83 14.9519 17.473 9.99986 17.473C9.35886 17.473 8.73486 17.41 8.13086 17.294" stroke="#70747B" stroke-width="2" stroke-linecap="round" stroke-linejoin="round"/>
<path d="M4.599 15.826C2.42 14.336 1 11.974 1 9.29102" stroke="#70747B" stroke-width="2" stroke-linecap="round" stroke-linejoin="round"/>
<path d="M4.59925 15.8257C4.59825 16.6797 4.60025 17.8317 4.60025 19.0407" stroke="#70747B" stroke-width="2" stroke-linecap="round" stroke-linejoin="round"/>
<path d="M1 9.29086C1 4.75186 5.048 1.10986 10 1.10986C14.952 1.10986 19 4.75286 19 9.29186" stroke="#70747B" stroke-width="2" stroke-linecap="round" stroke-linejoin="round"/>
<path d="M8.12961 17.29L4.59961 19.04" stroke="#70747B" stroke-width="2" stroke-linecap="round" stroke-linejoin="round"/>
<path d="M10.1768 9.32322C10.2744 9.42085 10.2744 9.57915 10.1768 9.67678C10.0791 9.77441 9.92085 9.77441 9.82322 9.67678C9.72559 9.57915 9.72559 9.42085 9.82322 9.32322C9.92085 9.22559 10.0791 9.22559 10.1768 9.32322" stroke="#70747B" stroke-width="2" stroke-linecap="round" stroke-linejoin="round"/>
<path d="M14.1768 9.32322C14.2744 9.42085 14.2744 9.57915 14.1768 9.67678C14.0791 9.77441 13.9209 9.77441 13.8232 9.67678C13.7256 9.57915 13.7256 9.42085 13.8232 9.32322C13.9209 9.22559 14.0791 9.22559 14.1768 9.32322" stroke="#70747B" stroke-width="2" stroke-linecap="round" stroke-linejoin="round"/>
<path d="M6.17678 9.32322C6.27441 9.42085 6.27441 9.57915 6.17678 9.67678C6.07915 9.77441 5.92085 9.77441 5.82322 9.67678C5.72559 9.57915 5.72559 9.42085 5.82322 9.32322C5.92085 9.22559 6.07915 9.22559 6.17678 9.32322" stroke="#70747B" stroke-width="2" stroke-linecap="round" stroke-linejoin="round"/>
</svg>
