<svg width="193" height="58" viewBox="0 0 193 58" fill="none" xmlns="http://www.w3.org/2000/svg">
<path d="M3.58584 42.0837C5.03834 42.4884 6.58161 42.5333 8.07949 42.4434C9.03269 42.3535 9.98589 42.1737 10.9391 41.9489C10.6214 42.0837 10.349 42.2186 10.0767 42.3985C8.85113 43.1178 7.85254 43.9721 6.89934 44.9163C7.5802 44.8264 8.26105 44.6465 8.89652 44.5116C9.53199 44.3768 10.1675 44.2419 10.7575 44.152C11.9831 43.9721 13.1632 43.9271 14.3434 44.0171C15.5235 44.062 16.7491 44.1969 17.8838 44.4217C19.0186 44.6465 20.0172 44.9613 21.0611 45.4109C22.1051 45.8605 23.2853 46.5349 24.647 47.0295C26.0541 47.524 27.552 47.7938 29.0045 47.7938C30.457 47.7938 31.8187 47.614 33.2258 47.2543C34.5875 46.8946 35.9038 46.3101 36.9478 45.4558C35.5861 45.5458 34.3151 45.5458 33.0442 45.4109C31.8187 45.276 30.5477 45.0961 29.413 44.8264C28.2328 44.5566 27.2342 44.1969 26.1903 43.7023C25.1917 43.2078 24.1023 42.5333 22.786 41.9489C21.7874 41.4992 20.698 41.1845 19.5633 40.9597C19.7448 40.9597 19.9718 41.0047 20.1533 41.0047C21.4243 41.1395 22.559 41.4093 23.7846 41.814C24.3746 41.9938 25.0101 42.3085 25.691 42.5333C26.3718 42.8031 27.0981 43.0729 27.9151 43.2527C29.4584 43.6574 31.0924 43.7473 32.6357 43.6124C33.4073 43.5225 34.1336 43.3876 34.8598 43.2078C35.5861 43.0279 36.3123 42.8031 36.9932 42.4434C36.2669 42.3535 35.5407 42.2186 34.8144 42.1287C34.4513 42.0388 34.1336 41.9938 33.7705 41.9039C33.4073 41.814 33.0896 41.769 32.7265 41.6791C31.3648 41.3644 30.1392 40.9597 29.0045 40.3752C28.4144 40.1054 27.8697 39.7907 27.2796 39.431C26.6896 39.0713 26.0087 38.7566 25.3278 38.3969C24.6016 38.0822 23.83 37.7675 23.0583 37.5426C22.2413 37.3178 21.4697 37.183 20.6526 37.093C20.0626 37.0481 19.5179 37.0031 18.9732 37.0031L19.3363 36.9581L19.881 36.9132C20.2441 36.8682 20.6072 36.8682 20.925 36.8233C21.6512 36.8233 22.3321 36.8233 23.0583 36.8682C24.4654 37.0031 25.9633 37.2729 27.4612 37.5876C28.9591 37.9473 30.5477 38.3969 32.1364 38.6217C33.7705 38.8915 35.4499 38.9814 37.0386 38.6667C33.8612 37.9923 31.274 36.5085 28.3236 35.2496C27.552 34.9349 26.8257 34.6202 26.0087 34.3504C25.1917 34.0806 24.3746 33.8558 23.5122 33.7209C23.3307 33.676 23.1945 33.676 23.0129 33.631C23.0583 33.631 23.1037 33.631 23.1491 33.631C24.647 33.631 26.1903 33.631 27.6428 33.7659C29.1406 33.8558 30.6385 34.0806 32.2272 34.2605C33.8159 34.4403 35.4045 34.5752 36.9932 34.4403C35.4953 33.9457 34.0428 33.4062 32.5903 32.8667C31.1378 32.3271 29.6399 31.7876 28.0513 31.4279C26.4626 31.0682 24.8739 30.8434 23.2399 30.7535C22.4229 30.7085 21.6512 30.6636 20.8342 30.6636C19.9718 30.6636 19.1548 30.6636 18.3377 30.7985C16.7037 30.9783 15.115 31.293 13.5717 31.6977C12.0285 32.1023 10.576 32.5519 9.12347 32.9566C8.39723 33.1364 7.67098 33.3613 6.94473 33.4961C6.58161 33.5861 6.21849 33.631 5.85536 33.676C5.49224 33.7209 5.08373 33.7659 4.7206 33.8109C3.94897 33.8558 3.17733 33.9457 2.40569 33.9907C1.58866 34.0806 0.771637 34.1706 0 34.1256C0.726247 34.4403 1.49788 34.6202 2.26952 34.8C3.04116 34.9799 3.81279 35.1147 4.62982 35.2496C5.03833 35.2946 5.40146 35.3395 5.80997 35.3845C6.21849 35.4295 6.627 35.4744 7.0809 35.4744C7.89793 35.5194 8.71496 35.4295 9.53199 35.3845C11.0299 35.2496 12.4824 34.9799 13.8895 34.7101C13.6625 34.8 13.4356 34.845 13.2086 34.9349C12.437 35.2496 11.7107 35.5644 11.0299 35.8791C10.349 36.1938 9.66816 36.4636 8.9873 36.6884C8.30644 36.9132 7.5802 37.138 6.85395 37.3178C6.12771 37.4977 5.35607 37.6775 4.62982 37.8124C3.17733 38.1721 1.63405 38.262 0 38.1271C1.4071 38.9364 3.04116 39.3861 4.7206 39.5209C5.58302 39.6109 6.40005 39.6109 7.21707 39.6109C8.0341 39.6109 8.89652 39.5209 9.75894 39.3861C9.98589 39.3411 10.2128 39.2961 10.4852 39.2512C9.53199 39.7458 8.62418 40.2403 7.62559 40.645C6.35466 41.2295 4.99294 41.6791 3.58584 42.0837Z" fill="url(#paint0_linear)"/>
<path d="M31.501 49.3673C30.3209 49.3673 29.1407 49.3223 28.0059 49.1874C27.4159 49.0975 26.8712 49.0525 26.3265 48.9177C25.7818 48.7828 25.2371 48.6929 24.6924 48.513C23.6485 48.1983 22.6499 47.7487 21.5605 47.2091C21.0158 46.9394 20.4258 46.6696 19.8357 46.4448C19.2456 46.22 18.6101 45.9952 17.9293 45.8603C16.613 45.5456 15.2966 45.4556 14.0257 45.5006C12.7548 45.5456 11.4838 45.6804 10.2583 46.0401C9.62284 46.22 9.03276 46.3998 8.48808 46.6696C8.21574 46.8045 7.94339 46.9394 7.67105 47.0742C7.39871 47.2541 7.12637 47.389 6.89941 47.5688C9.3505 47.1192 11.6654 47.2091 13.9803 47.4789C15.1151 47.6138 16.2498 47.8386 17.2484 48.1533C18.2924 48.468 19.291 48.9626 20.3804 49.4572C20.925 49.727 21.5151 49.9967 22.1052 50.2215C22.6953 50.4463 23.3761 50.6711 24.0116 50.806C25.3279 51.1208 26.6442 51.1657 27.9152 51.1208C29.1861 51.0758 30.457 50.896 31.6826 50.5363C32.9081 50.1766 34.0883 49.637 35.0868 48.9177C34.4514 49.0076 33.8613 49.1425 33.2712 49.1874C32.6812 49.3223 32.0911 49.3673 31.501 49.3673Z" fill="url(#paint1_linear)"/>
<path d="M26.735 53.0542C25.6456 53.0093 24.6017 52.9193 23.5577 52.7395C22.5137 52.5596 21.5605 52.2899 20.6073 51.9302C19.6541 51.5705 18.7009 51.0759 17.6115 50.6263C16.5676 50.1767 15.3874 49.862 14.2073 49.6821C13.0271 49.5023 11.8924 49.5023 10.7576 49.6372C9.62283 49.7271 8.48807 49.9519 7.44409 50.3116C8.57885 50.3565 9.66822 50.4015 10.7576 50.5813C11.847 50.7162 12.8909 50.8961 13.8895 51.1658C14.8881 51.4356 15.8413 51.7953 16.7945 52.2899C17.7477 52.7395 18.7463 53.279 19.8357 53.7286C20.925 54.1333 22.1052 54.448 23.2853 54.5829C24.4655 54.7178 25.6003 54.7178 26.7804 54.5829C27.9152 54.493 29.0953 54.2682 30.1847 53.9085C31.2741 53.5488 32.2726 53.0093 33.1805 52.3798C32.0911 52.6496 31.0017 52.9193 29.9577 53.0093C28.8684 53.0992 27.779 53.0992 26.735 53.0542Z" fill="url(#paint2_linear)"/>
<path d="M20.7435 56.6513C20.0627 56.5164 19.3818 56.4265 18.6556 56.2466C17.9747 56.1118 17.2485 55.9319 16.5222 55.797H16.5676C16.3406 55.7521 16.1591 55.6621 15.9321 55.6172C16.0683 55.797 16.2045 55.9769 16.386 56.1118H16.4314C17.0215 56.5614 17.657 56.966 18.3832 57.2808C19.1095 57.5955 19.8357 57.7753 20.6073 57.8653C21.379 57.9552 22.1506 58.0001 22.9223 57.9102C23.6939 57.8203 24.4201 57.6405 25.1464 57.3707C24.3747 57.1459 23.6485 57.056 22.9223 56.9211L20.7435 56.6513Z" fill="url(#paint3_linear)"/>
<path d="M21.9236 0L6.85395 9.80155V15.7364L0 20.2326V29H6.85395H13.7533H36.9478V9.80155L21.9236 0Z" fill="url(#paint4_radial)"/>
<path d="M21.9236 0V29H36.9478V9.80155L21.9236 0Z" fill="#E95D0F"/>
<path d="M57.555 9.75635H59.5976L68.4033 28.9998H66.043L63.7735 23.9641H53.2883L51.0188 28.9998H48.7947L57.555 9.75635ZM62.9111 21.9858L58.5082 12.2742L54.1054 21.9858H62.9111Z" fill="white"/>
<path d="M76.6643 14.3872H78.3438V27.4709H86.6502V28.9996H76.6643V14.3872Z" fill="white"/>
<path d="M93.7766 14.3872H95.4561V28.9996H93.7766V14.3872Z" fill="white"/>
<path d="M103.036 21.7161C103.036 17.5347 106.168 14.1177 110.48 14.1177C113.158 14.1177 114.747 15.0619 116.245 16.4557L115.11 17.6696C113.884 16.5006 112.477 15.6464 110.48 15.6464C107.212 15.6464 104.761 18.2991 104.761 21.6262V21.6712C104.761 25.0433 107.212 27.696 110.48 27.696C112.523 27.696 113.839 26.9316 115.246 25.5828L116.336 26.6619C114.792 28.1905 113.113 29.2247 110.435 29.2247C106.213 29.2247 103.036 25.9425 103.036 21.7161Z" fill="white"/>
<path d="M128.636 14.2524H130.18L136.898 28.9997H135.127L133.402 25.1331H125.368L123.598 28.9997H121.873L128.636 14.2524ZM132.767 23.6044L129.408 16.1858L126.049 23.6044H132.767Z" fill="white"/>
<path d="M143.797 14.3872H145.34L154.645 26.0771V14.3872H156.279V28.9996H154.963L145.431 16.995V28.9996H143.797V14.3872Z" fill="white"/>
<path d="M168.262 15.9159H163.315V14.3872H174.935V15.9159H169.987V28.9996H168.308V15.9159H168.262Z" fill="white"/>
<path d="M181.97 14.3872H192.637V15.8709H183.65V20.8616H191.684V22.3453H183.65V27.4709H192.773V28.9546H182.016V14.3872H181.97Z" fill="white"/>
<path d="M49.0669 35.0244H54.3322C55.7847 35.0244 56.9194 35.4291 57.6911 36.1934C58.3265 36.8229 58.6897 37.7221 58.6897 38.8012V38.8461C58.6897 40.6895 57.6911 41.8585 56.2386 42.3981L59.0528 46.4895H56.1024L53.6513 42.8477H51.6541V46.4895H49.1123V35.0244H49.0669ZM54.1506 40.5546C55.3762 40.5546 56.1024 39.8802 56.1024 38.936V38.8911C56.1024 37.812 55.3308 37.2725 54.1052 37.2725H51.5634V40.5546H54.1506Z" fill="white"/>
<path d="M63.7734 35.0244H72.4884V37.2725H66.3153V39.5655H71.7622V41.8136H66.3153V44.1965H72.5792V46.4446H63.7734V35.0244Z" fill="white"/>
<path d="M81.5664 34.9346H83.9267L88.8743 46.4447H86.1963L85.1523 43.8819H80.2501L79.2061 46.4447H76.6189L81.5664 34.9346ZM84.2445 41.6788L82.7012 37.9919L81.1579 41.6788H84.2445Z" fill="white"/>
<path d="M93.4587 35.0244H96.0006V44.1515H101.765V46.4446H93.4587V35.0244Z" fill="white"/>
<path d="M114.202 35.0244H122.917V37.2725H116.744V39.5655H122.191V41.8136H116.744V44.1965H123.008V46.4446H114.202V35.0244Z" fill="white"/>
<path d="M127.275 44.7812L128.773 42.9827C129.817 43.837 130.906 44.3765 132.222 44.3765C133.266 44.3765 133.902 43.9719 133.902 43.2975V43.2525C133.902 42.6231 133.493 42.3083 131.587 41.8138C129.272 41.2293 127.774 40.5998 127.774 38.3068V38.2618C127.774 36.1936 129.453 34.7998 131.814 34.7998C133.493 34.7998 134.946 35.3393 136.08 36.2386L134.764 38.1269C133.72 37.4076 132.721 37.0029 131.768 37.0029C130.815 37.0029 130.27 37.4525 130.27 37.9921V38.037C130.27 38.8014 130.77 39.0262 132.767 39.5207C135.127 40.1052 136.444 40.9595 136.444 42.9378V42.9827C136.444 45.2308 134.673 46.5347 132.222 46.5347C130.407 46.6246 128.636 45.9951 127.275 44.7812Z" fill="white"/>
<path d="M144.114 37.3175H140.619V34.9795H150.197V37.3175H146.702V46.4446H144.16V37.3175H144.114Z" fill="white"/>
<path d="M158.866 34.9346H161.227L166.174 46.4447H163.496L162.452 43.8819H157.55L156.506 46.4447H153.919L158.866 34.9346ZM161.545 41.6788L160.001 37.9919L158.458 41.6788H161.545Z" fill="white"/>
<path d="M173.391 37.3175H169.896V34.9795H179.474V37.3175H175.979V46.4446H173.391V37.3175Z" fill="white"/>
<path d="M184.194 35.0244H192.909V37.2725H186.736V39.5655H192.183V41.8136H186.736V44.1965H193V46.4446H184.194V35.0244Z" fill="white"/>
<defs>
<linearGradient id="paint0_linear" x1="18.4699" y1="57.5244" x2="18.4699" y2="30.6532" gradientUnits="userSpaceOnUse">
<stop stop-color="#0075B1"/>
<stop offset="1" stop-color="#005193"/>
</linearGradient>
<linearGradient id="paint1_linear" x1="20.9817" y1="57.5242" x2="20.9817" y2="30.6531" gradientUnits="userSpaceOnUse">
<stop stop-color="#0075B1"/>
<stop offset="1" stop-color="#005193"/>
</linearGradient>
<linearGradient id="paint2_linear" x1="20.2993" y1="57.5244" x2="20.2993" y2="30.6532" gradientUnits="userSpaceOnUse">
<stop stop-color="#0075B1"/>
<stop offset="1" stop-color="#005193"/>
</linearGradient>
<linearGradient id="paint3_linear" x1="20.4718" y1="57.5245" x2="20.4718" y2="30.6534" gradientUnits="userSpaceOnUse">
<stop stop-color="#0075B1"/>
<stop offset="1" stop-color="#005193"/>
</linearGradient>
<radialGradient id="paint4_radial" cx="0" cy="0" r="1" gradientUnits="userSpaceOnUse" gradientTransform="translate(6.50776 9.85083) scale(30.334 30.0471)">
<stop stop-color="white"/>
<stop offset="0.116" stop-color="#FFEE44"/>
<stop offset="0.1199" stop-color="#FFEC40"/>
<stop offset="0.1577" stop-color="#FFDB19"/>
<stop offset="0.1963" stop-color="#FECE00"/>
<stop offset="0.236" stop-color="#FDC600"/>
<stop offset="0.2782" stop-color="#FDC400"/>
<stop offset="0.6687" stop-color="#F29400"/>
</radialGradient>
</defs>
</svg>
