<svg width="131" height="44" viewBox="0 0 131 44" fill="none" xmlns="http://www.w3.org/2000/svg">
<g clip-path="url(#clip0)">
<path fill-rule="evenodd" clip-rule="evenodd" d="M3.86158 13.1822C9.01035 7.98093 17.3572 7.98093 22.5041 13.1822C27.0202 17.7443 27.5749 24.7953 24.1648 29.9673L29.4967 35.3536C30.5101 36.3773 30.5101 38.0531 29.4967 39.0769V39.0787C28.4814 40.1025 26.8226 40.1025 25.8073 39.0787L20.4772 33.6943C15.3575 37.1374 8.37763 36.5788 3.86158 32.0149C-1.28719 26.8154 -1.28719 18.3835 3.86158 13.1822ZM6.28912 15.6345C10.0963 11.7885 16.2694 11.7885 20.0766 15.6345C23.8838 19.4805 23.8838 25.7166 20.0766 29.5626C16.2694 33.4086 10.0963 33.4086 6.28912 29.5626C2.48193 25.7166 2.48193 19.4805 6.28912 15.6345Z" fill="#FB5314"/>
<path d="M96.7026 22.3649C96.7026 20.6928 97.1087 19.0756 97.9209 17.5152C98.7368 15.9494 99.8916 14.7571 101.382 13.9348C102.872 13.1125 104.533 12.6967 106.375 12.6967C109.219 12.6967 111.547 13.6289 113.362 15.4952C115.178 17.3651 116.085 19.7239 116.085 22.5773C116.085 25.4563 115.168 27.8445 113.336 29.7327C111.504 31.6246 109.196 32.5696 106.411 32.5696C104.69 32.5696 103.046 32.1722 101.485 31.3847C99.9279 30.6008 98.7368 29.4434 97.9209 27.9215C97.1087 26.4032 96.7026 24.5479 96.7026 22.3649ZM126.025 32.0935V2.53226C126.025 1.14953 127.146 0.0195312 128.513 0.0195312C129.881 0.0195312 131 1.15136 131 2.53226L130.989 32.0935H126.025ZM118.219 5.88928H123.181V35.4505C123.181 36.8314 122.062 37.9632 120.693 37.9632C119.326 37.9632 118.206 36.8314 118.219 35.4505V5.88928ZM39.2938 32.0935V5.88928H44.5459V32.0935H39.2938ZM64.3868 32.0935H59.423V22.4125C59.423 20.3631 59.316 19.039 59.1039 18.4419C58.8882 17.8376 58.5419 17.3742 58.0596 17.0391C57.5756 16.7039 56.9954 16.5391 56.3192 16.5391C55.4508 16.5391 54.6731 16.779 53.9841 17.2515C53.2898 17.7295 52.8202 18.3632 52.5646 19.1434C52.3072 19.9309 52.1784 21.3832 52.1784 23.504V32.0935H47.2146V13.0978H51.8159V15.8853C53.4638 13.7571 55.5342 12.6967 58.0415 12.6967C59.1402 12.6967 60.15 12.8964 61.0601 13.2938C61.9774 13.6949 62.6663 14.204 63.1305 14.8194C63.6018 15.442 63.9263 16.1435 64.1095 16.9292C64.2926 17.7167 64.3868 18.8394 64.3868 20.3027V32.0935ZM67.0591 13.0978H71.6241V15.6911C73.2612 13.6967 75.2101 12.6967 77.4745 12.6967C78.6765 12.6967 79.7207 12.9476 80.6037 13.4458C81.4884 13.9476 82.2154 14.7021 82.7756 15.7149C83.6041 14.7021 84.4979 13.9458 85.4515 13.4458C86.4051 12.9458 87.4258 12.6967 88.5117 12.6967C89.8896 12.6967 91.0553 12.9751 92.0143 13.5447C92.9698 14.1088 93.6823 14.9402 94.1518 16.0391C94.4963 16.8431 94.6649 18.1562 94.6649 19.9675V32.0935H89.7028V21.2532C89.7028 19.3686 89.5342 18.1526 89.1898 17.6123C88.7329 16.898 88.0168 16.5391 87.0632 16.5391C86.3688 16.5391 85.7089 16.7497 85.0943 17.1801C84.4834 17.6086 84.0374 18.2405 83.7672 19.0646C83.4953 19.8924 83.363 21.2001 83.363 22.9857V32.0935H78.3991V21.6982C78.3991 19.8576 78.3066 18.6617 78.1326 18.1306C77.9586 17.5958 77.6848 17.1929 77.3113 16.9292C76.9433 16.6691 76.4357 16.5391 75.803 16.5391C75.0361 16.5391 74.3472 16.746 73.738 17.1618C73.1216 17.5812 72.6865 18.18 72.4218 18.9657C72.1553 19.7532 72.023 21.0609 72.023 22.8758V32.0935H67.0591V13.0978ZM101.812 22.6323C101.812 24.5168 102.252 25.9636 103.133 26.9636C104.02 27.9691 105.107 28.4691 106.406 28.4691C107.698 28.4691 108.784 27.9672 109.66 26.9636C110.534 25.9618 110.976 24.5058 110.976 22.5956C110.976 20.7349 110.534 19.3027 109.66 18.3009C108.784 17.2973 107.698 16.7955 106.406 16.7955C105.107 16.7955 104.02 17.2955 103.133 18.3009C102.252 19.3009 101.812 20.7477 101.812 22.6323Z" fill="#5B5B5B"/>
<path d="M39.4353 41.9121V34.8574H40.8494V37.6357H43.5996V34.8574H45.0156V41.9121H43.5996V38.828H40.8494V41.9121H39.4353ZM45.4742 39.2932C45.4742 38.8426 45.583 38.4086 45.8042 37.9873C46.0236 37.5643 46.3336 37.2456 46.7342 37.024C47.1367 36.8006 47.5845 36.6889 48.0794 36.6889C48.8445 36.6889 49.4718 36.9416 49.9613 37.4434C50.4508 37.9471 50.6937 38.5826 50.6937 39.3499C50.6937 40.1265 50.4472 40.7675 49.954 41.2766C49.4591 41.7858 48.8391 42.0403 48.0885 42.0403C47.6262 42.0403 47.1838 41.9341 46.7632 41.7217C46.3426 41.511 46.0236 41.1997 45.8042 40.7894C45.583 40.381 45.4742 39.8811 45.4742 39.2932ZM46.8503 39.3646C46.8503 39.8719 46.9699 40.262 47.2074 40.5312C47.4449 40.8023 47.7386 40.9378 48.0885 40.9378C48.4348 40.9378 48.7285 40.8023 48.9642 40.5312C49.1998 40.262 49.3177 39.8701 49.3177 39.3554C49.3177 38.8536 49.1998 38.469 48.9642 38.1998C48.7285 37.9287 48.4348 37.7932 48.0885 37.7932C47.7386 37.7932 47.4449 37.9287 47.2074 38.1998C46.9699 38.469 46.8503 38.8573 46.8503 39.3646ZM51.1596 36.7987H52.3888V37.4965C52.8294 36.9599 53.3551 36.6889 53.9643 36.6889C54.2888 36.6889 54.5698 36.7566 54.8073 36.8921C55.0466 37.0258 55.2406 37.2291 55.3929 37.502C55.6159 37.2291 55.8552 37.0258 56.1126 36.8921C56.3701 36.7566 56.6438 36.6889 56.9375 36.6889C57.3073 36.6889 57.621 36.7658 57.8802 36.9178C58.1377 37.0716 58.3298 37.2932 58.4549 37.5899C58.5492 37.806 58.5945 38.1595 58.5945 38.6467V41.9121H57.2566V38.9946C57.2566 38.4873 57.2113 38.1595 57.1188 38.013C56.9955 37.8207 56.8033 37.7236 56.5477 37.7236C56.3592 37.7236 56.1833 37.7822 56.0165 37.8976C55.8534 38.013 55.7319 38.1833 55.6594 38.4049C55.5869 38.6284 55.5506 38.98 55.5506 39.4598V41.9121H54.2145V39.1137C54.2145 38.6174 54.1891 38.2969 54.1419 38.154C54.0948 38.0093 54.0223 37.8994 53.9208 37.8298C53.8229 37.7584 53.6851 37.7236 53.5147 37.7236C53.308 37.7236 53.1231 37.7804 52.9581 37.8921C52.7931 38.0057 52.6753 38.1668 52.6046 38.3774C52.532 38.5899 52.4976 38.9415 52.4976 39.4305V41.9121H51.1596V36.7987ZM62.4688 40.2968L63.805 40.5239C63.6345 41.0184 63.3626 41.3938 62.9928 41.6539C62.6229 41.9103 62.1588 42.0403 61.6058 42.0403C60.7248 42.0403 60.0739 41.751 59.6533 41.1686C59.3197 40.7015 59.1511 40.1136 59.1511 39.403C59.1511 38.5551 59.3705 37.8903 59.8092 37.4104C60.2461 36.9288 60.8009 36.6889 61.4699 36.6889C62.2222 36.6889 62.8151 36.9416 63.2502 37.4434C63.6853 37.9471 63.892 38.7163 63.8738 39.7547H60.5271C60.5362 40.1558 60.645 40.4671 60.8498 40.6906C61.0547 40.914 61.3121 41.0257 61.6185 41.0257C61.827 41.0257 62.0029 40.9689 62.1443 40.8536C62.2875 40.7382 62.3945 40.5532 62.4688 40.2968ZM62.5468 38.9269C62.5359 38.5349 62.438 38.2346 62.2476 38.0313C62.0573 37.8262 61.827 37.7236 61.5533 37.7236C61.2614 37.7236 61.0221 37.8335 60.8317 38.0478C60.6414 38.2639 60.5489 38.5569 60.5507 38.9269H62.5468ZM66.2234 40.4744L67.5704 40.2675C67.6266 40.5276 67.7427 40.7272 67.9185 40.8609C68.0926 40.9982 68.3373 41.066 68.651 41.066C68.9972 41.066 69.2583 41.0019 69.4342 40.8737C69.5502 40.7821 69.6082 40.6612 69.6082 40.5092C69.6082 40.4085 69.5774 40.3224 69.5139 40.2547C69.4468 40.1906 69.2964 40.1301 69.0661 40.077C67.9856 39.8353 67.3003 39.6155 67.0102 39.4159C66.6096 39.1393 66.4102 38.7547 66.4102 38.2639C66.4102 37.8189 66.5842 37.4452 66.9305 37.1431C67.2767 36.8409 67.8134 36.6889 68.5386 36.6889C69.2311 36.6889 69.7478 36.8042 70.0832 37.0332C70.4204 37.2621 70.6525 37.6009 70.7794 38.0496L69.5212 38.2859C69.4668 38.0862 69.3635 37.9306 69.213 37.8244C69.0607 37.7181 68.8449 37.665 68.5639 37.665C68.2086 37.665 67.9548 37.7145 67.8007 37.8152C67.6992 37.8848 67.6484 37.9782 67.6484 38.0899C67.6484 38.1851 67.6919 38.2676 67.7807 38.3353C67.904 38.4251 68.321 38.5514 69.0371 38.7163C69.7514 38.8811 70.2518 39.0807 70.5346 39.3188C70.8156 39.5587 70.9552 39.8957 70.9552 40.3261C70.9552 40.7949 70.7612 41.1979 70.3733 41.5348C69.9871 41.8718 69.4124 42.0403 68.651 42.0403C67.962 42.0403 67.4163 41.8993 67.0121 41.6191C66.6114 41.337 66.3485 40.9561 66.2234 40.4744ZM74.7624 40.2968L76.0986 40.5239C75.9281 41.0184 75.6562 41.3938 75.2864 41.6539C74.9165 41.9103 74.4524 42.0403 73.8976 42.0403C73.0184 42.0403 72.3657 41.751 71.9451 41.1686C71.6115 40.7015 71.4447 40.1136 71.4447 39.403C71.4447 38.5551 71.6641 37.8903 72.101 37.4104C72.5397 36.9288 73.0927 36.6889 73.7635 36.6889C74.514 36.6889 75.1087 36.9416 75.5438 37.4434C75.9771 37.9471 76.1856 38.7163 76.1656 39.7547H72.8207C72.8298 40.1558 72.9368 40.4671 73.1435 40.6906C73.3483 40.914 73.6058 41.0257 73.9103 41.0257C74.1206 41.0257 74.2965 40.9689 74.4379 40.8536C74.5811 40.7382 74.6881 40.5532 74.7624 40.2968ZM74.8404 38.9269C74.8295 38.5349 74.7298 38.2346 74.5412 38.0313C74.3509 37.8262 74.1188 37.7236 73.8469 37.7236C73.555 37.7236 73.3139 37.8335 73.1235 38.0478C72.935 38.2639 72.8407 38.5569 72.8443 38.9269H74.8404ZM80.0889 40.2968L81.425 40.5239C81.2546 41.0184 80.9845 41.3938 80.6146 41.6539C80.2448 41.9103 79.7807 42.0403 79.2259 42.0403C78.3466 42.0403 77.694 41.751 77.2733 41.1686C76.9398 40.7015 76.773 40.1136 76.773 39.403C76.773 38.5551 76.9923 37.8903 77.4293 37.4104C77.8662 36.9288 78.4209 36.6889 79.0917 36.6889C79.8423 36.6889 80.4351 36.9416 80.872 37.4434C81.3053 37.9471 81.5138 38.7163 81.4939 39.7547H78.149C78.1581 40.1558 78.265 40.4671 78.4717 40.6906C78.6766 40.914 78.934 41.0257 79.2386 41.0257C79.4489 41.0257 79.6247 40.9689 79.7662 40.8536C79.9094 40.7382 80.0163 40.5532 80.0889 40.2968ZM80.1668 38.9269C80.1577 38.5349 80.058 38.2346 79.8677 38.0313C79.6773 37.8262 79.4471 37.7236 79.1733 37.7236C78.8832 37.7236 78.6421 37.8335 78.4518 38.0478C78.2614 38.2639 78.1689 38.5569 78.1726 38.9269H80.1668ZM82.0523 41.9121V34.8574H83.3884V38.599L84.9548 36.7987H86.6028L84.8769 38.6668L86.7297 41.9121H85.2866L84.0084 39.6045L83.3884 40.2748V41.9121H82.0523ZM87.1358 36.1083V34.8574H88.4719V36.1083H87.1358ZM87.1358 41.9121V36.7987H88.4719V41.9121H87.1358ZM93.8654 41.9121H92.5293V39.306C92.5293 38.7547 92.5003 38.3976 92.4423 38.2364C92.3843 38.0734 92.2918 37.9489 92.1613 37.8591C92.0308 37.7694 91.8748 37.7236 91.6935 37.7236C91.4597 37.7236 91.2494 37.7877 91.0644 37.9159C90.8777 38.0441 90.7508 38.2163 90.6819 38.4251C90.6112 38.6375 90.5786 39.0276 90.5786 39.6008V41.9121H89.2406V36.7987H90.4807V37.5478C90.9248 36.9746 91.4814 36.6889 92.1558 36.6889C92.4532 36.6889 92.7233 36.7438 92.9698 36.85C93.2164 36.9599 93.4013 37.0954 93.5264 37.2621C93.6533 37.4288 93.7422 37.6174 93.7911 37.8298C93.8419 38.0423 93.8654 38.3445 93.8654 38.7382V41.9121ZM94.703 42.2381L96.235 42.4249C96.2604 42.6081 96.3184 42.7326 96.409 42.8004C96.5377 42.8974 96.739 42.9469 97.0109 42.9469C97.3608 42.9469 97.6219 42.8956 97.7977 42.7875C97.9156 42.718 98.0044 42.6044 98.0642 42.4469C98.1059 42.3352 98.1259 42.1264 98.1259 41.826L98.1331 41.0788C97.7306 41.6356 97.223 41.9121 96.6121 41.9121C95.9322 41.9121 95.3919 41.6228 94.9949 41.0422C94.6831 40.5843 94.5272 40.0129 94.5272 39.3316C94.5272 38.4727 94.732 37.8189 95.14 37.3683C95.5479 36.916 96.0573 36.6889 96.6646 36.6889C97.2919 36.6889 97.8086 36.9672 98.2147 37.5222V36.7987H99.4638V41.3847C99.4638 41.9872 99.4149 42.4377 99.3152 42.7363C99.2173 43.0348 99.0795 43.2674 98.9 43.4377C98.7242 43.608 98.4866 43.7417 98.1893 43.837C97.8902 43.934 97.5149 43.9816 97.0617 43.9816C96.2042 43.9816 95.595 43.8333 95.236 43.5348C94.8771 43.2363 94.6976 42.8608 94.6976 42.4029C94.6976 42.3572 94.6994 42.3022 94.703 42.2381ZM95.9032 39.251C95.9032 39.7931 96.0065 40.1906 96.2132 40.4415C96.4217 40.6924 96.6773 40.8188 96.9819 40.8188C97.3064 40.8188 97.5838 40.6887 97.8086 40.4305C98.0334 40.1741 98.1458 39.7931 98.1458 39.2858C98.1458 38.7584 98.0389 38.3646 97.8231 38.1082C97.6074 37.8518 97.3354 37.7236 97.0055 37.7236C96.6846 37.7236 96.4217 37.85 96.2132 38.1027C96.0065 38.3536 95.9032 38.7364 95.9032 39.251Z" fill="#B2B3B3"/>
</g>
<defs>
<clipPath id="clip0">
<rect width="131" height="44" fill="white"/>
</clipPath>
</defs>
</svg>
