<svg width="24" height="24" viewBox="0 0 24 24" fill="none" xmlns="http://www.w3.org/2000/svg">
<path d="M19.7171 9.61134V3.997C19.7171 3.44477 19.2689 2.99658 18.7167 2.99658H16.8589C16.3067 2.99658 15.8585 3.44477 15.8585 3.997V6.30396" stroke="#7E7E3F" stroke-width="1.5" stroke-linecap="round" stroke-linejoin="round"/>
<path d="M19.7171 9.61134V3.997C19.7171 3.44477 19.2689 2.99658 18.7167 2.99658H16.8589C16.3067 2.99658 15.8585 3.44477 15.8585 3.997V6.30396" stroke="#FB5314" stroke-width="1" stroke-linecap="round" stroke-linejoin="round"/>
<path d="M2.99622 10.7138L10.6974 4.11305C11.4467 3.47078 12.5522 3.47078 13.3015 4.11305L21.0037 10.7138" stroke="#7E7E3F" stroke-width="1" stroke-linecap="round" stroke-linejoin="round"/>
<path d="M2.99622 10.7138L10.6974 4.11305C11.4467 3.47078 12.5522 3.47078 13.3015 4.11305L21.0037 10.7138" stroke="#FB5314" stroke-width="1" stroke-linecap="round" stroke-linejoin="round"/>
<path d="M4.28271 9.61133V19.0032C4.28271 20.1087 5.17809 21.0041 6.28355 21.0041H10.9995" stroke="#7E7E3F" stroke-width="1" stroke-linecap="round" stroke-linejoin="round"/>
<path d="M4.28271 9.61133V19.0032C4.28271 20.1087 5.17809 21.0041 6.28355 21.0041H10.9995" stroke="#FB5314" stroke-width="1" stroke-linecap="round" stroke-linejoin="round"/>
<path d="M21.0037 21.0039L19.364 19.3643" stroke="#7E7E3F" stroke-width="1" stroke-linecap="round" stroke-linejoin="round"/>
<path d="M21.0037 21.0039L19.364 19.3643" stroke="#FB5314" stroke-width="1" stroke-linecap="round" stroke-linejoin="round"/>
<path d="M16.7259 13.001C18.7838 13.001 20.4515 14.6697 20.4515 16.7265C20.4515 18.7834 18.7828 20.4521 16.7259 20.4521C14.6691 20.4521 13.0004 18.7844 13.0004 16.7265C13.0004 14.6687 14.6691 13.001 16.7259 13.001" stroke="#7E7E3F" stroke-width="1" stroke-linecap="round" stroke-linejoin="round"/>
<path d="M16.7259 13.001C18.7838 13.001 20.4515 14.6697 20.4515 16.7265C20.4515 18.7834 18.7828 20.4521 16.7259 20.4521C14.6691 20.4521 13.0004 18.7844 13.0004 16.7265C13.0004 14.6687 14.6691 13.001 16.7259 13.001" stroke="#FB5314" stroke-width="1" stroke-linecap="round" stroke-linejoin="round"/>
<path d="M18.1756 16.002L16.3638 17.8137L15.2764 16.7263" stroke="#7E7E3F" stroke-width="1" stroke-linecap="round" stroke-linejoin="round"/>
<path d="M18.1756 16.002L16.3638 17.8137L15.2764 16.7263" stroke="#FB5314" stroke-width="1" stroke-linecap="round" stroke-linejoin="round"/>
</svg>