<svg width="24" height="24" viewBox="0 0 24 24" fill="none" xmlns="http://www.w3.org/2000/svg">
<path fill-rule="evenodd" clip-rule="evenodd" d="M5.99747 21.0038H3.99663C3.4444 21.0038 2.99622 20.5556 2.99622 20.0034V14.0009C2.99622 13.4487 3.4444 13.0005 3.99663 13.0005H5.99747C6.5497 13.0005 6.99788 13.4487 6.99788 14.0009V20.0034C6.99788 20.5556 6.5497 21.0038 5.99747 21.0038Z" stroke="#7E7E3F" stroke-width="1" stroke-linecap="round" stroke-linejoin="round"/>
<path fill-rule="evenodd" clip-rule="evenodd" d="M5.99747 21.0038H3.99663C3.4444 21.0038 2.99622 20.5556 2.99622 20.0034V14.0009C2.99622 13.4487 3.4444 13.0005 3.99663 13.0005H5.99747C6.5497 13.0005 6.99788 13.4487 6.99788 14.0009V20.0034C6.99788 20.5556 6.5497 21.0038 5.99747 21.0038Z" stroke="#FB5314" stroke-width="1" stroke-linecap="round" stroke-linejoin="round"/>
<path d="M13.0004 17.0021H15.3343C15.7675 17.0021 16.1887 16.862 16.5348 16.6019L18.9518 14.7892C19.5551 14.337 20.3994 14.397 20.9327 14.9302V14.9302C21.5249 15.5225 21.5249 16.4819 20.9327 17.0731L18.8588 19.147C18.3006 19.7052 17.5883 20.0864 16.814 20.2414L13.8827 20.8277C13.3015 20.9437 12.7022 20.9297 12.127 20.7857L9.4759 20.1234C9.15876 20.0434 8.83363 20.0033 8.50649 20.0033H6.99786" stroke="#7E7E3F" stroke-width="1" stroke-linecap="round" stroke-linejoin="round"/>
<path d="M13.0004 17.0021H15.3343C15.7675 17.0021 16.1887 16.862 16.5348 16.6019L18.9518 14.7892C19.5551 14.337 20.3994 14.397 20.9327 14.9302V14.9302C21.5249 15.5225 21.5249 16.4819 20.9327 17.0731L18.8588 19.147C18.3006 19.7052 17.5883 20.0864 16.814 20.2414L13.8827 20.8277C13.3015 20.9437 12.7022 20.9297 12.127 20.7857L9.4759 20.1234C9.15876 20.0434 8.83363 20.0033 8.50649 20.0033H6.99786" stroke="#FB5314" stroke-width="1" stroke-linecap="round" stroke-linejoin="round"/>
<path d="M13.0004 17.0022H14.486C15.3233 17.0022 16.0016 16.3239 16.0016 15.4865V15.1834C16.0016 14.4881 15.5284 13.8819 14.8541 13.7138L12.5612 13.1405C12.188 13.0475 11.8059 13.0005 11.4217 13.0005V13.0005C10.4943 13.0005 9.58694 13.2746 8.81562 13.7898L6.99786 15.0013" stroke="#7E7E3F" stroke-width="1" stroke-linecap="round" stroke-linejoin="round"/>
<path d="M13.0004 17.0022H14.486C15.3233 17.0022 16.0016 16.3239 16.0016 15.4865V15.1834C16.0016 14.4881 15.5284 13.8819 14.8541 13.7138L12.5612 13.1405C12.188 13.0475 11.8059 13.0005 11.4217 13.0005V13.0005C10.4943 13.0005 9.58694 13.2746 8.81562 13.7898L6.99786 15.0013" stroke="#FB5314" stroke-width="1" stroke-linecap="round" stroke-linejoin="round"/>
<path d="M13.4496 4.171L8.82263 4.174C8.55752 4.174 8.30341 4.28005 8.11634 4.46713L7.29099 5.29247C6.89983 5.68363 6.89983 6.3169 7.29099 6.70706L8.11934 7.5354C8.30641 7.72248 8.56152 7.82853 8.82663 7.82753L13.4526 7.82452L13.4636 7.82552C14.1268 9.11306 15.4544 10.0014 17.004 9.99943C19.213 9.99343 21.0037 8.19768 21.0037 5.98976C21.0047 3.78084 19.216 1.9941 17.007 1.9961C15.4634 2.0001 14.1388 2.88947 13.4726 4.172" stroke="#7E7E3F" stroke-width="1" stroke-linecap="round" stroke-linejoin="round"/>
<path d="M13.4496 4.171L8.82263 4.174C8.55752 4.174 8.30341 4.28005 8.11634 4.46713L7.29099 5.29247C6.89983 5.68363 6.89983 6.3169 7.29099 6.70706L8.11934 7.5354C8.30641 7.72248 8.56152 7.82853 8.82663 7.82753L13.4526 7.82452L13.4636 7.82552C14.1268 9.11306 15.4544 10.0014 17.004 9.99943C19.213 9.99343 21.0037 8.19768 21.0037 5.98976C21.0047 3.78084 19.216 1.9941 17.007 1.9961C15.4634 2.0001 14.1388 2.88947 13.4726 4.172" stroke="#FB5314" stroke-width="1" stroke-linecap="round" stroke-linejoin="round"/>
<path d="M17.0041 6.26181C17.1481 6.26181 17.2642 6.14476 17.2642 6.0007C17.2642 5.85664 17.1461 5.73959 17.0031 5.73959C16.859 5.73959 16.742 5.85664 16.742 6.0007C16.742 6.14476 16.859 6.26181 17.0041 6.26181" stroke="#7E7E3F" stroke-width="1.5" stroke-linecap="round" stroke-linejoin="round"/>
<path d="M17.0041 6.26181C17.1481 6.26181 17.2642 6.14476 17.2642 6.0007C17.2642 5.85664 17.1461 5.73959 17.0031 5.73959C16.859 5.73959 16.742 5.85664 16.742 6.0007C16.742 6.14476 16.859 6.26181 17.0041 6.26181" stroke="#FB5314" stroke-width="1" stroke-linecap="round" stroke-linejoin="round"/>
</svg>
