
<svg width="24" height="24" viewBox="0 0 24 24" fill="none" xmlns="http://www.w3.org/2000/svg">
<path d="M14.0009 16.0148V20.5037C14.0009 20.7798 14.2149 21.0039 14.4801 21.0039H19.5252C19.7893 21.0039 20.0034 20.7798 20.0034 20.5037V15.9878" stroke="#7E7E3F" stroke-width="1" stroke-linecap="round" stroke-linejoin="round"/>
<path d="M14.0009 16.0148V20.5037C14.0009 20.7798 14.2149 21.0039 14.4801 21.0039H19.5252C19.7893 21.0039 20.0034 20.7798 20.0034 20.5037V15.9878" stroke="#FB5314" stroke-width="1" stroke-linecap="round" stroke-linejoin="round"/>
<path d="M13.0004 16.6691L17.0841 14.001L21.0037 16.6691" stroke="#7E7E3F" stroke-width="1" stroke-linecap="round" stroke-linejoin="round"/>
<path d="M13.0004 16.6691L17.0841 14.001L21.0037 16.6691" stroke="#FB5314" stroke-width="1" stroke-linecap="round" stroke-linejoin="round"/>
<path fill-rule="evenodd" clip-rule="evenodd" d="M10.4553 12.8675C11.8272 12.8675 12.9394 11.7553 12.9394 10.3834C12.9394 9.01155 11.8272 7.89941 10.4553 7.89941C9.08345 7.89941 7.97131 9.01155 7.97131 10.3834C7.97131 11.7553 9.08345 12.8675 10.4553 12.8675Z" stroke="#7E7E3F" stroke-width="1" stroke-linecap="round" stroke-linejoin="round"/>
<path fill-rule="evenodd" clip-rule="evenodd" d="M10.4553 12.8675C11.8272 12.8675 12.9394 11.7553 12.9394 10.3834C12.9394 9.01155 11.8272 7.89941 10.4553 7.89941C9.08345 7.89941 7.97131 9.01155 7.97131 10.3834C7.97131 11.7553 9.08345 12.8675 10.4553 12.8675Z" stroke="#FB5314" stroke-width="1" stroke-linecap="round" stroke-linejoin="round"/>
<path d="M17.8914 10.9239C18.0215 8.86203 17.3052 6.75715 15.7295 5.18149C12.8163 2.26828 8.09434 2.26828 5.18113 5.18149C2.26791 8.09471 2.26791 12.8167 5.18113 15.7299L10.4553 21.0041" stroke="#7E7E3F" stroke-width="1" stroke-linecap="round" stroke-linejoin="round"/>
<path d="M17.8914 10.9239C18.0215 8.86203 17.3052 6.75715 15.7295 5.18149C12.8163 2.26828 8.09434 2.26828 5.18113 5.18149C2.26791 8.09471 2.26791 12.8167 5.18113 15.7299L10.4553 21.0041" stroke="#FB5314" stroke-width="1" stroke-linecap="round" stroke-linejoin="round"/>
</svg>