<svg width="48" height="48" viewBox="0 0 48 48" fill="none" xmlns="http://www.w3.org/2000/svg">
<path fill-rule="evenodd" clip-rule="evenodd" d="M11.9949 42.0076H7.99326C6.8888 42.0076 5.99243 41.1113 5.99243 40.0068V28.0018C5.99243 26.8973 6.8888 26.001 7.99326 26.001H11.9949C13.0994 26.001 13.9958 26.8973 13.9958 28.0018V40.0068C13.9958 41.1113 13.0994 42.0076 11.9949 42.0076Z" stroke="#7E7E3F" stroke-width="2" stroke-linecap="round" stroke-linejoin="round"/>
<path fill-rule="evenodd" clip-rule="evenodd" d="M11.9949 42.0076H7.99326C6.8888 42.0076 5.99243 41.1113 5.99243 40.0068V28.0018C5.99243 26.8973 6.8888 26.001 7.99326 26.001H11.9949C13.0994 26.001 13.9958 26.8973 13.9958 28.0018V40.0068C13.9958 41.1113 13.0994 42.0076 11.9949 42.0076Z" stroke="#FB5314" stroke-width="2" stroke-linecap="round" stroke-linejoin="round"/>
<path d="M26.0007 34.0042H30.6687C31.535 34.0042 32.3774 33.7241 33.0697 33.2038L37.9037 29.5783C39.1102 28.674 40.7989 28.794 41.8653 29.8605V29.8605C43.0498 31.0449 43.0498 32.9637 41.8653 34.1462L37.7176 38.294C36.6011 39.4104 35.1766 40.1728 33.6279 40.4829L27.7655 41.6554C26.603 41.8875 25.4045 41.8595 24.254 41.5713L18.9518 40.2468C18.3175 40.0867 17.6673 40.0067 17.013 40.0067H13.9957" stroke="#7E7E3F" stroke-width="2" stroke-linecap="round" stroke-linejoin="round"/>
<path d="M26.0007 34.0042H30.6687C31.535 34.0042 32.3774 33.7241 33.0697 33.2038L37.9037 29.5783C39.1102 28.674 40.7989 28.794 41.8653 29.8605V29.8605C43.0498 31.0449 43.0498 32.9637 41.8653 34.1462L37.7176 38.294C36.6011 39.4104 35.1766 40.1728 33.6279 40.4829L27.7655 41.6554C26.603 41.8875 25.4045 41.8595 24.254 41.5713L18.9518 40.2468C18.3175 40.0867 17.6673 40.0067 17.013 40.0067H13.9957" stroke="#FB5314" stroke-width="2" stroke-linecap="round" stroke-linejoin="round"/>
<path d="M26.0007 34.0043H28.972C30.6467 34.0043 32.0032 32.6477 32.0032 30.973V30.3668C32.0032 28.9762 31.0568 27.7637 29.7083 27.4276L25.1224 26.2811C24.3761 26.095 23.6117 26.001 22.8434 26.001V26.001C20.9886 26.001 19.1739 26.5492 17.6312 27.5796L13.9957 30.0026" stroke="#7E7E3F" stroke-width="2" stroke-linecap="round" stroke-linejoin="round"/>
<path d="M26.0007 34.0043H28.972C30.6467 34.0043 32.0032 32.6477 32.0032 30.973V30.3668C32.0032 28.9762 31.0568 27.7637 29.7083 27.4276L25.1224 26.2811C24.3761 26.095 23.6117 26.001 22.8434 26.001V26.001C20.9886 26.001 19.1739 26.5492 17.6312 27.5796L13.9957 30.0026" stroke="#FB5314" stroke-width="2" stroke-linecap="round" stroke-linejoin="round"/>
<path d="M26.8991 8.34152L17.6453 8.34752C17.115 8.34752 16.6068 8.55961 16.2327 8.93376L14.582 10.5845C13.7997 11.3668 13.7997 12.6333 14.582 13.4136L16.2387 15.0703C16.6128 15.4445 17.123 15.6566 17.6533 15.6546L26.9051 15.6486L26.9271 15.6506C28.2537 18.2256 30.9088 20.0024 34.0081 19.9984C38.4259 19.9864 42.0074 16.3949 42.0074 11.979C42.0094 7.56119 38.4319 3.9877 34.0141 3.9917C30.9268 3.99971 28.2777 5.77845 26.9451 8.34352" stroke="#7E7E3F" stroke-width="2" stroke-linecap="round" stroke-linejoin="round"/>
<path d="M26.8991 8.34152L17.6453 8.34752C17.115 8.34752 16.6068 8.55961 16.2327 8.93376L14.582 10.5845C13.7997 11.3668 13.7997 12.6333 14.582 13.4136L16.2387 15.0703C16.6128 15.4445 17.123 15.6566 17.6533 15.6546L26.9051 15.6486L26.9271 15.6506C28.2537 18.2256 30.9088 20.0024 34.0081 19.9984C38.4259 19.9864 42.0074 16.3949 42.0074 11.979C42.0094 7.56119 38.4319 3.9877 34.0141 3.9917C30.9268 3.99971 28.2777 5.77845 26.9451 8.34352" stroke="#FB5314" stroke-width="2" stroke-linecap="round" stroke-linejoin="round"/>
<path d="M34.0082 12.5231C34.2963 12.5231 34.5284 12.289 34.5284 12.0009C34.5284 11.7128 34.2923 11.4787 34.0062 11.4787C33.718 11.4787 33.4839 11.7128 33.4839 12.0009C33.4839 12.289 33.718 12.5231 34.0082 12.5231" stroke="#7E7E3F" stroke-width="2" stroke-linecap="round" stroke-linejoin="round"/>
<path d="M34.0082 12.5231C34.2963 12.5231 34.5284 12.289 34.5284 12.0009C34.5284 11.7128 34.2923 11.4787 34.0062 11.4787C33.718 11.4787 33.4839 11.7128 33.4839 12.0009C33.4839 12.289 33.718 12.5231 34.0082 12.5231" stroke="#FB5314" stroke-width="2" stroke-linecap="round" stroke-linejoin="round"/>
</svg>
