<svg width="120" height="120" viewBox="0 0 120 120" fill="none" xmlns="http://www.w3.org/2000/svg">
<circle cx="60" cy="60" r="59" fill="white" stroke="#D9DBE0" stroke-width="2"/>
<g opacity="0.2">
<circle cx="60" cy="60" r="55" fill="#7E7E3F"/>
<circle cx="60" cy="60" r="55" fill="#FB5314"/>
</g>
<mask id="mask0" mask-type="alpha" maskUnits="userSpaceOnUse" x="5" y="5" width="110" height="110">
<circle cx="60" cy="60" r="55" fill="#D9DBE0"/>
</mask>
<g mask="url(#mask0)">
<path d="M60.0002 74.6667C73.1933 74.6667 83.8859 63.9975 83.8859 50.8333C83.8859 37.6691 73.1933 27 60.0002 27C46.8071 27 36.1145 37.6691 36.1145 50.8333C36.1145 63.9975 46.8071 74.6667 60.0002 74.6667ZM76.7202 80.625H73.6039C69.4612 82.5242 64.852 83.6042 60.0002 83.6042C55.1484 83.6042 50.5579 82.5242 46.3965 80.625H43.2802C29.4339 80.625 18.2002 91.8341 18.2002 105.65V113.396C18.2002 118.33 22.2122 122.333 27.1573 122.333H92.843C97.7881 122.333 101.8 118.33 101.8 113.396V105.65C101.8 91.8341 90.5664 80.625 76.7202 80.625Z" fill="white"/>
</g>
</svg>
