<svg width="460" height="250" viewBox="0 0 460 250" fill="none" xmlns="http://www.w3.org/2000/svg">
<rect width="460" height="250" rx="10" fill="#F1F3F8"/>
<path d="M260.607 110.977C259.873 108.209 258.264 105.867 255.506 105.131C250.508 103.789 230 103.667 230 103.667C230 103.667 209.492 103.789 204.494 105.131C201.736 105.867 200.136 108.209 199.393 110.977C198.056 115.992 198 126.333 198 126.333C198 126.333 198.056 136.675 199.393 141.69C200.127 144.457 201.736 146.799 204.494 147.536C209.492 148.877 230 149 230 149C230 149 250.508 148.877 255.506 147.536C258.264 146.799 259.873 144.457 260.607 141.69C261.944 136.675 262 126.333 262 126.333C262 126.333 261.944 115.992 260.607 110.977Z" fill="#D9DBE0"/>
<path d="M240.667 126.333L224.667 117V135.667" fill="white"/>
</svg>
