<svg width="23" height="23" viewBox="0 0 23 23" fill="none" xmlns="http://www.w3.org/2000/svg">
<g clip-path="url(#clip0)">
<path d="M11.5029 0.140259H11.4971C5.15631 0.140259 0 5.07376 0 11.1403C0 13.5465 0.81075 15.7768 2.18931 17.5876L0.756125 21.6741L5.17644 20.3225C6.99487 21.4748 9.16406 22.1403 11.5029 22.1403C17.8437 22.1403 23 17.2054 23 11.1403C23 5.07513 17.8437 0.140259 11.5029 0.140259ZM18.1944 15.6736C17.917 16.423 16.8159 17.0445 15.9376 17.226C15.3367 17.3484 14.5518 17.446 11.9097 16.3983C8.53012 15.059 6.35375 11.7741 6.18412 11.561C6.02169 11.3479 4.8185 9.82163 4.8185 8.24313C4.8185 6.66463 5.65656 5.89601 5.99438 5.56601C6.27181 5.29513 6.73037 5.17138 7.17025 5.17138C7.31256 5.17138 7.4405 5.17826 7.5555 5.18376C7.89331 5.19751 8.06294 5.21676 8.28575 5.72688C8.56319 6.36626 9.23881 7.94476 9.31931 8.10701C9.40125 8.26926 9.48319 8.48926 9.36819 8.70238C9.26038 8.92238 9.1655 9.02001 8.99587 9.20701C8.82625 9.39401 8.66525 9.53701 8.49562 9.73776C8.34037 9.91238 8.165 10.0994 8.3605 10.4225C8.556 10.7388 9.23162 11.7934 10.2264 12.6404C11.5101 13.7335 12.5508 14.0828 12.9231 14.2313C13.2006 14.3413 13.5312 14.3151 13.7339 14.1089C13.9912 13.8435 14.3089 13.4035 14.6323 12.9704C14.8623 12.6596 15.1527 12.6211 15.4574 12.7311C15.7679 12.8343 17.411 13.6111 17.7488 13.772C18.0866 13.9343 18.3094 14.0113 18.3914 14.1474C18.4719 14.2835 18.4719 14.9229 18.1944 15.6736Z" fill="#8F91A3"/>
</g>
<defs>
<clipPath id="clip0">
<rect width="23" height="22" fill="white" transform="translate(0 0.140259)"/>
</clipPath>
</defs>
</svg>
