<svg width="18" height="17" viewBox="0 0 18 17" fill="none" xmlns="http://www.w3.org/2000/svg">
<g clip-path="url(#clip0)">
<path d="M9.47771 0H9.47346C4.78677 0 0.975586 3.81225 0.975586 8.5C0.975586 10.3594 1.57484 12.0828 2.59377 13.4821L1.53446 16.6398L4.80165 15.5954C6.14571 16.4858 7.74902 17 9.47771 17C14.1644 17 17.9756 13.1867 17.9756 8.5C17.9756 3.81331 14.1644 0 9.47771 0ZM14.4236 12.0031C14.2186 12.5821 13.4047 13.0624 12.7555 13.2026C12.3114 13.2972 11.7313 13.3726 9.7784 12.563C7.28046 11.5281 5.67184 8.98981 5.54646 8.82512C5.4264 8.66044 4.53709 7.48106 4.53709 6.26131C4.53709 5.04156 5.15652 4.44763 5.40621 4.19263C5.61127 3.98331 5.95021 3.88769 6.27534 3.88769C6.38052 3.88769 6.47509 3.893 6.56009 3.89725C6.80977 3.90788 6.93515 3.92275 7.09984 4.31694C7.3049 4.811 7.80427 6.03075 7.86377 6.15613C7.92434 6.2815 7.9849 6.4515 7.8999 6.61619C7.82021 6.78619 7.75009 6.86162 7.62471 7.00612C7.49934 7.15062 7.38034 7.26113 7.25496 7.41625C7.14021 7.55119 7.01059 7.69569 7.15509 7.94537C7.29959 8.18975 7.79896 9.00469 8.53421 9.65919C9.48302 10.5039 10.2523 10.7738 10.5275 10.8885C10.7325 10.9735 10.9769 10.9533 11.1267 10.7939C11.3169 10.5889 11.5517 10.2489 11.7908 9.91419C11.9608 9.67406 12.1754 9.64431 12.4006 9.72931C12.6301 9.809 13.8446 10.4093 14.0943 10.5336C14.344 10.659 14.5086 10.7185 14.5692 10.8237C14.6287 10.9289 14.6287 11.4229 14.4236 12.0031Z" fill="black"/>
</g>
<defs>
<clipPath id="clip0">
<rect width="17" height="17" fill="white" transform="translate(0.975586)"/>
</clipPath>
</defs>
</svg>
