<svg width="28" height="28" viewBox="0 0 28 28" fill="none" xmlns="http://www.w3.org/2000/svg">
<path d="M14 3.61621C19.4448 9.36438 19.4448 18.6347 14 24.3829" stroke="#7CBC42" stroke-width="2" stroke-linecap="round" stroke-linejoin="round"/>
<path d="M14 3.61621C19.4448 9.36438 19.4448 18.6347 14 24.3829" stroke="#39A046" stroke-width="2" stroke-linecap="round" stroke-linejoin="round"/>
<path d="M14 3.61621C19.4448 9.36438 19.4448 18.6347 14 24.3829" stroke="#3272ED" stroke-width="2" stroke-linecap="round" stroke-linejoin="round"/>
<path d="M14 3.61621C19.4448 9.36438 19.4448 18.6347 14 24.3829" stroke="#4889DE" stroke-width="2" stroke-linecap="round" stroke-linejoin="round"/>
<path d="M14.0001 24.3829C8.5553 18.6347 8.5553 9.36438 14.0001 3.61621" stroke="#7CBC42" stroke-width="2" stroke-linecap="round" stroke-linejoin="round"/>
<path d="M14.0001 24.3829C8.5553 18.6347 8.5553 9.36438 14.0001 3.61621" stroke="#39A046" stroke-width="2" stroke-linecap="round" stroke-linejoin="round"/>
<path d="M14.0001 24.3829C8.5553 18.6347 8.5553 9.36438 14.0001 3.61621" stroke="#3272ED" stroke-width="2" stroke-linecap="round" stroke-linejoin="round"/>
<path d="M14.0001 24.3829C8.5553 18.6347 8.5553 9.36438 14.0001 3.61621" stroke="#4889DE" stroke-width="2" stroke-linecap="round" stroke-linejoin="round"/>
<path d="M14 3.5C19.8123 3.5 24.5 8.18767 24.5 14C24.5 19.8123 19.8123 24.5 14 24.5" stroke="#7CBC42" stroke-width="2" stroke-linecap="round" stroke-linejoin="round"/>
<path d="M14 3.5C19.8123 3.5 24.5 8.18767 24.5 14C24.5 19.8123 19.8123 24.5 14 24.5" stroke="#39A046" stroke-width="2" stroke-linecap="round" stroke-linejoin="round"/>
<path d="M14 3.5C19.8123 3.5 24.5 8.18767 24.5 14C24.5 19.8123 19.8123 24.5 14 24.5" stroke="#3272ED" stroke-width="2" stroke-linecap="round" stroke-linejoin="round"/>
<path d="M14 3.5C19.8123 3.5 24.5 8.18767 24.5 14C24.5 19.8123 19.8123 24.5 14 24.5" stroke="#4889DE" stroke-width="2" stroke-linecap="round" stroke-linejoin="round"/>
<path d="M14 24.5C8.18767 24.5 3.5 19.8123 3.5 14C3.5 8.18767 8.18767 3.5 14 3.5" stroke="#7CBC42" stroke-width="2" stroke-linecap="round" stroke-linejoin="round"/>
<path d="M14 24.5C8.18767 24.5 3.5 19.8123 3.5 14C3.5 8.18767 8.18767 3.5 14 3.5" stroke="#39A046" stroke-width="2" stroke-linecap="round" stroke-linejoin="round"/>
<path d="M14 24.5C8.18767 24.5 3.5 19.8123 3.5 14C3.5 8.18767 8.18767 3.5 14 3.5" stroke="#3272ED" stroke-width="2" stroke-linecap="round" stroke-linejoin="round"/>
<path d="M14 24.5C8.18767 24.5 3.5 19.8123 3.5 14C3.5 8.18767 8.18767 3.5 14 3.5" stroke="#4889DE" stroke-width="2" stroke-linecap="round" stroke-linejoin="round"/>
<path d="M4.09497 10.5003H23.905" stroke="#7CBC42" stroke-width="2" stroke-linecap="round" stroke-linejoin="round"/>
<path d="M4.09497 10.5003H23.905" stroke="#39A046" stroke-width="2" stroke-linecap="round" stroke-linejoin="round"/>
<path d="M4.09497 10.5003H23.905" stroke="#3272ED" stroke-width="2" stroke-linecap="round" stroke-linejoin="round"/>
<path d="M4.09497 10.5003H23.905" stroke="#4889DE" stroke-width="2" stroke-linecap="round" stroke-linejoin="round"/>
<path d="M4.09497 17.5003H23.905" stroke="#7CBC42" stroke-width="2" stroke-linecap="round" stroke-linejoin="round"/>
<path d="M4.09497 17.5003H23.905" stroke="#39A046" stroke-width="2" stroke-linecap="round" stroke-linejoin="round"/>
<path d="M4.09497 17.5003H23.905" stroke="#3272ED" stroke-width="2" stroke-linecap="round" stroke-linejoin="round"/>
<path d="M4.09497 17.5003H23.905" stroke="#4889DE" stroke-width="2" stroke-linecap="round" stroke-linejoin="round"/>
</svg>
