<svg width="28" height="20" viewBox="0 0 28 20" fill="none" xmlns="http://www.w3.org/2000/svg">
<rect width="28" height="20" rx="2" fill="white"/>
<mask id="mask0" mask-type="alpha" maskUnits="userSpaceOnUse" x="0" y="0" width="28" height="20">
<rect width="28" height="20" rx="2" fill="white"/>
</mask>
<g mask="url(#mask0)">
<rect width="28" height="20" fill="#30C6E0"/>
<path fill-rule="evenodd" clip-rule="evenodd" d="M14 14C16.2091 14 18 12.2091 18 10C18 7.79086 16.2091 6 14 6C11.7909 6 10 7.79086 10 10C10 12.2091 11.7909 14 14 14Z" fill="#FFCD4B"/>
<path fill-rule="evenodd" clip-rule="evenodd" d="M12.3682 17.1495L14 14.7136L15.6318 17.1495L16.0452 14.2468L18.5723 15.7334L17.6853 12.9389L20.6071 13.1818L18.5954 11.0489L21.3333 10L18.5954 8.95112L20.6071 6.81818L17.6853 7.06111L18.5723 4.26657L16.0452 5.75318L15.6318 2.85052L14 5.28638L12.3682 2.85052L11.9548 5.75318L9.42774 4.26657L10.3147 7.06111L7.39289 6.81818L9.40457 8.95112L6.66667 10L9.40457 11.0489L7.39289 13.1818L10.3147 12.9389L9.42774 15.7334L11.9548 14.2468L12.3682 17.1495ZM18.6667 10C18.6667 12.5773 16.5773 14.6667 14 14.6667C11.4227 14.6667 9.33333 12.5773 9.33333 10C9.33333 7.42267 11.4227 5.33333 14 5.33333C16.5773 5.33333 18.6667 7.42267 18.6667 10Z" fill="#FFCD4B"/>
<path fill-rule="evenodd" clip-rule="evenodd" d="M1.33333 1.66665C1.33333 1.48255 1.48257 1.33331 1.66667 1.33331H2.33333C2.51743 1.33331 2.66667 1.48255 2.66667 1.66665V2.33331C2.66667 2.51741 2.51743 2.66665 2.33333 2.66665H1.66667C1.48257 2.66665 1.33333 2.51741 1.33333 2.33331V1.66665ZM1.33333 4.33331C1.33333 4.14922 1.48257 3.99998 1.66667 3.99998H2.33333C2.51743 3.99998 2.66667 4.14922 2.66667 4.33331V4.99998C2.66667 5.18407 2.51743 5.33331 2.33333 5.33331H1.66667C1.48257 5.33331 1.33333 5.18407 1.33333 4.99998V4.33331ZM1.66667 6.66665C1.48257 6.66665 1.33333 6.81589 1.33333 6.99998V7.66665C1.33333 7.85074 1.48257 7.99998 1.66667 7.99998H2.33333C2.51743 7.99998 2.66667 7.85074 2.66667 7.66665V6.99998C2.66667 6.81589 2.51743 6.66665 2.33333 6.66665H1.66667ZM1.33333 9.66665C1.33333 9.48255 1.48257 9.33331 1.66667 9.33331H2.33333C2.51743 9.33331 2.66667 9.48255 2.66667 9.66665V10.3333C2.66667 10.5174 2.51743 10.6666 2.33333 10.6666H1.66667C1.48257 10.6666 1.33333 10.5174 1.33333 10.3333V9.66665ZM1.66667 12C1.48257 12 1.33333 12.1492 1.33333 12.3333V13C1.33333 13.1841 1.48257 13.3333 1.66667 13.3333H2.33333C2.51743 13.3333 2.66667 13.1841 2.66667 13V12.3333C2.66667 12.1492 2.51743 12 2.33333 12H1.66667ZM1.33333 15C1.33333 14.8159 1.48257 14.6666 1.66667 14.6666H2.33333C2.51743 14.6666 2.66667 14.8159 2.66667 15V15.6666C2.66667 15.8507 2.51743 16 2.33333 16H1.66667C1.48257 16 1.33333 15.8507 1.33333 15.6666V15ZM1.66667 17.3333C1.48257 17.3333 1.33333 17.4826 1.33333 17.6666V18.3333C1.33333 18.5174 1.48257 18.6666 1.66667 18.6666H2.33333C2.51743 18.6666 2.66667 18.5174 2.66667 18.3333V17.6666C2.66667 17.4826 2.51743 17.3333 2.33333 17.3333H1.66667ZM2.66667 16.3333C2.66667 16.1492 2.81591 16 3 16H3.66667C3.85076 16 4 16.1492 4 16.3333V17C4 17.1841 3.85076 17.3333 3.66667 17.3333H3C2.81591 17.3333 2.66667 17.1841 2.66667 17V16.3333ZM3 13.3333C2.81591 13.3333 2.66667 13.4826 2.66667 13.6666V14.3333C2.66667 14.5174 2.81591 14.6666 3 14.6666H3.66667C3.85076 14.6666 4 14.5174 4 14.3333V13.6666C4 13.4826 3.85076 13.3333 3.66667 13.3333H3ZM2.66667 11C2.66667 10.8159 2.81591 10.6666 3 10.6666H3.66667C3.85076 10.6666 4 10.8159 4 11V11.6666C4 11.8507 3.85076 12 3.66667 12H3C2.81591 12 2.66667 11.8507 2.66667 11.6666V11ZM3 7.99998C2.81591 7.99998 2.66667 8.14922 2.66667 8.33331V8.99998C2.66667 9.18407 2.81591 9.33331 3 9.33331H3.66667C3.85076 9.33331 4 9.18407 4 8.99998V8.33331C4 8.14922 3.85076 7.99998 3.66667 7.99998H3ZM2.66667 5.66665C2.66667 5.48255 2.81591 5.33331 3 5.33331H3.66667C3.85076 5.33331 4 5.48255 4 5.66665V6.33331C4 6.51741 3.85076 6.66665 3.66667 6.66665H3C2.81591 6.66665 2.66667 6.51741 2.66667 6.33331V5.66665ZM3 2.66665C2.81591 2.66665 2.66667 2.81589 2.66667 2.99998V3.66665C2.66667 3.85074 2.81591 3.99998 3 3.99998H3.66667C3.85076 3.99998 4 3.85074 4 3.66665V2.99998C4 2.81588 3.85076 2.66665 3.66667 2.66665H3Z" fill="#FFCD4B"/>
</g>
</svg>
