<svg width="28" height="20" viewBox="0 0 28 20" fill="none" xmlns="http://www.w3.org/2000/svg">
<rect x="0.25" y="0.25" width="27.5" height="19.5" rx="1.75" fill="white" stroke="#F5F5F5" stroke-width="0.5"/>
<mask id="mask0" mask-type="alpha" maskUnits="userSpaceOnUse" x="0" y="0" width="28" height="20">
<rect x="0.25" y="0.25" width="27.5" height="19.5" rx="1.75" fill="white" stroke="white" stroke-width="0.5"/>
</mask>
<g mask="url(#mask0)">
<path fill-rule="evenodd" clip-rule="evenodd" d="M0 6.66667H28V0H0V6.66667Z" fill="#04AAC8"/>
<path fill-rule="evenodd" clip-rule="evenodd" d="M0 20H28V13.3334H0V20Z" fill="#23C840"/>
<path fill-rule="evenodd" clip-rule="evenodd" d="M4.66667 5.33337C5.07795 5.33337 5.46024 5.20923 5.7781 4.99637C5.74127 4.99881 5.70411 5.00004 5.66667 5.00004C4.7462 5.00004 4.00001 4.25385 4.00001 3.33337C4.00001 2.4129 4.7462 1.66671 5.66667 1.66671C5.70411 1.66671 5.74127 1.66794 5.7781 1.67037C5.46024 1.45752 5.07795 1.33337 4.66667 1.33337C3.5621 1.33337 2.66667 2.2288 2.66667 3.33337C2.66667 4.43794 3.5621 5.33337 4.66667 5.33337ZM8.00001 4.66671C8.00001 5.0349 7.70153 5.33337 7.33334 5.33337C6.96515 5.33337 6.66667 5.0349 6.66667 4.66671C6.66667 4.29852 6.96515 4.00004 7.33334 4.00004C7.70153 4.00004 8.00001 4.29852 8.00001 4.66671ZM10 2.66671C10.3682 2.66671 10.6667 2.36823 10.6667 2.00004C10.6667 1.63185 10.3682 1.33337 10 1.33337C9.63181 1.33337 9.33334 1.63185 9.33334 2.00004C9.33334 2.36823 9.63181 2.66671 10 2.66671ZM13.3333 2.00004C13.3333 2.36823 13.0349 2.66671 12.6667 2.66671C12.2985 2.66671 12 2.36823 12 2.00004C12 1.63185 12.2985 1.33337 12.6667 1.33337C13.0349 1.33337 13.3333 1.63185 13.3333 2.00004ZM12.6667 5.33337C13.0349 5.33337 13.3333 5.0349 13.3333 4.66671C13.3333 4.29852 13.0349 4.00004 12.6667 4.00004C12.2985 4.00004 12 4.29852 12 4.66671C12 5.0349 12.2985 5.33337 12.6667 5.33337ZM10.6667 4.66671C10.6667 5.0349 10.3682 5.33337 10 5.33337C9.63181 5.33337 9.33334 5.0349 9.33334 4.66671C9.33334 4.29852 9.63181 4.00004 10 4.00004C10.3682 4.00004 10.6667 4.29852 10.6667 4.66671Z" fill="white"/>
</g>
</svg>
