<svg width="16" height="15" viewBox="0 0 16 15" fill="none" xmlns="http://www.w3.org/2000/svg">
<g clip-path="url(#clip0)">
<path d="M15.7994 8.72826C15.7994 8.48096 15.5856 8.28046 15.3218 8.28046H0.678096C0.414314 8.28046 0.200439 8.48096 0.200439 8.72826C0.200439 10.7493 1.56391 12.4771 3.47369 13.1465C3.10631 13.5085 2.8791 14.005 2.8791 14.5522C2.8791 14.7995 3.09297 15 3.35675 15C3.62053 15 3.83441 14.7995 3.83441 14.5522C3.83441 13.9407 4.33206 13.4433 4.94381 13.4433C4.96628 13.4433 4.98819 13.4413 5.00985 13.4385C5.08281 13.4415 5.1561 13.4433 5.22981 13.4433H10.7701C10.8438 13.4433 10.9171 13.4415 10.9901 13.4385C11.0117 13.4413 11.0336 13.4433 11.0561 13.4433C11.6678 13.4433 12.1655 13.9407 12.1655 14.5522C12.1655 14.7995 12.3794 15 12.6432 15C12.907 15 13.1208 14.7995 13.1208 14.5522C13.1208 14.005 12.8936 13.5085 12.5263 13.1465C14.436 12.4771 15.7994 10.7492 15.7994 8.72826Z" fill="#818396"/>
<path d="M12.0458 0C10.7666 0 9.72583 0.975703 9.72583 2.175V2.99133C9.72583 3.23862 9.93971 3.43913 10.2035 3.43913C10.4673 3.43913 10.6811 3.23862 10.6811 2.99133V2.175C10.6811 1.46953 11.2933 0.895605 12.0458 0.895605C12.7983 0.895605 13.4105 1.46953 13.4105 2.175V7.38483H14.3658V2.175C14.3659 0.975703 13.3251 0 12.0458 0Z" fill="#818396"/>
<path d="M10.2035 4.12659C9.93971 4.12659 9.72583 4.3271 9.72583 4.57439V4.96249C9.72583 5.20978 9.93971 5.41029 10.2035 5.41029C10.4673 5.41029 10.6811 5.20978 10.6811 4.96249V4.57439C10.6811 4.32707 10.4673 4.12659 10.2035 4.12659Z" fill="#818396"/>
<path d="M10.2035 6.10114C9.93971 6.10114 9.72583 6.30164 9.72583 6.54894V6.93703C9.72583 7.18433 9.93971 7.38484 10.2035 7.38484C10.4673 7.38484 10.6811 7.18433 10.6811 6.93703V6.54894C10.6811 6.30164 10.4673 6.10114 10.2035 6.10114Z" fill="#818396"/>
</g>
<defs>
<clipPath id="clip0">
<rect width="16" height="15" fill="white"/>
</clipPath>
</defs>
</svg>
