<svg width="18" height="13" viewBox="0 0 18 13" fill="none" xmlns="http://www.w3.org/2000/svg">
<path d="M17.8968 3.94197C17.8088 3.83458 17.6775 3.77189 17.5396 3.77189H15.7878C15.3555 2.63163 14.7923 1.5144 14.1521 1.09268C11.9375 -0.364227 6.06353 -0.364227 3.84896 1.09268C3.20832 1.51486 2.64742 2.63347 2.2128 3.77189H0.460967C0.321779 3.77189 0.190887 3.83458 0.103779 3.94197C0.0162102 4.0489 -0.0188173 4.19039 0.00975777 4.32636L0.269238 5.58369C0.313483 5.79801 0.502447 5.95103 0.720448 5.95103H1.23941C0.738422 6.529 0.495534 7.25676 0.492308 7.98498C0.489082 8.88466 0.8306 9.69769 1.4551 10.2729C1.46202 10.2789 1.46893 10.283 1.47538 10.289V12.0483C1.47538 12.4294 1.7851 12.7396 2.16672 12.7396H3.78259C4.16421 12.7396 4.47392 12.4294 4.47392 12.0483V11.3413H13.5262V12.0483C13.5262 12.4294 13.8359 12.7396 14.2176 12.7396H15.8334C16.2141 12.7396 16.5248 12.4294 16.5248 12.0483V10.3236C17.1875 9.71659 17.5042 8.88144 17.5083 8.04767C17.5111 7.29456 17.2571 6.54006 16.7266 5.95011H17.2802C17.4991 5.95011 17.6881 5.79709 17.7314 5.58231L17.9913 4.32544C18.018 4.19039 17.9844 4.04982 17.8968 3.94197ZM4.60804 2.24724C6.37324 1.08531 11.6269 1.08531 13.3912 2.24724C13.7341 2.47215 14.1752 3.38151 14.5794 4.49505H3.42079C3.82407 3.38197 4.26514 2.47308 4.60804 2.24724ZM2.5405 8.15828C2.5405 7.40702 3.14979 6.79863 3.90058 6.79863C4.65229 6.79863 5.26066 7.40702 5.26066 8.15828C5.26066 8.90955 4.65229 9.5184 3.90058 9.5184C3.14979 9.5184 2.5405 8.90955 2.5405 8.15828ZM14.1175 9.5184C13.3668 9.5184 12.7575 8.90955 12.7575 8.15828C12.7575 7.40702 13.3668 6.79863 14.1175 6.79863C14.8693 6.79863 15.4776 7.40702 15.4776 8.15828C15.4776 8.90955 14.8683 9.5184 14.1175 9.5184Z" fill="#818396"/>
</svg>
