<svg width="15" height="15" viewBox="0 0 15 15" fill="none" xmlns="http://www.w3.org/2000/svg">
<g clip-path="url(#clip0)">
<path d="M14.5951 6.52428C14.5947 6.52393 14.5944 6.52359 14.5941 6.52325L8.47525 0.404663C8.21444 0.143738 7.86768 0 7.49884 0C7.13 0 6.78324 0.143623 6.52232 0.404549L0.406708 6.52004C0.404648 6.5221 0.402588 6.52428 0.400528 6.52634C-0.135055 7.06501 -0.13414 7.939 0.40316 8.4763C0.648636 8.72189 0.972847 8.86414 1.31949 8.87901C1.33356 8.88039 1.34776 8.88107 1.36206 8.88107H1.60593V13.384C1.60593 14.275 2.33092 15 3.22218 15H5.61606C5.85867 15 6.05551 14.8033 6.05551 14.5605V11.0303C6.05551 10.6237 6.38625 10.2929 6.79285 10.2929H8.20483C8.61143 10.2929 8.94217 10.6237 8.94217 11.0303V14.5605C8.94217 14.8033 9.13889 15 9.38162 15H11.7755C12.6668 15 13.3917 14.275 13.3917 13.384V8.88107H13.6179C13.9866 8.88107 14.3334 8.73745 14.5944 8.47652C15.1323 7.93831 15.1325 7.06284 14.5951 6.52428Z" fill="#818396"/>
</g>
<defs>
<clipPath id="clip0">
<rect width="15" height="15" fill="white"/>
</clipPath>
</defs>
</svg>
