<svg width="58" height="49" viewBox="0 0 58 49" fill="none" xmlns="http://www.w3.org/2000/svg">
<g clip-path="url(#clip0)">
<path fill-rule="evenodd" clip-rule="evenodd" d="M57.8378 20.3624C56.4232 20.7808 55.0085 21.2457 53.6171 21.7338C52.2952 22.1755 50.9734 22.6869 49.6515 23.175C49.5819 23.1983 49.5355 23.2215 49.5123 23.268L46.9614 24.2908C46.9382 24.2908 46.915 24.2908 46.8918 24.314C46.799 24.3373 46.7063 24.3838 46.6135 24.407C46.428 24.4767 46.2424 24.5697 46.0569 24.6394C44.9206 25.1508 43.7842 25.6622 42.6479 26.2201C40.3288 27.3591 38.0793 28.6376 35.969 30.1485C34.9718 30.8691 34.0209 31.6129 33.1165 32.4729C33.0469 32.5427 32.9542 32.5892 32.931 32.7286C33.418 32.4497 33.8586 32.1475 34.3224 31.8918C35.5515 31.1712 36.827 30.5669 38.1489 30.0555C38.9374 29.7533 39.749 29.4976 40.5839 29.2884C41.3724 29.1024 42.1841 28.9862 43.0189 28.9165C43.2276 28.8932 43.3436 28.9862 43.4364 29.1722C43.6683 29.6371 43.9234 30.102 44.1785 30.5669C45.0133 32.0778 45.8482 33.6119 46.6831 35.1228C47.5875 36.7732 48.4688 38.4236 49.3964 40.074C49.7442 40.6783 50.0921 41.306 50.4168 41.9103C50.811 42.6309 51.2053 43.3747 51.5763 44.1186C52.1329 45.1878 52.7358 46.2106 53.3156 47.2566C53.5707 47.6983 53.8026 48.1399 54.0345 48.6048C54.1737 48.8605 54.1273 48.9303 53.8258 48.9303C53.8026 48.9303 53.7794 48.9303 53.733 48.9303C48.7934 48.9303 43.8538 48.9303 38.891 48.9303C38.8446 48.9303 38.8214 48.9303 38.7518 48.9535C38.8214 48.9767 38.8678 49 38.9374 49.0465C38.6359 49.0697 38.4272 48.907 38.1721 48.9303C37.6851 48.9535 37.2213 48.9303 36.7342 48.9303C36.5255 48.9303 36.3864 48.8605 36.2936 48.6746C35.7602 47.6285 35.2269 46.6058 34.6935 45.583C33.9746 44.1651 33.2324 42.7471 32.5135 41.3524C31.8642 40.0972 31.2149 38.8188 30.5655 37.5636C29.777 36.0526 28.9885 34.5417 28.2233 33.0308C27.945 32.5194 27.6899 31.9848 27.4116 31.4734C27.342 31.3572 27.2956 31.2177 27.1565 31.4269C26.4839 32.5194 25.7882 33.6119 25.0925 34.7277C23.8866 36.657 22.7039 38.5863 21.4979 40.5156C20.6631 41.8638 19.8282 43.212 18.9702 44.5602C18.6687 45.0484 18.3904 45.5365 18.0657 46.0014C17.741 46.4663 17.5323 46.9777 17.2077 47.4193C16.9294 47.7913 16.6743 48.1632 16.4656 48.5816C16.3032 48.8838 16.1177 48.9767 15.793 48.9767C10.8766 48.9767 5.93697 48.9767 1.02053 48.9767C0.719055 48.9767 0.417575 49.093 0.116096 48.9767C0.0465235 48.9535 -0.0694301 49 -0.115812 48.907C-0.162193 48.814 -0.0694301 48.7443 0.000142038 48.6978C1.15968 47.3496 2.38879 46.0247 3.64109 44.7462C4.66148 43.7002 5.68187 42.6542 6.72545 41.6546L10.4128 38.2841C10.9694 37.796 11.5259 37.3311 12.1057 36.8662C13.4276 35.7737 14.7726 34.7277 16.1641 33.7282C17.1613 33.0076 18.1817 32.287 19.2021 31.6129C19.4572 31.4502 19.6891 31.1945 20.0601 31.1712C17.8802 33.7514 16.4656 36.7035 15.5611 39.9113C15.6307 39.888 15.7003 39.8415 15.7235 39.795C17.1613 38.3306 18.6919 36.9824 20.2456 35.6807C21.7762 34.4023 23.3764 33.1935 25.0229 32.0545C27.0637 30.6598 29.1509 29.3349 31.3076 28.1494C32.6759 27.4056 34.0441 26.685 35.4588 26.0574C37.1749 25.2671 38.9142 24.5465 40.6767 23.9189C41.9985 23.4307 43.3436 22.9891 44.7119 22.5939C45.9178 22.2452 47.1469 21.9431 48.376 21.6641C49.7442 21.3619 51.1125 21.1062 52.4808 20.897C53.1997 20.7808 53.9186 20.7111 54.6375 20.6181C55.7043 20.4786 56.771 20.4786 57.861 20.3159C57.977 20.3159 57.9074 20.3392 57.8378 20.3624Z" fill="#E40036"/>
<path fill-rule="evenodd" clip-rule="evenodd" d="M38.9374 21.4084C37.8475 21.7571 36.7575 22.1523 35.6907 22.5474C33.7195 23.2913 31.7947 24.1513 29.9162 25.0579C28.1305 25.9179 26.3681 26.871 24.6519 27.8472C24.5128 27.917 24.3737 28.0332 24.1649 28.0565C24.1881 27.9867 24.2113 27.9402 24.2345 27.8937C25.2549 26.2898 26.3449 24.7092 27.574 23.268C27.5972 23.2448 27.6204 23.1983 27.6435 23.175C27.9218 22.8496 28.2697 22.4545 28.6176 22.1058C28.9654 21.8268 29.2205 21.4782 29.5684 21.176C19.2717 25.2903 9.48521 30.3112 0.719116 37.1917C0.719116 37.0057 0.858261 36.936 0.927833 36.843C4.31368 33.4725 7.58357 30.009 11.2013 26.8942C12.2681 25.9644 13.3349 25.0811 14.448 24.1978C15.6771 23.2448 16.9526 22.3382 18.2745 21.5014C19.7587 20.5484 21.3125 19.7116 22.9126 18.9677C23.3996 18.7353 23.9098 18.5493 24.4664 18.3169C24.2577 18.2472 24.1417 18.3634 24.0026 18.3866C23.0054 18.5493 22.0546 18.805 21.0806 19.1072C19.1789 19.6883 17.3701 20.4787 15.6307 21.4549C15.5612 21.5014 15.4916 21.5712 15.422 21.5014C15.3293 21.4317 15.4452 21.3387 15.4684 21.269C15.909 20.5019 16.3265 19.7116 16.7671 18.9445C17.1613 18.2472 17.5556 17.5266 17.9498 16.8292L18.9006 15.1091C18.9702 14.9929 19.0398 14.8767 19.1094 14.7604L21.1038 11.1575C21.4284 10.5996 21.7299 10.0185 22.0546 9.46063C23.0982 7.60104 24.1417 5.74146 25.1853 3.85863C25.8579 2.67315 26.5072 1.46442 27.1565 0.255693C27.2029 0.162713 27.2493 0 27.3884 0C27.5276 0 27.5508 0.162713 27.6204 0.278937C28.0842 1.13899 28.548 1.99905 29.0118 2.85911C30.1018 4.85816 31.2149 6.85721 32.3049 8.85626C33.3948 10.8553 34.4848 12.8311 35.5748 14.8302C36.7343 16.9222 37.8707 19.0375 39.0302 21.1295C39.1461 21.269 39.1461 21.362 38.9374 21.4084Z" fill="#E40036"/>
</g>
<defs>
<clipPath id="clip0">
<rect width="58" height="49" fill="white"/>
</clipPath>
</defs>
</svg>
