<svg width="125" height="38" viewBox="0 0 125 38" fill="none" xmlns="http://www.w3.org/2000/svg">
<g clip-path="url(#clip0)">
<path d="M2.32244 27.3465C3.26317 27.6047 4.2627 27.6333 5.23283 27.576C5.85019 27.5186 6.46754 27.4039 7.0849 27.2605C6.87912 27.3465 6.70273 27.4326 6.52634 27.5473C5.7326 28.0062 5.08584 28.5512 4.46848 29.1535C4.90945 29.0961 5.35042 28.9814 5.76199 28.8954C6.17356 28.8093 6.58514 28.7233 6.96731 28.6659C7.76105 28.5512 8.5254 28.5225 9.28975 28.5799C10.0541 28.6085 10.8478 28.6946 11.5828 28.838C12.3177 28.9814 12.9645 29.1822 13.6406 29.469C14.3168 29.7558 15.0811 30.1861 15.9631 30.5016C16.8744 30.8171 17.8445 30.9892 18.7853 30.9892C19.726 30.9892 20.6079 30.8744 21.5193 30.645C22.4012 30.4155 23.2538 30.0427 23.9299 29.4977C23.048 29.5551 22.2248 29.5551 21.4017 29.469C20.6079 29.383 19.7848 29.2682 19.0499 29.0961C18.2855 28.924 17.6388 28.6946 16.9626 28.3791C16.3159 28.0636 15.6103 27.6333 14.7578 27.2605C14.111 26.9737 13.4055 26.7729 12.6705 26.6295C12.7881 26.6295 12.9351 26.6582 13.0527 26.6582C13.8758 26.7442 14.6108 26.9163 15.4045 27.1744C15.7867 27.2892 16.1983 27.4899 16.6392 27.6333C17.0802 27.8054 17.5506 27.9775 18.0797 28.0923C19.0793 28.3504 20.1376 28.4078 21.1371 28.3217C21.6369 28.2644 22.1072 28.1783 22.5776 28.0636C23.048 27.9489 23.5183 27.8054 23.9593 27.576C23.4889 27.5186 23.0186 27.4326 22.5482 27.3752C22.313 27.3178 22.1072 27.2892 21.8721 27.2318C21.6369 27.1744 21.4311 27.1457 21.1959 27.0884C20.314 26.8876 19.5202 26.6295 18.7853 26.2566C18.4031 26.0845 18.0503 25.8837 17.6682 25.6543C17.286 25.4248 16.845 25.224 16.404 24.9946C15.9337 24.7938 15.4339 24.593 14.9341 24.4496C14.405 24.3062 13.9052 24.2202 13.3761 24.1628C12.9939 24.1341 12.6411 24.1054 12.2883 24.1054L12.5235 24.0768L12.8763 24.0481C13.1115 24.0194 13.3467 24.0194 13.5524 23.9907C14.0228 23.9907 14.4638 23.9907 14.9341 24.0194C15.8455 24.1054 16.8156 24.2775 17.7857 24.4783C18.7559 24.7078 19.7848 24.9946 20.8137 25.138C21.8721 25.3101 22.9598 25.3675 23.9887 25.1667C21.9309 24.7364 20.2552 23.7899 18.3443 22.9868C17.8445 22.7861 17.3742 22.5853 16.845 22.4132C16.3158 22.2411 15.7867 22.0977 15.2281 22.0116C15.1105 21.983 15.0223 21.983 14.9047 21.9543C14.9341 21.9543 14.9635 21.9543 14.9929 21.9543C15.9631 21.9543 16.9626 21.9543 17.9033 22.0403C18.8735 22.0977 19.8436 22.2411 20.8725 22.3558C21.9015 22.4706 22.9304 22.5566 23.9593 22.4706C22.9892 22.155 22.0484 21.8109 21.1077 21.4667C20.167 21.1225 19.1968 20.7783 18.1679 20.5488C17.139 20.3194 16.1101 20.176 15.0517 20.1186C14.5226 20.0899 14.0228 20.0612 13.4936 20.0612C12.9351 20.0612 12.4059 20.0612 11.8768 20.1473C10.8184 20.262 9.78951 20.4628 8.78998 20.7209C7.79045 20.9791 6.84972 21.2659 5.90898 21.524C5.43862 21.6388 4.96825 21.7822 4.49788 21.8682C4.2627 21.9256 4.02752 21.9543 3.79233 21.983C3.55715 22.0116 3.29257 22.0403 3.05738 22.069C2.55762 22.0977 2.05786 22.155 1.55809 22.1837C1.02893 22.2411 0.499765 22.2985 0 22.2698C0.470367 22.4706 0.970132 22.5853 1.4699 22.7C1.96966 22.8147 2.46943 22.9008 2.99859 22.9868C3.26317 23.0155 3.49835 23.0442 3.76293 23.0729C4.02752 23.1016 4.2921 23.1302 4.58608 23.1302C5.11524 23.1589 5.6444 23.1016 6.17356 23.0729C7.1437 22.9868 8.08443 22.8147 8.99577 22.6426C8.84878 22.7 8.70179 22.7287 8.5548 22.7861C8.05503 22.9868 7.58467 23.1876 7.1437 23.3884C6.70273 23.5892 6.26176 23.7613 5.82079 23.9047C5.37982 24.0481 4.90945 24.1915 4.43909 24.3062C3.96872 24.4209 3.46896 24.5357 2.99859 24.6217C2.05785 24.8512 1.05833 24.9085 0 24.8225C0.911336 25.3388 1.96966 25.6256 3.05738 25.7116C3.61595 25.769 4.14511 25.769 4.67427 25.769C5.20343 25.769 5.76199 25.7116 6.32055 25.6256C6.46754 25.5969 6.61453 25.5682 6.79092 25.5395C6.17357 25.8551 5.58561 26.1706 4.93885 26.4287C4.11571 26.8016 3.23377 27.0884 2.32244 27.3465Z" fill="url(#paint0_linear)"/>
<path d="M20.4022 31.993C19.6378 31.993 18.8735 31.9644 18.1385 31.8783C17.7564 31.8209 17.4036 31.7923 17.0508 31.7062C16.698 31.6202 16.3453 31.5628 15.9925 31.4481C15.3163 31.2473 14.6696 30.9605 13.964 30.6163C13.6113 30.4442 13.2291 30.2721 12.8469 30.1287C12.4647 29.9853 12.0532 29.8419 11.6122 29.7558C10.7597 29.555 9.90712 29.4977 9.08398 29.5264C8.26084 29.555 7.4377 29.6411 6.64395 29.8706C6.23238 29.9853 5.85021 30.1 5.49743 30.2721C5.32105 30.3582 5.14466 30.4442 4.96827 30.5302C4.79188 30.645 4.6155 30.731 4.46851 30.8457C6.05599 30.5589 7.55529 30.6163 9.05458 30.7884C9.78953 30.8744 10.5245 31.0178 11.1712 31.2186C11.8474 31.4194 12.4941 31.7349 13.1997 32.0504C13.5525 32.2225 13.9346 32.3946 14.3168 32.538C14.699 32.6814 15.14 32.8248 15.5515 32.9109C16.4041 33.1116 17.2566 33.1403 18.0797 33.1116C18.9029 33.083 19.726 32.9682 20.5198 32.7388C21.3135 32.5093 22.0779 32.1651 22.7246 31.7062C22.313 31.7636 21.9309 31.8496 21.5487 31.8783C21.1665 31.9644 20.7844 31.993 20.4022 31.993Z" fill="url(#paint1_linear)"/>
<path d="M17.3154 34.345C16.6099 34.3163 15.9337 34.2589 15.2576 34.1442C14.5814 34.0295 13.964 33.8574 13.3467 33.6279C12.7293 33.3985 12.112 33.083 11.4064 32.7961C10.7303 32.5093 9.96593 32.3085 9.20158 32.1938C8.43723 32.0791 7.70229 32.0791 6.96734 32.1651C6.23239 32.2225 5.49744 32.3659 4.82129 32.5954C5.55624 32.624 6.26179 32.6527 6.96734 32.7675C7.67289 32.8535 8.34904 32.9682 8.9958 33.1403C9.64255 33.3124 10.2599 33.5419 10.8773 33.8574C11.4946 34.1442 12.1414 34.4884 12.8469 34.7752C13.5525 35.0333 14.3168 35.2341 15.0812 35.3202C15.8455 35.4062 16.5805 35.4062 17.3448 35.3202C18.0798 35.2628 18.8441 35.1194 19.5497 34.8899C20.2552 34.6605 20.902 34.3163 21.4899 33.9147C20.7844 34.0868 20.0788 34.2589 19.4027 34.3163C18.6971 34.3737 17.9916 34.3737 17.3154 34.345Z" fill="url(#paint2_linear)"/>
<path d="M13.4348 36.6396C12.9938 36.5535 12.5528 36.4961 12.0825 36.3814C11.6415 36.2954 11.1711 36.1806 10.7008 36.0946H10.7302C10.5832 36.0659 10.4656 36.0085 10.3186 35.9799C10.4068 36.0946 10.495 36.2093 10.6126 36.2954H10.642C11.0242 36.5822 11.4357 36.8403 11.9061 37.0411C12.3765 37.2419 12.8468 37.3566 13.3466 37.414C13.8464 37.4713 14.3461 37.5 14.8459 37.4427C15.3457 37.3853 15.816 37.2706 16.2864 37.0985C15.7866 36.9551 15.3163 36.8977 14.8459 36.8116L13.4348 36.6396Z" fill="url(#paint3_linear)"/>
<path d="M14.1992 0.5L4.43909 6.75271V10.5388L0 13.407V19H4.43909H8.90757H23.9299V6.75271L14.1992 0.5Z" fill="url(#paint4_radial)"/>
<path d="M14.1992 0.5V19H23.9299V6.75271L14.1992 0.5Z" fill="#E95D0F"/>
<path d="M37.2766 6.72403H38.5995L44.3027 19H42.774L41.3041 15.7876H34.5132L33.0433 19H31.6028L37.2766 6.72403ZM40.7455 14.5256L37.8939 8.33023L35.0423 14.5256H40.7455Z" fill="black"/>
<path d="M49.6531 9.67828H50.7408V18.0248H56.1206V19H49.6531V9.67828Z" fill="black"/>
<path d="M60.7361 9.67828H61.8238V19H60.7361V9.67828Z" fill="black"/>
<path d="M66.7334 14.3535C66.7334 11.686 68.7619 9.5062 71.5547 9.5062C73.2891 9.5062 74.3181 10.1085 75.2882 10.9977L74.5532 11.7721C73.7595 11.0263 72.8482 10.4814 71.5547 10.4814C69.438 10.4814 67.8505 12.1736 67.8505 14.2961V14.3248C67.8505 16.476 69.438 18.1682 71.5547 18.1682C72.8776 18.1682 73.7301 17.6806 74.6414 16.8201L75.347 17.5085C74.3475 18.4837 73.2597 19.1434 71.5253 19.1434C68.7913 19.1434 66.7334 17.0496 66.7334 14.3535Z" fill="black"/>
<path d="M83.3136 9.59225H84.3132L88.6641 19H87.5175L86.4004 16.5333H81.197L80.0505 19H78.9333L83.3136 9.59225ZM85.9889 15.5581L83.8134 10.8256L81.638 15.5581H85.9889Z" fill="black"/>
<path d="M93.1326 9.67828H94.1321L100.159 17.1356V9.67828H101.217V19H100.364L94.1909 11.3418V19H93.1326V9.67828Z" fill="black"/>
<path d="M108.978 10.6535H105.774V9.67828H113.3V10.6535H110.095V19H109.007V10.6535H108.978Z" fill="black"/>
<path d="M117.856 9.67828H124.765V10.6248H118.944V13.8085H124.147V14.755H118.944V18.0248H124.853V18.9713H117.886V9.67828H117.856Z" fill="black"/>
<path d="M31.7793 22.8434H35.1895C36.1302 22.8434 36.8651 23.1016 37.3649 23.5892C37.7765 23.9907 38.0117 24.5643 38.0117 25.2527V25.2814C38.0117 26.4574 37.3649 27.2031 36.4242 27.5473L38.2468 30.1574H36.336L34.7485 27.8341H33.455V30.1574H31.8087V22.8434H31.7793ZM35.0719 26.3713C35.8656 26.3713 36.336 25.9411 36.336 25.3388V25.3101C36.336 24.6217 35.8362 24.2775 35.0425 24.2775H33.3962V26.3713H35.0719Z" fill="black"/>
<path d="M41.3042 22.8434H46.9486V24.2775H42.9505V25.7403H46.4782V27.1744H42.9505V28.6946H47.0074V30.1287H41.3042V22.8434Z" fill="black"/>
<path d="M52.8282 22.786H54.3568L57.5612 30.1287H55.8267L55.1506 28.4938H51.9756L51.2995 30.1287H49.6238L52.8282 22.786ZM54.5626 27.0884L53.5631 24.7364L52.5636 27.0884H54.5626Z" fill="black"/>
<path d="M60.5303 22.8434H62.1766V28.6659H65.9101V30.1287H60.5303V22.8434Z" fill="black"/>
<path d="M73.9653 22.8434H79.6097V24.2775H75.6116V25.7403H79.1394V27.1744H75.6116V28.6946H79.6685V30.1287H73.9653V22.8434Z" fill="black"/>
<path d="M82.4319 29.0675L83.402 27.9202C84.0782 28.4651 84.7837 28.8093 85.6363 28.8093C86.3124 28.8093 86.724 28.5512 86.724 28.1209V28.0923C86.724 27.6907 86.4594 27.4899 85.2247 27.1744C83.7254 26.8016 82.7553 26.4 82.7553 24.9372V24.9085C82.7553 23.5892 83.843 22.7 85.3717 22.7C86.4594 22.7 87.4001 23.0442 88.1351 23.6178L87.2825 24.8225C86.6064 24.3636 85.9596 24.1054 85.3423 24.1054C84.7249 24.1054 84.3721 24.3923 84.3721 24.7364V24.7651C84.3721 25.2527 84.6955 25.3961 85.989 25.7116C87.5177 26.0845 88.3703 26.6295 88.3703 27.8915V27.9202C88.3703 29.3543 87.2237 30.1861 85.6363 30.1861C84.4603 30.2434 83.3138 29.8419 82.4319 29.0675Z" fill="black"/>
<path d="M93.3383 24.3062H91.0747V22.8147H97.2777V24.3062H95.014V30.1287H93.3677V24.3062H93.3383Z" fill="black"/>
<path d="M102.893 22.786H104.422L107.626 30.1287H105.891L105.215 28.4938H102.04L101.364 30.1287H99.6885L102.893 22.786ZM104.627 27.0884L103.628 24.7364L102.628 27.0884H104.627Z" fill="black"/>
<path d="M112.3 24.3062H110.036V22.8147H116.239V24.3062H113.976V30.1287H112.3V24.3062Z" fill="black"/>
<path d="M119.297 22.8434H124.941V24.2775H120.943V25.7403H124.471V27.1744H120.943V28.6946H125V30.1287H119.297V22.8434Z" fill="black"/>
</g>
<defs>
<linearGradient id="paint0_linear" x1="11.9624" y1="37.1966" x2="11.9624" y2="20.0547" gradientUnits="userSpaceOnUse">
<stop stop-color="#0075B1"/>
<stop offset="1" stop-color="#005193"/>
</linearGradient>
<linearGradient id="paint1_linear" x1="13.5892" y1="37.1966" x2="13.5892" y2="20.0547" gradientUnits="userSpaceOnUse">
<stop stop-color="#0075B1"/>
<stop offset="1" stop-color="#005193"/>
</linearGradient>
<linearGradient id="paint2_linear" x1="13.1472" y1="37.1966" x2="13.1472" y2="20.0547" gradientUnits="userSpaceOnUse">
<stop stop-color="#0075B1"/>
<stop offset="1" stop-color="#005193"/>
</linearGradient>
<linearGradient id="paint3_linear" x1="13.2588" y1="37.1966" x2="13.2588" y2="20.0547" gradientUnits="userSpaceOnUse">
<stop stop-color="#0075B1"/>
<stop offset="1" stop-color="#005193"/>
</linearGradient>
<radialGradient id="paint4_radial" cx="0" cy="0" r="1" gradientUnits="userSpaceOnUse" gradientTransform="translate(4.21487 6.78415) scale(19.6463 19.168)">
<stop stop-color="white"/>
<stop offset="0.116" stop-color="#FFEE44"/>
<stop offset="0.1199" stop-color="#FFEC40"/>
<stop offset="0.1577" stop-color="#FFDB19"/>
<stop offset="0.1963" stop-color="#FECE00"/>
<stop offset="0.236" stop-color="#FDC600"/>
<stop offset="0.2782" stop-color="#FDC400"/>
<stop offset="0.6687" stop-color="#F29400"/>
</radialGradient>
<clipPath id="clip0">
<rect width="125" height="37" fill="white" transform="translate(0 0.5)"/>
</clipPath>
</defs>
</svg>
