<svg width="23" height="23" viewBox="0 0 23 23" fill="none" xmlns="http://www.w3.org/2000/svg">
<g clip-path="url(#clip0)">
<path d="M22.7974 4.56934L15.822 11.4998L22.7974 18.4303C22.9235 18.1668 23 17.8754 23 17.5643V5.43538C23 5.12421 22.9235 4.83289 22.7974 4.56934Z" fill="#B4B0CC"/>
<path d="M20.9786 3.41406H2.02157C1.71039 3.41406 1.41907 3.49056 1.15552 3.61666L10.0708 12.4871C10.8591 13.2754 12.141 13.2754 12.9293 12.4871L21.8446 3.61666C21.5811 3.49056 21.2898 3.41406 20.9786 3.41406Z" fill="#B4B0CC"/>
<path d="M0.202598 4.56934C0.076502 4.83289 0 5.12421 0 5.43538V17.5643C0 17.8755 0.076502 18.1668 0.202598 18.4303L7.17802 11.4998L0.202598 4.56934Z" fill="#B4B0CC"/>
<path d="M14.8692 12.4526L13.8822 13.4397C12.5687 14.7532 10.4314 14.7532 9.11796 13.4397L8.13094 12.4526L1.15552 19.3831C1.41907 19.5092 1.71039 19.5857 2.02157 19.5857H20.9786C21.2898 19.5857 21.5811 19.5092 21.8446 19.3831L14.8692 12.4526Z" fill="#B4B0CC"/>
</g>
<defs>
<clipPath id="clip0">
<rect width="23" height="23" fill="white"/>
</clipPath>
</defs>
</svg>
