<svg width="26" height="27" viewBox="0 0 26 27" fill="none" xmlns="http://www.w3.org/2000/svg">
<g clip-path="url(#clip0)">
<path d="M7.65862 16.8679C7.65862 16.4361 7.35901 16.1786 6.83037 16.1786C6.61451 16.1786 6.46831 16.1999 6.39185 16.2203V17.6057C6.48239 17.626 6.59369 17.6328 6.74711 17.6328C7.31058 17.6328 7.65862 17.3482 7.65862 16.8679Z" fill="#818396"/>
<path d="M10.9311 16.1931C10.6944 16.1931 10.5414 16.2135 10.4509 16.2347V19.3029C10.5415 19.3242 10.6877 19.3242 10.8198 19.3242C11.7802 19.331 12.4066 18.8023 12.4066 17.6822C12.4134 16.7081 11.8426 16.1931 10.9311 16.1931Z" fill="#818396"/>
<path d="M17.0113 0.140289H6.56861C5.04303 0.140289 3.80138 1.3828 3.80138 2.90751V13.1402H3.5311C2.91537 13.1402 2.41602 13.6391 2.41602 14.2554V21.0179C2.41602 21.6342 2.91532 22.133 3.5311 22.133H3.80138V23.373C3.80138 24.8994 5.04303 26.1402 6.56861 26.1402H20.8172C22.3418 26.1402 23.5836 24.8993 23.5836 23.373V6.68958L17.0113 0.140289ZM5.34135 15.4758C5.66815 15.4206 6.12749 15.3789 6.77466 15.3789C7.42868 15.3789 7.89481 15.5038 8.20802 15.7545C8.5072 15.9908 8.7091 16.3809 8.7091 16.8399C8.7091 17.2988 8.55611 17.689 8.27774 17.9533C7.91568 18.2941 7.38025 18.4471 6.7539 18.4471C6.6145 18.4471 6.48955 18.4402 6.39184 18.4266V20.1035H5.34135V15.4758ZM20.8172 24.4455H6.56861C5.9779 24.4455 5.49688 23.9645 5.49688 23.373V22.133H18.7794C19.3953 22.133 19.8946 21.6342 19.8946 21.0179V14.2554C19.8946 13.6391 19.3953 13.1402 18.7794 13.1402H5.49688V2.90751C5.49688 2.31767 5.97795 1.83665 6.56861 1.83665L16.3772 1.8264V5.45202C16.3772 6.51103 17.2365 7.3711 18.2963 7.3711L21.848 7.36091L21.888 23.373C21.888 23.9645 21.4078 24.4455 20.8172 24.4455ZM9.38647 20.0823V15.4758C9.77608 15.4138 10.2839 15.3789 10.8198 15.3789C11.7105 15.3789 12.288 15.5387 12.7406 15.8795C13.2276 16.2415 13.5335 16.8187 13.5335 17.6472C13.5335 18.5447 13.2067 19.1643 12.7541 19.5467C12.2603 19.9572 11.5086 20.1519 10.5903 20.1519C10.0404 20.1519 9.65076 20.1171 9.38647 20.0823ZM16.9807 17.3549V18.2176H15.2966V20.1035H14.2321V15.4138H17.0988V16.2832H15.2966V17.3549H16.9807Z" fill="#818396"/>
</g>
<defs>
<clipPath id="clip0">
<rect width="26" height="26" fill="white" transform="translate(0 0.140289)"/>
</clipPath>
</defs>
</svg>
