<svg width="21" height="20" viewBox="0 0 21 20" fill="none" xmlns="http://www.w3.org/2000/svg">
<g clip-path="url(#clip0)">
<path d="M4.05096 19.1667L4.05096 16.9475C5.21843 16.5867 6.07642 15.4833 6.07642 14.1667C6.07642 12.85 5.21843 11.7475 4.05096 11.3859L4.05097 0.83332C4.05097 0.37332 3.68798 -1.04402e-07 3.24076 -1.23951e-07C2.79353 -1.43499e-07 2.43058 0.37332 2.43058 0.83332L2.43058 11.3858C1.26312 11.7466 0.405131 12.85 0.405131 14.1666C0.405131 15.4833 1.26312 16.5858 2.43058 16.9475L2.43058 19.1666C2.43058 19.6275 2.79353 20 3.24075 20C3.68798 20 4.05096 19.6275 4.05096 19.1667ZM2.02548 14.1667C2.02548 13.4775 2.57072 12.9167 3.24075 12.9167C3.91079 12.9167 4.45603 13.4775 4.45603 14.1667C4.45603 14.8559 3.91079 15.4167 3.24075 15.4167C2.57072 15.4167 2.02548 14.8558 2.02548 14.1667Z" fill="#EC5F0D"/>
<path d="M18.5046 19.1667L18.5046 16.9475C19.672 16.5858 20.53 15.4833 20.53 14.1667C20.53 12.85 19.672 11.7475 18.5046 11.3858L18.5046 0.83332C18.5046 0.37332 18.1416 -1.044e-07 17.6944 -1.23949e-07C17.2472 -1.43498e-07 16.8842 0.37332 16.8842 0.83332L16.8842 11.3858C15.7167 11.7475 14.8587 12.85 14.8587 14.1667C14.8587 15.4834 15.7167 16.5859 16.8842 16.9475L16.8842 19.1667C16.8842 19.6275 17.2471 20 17.6944 20C18.1416 20 18.5046 19.6275 18.5046 19.1667ZM16.4791 14.1667C16.4791 13.4775 17.0244 12.9167 17.6944 12.9167C18.3644 12.9167 18.9097 13.4775 18.9097 14.1667C18.9097 14.8559 18.3644 15.4167 17.6944 15.4167C17.0244 15.4167 16.4791 14.8558 16.4791 14.1667Z" fill="#EC5F0D"/>
<path d="M11.2778 19.1667L11.2778 8.61418C12.4452 8.2525 13.3032 7.15 13.3032 5.83336C13.3032 4.51672 12.4452 3.41418 11.2778 3.05254L11.2778 0.833319C11.2778 0.373319 10.9148 -1.53491e-06 10.4676 -1.55446e-06C10.0204 -1.57401e-06 9.65743 0.373319 9.65743 0.833319L9.65743 3.0525C8.48996 3.41418 7.63198 4.51668 7.63198 5.83332C7.63198 7.14996 8.48996 8.2525 9.65743 8.61414L9.65743 19.1666C9.65743 19.6275 10.0204 20 10.4676 20C10.9148 20 11.2778 19.6275 11.2778 19.1667ZM9.25232 5.83332C9.25232 5.14414 9.79756 4.58332 10.4676 4.58332C11.1376 4.58332 11.6829 5.14414 11.6829 5.83332C11.6829 6.5225 11.1376 7.08332 10.4676 7.08332C9.79756 7.08332 9.25232 6.5225 9.25232 5.83332Z" fill="#EC5F0D"/>
</g>
<defs>
<clipPath id="clip0">
<rect width="20" height="21" fill="white" transform="translate(21) rotate(90)"/>
</clipPath>
</defs>
</svg>
