<svg width="25" height="25" viewBox="0 0 25 25" fill="none" xmlns="http://www.w3.org/2000/svg">
<g clip-path="url(#clip0)">
<path d="M23.1608 4.92999C23.1608 6.72498 21.6453 8.18011 19.7755 8.18011C17.9057 8.18011 16.3901 6.72498 16.3901 4.92999C16.3901 3.13519 17.9057 1.68005 19.7755 1.68005C21.6453 1.68005 23.1608 3.13519 23.1608 4.92999Z" fill="#8F91A3"/>
<path d="M19.7755 8.93011C17.4775 8.93011 15.6089 7.13605 15.6089 4.92999C15.6089 2.72412 17.4775 0.930054 19.7755 0.930054C22.0735 0.930054 23.9421 2.72412 23.9421 4.92999C23.9421 7.13605 22.0735 8.93011 19.7755 8.93011ZM19.7755 2.43005C18.3391 2.43005 17.1714 3.55212 17.1714 4.92999C17.1714 6.30804 18.3391 7.43011 19.7755 7.43011C21.2119 7.43011 22.3796 6.30804 22.3796 4.92999C22.3796 3.55212 21.2119 2.43005 19.7755 2.43005Z" fill="#8F91A3"/>
<path d="M23.1608 20.9301C23.1608 22.7249 21.6453 24.1801 19.7755 24.1801C17.9057 24.1801 16.3901 22.7249 16.3901 20.9301C16.3901 19.1351 17.9057 17.68 19.7755 17.68C21.6453 17.68 23.1608 19.1351 23.1608 20.9301Z" fill="#8F91A3"/>
<path d="M19.7755 24.9301C17.4775 24.9301 15.6089 23.136 15.6089 20.9301C15.6089 18.7241 17.4775 16.93 19.7755 16.93C22.0735 16.93 23.9421 18.7241 23.9421 20.9301C23.9421 23.136 22.0735 24.9301 19.7755 24.9301ZM19.7755 18.43C18.3391 18.43 17.1714 19.5521 17.1714 20.9301C17.1714 22.308 18.3391 23.4301 19.7755 23.4301C21.2119 23.4301 22.3796 22.308 22.3796 20.9301C22.3796 19.5521 21.2119 18.43 19.7755 18.43Z" fill="#8F91A3"/>
<path d="M8.57754 12.9301C8.57754 14.725 7.06177 16.18 5.19199 16.18C3.32241 16.18 1.80664 14.725 1.80664 12.9301C1.80664 11.1351 3.32241 9.68011 5.19199 9.68011C7.06177 9.68011 8.57754 11.1351 8.57754 12.9301Z" fill="#8F91A3"/>
<path d="M5.19199 16.93C2.89421 16.93 1.02539 15.1361 1.02539 12.9301C1.02539 10.724 2.89421 8.93011 5.19199 8.93011C7.48997 8.93011 9.35879 10.724 9.35879 12.9301C9.35879 15.1361 7.48997 16.93 5.19199 16.93ZM5.19199 10.4301C3.75557 10.4301 2.58789 11.552 2.58789 12.9301C2.58789 14.3081 3.75557 15.43 5.19199 15.43C6.62861 15.43 7.79629 14.3081 7.79629 12.9301C7.79629 11.552 6.62861 10.4301 5.19199 10.4301Z" fill="#8F91A3"/>
<path d="M7.65159 12.4501C7.28901 12.4501 6.93691 12.269 6.74522 11.9451C6.46083 11.4661 6.63593 10.8551 7.13489 10.581L16.8004 5.29107C17.2993 5.01604 17.9358 5.18414 18.2214 5.66497C18.5057 6.14397 18.3306 6.755 17.8317 7.02911L8.166 12.319C8.0035 12.408 7.8265 12.4501 7.65159 12.4501Z" fill="#8F91A3"/>
<path d="M17.3163 20.7001C17.1412 20.7001 16.9642 20.658 16.8017 20.569L7.13597 15.2791C6.63701 15.0061 6.4621 14.3951 6.74649 13.915C7.02973 13.4351 7.66717 13.2661 8.16727 13.5411L17.833 18.831C18.3319 19.104 18.5068 19.715 18.2224 20.1951C18.0298 20.519 17.6777 20.7001 17.3163 20.7001Z" fill="#8F91A3"/>
</g>
<defs>
<clipPath id="clip0">
<rect width="25" height="24" fill="white" transform="translate(0 0.930054)"/>
</clipPath>
</defs>
</svg>
