<svg width="15" height="15" viewBox="0 0 15 15" fill="none" xmlns="http://www.w3.org/2000/svg">
<g clip-path="url(#clip0)">
<path d="M7.06068 4.83398C7.06068 4.59114 6.86407 4.39453 6.62123 4.39453H5.92428L6.93193 3.38688C7.0577 3.26111 7.09547 3.07228 7.02726 2.90794C6.9594 2.74361 6.79884 2.63672 6.62123 2.63672H4.86341C4.62057 2.63672 4.42396 2.83333 4.42396 3.07617C4.42396 3.31902 4.62057 3.51562 4.86341 3.51562H5.56036L4.55271 4.52328C4.42694 4.64905 4.38917 4.83788 4.45738 5.00221C4.52524 5.16655 4.68569 5.27344 4.86341 5.27344H6.62123C6.86407 5.27344 7.06068 5.07683 7.06068 4.83398Z" fill="#818396"/>
<path d="M7.97284 2.36549C8.04059 2.52983 8.20115 2.63672 8.37876 2.63672H10.1366C10.3794 2.63672 10.576 2.44011 10.576 2.19727C10.576 1.95442 10.3794 1.75781 10.1366 1.75781H9.43963L10.4473 0.75016C10.5731 0.62439 10.6108 0.435562 10.5426 0.271225C10.4747 0.106888 10.3142 0 10.1366 0H8.37876C8.13592 0 7.93931 0.19661 7.93931 0.439453C7.93931 0.682297 8.13592 0.878906 8.37876 0.878906H9.07571L8.06805 1.88656C7.94228 2.01233 7.90452 2.20116 7.97284 2.36549Z" fill="#818396"/>
<path d="M13.6816 7.03125H7.5C6.77307 7.03125 6.18164 7.62268 6.18164 8.34961V10.1074C6.18164 10.3503 6.37825 10.5469 6.62109 10.5469H15V8.34961C15 7.62268 14.4086 7.03125 13.6816 7.03125Z" fill="#818396"/>
<path d="M5.30273 10.1074V9.66797H0.878906V4.83398C0.878906 4.59114 0.682297 4.39453 0.439453 4.39453C0.19661 4.39453 0 4.59114 0 4.83398V14.5605C0 14.8034 0.19661 15 0.439453 15C0.682297 15 0.878906 14.8034 0.878906 14.5605V13.2129H14.1211V14.5605C14.1211 14.8033 14.3178 15 14.5605 15C14.8033 15 15 14.8033 15 14.5605V11.4258H6.62109C5.89302 11.4258 5.30273 10.8355 5.30273 10.1074Z" fill="#818396"/>
<path d="M5.30273 7.4707C5.30273 8.19878 4.71245 8.78906 3.98438 8.78906C3.2563 8.78906 2.66602 8.19878 2.66602 7.4707C2.66602 6.74263 3.2563 6.15234 3.98438 6.15234C4.71245 6.15234 5.30273 6.74263 5.30273 7.4707Z" fill="#818396"/>
</g>
<defs>
<clipPath id="clip0">
<rect width="15" height="15" fill="white"/>
</clipPath>
</defs>
</svg>
