<svg width="14" height="14" viewBox="0 0 14 14" fill="none" xmlns="http://www.w3.org/2000/svg">
<path d="M2.91668 7.58332H8.16668V8.16665H9.33335V2.91665C9.33335 1.95016 10.1169 1.16665 11.0834 1.16665C12.0498 1.16665 12.8334 1.95016 12.8334 2.91665H14C14 1.30583 12.6942 0 11.0833 0C9.4725 0 8.16665 1.30583 8.16665 2.91668V4.08335H2.91665V2.91668C2.91665 1.95018 3.70016 1.16668 4.66665 1.16668C5.63314 1.16668 6.41665 1.95018 6.41665 2.91668H7.58332C7.58332 1.30583 6.2775 0 4.66668 0C3.05583 0 1.75 1.30583 1.75 2.91668V8.16668H2.91668V7.58332ZM2.91668 5.25H8.16668V6.41668H2.91668V5.25Z" fill="#818396"/>
<path d="M11.6667 12.25C11.236 12.2502 10.8204 12.091 10.5 11.8032C9.83571 12.3973 8.83097 12.3973 8.16668 11.8032C7.50239 12.3973 6.49764 12.3973 5.83335 11.8032C5.16906 12.3973 4.16432 12.3973 3.50003 11.8032C2.83574 12.3973 1.83099 12.3973 1.1667 11.8032C0.846289 12.091 0.430719 12.2502 0 12.25V14H14V12.25C13.5693 12.2502 13.1537 12.091 12.8333 11.8032C12.513 12.091 12.0974 12.2502 11.6667 12.25Z" fill="#818396"/>
<path d="M11.6667 9.7802C11.236 9.78042 10.8204 9.62125 10.5 9.33337C9.83571 9.92755 8.83096 9.92755 8.16667 9.33337C7.50239 9.92755 6.49764 9.92755 5.83335 9.33337C5.16906 9.92755 4.16432 9.92755 3.50003 9.33337C2.83574 9.92755 1.83099 9.92755 1.1667 9.33337C0.846289 9.62125 0.430719 9.78042 0 9.7802V11.5302C0.430719 11.5304 0.846289 11.3712 1.16668 11.0834C1.83096 11.6776 2.83571 11.6776 3.5 11.0834C4.16429 11.6776 5.16903 11.6776 5.83332 11.0834C6.49761 11.6776 7.50236 11.6776 8.16665 11.0834C8.83094 11.6776 9.83568 11.6776 10.5 11.0834C11.1643 11.6776 12.169 11.6776 12.8333 11.0834C13.1537 11.3713 13.5693 11.5304 14 11.5302V9.7802C13.5693 9.78042 13.1537 9.62125 12.8333 9.33337C12.513 9.62125 12.0974 9.78042 11.6667 9.7802Z" fill="#818396"/>
</svg>
