<svg width="22" height="23" viewBox="0 0 22 23" fill="none" xmlns="http://www.w3.org/2000/svg">
<g clip-path="url(#clip0)">
<path d="M22 4.36856C21.1819 4.74375 20.3101 4.99244 19.4012 5.11319C20.3363 4.52956 21.0499 3.61244 21.3854 2.507C20.5136 3.05037 19.5511 3.43419 18.5254 3.64838C17.6976 2.72694 16.5179 2.15625 15.2309 2.15625C12.7339 2.15625 10.7236 4.27513 10.7236 6.87269C10.7236 7.24644 10.7539 7.60581 10.8281 7.94794C7.0785 7.75675 3.76063 5.87794 1.53175 3.01588C1.14262 3.72169 0.914375 4.52956 0.914375 5.39925C0.914375 7.03225 1.71875 8.47981 2.91775 9.31787C2.19313 9.3035 1.48225 9.08356 0.88 8.73712C0.88 8.7515 0.88 8.77019 0.88 8.78887C0.88 11.0802 2.44337 12.9835 4.4935 13.4219C4.12637 13.5269 3.72625 13.5772 3.311 13.5772C3.02225 13.5772 2.73075 13.5599 2.45712 13.4967C3.0415 15.364 4.69975 16.7368 6.6715 16.7814C5.137 18.0363 3.18863 18.7924 1.07938 18.7924C0.7095 18.7924 0.35475 18.7752 0 18.7277C1.99787 20.0747 4.36562 20.8438 6.919 20.8438C15.2185 20.8438 19.756 13.6562 19.756 7.42613C19.756 7.21769 19.7491 7.01644 19.7395 6.81663C20.6346 6.1525 21.3867 5.32306 22 4.36856Z" fill="#B4B0CC"/>
</g>
<defs>
<clipPath id="clip0">
<rect width="22" height="23" fill="white"/>
</clipPath>
</defs>
</svg>
