<svg width="15" height="15" viewBox="0 0 15 15" fill="none" xmlns="http://www.w3.org/2000/svg">
<path d="M14.7252 1.499C14.5523 1.37027 14.3287 1.33096 14.1223 1.39291L10.4546 2.49327V14.8253L14.5141 13.6075C14.8025 13.5209 15 13.2555 15 12.9544V2.046C15 1.8305 14.8981 1.62768 14.7252 1.499Z" fill="#818396"/>
<path d="M7.85095 1.46112L5.90918 0.295715V12.795L9.091 14.7041V2.20544L7.85236 1.46208C7.85186 1.46181 7.85145 1.46144 7.85095 1.46112Z" fill="#818396"/>
<path d="M0 2.04529V12.9544C0 13.1698 0.101909 13.3727 0.274818 13.5013C0.393864 13.5899 0.536955 13.6362 0.681864 13.6362C0.747409 13.6362 0.813409 13.6267 0.877727 13.6074L4.54545 12.5071V0.174561L0.485909 1.39224C0.197545 1.4787 0 1.74415 0 2.04529Z" fill="#818396"/>
</svg>
