<svg width="27" height="27" viewBox="0 0 27 27" fill="none" xmlns="http://www.w3.org/2000/svg">
<path d="M25.6215 7.17309C25.3298 6.08869 24.4748 5.23387 23.3906 4.94187C21.4098 4.3999 13.4865 4.3999 13.4865 4.3999C13.4865 4.3999 5.56353 4.3999 3.58274 4.92132C2.51935 5.21301 1.64352 6.08884 1.35183 7.17309C0.830566 9.15372 0.830566 13.2613 0.830566 13.2613C0.830566 13.2613 0.830566 17.3896 1.35183 19.3495C1.64383 20.4337 2.4985 21.2885 3.5829 21.5805C5.58438 22.1227 13.4868 22.1227 13.4868 22.1227C13.4868 22.1227 21.4098 22.1227 23.3906 21.6012C24.475 21.3094 25.3298 20.4546 25.6218 19.3703C26.1429 17.3896 26.1429 13.2821 26.1429 13.2821C26.1429 13.2821 26.1638 9.15372 25.6215 7.17309ZM10.9639 17.056V9.46657L17.5525 13.2613L10.9639 17.056Z" fill="#B4B0CC"/>
</svg>
