<?xml version="1.0" standalone="no"?>
<!DOCTYPE svg PUBLIC "-//W3C//DTD SVG 20010904//EN"
 "http://www.w3.org/TR/2001/REC-SVG-20010904/DTD/svg10.dtd">
<svg version="1.0" xmlns="http://www.w3.org/2000/svg"
 width="300.000000pt" height="300.000000pt" viewBox="0 0 300.000000 300.000000"
 preserveAspectRatio="xMidYMid meet">
<metadata>
Created by potrace 1.14, written by Peter Selinger 2001-2017
</metadata>
<g transform="translate(0.000000,300.000000) scale(0.100000,-0.100000)"
fill="#000000" stroke="none">
<path d="M558 1954 c-126 -30 -253 -120 -323 -229 -129 -201 -107 -453 53
-627 67 -72 133 -116 222 -149 l65 -24 930 0 930 0 75 28 c223 82 365 300 347
530 -18 227 -184 419 -408 472 -91 21 -1802 21 -1891 -1z m262 -249 l0 -85
-48 0 c-63 0 -149 -43 -179 -89 -27 -40 -31 -117 -8 -161 30 -58 111 -100 191
-100 l44 0 0 -85 0 -85 -42 0 c-57 0 -159 25 -209 51 -63 32 -126 95 -156 158
-37 76 -39 192 -4 263 64 133 202 214 369 217 l42 1 0 -85z m288 -159 c3 -281
1 -276 91 -276 l56 0 0 257 0 258 90 0 90 0 3 -257 2 -258 45 0 45 0 0 -85 0
-85 -200 0 c-109 0 -222 5 -250 11 -62 13 -107 49 -134 109 -19 41 -21 67 -24
293 -2 136 -1 255 2 263 5 12 23 14 93 12 l88 -3 3 -239z m702 114 l0 -130
105 0 105 0 0 -85 0 -85 -105 0 -105 0 0 -130 0 -130 -90 0 -90 0 0 345 0 345
90 0 90 0 0 -130z m675 102 c114 -65 140 -229 52 -329 -44 -50 -98 -73 -174
-73 l-63 0 0 -130 0 -130 -90 0 -90 0 0 215 0 215 128 0 c134 0 152 5 152 45
0 43 -12 45 -257 45 l-233 0 0 86 0 85 268 -3 c258 -3 268 -4 307 -26z"/>
<path d="M2040 1736 c-6 -8 -10 -25 -8 -38 2 -19 9 -23 38 -23 29 0 36 4 38
23 4 28 -14 52 -38 52 -10 0 -23 -7 -30 -14z"/>
<path d="M2210 1736 c-19 -23 -8 -61 18 -64 46 -7 72 47 33 68 -26 14 -36 13
-51 -4z"/>
<path d="M2366 1731 c-34 -38 26 -85 62 -49 16 16 15 33 -4 52 -21 21 -37 20
-58 -3z"/>
<path d="M2470 1615 c-26 -32 13 -81 48 -59 34 22 22 74 -18 74 -10 0 -23 -7
-30 -15z"/>
<path d="M2212 1478 c-25 -25 -4 -78 32 -78 10 0 36 32 36 45 0 17 -27 45 -44
45 -6 0 -17 -5 -24 -12z"/>
<path d="M2360 1471 c-13 -25 -13 -27 6 -45 23 -24 53 -20 66 9 8 19 8 28 -2
40 -18 21 -57 19 -70 -4z"/>
</g>
</svg>
