<svg width="20" height="20" viewBox="0 0 20 20" fill="none" xmlns="http://www.w3.org/2000/svg">
<mask id="mask0" mask-type="alpha" maskUnits="userSpaceOnUse" x="0" y="0" width="20" height="20">
<rect width="20" height="20" rx="10" fill="#C4C4C4"/>
</mask>
<g mask="url(#mask0)">
<rect x="-4" width="28" height="20" rx="2" fill="white"/>
<mask id="mask1" mask-type="alpha" maskUnits="userSpaceOnUse" x="-4" y="0" width="28" height="20">
<rect x="-4" width="28" height="20" rx="2" fill="white"/>
</mask>
<g mask="url(#mask1)">
<path fill-rule="evenodd" clip-rule="evenodd" d="M-4 14.6667H24V9.33337H-4V14.6667Z" fill="#0748AE"/>
<path fill-rule="evenodd" clip-rule="evenodd" d="M-4 20H24V14.6666H-4V20Z" fill="#DE2035"/>
<path fill-rule="evenodd" clip-rule="evenodd" d="M-4 9.33333H24V0H-4V9.33333Z" fill="#FFD935"/>
<path fill-rule="evenodd" clip-rule="evenodd" d="M8.4006 8C7.75292 8.48651 7.33398 9.26108 7.33398 10.1335C7.33398 11.6062 8.52789 12.8002 10.0007 12.8002C11.4734 12.8002 12.6673 11.6062 12.6673 10.1335C12.6673 9.26108 12.2484 8.48651 11.6007 8L10.6673 10.8002H9.33398L8.4006 8Z" fill="#FFD935"/>
<path fill-rule="evenodd" clip-rule="evenodd" d="M10.0007 7.33337L10.6673 10.6667H9.33398L10.0007 7.33337Z" fill="#5FC0DC"/>
<path opacity="0.66" d="M13.3327 6.00004L11.3327 5.33337L9.99935 6.66671L8.66602 5.33337L6.66602 6.00004" stroke="#3F2821" stroke-width="0.666667" stroke-linecap="round" stroke-linejoin="round"/>
</g>
</g>
</svg>
