<svg width="19" height="16" viewBox="0 0 19 16" fill="none" xmlns="http://www.w3.org/2000/svg">
<path d="M1.30615 6.88796C6.40641 4.63001 9.80739 3.14143 11.5091 2.42222C16.3677 0.368731 17.3773 0.0120186 18.0354 0.000114193C18.1801 -0.00235084 18.5037 0.0340956 18.7133 0.206929C18.8903 0.352865 18.939 0.550006 18.9623 0.68837C18.9856 0.826734 19.0146 1.14193 18.9916 1.38822C18.7283 4.19928 17.589 11.021 17.0094 14.1694C16.7642 15.5017 16.2813 15.9484 15.8138 15.9921C14.7978 16.0871 14.0263 15.3098 13.0422 14.6543C11.5024 13.6287 10.6325 12.9902 9.13785 11.9894C7.4105 10.8327 8.53027 10.197 9.51468 9.15804C9.7723 8.88615 14.2488 4.74875 14.3354 4.37343C14.3463 4.32649 14.3563 4.15151 14.254 4.05912C14.1517 3.96673 14.0007 3.99833 13.8918 4.02345C13.7373 4.05907 11.2775 5.71119 6.51212 8.97983C5.81389 9.46702 5.18145 9.7044 4.61481 9.69196C3.99014 9.67824 2.78851 9.33306 1.89523 9.038C0.799577 8.6761 -0.0712243 8.48477 0.00460293 7.87015C0.0440984 7.55002 0.477948 7.22262 1.30615 6.88796Z" fill="#FB5314"/>
</svg>
