<svg width="24" height="24" viewBox="0 0 24 24" fill="none" xmlns="http://www.w3.org/2000/svg">
<path fill-rule="evenodd" clip-rule="evenodd" d="M5 10.045V9.873C5 6.077 8.13386 3 12 3V3C15.8661 3 19 6.077 19 9.873V10.045C19 13.506 14.537 18.716 12.7384 20.676C12.3422 21.108 11.6578 21.108 11.2616 20.676C9.46297 18.716 5 13.506 5 10.045Z" stroke="#7E7E3F" stroke-width="1.5" stroke-linecap="round" stroke-linejoin="round"/>
<path fill-rule="evenodd" clip-rule="evenodd" d="M5 10.045V9.873C5 6.077 8.13386 3 12 3V3C15.8661 3 19 6.077 19 9.873V10.045C19 13.506 14.537 18.716 12.7384 20.676C12.3422 21.108 11.6578 21.108 11.2616 20.676C9.46297 18.716 5 13.506 5 10.045Z" stroke="#FB5314" stroke-width="1.5" stroke-linecap="round" stroke-linejoin="round"/>
<path d="M9 10.0275C9 11.6698 10.3425 13 12 13V13C13.6575 13 15 11.6698 15 10.0275V9.9725C15 8.3302 13.6575 7 12 7V7C10.3425 7 9 8.3302 9 9.9725" stroke="#7E7E3F" stroke-width="1.5" stroke-linecap="round" stroke-linejoin="round"/>
<path d="M9 10.0275C9 11.6698 10.3425 13 12 13V13C13.6575 13 15 11.6698 15 10.0275V9.9725C15 8.3302 13.6575 7 12 7V7C10.3425 7 9 8.3302 9 9.9725" stroke="#FB5314" stroke-width="1.5" stroke-linecap="round" stroke-linejoin="round"/>
</svg>
