<svg xmlns="http://www.w3.org/2000/svg" width="100" height="100" viewBox="0 0 100 100" clip-rule="evenodd" fill-rule="evenodd" stroke-linejoin="round" stroke-miterlimit="2"><defs><clipPath id="ClipPath-1"><path d="M5.4-2.1c0 0-7.7 5.2-7.7 13.6c0 4.2 2.1 7.3 3.7 9.8c1.6 2.4 2.7 4.2 2.7 6.2c0 3.8-5.2 8.6-5.2 8.6l4 5c0 0 7.6-5.3 7.6-13.6c0-4.2-2.1-7.3-3.7-9.7c-1.6-2.4-2.7-4.2-2.7-6.3c0-4 5.1-8.6 5.1-8.6l-3.8-5Zm15.9 0c0 0-7.7 5.2-7.7 13.6c0 4.2 2.1 7.3 3.7 9.8c1.6 2.4 2.7 4.2 2.7 6.2c0 3.8-5.2 8.6-5.2 8.6l4 5c0 0 7.6-5.3 7.6-13.6c0-4.2-2.1-7.3-3.7-9.7c-1.6-2.4-2.7-4.2-2.7-6.3c0-4 5.1-8.6 5.1-8.6l-3.8-5Zm15.9 0c0 0-7.7 5.2-7.7 13.6c0 4.2 2.1 7.3 3.7 9.8c1.6 2.4 2.7 4.2 2.7 6.2c0 3.8-5.2 8.6-5.2 8.6l4 5c0 0 7.6-5.3 7.6-13.6c0-4.2-2.1-7.3-3.7-9.7c-1.6-2.4-2.7-4.2-2.7-6.3c0-4 5.1-8.6 5.1-8.6l-3.8-5Z" fill="#55585e"/></clipPath></defs><style>
@keyframes a0_do { 0% { stroke-dashoffset: 47px; } 33.333% { stroke-dashoffset: 47px; } 46.667% { stroke-dashoffset: 0px; } 60% { stroke-dashoffset: -47px; } 100% { stroke-dashoffset: -47px; } }
@keyframes a1_do { 0% { stroke-dashoffset: 47px; } 33.333% { stroke-dashoffset: 47px; } 46.667% { stroke-dashoffset: 0px; } 60% { stroke-dashoffset: -47px; } 100% { stroke-dashoffset: -47px; } }
@keyframes a2_do { 0% { stroke-dashoffset: 47px; } 33.333% { stroke-dashoffset: 47px; } 46.667% { stroke-dashoffset: 0px; } 60% { stroke-dashoffset: -47px; } 100% { stroke-dashoffset: -47px; } }
</style><title>ic-3</title><path d="M15 15v70h70v-70h-70Zm6.4 6.4h57.2v57.2h-57.2v-57.2Z" fill="#55585e"/><path d="M35.4 28.4c0 0-7.7 5.2-7.7 13.6c0 4.2 2.1 7.3 3.7 9.8c1.6 2.4 2.7 4.2 2.7 6.2c0 3.8-5.2 8.6-5.2 8.6l4 5c0 0 7.6-5.3 7.6-13.6c0-4.2-2.1-7.3-3.7-9.7c-1.6-2.4-2.7-4.2-2.7-6.3c0-4 5.1-8.6 5.1-8.6l-3.8-5Zm15.9 0c0 0-7.7 5.2-7.7 13.6c0 4.2 2.1 7.3 3.7 9.8c1.6 2.4 2.7 4.2 2.7 6.2c0 3.8-5.2 8.6-5.2 8.6l4 5c0 0 7.6-5.3 7.6-13.6c0-4.2-2.1-7.3-3.7-9.7c-1.6-2.4-2.7-4.2-2.7-6.3c0-4 5.1-8.6 5.1-8.6l-3.8-5Zm15.9 0c0 0-7.7 5.2-7.7 13.6c0 4.2 2.1 7.3 3.7 9.8c1.6 2.4 2.7 4.2 2.7 6.2c0 3.8-5.2 8.6-5.2 8.6l4 5c0 0 7.6-5.3 7.6-13.6c0-4.2-2.1-7.3-3.7-9.7c-1.6-2.4-2.7-4.2-2.7-6.3c0-4 5.1-8.6 5.1-8.6l-3.8-5Z" fill="#55585e"/><g clip-path="url(#ClipPath-1)" transform="translate(30,30.5)"><path d="M2.8-4.5c0 0 7-5 7-11c0-10-9.8-8.9-7-19c1.5-5.5 7-9 7-9" fill="none" stroke-linecap="square" stroke="#ffab00" stroke-width="9" stroke-dasharray="47 47" stroke-dashoffset="47" transform="translate(-2.3,43.5)" style="animation: 3s linear infinite both a0_do;"/><path d="M2.8-4.5c0 0 7-5 7-11c0-10-9.8-8.9-7-19c1.5-5.5 7-9 7-9" fill="none" stroke-linecap="square" stroke="#ffab00" stroke-width="9" stroke-dasharray="47 47" stroke-dashoffset="47" transform="translate(13.7,43.5)" style="animation: 3s linear infinite both a1_do;"/><path d="M2.8-4.5c0 0 7-5 7-11c0-10-9.8-8.9-7-19c1.5-5.5 7-9 7-9" fill="none" stroke-linecap="square" stroke="#ffab00" stroke-width="9" stroke-dasharray="47 47" stroke-dashoffset="47" transform="translate(29.7,43.5)" style="animation: 3s linear infinite both a2_do;"/></g></svg>