<svg width="40" height="40" viewBox="0 0 40 40" fill="none" xmlns="http://www.w3.org/2000/svg">
<rect width="40" height="40" rx="20" fill="#419FD9"/>
<path fill-rule="evenodd" clip-rule="evenodd" d="M24.6639 27.4074C25.7423 27.8792 26.1467 26.8907 26.1467 26.8907L29 12.5569C28.9775 11.5909 27.6745 12.175 27.6745 12.175L11.7007 18.4432C11.7007 18.4432 10.9368 18.7128 11.0042 19.1846C11.0716 19.6564 11.6782 19.8811 11.6782 19.8811L15.6997 21.2291C15.6997 21.2291 16.9129 25.2057 17.1601 25.9695C17.3847 26.7109 17.5869 26.7334 17.5869 26.7334C17.8116 26.8233 18.0138 26.666 18.0138 26.666L20.6199 24.307L24.6639 27.4074ZM25.3608 15.0956C25.3608 15.0956 25.9224 14.7586 25.9 15.0956C25.9 15.0956 25.9898 15.1406 25.6978 15.4551C25.4282 15.7247 19.0701 21.4312 18.2164 22.1951C18.149 22.24 18.104 22.3074 18.104 22.3973L17.8569 24.5092C17.812 24.7338 17.5199 24.7563 17.4525 24.5541L16.3966 21.0942C16.3516 20.9594 16.3966 20.8022 16.5314 20.7123L25.3608 15.0956Z" fill="white"/>
</svg>
