<svg width="24" height="24" viewBox="0 0 24 24" fill="none" xmlns="http://www.w3.org/2000/svg">
<path d="M15.182 3.81802C16.9393 5.57538 16.9393 8.42462 15.182 10.182C13.4246 11.9393 10.5754 11.9393 8.81802 10.182C7.06066 8.42462 7.06066 5.57538 8.81802 3.81802C10.5754 2.06066 13.4246 2.06066 15.182 3.81802" stroke="#7E7E3F" stroke-width="2" stroke-linecap="round" stroke-linejoin="round"/>
<path d="M15.182 3.81802C16.9393 5.57538 16.9393 8.42462 15.182 10.182C13.4246 11.9393 10.5754 11.9393 8.81802 10.182C7.06066 8.42462 7.06066 5.57538 8.81802 3.81802C10.5754 2.06066 13.4246 2.06066 15.182 3.81802" stroke="#FB5314" stroke-width="2" stroke-linecap="round" stroke-linejoin="round"/>
<path d="M12 14.5C16.554 14.5 21 16.4693 21 19.4977V20.4989C21 21.0515 20.552 21.5 20 21.5H4C3.448 21.5 3 21.0515 3 20.4989V19.4977C3 16.4682 7.446 14.5 12 14.5" stroke="#7E7E3F" stroke-width="2" stroke-linecap="round" stroke-linejoin="round"/>
<path d="M12 14.5C16.554 14.5 21 16.4693 21 19.4977V20.4989C21 21.0515 20.552 21.5 20 21.5H4C3.448 21.5 3 21.0515 3 20.4989V19.4977C3 16.4682 7.446 14.5 12 14.5" stroke="#FB5314" stroke-width="2" stroke-linecap="round" stroke-linejoin="round"/>
</svg>
