<svg width="16" height="15" viewBox="0 0 16 15" fill="none" xmlns="http://www.w3.org/2000/svg">
<path d="M7.35997 7.14966C7.39055 7.46377 7.64008 7.69752 7.931 7.69752C7.95077 7.69752 7.9707 7.69646 7.99078 7.69426C8.30652 7.65958 8.53605 7.35956 8.50341 7.02404L8.23839 4.29919C8.20574 3.96367 7.92341 3.72015 7.60759 3.75459C7.29184 3.78927 7.0623 4.08929 7.09488 4.42473L7.35997 7.14966Z" fill="white"/>
<path d="M10.9582 7.69417C10.9783 7.69637 10.9982 7.69743 11.0179 7.69743C11.3088 7.69743 11.5584 7.4636 11.589 7.14957L11.854 4.42472C11.8866 4.0892 11.6571 3.78918 11.3414 3.75457C11.0255 3.72022 10.7431 3.96381 10.7105 4.29917L10.4455 7.02403C10.4129 7.35955 10.6424 7.65957 10.9582 7.69417Z" fill="white"/>
<path d="M6.50672 10.3486C5.52566 10.3486 4.72754 11.1964 4.72754 12.2387C4.72754 13.2811 5.52566 14.1292 6.50672 14.1292C7.48778 14.1292 8.28598 13.2811 8.28598 12.2387C8.2859 11.1965 7.48778 10.3486 6.50672 10.3486ZM6.50672 12.908C6.15954 12.908 5.87713 12.6077 5.87713 12.2387C5.87713 11.8698 6.15954 11.5698 6.50672 11.5698C6.8539 11.5698 7.13639 11.8698 7.13639 12.2387C7.13631 12.6077 6.8539 12.908 6.50672 12.908Z" fill="white"/>
<path d="M12.4423 10.3486C11.4613 10.3486 10.6631 11.1964 10.6631 12.2387C10.6631 13.2811 11.4613 14.1292 12.4423 14.1292C13.4235 14.1292 14.2217 13.2811 14.2217 12.2387C14.2217 11.1965 13.4235 10.3486 12.4423 10.3486ZM12.4423 12.908C12.0952 12.908 11.8127 12.6077 11.8127 12.2387C11.8127 11.8698 12.0952 11.5698 12.4423 11.5698C12.7896 11.5698 13.0722 11.8698 13.0722 12.2387C13.0722 12.6077 12.7896 12.908 12.4423 12.908Z" fill="white"/>
<path d="M15.8799 2.52583C15.7711 2.38379 15.6032 2.30059 15.4252 2.30059H3.96806L3.487 0.433937C3.42109 0.178384 3.1924 0 2.93067 0H0.574792C0.257354 0 0 0.259651 0 0.579923C0 0.900194 0.257354 1.15985 0.574792 1.15985H2.48624L2.96302 3.00957C2.96562 3.02116 2.96861 3.03269 2.97191 3.04405L4.7461 9.9275C4.81201 10.1831 5.0407 10.3614 5.30242 10.3614H13.6464C13.9081 10.3614 14.1368 10.1831 14.2027 9.9275L15.9816 3.02642C16.0262 2.85276 15.9887 2.66788 15.8799 2.52583ZM13.2019 9.20175H5.74677L4.26695 3.46051H14.6817L13.2019 9.20175Z" fill="white"/>
</svg>
