<svg width="18" height="17" viewBox="0 0 18 17" fill="none" xmlns="http://www.w3.org/2000/svg">
<path d="M16.8516 8.75021L16.3892 9.05618L16.7412 9.48458C16.9161 9.69752 17.0165 9.9584 17.0165 10.2383C17.0165 10.6477 16.8003 11.0224 16.4477 11.2557L15.9854 11.5617L16.3373 11.9901C16.5123 12.203 16.6126 12.4639 16.6126 12.7438C16.6126 13.1533 16.3966 13.5282 16.0445 13.7613L15.5825 14.0673L15.9341 14.4955C16.1086 14.708 16.2088 14.9691 16.2088 15.2492C16.2088 15.9119 15.6283 16.5 14.855 16.5H14.0215H11.583H8.93104C8.01524 16.5 7.11708 16.3461 6.26064 16.0428L4.51025 15.4228V7.60438C5.47119 6.63356 6.41552 5.65968 7.1677 4.8605C7.56249 4.44105 7.90624 4.06771 8.17238 3.7672C8.42949 3.4769 8.6378 3.22851 8.74042 3.07102L8.8215 2.94658V2.79806V0.727547C8.8215 0.629071 8.91592 0.5 9.09184 0.5C10.643 0.5 11.8563 1.68576 11.8563 3.08311V3.93496L11.2738 5.83547L11.0756 6.48201H11.7518H16.0665C16.8399 6.48201 17.4203 7.0701 17.4203 7.73281C17.4203 8.14224 17.2041 8.51696 16.8516 8.75021Z" stroke="black" stroke-opacity="0.69"/>
<path d="M0.57959 15.0786V8.46216H2.45572V15.0786H0.57959Z" stroke="black" stroke-opacity="0.69"/>
</svg>
