<svg width="18" height="17" viewBox="0 0 18 17" fill="none" xmlns="http://www.w3.org/2000/svg">
<path d="M1.14838 8.24979L1.61075 7.94382L1.2588 7.51542C1.08386 7.30248 0.983525 7.0416 0.983525 6.76172C0.983525 6.35232 1.1997 5.97761 1.55229 5.74426L2.01463 5.43827L1.66266 5.00989C1.48773 4.79699 1.3874 4.53613 1.3874 4.25624C1.3874 3.84667 1.60344 3.47178 1.95551 3.23866L2.41754 2.93273L2.06589 2.50447C1.8914 2.29196 1.79124 2.03092 1.79124 1.75077C1.79124 1.08807 2.37166 0.5 3.14499 0.5H3.97855H6.41702H9.06896C9.98476 0.5 10.8829 0.653921 11.7394 0.957241L13.4897 1.57718V9.39562C12.5288 10.3664 11.5845 11.3403 10.8323 12.1395C10.4375 12.5589 10.0938 12.9323 9.82762 13.2328C9.57051 13.5231 9.3622 13.7715 9.25958 13.929L9.1785 14.0534V14.2019V16.2725C9.1785 16.3709 9.08408 16.5 8.90816 16.5C7.35695 16.5 6.14369 15.3142 6.14369 13.9169V13.065L6.72625 11.1645L6.92443 10.518H6.2482H1.93347C1.16015 10.518 0.57972 9.9299 0.57972 9.26719C0.57972 8.85776 0.795897 8.48304 1.14838 8.24979Z" stroke="black" stroke-opacity="0.69"/>
<path d="M17.4204 1.92138V8.53784H15.5443V1.92138H17.4204Z" stroke="black" stroke-opacity="0.69"/>
</svg>
