<svg width="36" height="39" viewBox="0 0 36 39" fill="none" xmlns="http://www.w3.org/2000/svg">
<path d="M17.5846 7.38251L17.9995 7.99982L18.4145 7.38254C20.1432 4.81102 22.9207 3.15137 26.0453 3.15137C31.2298 3.15137 35.5 7.7178 35.5 13.4346C35.5 15.7533 34.4347 18.3175 32.7676 20.8956C31.1065 23.4642 28.8831 25.9929 26.6463 28.2289C24.4114 30.4628 22.1747 32.3931 20.4957 33.7654C19.6566 34.4512 18.9577 34.997 18.4691 35.3708C18.2768 35.518 18.1172 35.6385 17.9944 35.7304C17.8723 35.642 17.714 35.5265 17.5238 35.3855C17.0356 35.0238 16.3371 34.4947 15.4984 33.8275C13.8202 32.4924 11.5846 30.6069 9.35093 28.4032C7.11531 26.1977 4.89337 23.6848 3.23333 21.0959C1.56864 18.4998 0.5 15.8749 0.5 13.4345C0.5 9.8299 1.58101 7.27438 3.26602 5.61957C4.95418 3.96167 7.30601 3.15137 9.95369 3.15137C13.0792 3.15137 15.8561 4.81102 17.5846 7.38251Z" stroke="#E03A76"/>
</svg>
