<svg width="30" height="30" viewBox="0 0 30 30" fill="none" xmlns="http://www.w3.org/2000/svg">
<g clip-path="url(#clip0)">
<path d="M29.58 25.777L22.3973 18.3567C21.8822 17.8243 21.2385 17.6112 20.9596 17.8834C20.6798 18.1536 20.0356 17.941 19.5205 17.4086L19.4178 17.3021C22.6325 13.074 22.3205 7.02039 18.4601 3.15999C14.2469 -1.05325 7.41562 -1.05325 3.2029 3.15999C-1.01034 7.37324 -1.01034 14.2035 3.2029 18.4168C7.12905 22.3435 13.3258 22.6065 17.5625 19.215L17.6076 19.2621C18.1217 19.7944 18.3132 20.4449 18.0324 20.7156C17.753 20.9863 17.9431 21.6372 18.4587 22.1686L25.6375 29.5918C26.1526 30.1228 27.0013 30.1386 27.5341 29.6231L29.5488 27.6737C30.0797 27.1594 30.0941 26.3113 29.58 25.777ZM16.0893 16.0458C13.1899 18.9456 8.47177 18.9456 5.57283 16.0468C2.67345 13.1474 2.6739 8.42869 5.57283 5.52984C8.47177 2.63046 13.1899 2.6309 16.0883 5.53028C18.9882 8.42922 18.9882 13.1469 16.0893 16.0458Z" fill="white"/>
</g>
<defs>
<clipPath id="clip0">
<rect width="30" height="30" fill="white"/>
</clipPath>
</defs>
</svg>
