<svg width="18" height="18" viewBox="0 0 18 18" fill="none" xmlns="http://www.w3.org/2000/svg">
<path d="M17.0823 6.61332L17.0826 6.61336C17.2537 6.62944 17.4142 6.7524 17.4754 6.94995L17.953 6.80198L17.4756 6.95048C17.5379 7.15093 17.4774 7.3642 17.3353 7.49391L17.3349 7.49427L13.4079 11.0874L13.1957 11.2815L13.2569 11.5625L14.4148 16.8851C14.4597 17.0921 14.3803 17.2971 14.2298 17.4109L14.2298 17.4109C14.0837 17.5214 13.8962 17.5286 13.7457 17.4341L13.7445 17.4333L9.26473 14.6385L9.00012 14.4734L8.73548 14.6384L4.25405 17.4333L4.25383 17.4334C4.18061 17.4792 4.10338 17.5 4.02823 17.5C3.94074 17.5 3.8505 17.4719 3.76901 17.4105C3.6194 17.2977 3.53946 17.0931 3.58456 16.8848L4.74244 11.5625L4.80357 11.2815L4.59142 11.0874L0.664408 7.49359L0.663473 7.49273C0.522685 7.36455 0.461968 7.15129 0.524463 6.95074C0.586182 6.75267 0.746331 6.62999 0.917394 6.61329C0.917553 6.61327 0.917712 6.61326 0.917871 6.61324L6.11312 6.12107L6.4141 6.09256L6.52867 5.81278L8.58279 0.796674C8.58285 0.796519 8.58292 0.796365 8.58298 0.796211C8.66158 0.605456 8.83023 0.5 9.00007 0.5C9.17016 0.5 9.33892 0.605745 9.41738 0.795883C9.41743 0.795987 9.41747 0.79609 9.41751 0.796194L11.4715 5.81275L11.586 6.09255L11.887 6.12107L17.0823 6.61332Z" stroke="#C5C5C5"/>
</svg>
