<svg width="146" height="62" viewBox="0 0 146 62" fill="none" xmlns="http://www.w3.org/2000/svg">
<g clip-path="url(#clip0)">
<path fill-rule="evenodd" clip-rule="evenodd" d="M3.54297 23.6861L5.25343 23.6249C7.63586 23.5637 9.71284 25.461 9.71284 27.9092C9.71284 30.2349 7.88021 32.1935 5.55887 32.2547L3.72623 32.3159C3.35971 32.3159 2.99318 32.0099 2.99318 31.6426L2.871 24.4205C2.871 23.9921 3.17644 23.6861 3.54297 23.6861ZM3.84841 35.0701L5.55887 35.0089C9.46849 34.9477 12.584 31.7651 12.584 27.848C12.584 23.8697 9.28523 20.7483 5.31452 20.8095L0.67184 20.9319C0.305313 20.9319 -0.0612138 21.2379 -0.000125973 21.6663L0.366401 38.0691C0.366401 38.4363 0.67184 38.8036 1.09946 38.7424L2.50448 38.6811C2.871 38.6811 3.23753 38.3751 3.17644 37.9467L3.11536 35.7433C3.11536 35.3761 3.42079 35.0701 3.84841 35.0701Z" fill="white"/>
<path fill-rule="evenodd" clip-rule="evenodd" d="M19.5479 24.4818H21.3195C23.7019 24.4818 25.7178 26.4403 25.6567 28.8273C25.5956 31.153 23.7019 33.0504 21.3806 33.0504H19.5479C19.1814 33.0504 18.8149 32.7443 18.8149 32.3159V25.155C18.8149 24.7878 19.1203 24.4818 19.5479 24.4818ZM18.8149 36.539C18.8149 36.1718 19.1203 35.8046 19.5479 35.8046H21.3806C21.7471 35.8046 22.1136 35.8046 22.4801 35.7434C22.7856 35.6821 23.0299 35.8046 23.2132 36.0494L25.1069 39.0484C25.2291 39.232 25.4734 39.3544 25.7178 39.3544H27.3672C27.917 39.3544 28.2835 38.7424 27.9781 38.2527L25.9622 34.9477C25.7789 34.6417 25.84 34.2744 26.0843 34.0296C27.6115 32.6831 28.5889 30.7246 28.5278 28.5212C28.4668 24.6042 25.2291 21.5439 21.3195 21.5439H16.799C16.4324 21.5439 16.0659 21.85 16.0659 22.2784V38.6812C16.0659 39.0484 16.3714 39.4156 16.799 39.4156H18.204C18.5705 39.4156 18.937 39.1096 18.937 38.6812V36.539H18.8149Z" fill="white"/>
<path fill-rule="evenodd" clip-rule="evenodd" d="M39.9511 24.3593C43.0055 24.3593 45.5101 27.1747 45.5101 30.6022C45.5101 34.0296 43.0055 36.845 39.9511 36.845C36.8967 36.845 34.3921 34.0296 34.3921 30.6022C34.4532 27.1747 36.8967 24.3593 39.9511 24.3593ZM39.9511 39.6604C44.5327 39.6604 48.3201 35.6209 48.3201 30.6022C48.3201 25.6446 44.5937 21.5439 39.9511 21.5439C35.3695 21.5439 31.582 25.5834 31.582 30.6022C31.6431 35.6209 35.3695 39.6604 39.9511 39.6604Z" fill="white"/>
<path fill-rule="evenodd" clip-rule="evenodd" d="M7.88045 61.5716C11.9733 61.5716 15.3332 58.1442 15.3332 53.9211V44.312C15.3332 43.9448 15.0277 43.5776 14.6001 43.5776H13.2562C12.8897 43.5776 12.5231 43.8836 12.5231 44.312V53.9211C12.5231 56.6141 10.4461 58.7562 7.88045 58.7562C5.31476 58.7562 3.23778 56.5529 3.23778 53.8599V44.2508C3.23778 43.8836 2.93234 43.5164 2.50472 43.5164H1.16079C0.794262 43.5164 0.427734 43.8224 0.427734 44.2508V53.8599C0.427734 58.1442 3.78757 61.5716 7.88045 61.5716Z" fill="white"/>
<path fill-rule="evenodd" clip-rule="evenodd" d="M20.8308 61.4491C21.6249 61.7551 22.5412 61.9387 23.5187 61.9387C24.9237 61.9387 26.2676 61.5103 27.3061 60.7146C28.5279 59.7966 29.1998 58.3889 29.1998 56.8587C29.1998 53.5537 26.3287 52.2684 24.0074 51.2892C21.7471 50.3099 20.6475 49.6978 20.6475 48.535C20.6475 48.535 20.7086 46.2092 23.4576 46.2092C24.9848 46.2092 26.0233 46.76 26.6952 47.9229C26.8785 48.2289 27.245 48.3513 27.5505 48.2289L28.8333 47.6781C29.1998 47.4945 29.3831 47.0661 29.1998 46.6376C28.0392 44.4955 26.0843 43.3938 23.4576 43.3938C19.3647 43.3938 17.8375 46.5764 17.8375 48.535C17.8375 51.7176 20.6475 52.9417 22.9078 53.8597C25.2902 54.9002 26.3898 55.5123 26.3898 56.8587C26.3898 58.6949 24.4961 59.1233 23.5187 59.1233C21.4417 59.1233 20.4643 58.0216 20.0977 56.8587C19.9756 56.4915 19.609 56.3079 19.3036 56.3691L17.9597 56.6751C17.532 56.7363 17.2877 57.1648 17.4099 57.5932C17.9597 59.3681 19.1203 60.6534 20.7086 61.3267H20.8919V61.4491H20.8308Z" fill="white"/>
<path fill-rule="evenodd" clip-rule="evenodd" d="M32.4375 44.3731V60.7147C32.4375 61.1431 32.7429 61.4491 33.1706 61.4491H42.6392C43.0057 61.4491 43.3722 61.1431 43.3722 60.7147V59.3682C43.3722 59.001 43.0668 58.6337 42.6392 58.6337H35.9195C35.553 58.6337 35.1865 58.3277 35.1865 57.8993V44.3731C35.1865 43.9447 34.881 43.6387 34.4534 43.6387H33.1095C32.7429 43.6387 32.4375 44.0059 32.4375 44.3731Z" fill="white"/>
<path fill-rule="evenodd" clip-rule="evenodd" d="M52.5357 61.5716C56.6286 61.5716 59.9884 58.1442 59.9884 53.9211V44.312C59.9884 43.9448 59.683 43.5776 59.2554 43.5776H57.9115C57.5449 43.5776 57.1784 43.8836 57.1784 44.312V53.9211C57.1784 56.6141 55.1014 58.7562 52.5357 58.7562C49.97 58.7562 47.893 56.5529 47.893 53.8599V44.2508C47.893 43.8836 47.5876 43.5164 47.16 43.5164H45.8161C45.4495 43.5164 45.083 43.8224 45.083 44.2508V53.8599C45.083 58.1442 48.4428 61.5716 52.5357 61.5716Z" fill="white"/>
<path fill-rule="evenodd" clip-rule="evenodd" d="M71.4118 61.5715C72.8168 61.5715 74.1607 61.2043 75.3825 60.5311V60.6535C75.3825 61.0819 75.6879 61.3879 76.1155 61.3879H77.4595C77.8871 61.3879 78.1925 61.0819 78.1925 60.6535V52.9417C78.1925 52.5745 77.8871 52.2073 77.4595 52.2073H71.7783C71.4118 52.2073 71.0453 52.5133 71.0453 52.9417V54.2882C71.0453 54.6554 71.3507 55.0227 71.7783 55.0227H74.6494C75.077 55.0227 75.3825 55.3287 75.3825 55.7571V56.7976C75.3825 56.9812 75.3214 57.226 75.1381 57.3484C74.0996 58.2665 72.7557 58.8173 71.4118 58.8173C68.1741 58.8173 65.6084 56.0019 65.6084 52.6357C65.6084 49.2083 68.2352 46.3929 71.4118 46.3929C72.8779 46.3929 74.344 47.0049 75.3825 48.1066C75.6268 48.3514 76.0545 48.4126 76.3599 48.1678L77.3984 47.3109C77.7038 47.0661 77.7649 46.5765 77.4595 46.2705C75.8712 44.5567 73.672 43.6387 71.3507 43.6387C66.5858 43.6387 62.7373 47.6782 62.7373 52.6357C62.7984 57.5321 66.708 61.5715 71.4118 61.5715Z" fill="white"/>
<path fill-rule="evenodd" clip-rule="evenodd" d="M83.3236 43.6387H81.9796C81.6131 43.6387 81.2466 43.9447 81.2466 44.3731V60.6535C81.2466 61.0819 81.552 61.3879 81.9796 61.3879H83.3236C83.7512 61.3879 84.0566 61.0819 84.0566 60.6535V44.3731C84.0566 44.0059 83.7512 43.6387 83.3236 43.6387Z" fill="white"/>
<path fill-rule="evenodd" clip-rule="evenodd" d="M89.1274 61.4489C90.1048 61.4489 90.8989 60.6533 90.8989 59.6128C90.8989 58.6335 90.1048 57.8379 89.1274 57.8379C88.15 57.8379 87.3558 58.6335 87.3558 59.6128C87.2948 60.6533 88.0889 61.4489 89.1274 61.4489Z" fill="#0BB8E3"/>
<path fill-rule="evenodd" clip-rule="evenodd" d="M100.917 61.5715C102.933 61.5715 104.827 60.837 106.354 59.5517C106.659 59.3069 106.659 58.7561 106.415 58.5113L105.438 57.532C105.193 57.2872 104.766 57.2872 104.46 57.4708C103.422 58.3276 102.2 58.7561 100.917 58.7561C97.6795 58.7561 95.1138 55.9407 95.1138 52.5132C95.1138 49.0858 97.7406 46.3316 100.917 46.3316C102.383 46.3316 103.849 46.9436 104.888 48.0453C105.132 48.2901 105.56 48.3513 105.865 48.1065L106.904 47.2497C107.209 47.0048 107.27 46.5152 106.965 46.2092C105.377 44.5567 103.177 43.5774 100.856 43.5774C96.0912 43.5774 92.2427 47.6169 92.2427 52.5744C92.3038 57.532 96.1523 61.5715 100.917 61.5715Z" fill="white"/>
<path fill-rule="evenodd" clip-rule="evenodd" d="M117.166 46.393C120.221 46.393 122.725 49.2084 122.725 52.6358C122.725 56.0632 120.221 58.8786 117.166 58.8786C114.112 58.8786 111.607 56.0632 111.607 52.6358C111.668 49.1472 114.112 46.393 117.166 46.393ZM117.166 61.6328C121.748 61.6328 125.535 57.5934 125.535 52.5746C125.535 47.6171 121.809 43.5164 117.166 43.5164C112.585 43.5164 108.797 47.5558 108.797 52.5746C108.858 57.5934 112.585 61.6328 117.166 61.6328Z" fill="white"/>
<path fill-rule="evenodd" clip-rule="evenodd" d="M131.889 51.228L136.165 59.001C136.409 59.4906 137.142 59.4906 137.448 59.001L141.724 51.228C141.846 50.9832 142.151 51.1056 142.212 51.3504L142.945 60.7759C142.945 61.1431 143.312 61.4491 143.678 61.4491H145.022C145.45 61.4491 145.755 61.0819 145.755 60.6535L144.412 44.3119C144.35 43.9447 144.045 43.6387 143.678 43.6387H143.068C142.823 43.6387 142.579 43.7611 142.457 44.0059L137.02 53.921C136.898 54.1046 136.653 54.1046 136.592 53.921L131.155 44.0059C131.033 43.7611 130.789 43.6387 130.545 43.6387H129.934C129.567 43.6387 129.262 43.9447 129.201 44.3119L127.918 60.6535C127.857 61.0819 128.223 61.4491 128.651 61.4491H129.995C130.361 61.4491 130.667 61.1431 130.728 60.7759L131.461 51.3504C131.4 51.1056 131.766 51.0444 131.889 51.228Z" fill="white"/>
<path fill-rule="evenodd" clip-rule="evenodd" d="M124.069 39.538C124.069 39.538 145.022 35.9882 144.656 22.9517C144.656 23.0129 153.819 37.7019 124.069 39.538Z" fill="#0BB8E3"/>
<path fill-rule="evenodd" clip-rule="evenodd" d="M106.232 39.5992C106.232 39.5992 138.67 34.0908 138.12 13.9546C138.12 13.9546 152.292 36.7226 106.232 39.5992Z" fill="white"/>
<path fill-rule="evenodd" clip-rule="evenodd" d="M81.2466 39.5992C81.2466 39.5992 131.339 31.0918 130.483 0C130.483 0 152.414 35.1925 81.2466 39.5992Z" fill="#0BB8E3"/>
</g>
<defs>
<clipPath id="clip0">
<rect width="146" height="62" fill="white"/>
</clipPath>
</defs>
</svg>
