<svg width="24" height="18" viewBox="0 0 24 18" fill="none" xmlns="http://www.w3.org/2000/svg">
<mask id="mask0" mask-type="alpha" maskUnits="userSpaceOnUse" x="0" y="0" width="24" height="18">
<rect width="24" height="18" rx="4" fill="#C4C4C4"/>
</mask>
<g mask="url(#mask0)">
<path d="M22.3956 1.00004H1.81305C0.811699 1.00004 0 1.81886 0 2.82899V15.1711C0 16.1811 0.811699 17 1.81305 17H22.3956C23.3969 17 24.2086 16.1812 24.2086 15.1711V2.82899C24.2086 1.81886 23.3969 1.00004 22.3956 1.00004Z" fill="#F5F5F5"/>
<path d="M0.0986328 2.23082H24.1078C23.8621 1.51455 23.1881 1.00004 22.3945 1.00004H1.81196C1.01837 1.00004 0.34436 1.51455 0.0986328 2.23082Z" fill="#FF4B55"/>
<path d="M24.2086 5.92305H0V7.15378H24.2086V5.92305Z" fill="#FF4B55"/>
<path d="M24.2086 3.4614H0V4.69213H24.2086V3.4614Z" fill="#FF4B55"/>
<path d="M0 9.19431C0 9.42684 0.186908 9.61538 0.41741 9.61538H24.2086V8.38461H0V9.19431Z" fill="#FF4B55"/>
<path d="M24.2086 13.308H0V14.5388H24.2086V13.308Z" fill="#FF4B55"/>
<path d="M24.1098 15.7692H0.100586C0.346313 16.4854 1.02037 16.9999 1.81392 16.9999H22.3965C23.1901 16.9999 23.8641 16.4854 24.1098 15.7692Z" fill="#FF4B55"/>
<path d="M24.2086 10.8464H0V12.0771H24.2086V10.8464Z" fill="#FF4B55"/>
<path d="M0.41741 9.61539H10.8522C11.0827 9.61539 11.2696 9.42685 11.2696 9.19432V1.42107C11.2696 1.1885 11.0827 1 10.8522 1H1.81305C0.811699 1.00005 0 1.81886 0 2.82899V9.19432C0 9.42689 0.186908 9.61539 0.41741 9.61539Z" fill="#41479B"/>
<path d="M1.17201 1.96656L1.2644 2.24606L1.55647 2.2483C1.59429 2.24864 1.60994 2.29729 1.57954 2.31994L1.34459 2.49495L1.43273 2.77583C1.44417 2.81218 1.40308 2.84232 1.3723 2.8201L1.13471 2.64882L0.897113 2.82014C0.866332 2.84237 0.825338 2.81223 0.836686 2.77588L0.92482 2.49499L0.689874 2.31999C0.659471 2.29729 0.675122 2.24864 0.712948 2.24835L1.00501 2.24611L1.0974 1.9666C1.10932 1.93035 1.16 1.93035 1.17201 1.96656Z" fill="#F5F5F5"/>
<path d="M1.17201 3.42854L1.2644 3.70805L1.55647 3.71029C1.59429 3.71062 1.60994 3.75923 1.57954 3.78193L1.34459 3.95698L1.43273 4.23787C1.44417 4.27422 1.40308 4.30436 1.3723 4.28214L1.13471 4.11085L0.897113 4.28218C0.866332 4.30436 0.825338 4.27427 0.836686 4.23792L0.92482 3.95703L0.689874 3.78198C0.659471 3.75927 0.675122 3.71067 0.712948 3.71034L1.00501 3.7081L1.0974 3.42859C1.10932 3.39239 1.16 3.39239 1.17201 3.42854Z" fill="#F5F5F5"/>
<path d="M1.17201 4.8907L1.2644 5.1702L1.55647 5.17245C1.59429 5.17278 1.60994 5.22138 1.57954 5.24409L1.34459 5.41914L1.43273 5.70002C1.44417 5.73637 1.40308 5.76651 1.3723 5.74429L1.13471 5.57301L0.897113 5.74433C0.866332 5.76651 0.825338 5.73647 0.836686 5.70007L0.92482 5.41918L0.689874 5.24413C0.659471 5.22143 0.675122 5.17283 0.712948 5.17249L1.00501 5.17025L1.0974 4.89075C1.10932 4.8545 1.16 4.8545 1.17201 4.8907Z" fill="#F5F5F5"/>
<path d="M1.17201 6.3528L1.2644 6.63231L1.55647 6.63455C1.59429 6.63488 1.60994 6.68353 1.57954 6.70619L1.34459 6.88124L1.43273 7.16212C1.44417 7.19847 1.40308 7.22861 1.3723 7.20639L1.13471 7.03511L0.897113 7.20643C0.866332 7.22861 0.825338 7.19852 0.836686 7.16217L0.92482 6.88128L0.689874 6.70624C0.659471 6.68363 0.675122 6.63493 0.712948 6.6346L1.00501 6.63235L1.0974 6.35285C1.10932 6.3166 1.16 6.3166 1.17201 6.3528Z" fill="#F5F5F5"/>
<path d="M1.17201 7.81491L1.2644 8.09442L1.55647 8.09666C1.59429 8.09699 1.60994 8.1456 1.57954 8.1683L1.34459 8.34335L1.43273 8.62424C1.44417 8.66058 1.40308 8.69073 1.3723 8.6685L1.13471 8.49722L0.897113 8.66855C0.866332 8.69073 0.825338 8.66063 0.836686 8.62429L0.92482 8.3434L0.689874 8.16835C0.659471 8.14565 0.675122 8.09704 0.712948 8.09671L1.00501 8.09447L1.0974 7.81496C1.10932 7.77876 1.16 7.77876 1.17201 7.81491Z" fill="#F5F5F5"/>
<path d="M2.29701 2.68327L2.3894 2.96278L2.68147 2.96502C2.71929 2.96535 2.73494 3.01401 2.70454 3.03666L2.46959 3.21171L2.55773 3.4926C2.56917 3.52894 2.52808 3.55909 2.4973 3.53686L2.25971 3.36553L2.02211 3.53686C1.99133 3.55904 1.95034 3.52894 1.96169 3.4926L2.04982 3.21171L1.81487 3.03666C1.78447 3.01396 1.80012 2.96535 1.83795 2.96502L2.13001 2.96278L2.2224 2.68327C2.23432 2.64712 2.28505 2.64712 2.29701 2.68327Z" fill="#F5F5F5"/>
<path d="M2.29701 4.14543L2.3894 4.42493L2.68147 4.42718C2.71929 4.42751 2.73494 4.47616 2.70454 4.49882L2.46959 4.67387L2.55773 4.95475C2.56917 4.9911 2.52808 5.02124 2.4973 4.99902L2.25971 4.82769L2.02211 4.99902C1.99133 5.0212 1.95034 4.99115 1.96169 4.95475L2.04982 4.67387L1.81487 4.49882C1.78447 4.47621 1.80012 4.42751 1.83795 4.42718L2.13001 4.42493L2.2224 4.14543C2.23432 4.10923 2.28505 4.10923 2.29701 4.14543Z" fill="#F5F5F5"/>
<path d="M2.29701 5.60754L2.3894 5.88704L2.68147 5.88929C2.71929 5.88962 2.73494 5.93822 2.70454 5.96093L2.46959 6.13598L2.55773 6.41687C2.56917 6.45321 2.52808 6.48336 2.4973 6.46113L2.25971 6.2898L2.02211 6.46113C1.99133 6.48331 1.95034 6.45321 1.96169 6.41687L2.04982 6.13598L1.81487 5.96093C1.78447 5.93822 1.80012 5.88962 1.83795 5.88929L2.13001 5.88704L2.2224 5.60754C2.23432 5.57133 2.28505 5.57133 2.29701 5.60754Z" fill="#F5F5F5"/>
<path d="M2.29701 7.06965L2.3894 7.34915L2.68147 7.35139C2.71929 7.35173 2.73494 7.40033 2.70454 7.42303L2.46959 7.59808L2.55773 7.87897C2.56917 7.91531 2.52808 7.94546 2.4973 7.92323L2.25971 7.7519L2.02211 7.92323C1.99133 7.94546 1.95034 7.91531 1.96169 7.87897L2.04982 7.59808L1.81487 7.42303C1.78447 7.40033 1.80012 7.35173 1.83795 7.35139L2.13001 7.34915L2.2224 7.06965C2.23432 7.03349 2.28505 7.03349 2.29701 7.06965Z" fill="#F5F5F5"/>
<path d="M3.42201 1.96643L3.5144 2.24594L3.80647 2.24818C3.84429 2.24851 3.85994 2.29717 3.82954 2.31982L3.59459 2.49482L3.68273 2.77571C3.69417 2.81206 3.65308 2.8422 3.6223 2.81998L3.38471 2.64865L3.14711 2.81998C3.11633 2.8422 3.07534 2.81206 3.08669 2.77571L3.17482 2.49482L2.93987 2.31982C2.90947 2.29712 2.92512 2.24847 2.96295 2.24818L3.25501 2.24594L3.3474 1.96643C3.35932 1.93023 3.41005 1.93023 3.42201 1.96643Z" fill="#F5F5F5"/>
<path d="M3.42201 3.42854L3.5144 3.70804L3.80647 3.71029C3.84429 3.71062 3.85994 3.75922 3.82954 3.78193L3.59459 3.95698L3.68273 4.23786C3.69417 4.27421 3.65308 4.30435 3.6223 4.28213L3.38471 4.1108L3.14711 4.28213C3.11633 4.30431 3.07534 4.27421 3.08669 4.23786L3.17482 3.95698L2.93987 3.78193C2.90947 3.75922 2.92512 3.71062 2.96295 3.71029L3.25501 3.70804L3.3474 3.42854C3.35932 3.39239 3.41005 3.39239 3.42201 3.42854Z" fill="#F5F5F5"/>
<path d="M3.42201 4.8907L3.5144 5.1702L3.80647 5.17244C3.84429 5.17278 3.85994 5.22138 3.82954 5.24408L3.59459 5.41913L3.68273 5.70002C3.69417 5.73637 3.65308 5.76651 3.6223 5.74428L3.38471 5.57296L3.14711 5.74428C3.11633 5.76646 3.07534 5.73641 3.08669 5.70002L3.17482 5.41913L2.93987 5.24408C2.90947 5.22138 2.92512 5.17278 2.96295 5.17244L3.25501 5.1702L3.3474 4.8907C3.35932 4.85449 3.41005 4.85449 3.42201 4.8907Z" fill="#F5F5F5"/>
<path d="M3.42201 6.3528L3.5144 6.63231L3.80647 6.63455C3.84429 6.63489 3.85994 6.68354 3.82954 6.70619L3.59459 6.88124L3.68273 7.16213C3.69417 7.19848 3.65308 7.22862 3.6223 7.2064L3.38471 7.03507L3.14711 7.2064C3.11633 7.22858 3.07534 7.19848 3.08669 7.16213L3.17482 6.88124L2.93987 6.70619C2.90947 6.68359 2.92512 6.63489 2.96295 6.63455L3.25501 6.63231L3.3474 6.3528C3.35932 6.3166 3.41005 6.3166 3.42201 6.3528Z" fill="#F5F5F5"/>
<path d="M3.42201 7.81492L3.5144 8.09442L3.80647 8.09666C3.84429 8.097 3.85994 8.1456 3.82954 8.1683L3.59459 8.34335L3.68273 8.62424C3.69417 8.66058 3.65308 8.69073 3.6223 8.6685L3.38471 8.49717L3.14711 8.6685C3.11633 8.69068 3.07534 8.66058 3.08669 8.62424L3.17482 8.34335L2.93987 8.1683C2.90947 8.1456 2.92512 8.097 2.96295 8.09666L3.25501 8.09442L3.3474 7.81492C3.35932 7.77876 3.41005 7.77876 3.42201 7.81492Z" fill="#F5F5F5"/>
<path d="M4.54701 2.68327L4.6394 2.96278L4.93147 2.96502C4.96929 2.96535 4.98494 3.01401 4.95454 3.03666L4.71959 3.21171L4.80773 3.4926C4.81917 3.52894 4.77808 3.55909 4.7473 3.53686L4.50971 3.36553L4.27211 3.53686C4.24133 3.55904 4.20034 3.52894 4.21169 3.4926L4.29982 3.21171L4.06487 3.03666C4.03447 3.01396 4.05012 2.96535 4.08795 2.96502L4.38001 2.96278L4.4724 2.68327C4.48427 2.64712 4.53505 2.64712 4.54701 2.68327Z" fill="#F5F5F5"/>
<path d="M4.54701 4.14543L4.6394 4.42493L4.93147 4.42718C4.96929 4.42751 4.98494 4.47616 4.95454 4.49882L4.71959 4.67387L4.80773 4.95475C4.81917 4.9911 4.77808 5.02124 4.7473 4.99902L4.50971 4.82769L4.27211 4.99902C4.24133 5.0212 4.20034 4.99115 4.21169 4.95475L4.29982 4.67387L4.06487 4.49882C4.03447 4.47621 4.05012 4.42751 4.08795 4.42718L4.38001 4.42493L4.4724 4.14543C4.48427 4.10923 4.53505 4.10923 4.54701 4.14543Z" fill="#F5F5F5"/>
<path d="M4.54701 5.60754L4.6394 5.88704L4.93147 5.88929C4.96929 5.88962 4.98494 5.93822 4.95454 5.96093L4.71959 6.13598L4.80773 6.41687C4.81917 6.45321 4.77808 6.48336 4.7473 6.46113L4.50971 6.2898L4.27211 6.46113C4.24133 6.48331 4.20034 6.45321 4.21169 6.41687L4.29982 6.13598L4.06487 5.96093C4.03447 5.93822 4.05012 5.88962 4.08795 5.88929L4.38001 5.88704L4.4724 5.60754C4.48427 5.57133 4.53505 5.57133 4.54701 5.60754Z" fill="#F5F5F5"/>
<path d="M4.54701 7.06965L4.6394 7.34915L4.93147 7.35139C4.96929 7.35173 4.98494 7.40033 4.95454 7.42303L4.71959 7.59808L4.80773 7.87897C4.81917 7.91531 4.77808 7.94546 4.7473 7.92323L4.50971 7.7519L4.27211 7.92323C4.24133 7.94546 4.20034 7.91531 4.21169 7.87897L4.29982 7.59808L4.06487 7.42303C4.03447 7.40033 4.05012 7.35173 4.08795 7.35139L4.38001 7.34915L4.4724 7.06965C4.48427 7.03349 4.53505 7.03349 4.54701 7.06965Z" fill="#F5F5F5"/>
<path d="M5.67206 1.96643L5.76445 2.24594L6.05652 2.24818C6.09434 2.24851 6.10999 2.29716 6.07959 2.31982L5.84464 2.49482L5.93278 2.77571C5.94422 2.81206 5.90313 2.8422 5.87235 2.81997L5.63471 2.64869L5.39711 2.82002C5.36633 2.84225 5.32534 2.8121 5.33669 2.77576L5.42482 2.49487L5.18987 2.31987C5.15947 2.29716 5.17512 2.24851 5.21295 2.24823L5.50501 2.24599L5.5974 1.96648C5.60937 1.93023 5.6601 1.93023 5.67206 1.96643Z" fill="#F5F5F5"/>
<path d="M5.67206 3.42854L5.76445 3.70804L6.05652 3.71029C6.09434 3.71062 6.10999 3.75922 6.07959 3.78193L5.84464 3.95698L5.93278 4.23786C5.94422 4.27421 5.90313 4.30435 5.87235 4.28213L5.63471 4.1108L5.39711 4.28213C5.36633 4.30431 5.32534 4.27421 5.33669 4.23786L5.42482 3.95698L5.18987 3.78193C5.15947 3.75922 5.17512 3.71062 5.21295 3.71029L5.50501 3.70804L5.5974 3.42854C5.60937 3.39239 5.6601 3.39239 5.67206 3.42854Z" fill="#F5F5F5"/>
<path d="M5.67206 4.8907L5.76445 5.1702L6.05652 5.17244C6.09434 5.17278 6.10999 5.22138 6.07959 5.24408L5.84464 5.41913L5.93278 5.70002C5.94422 5.73637 5.90313 5.76651 5.87235 5.74428L5.63471 5.57291L5.39711 5.74424C5.36633 5.76642 5.32534 5.73632 5.33669 5.69997L5.42482 5.41909L5.18987 5.24404C5.15947 5.22133 5.17512 5.17273 5.21295 5.1724L5.50501 5.17015L5.5974 4.89065C5.60937 4.85449 5.6601 4.85449 5.67206 4.8907Z" fill="#F5F5F5"/>
<path d="M5.67206 6.3528L5.76445 6.63231L6.05652 6.63455C6.09434 6.63489 6.10999 6.68354 6.07959 6.70619L5.84464 6.88124L5.93278 7.16213C5.94422 7.19848 5.90313 7.22862 5.87235 7.2064L5.63471 7.03507L5.39711 7.2064C5.36633 7.22858 5.32534 7.19848 5.33669 7.16213L5.42482 6.88124L5.18987 6.70619C5.15947 6.68359 5.17512 6.63489 5.21295 6.63455L5.50501 6.63231L5.5974 6.3528C5.60937 6.3166 5.6601 6.3166 5.67206 6.3528Z" fill="#F5F5F5"/>
<path d="M5.67206 7.81492L5.76445 8.09442L6.05652 8.09666C6.09434 8.097 6.10999 8.1456 6.07959 8.1683L5.84464 8.34335L5.93278 8.62424C5.94422 8.66058 5.90313 8.69073 5.87235 8.6685L5.63471 8.49717L5.39711 8.6685C5.36633 8.69068 5.32534 8.66058 5.33669 8.62424L5.42482 8.34335L5.18987 8.1683C5.15947 8.1456 5.17512 8.097 5.21295 8.09666L5.50501 8.09442L5.5974 7.81492C5.60937 7.77876 5.6601 7.77876 5.67206 7.81492Z" fill="#F5F5F5"/>
<path d="M6.79701 2.68327L6.8894 2.96278L7.18146 2.96502C7.21929 2.96535 7.23494 3.01401 7.20453 3.03666L6.96959 3.21171L7.05772 3.4926C7.06917 3.52894 7.02808 3.55909 6.9973 3.53686L6.7597 3.36553L6.52211 3.53686C6.49133 3.55904 6.45034 3.52894 6.46168 3.4926L6.54982 3.21171L6.31487 3.03666C6.28447 3.01396 6.30012 2.96535 6.33795 2.96502L6.63001 2.96278L6.7224 2.68327C6.73436 2.64712 6.78505 2.64712 6.79701 2.68327Z" fill="#F5F5F5"/>
<path d="M6.79701 4.14543L6.8894 4.42493L7.18146 4.42718C7.21929 4.42751 7.23494 4.47616 7.20453 4.49882L6.96959 4.67387L7.05772 4.95475C7.06917 4.9911 7.02808 5.02124 6.9973 4.99902L6.7597 4.82769L6.52211 4.99902C6.49133 5.0212 6.45034 4.99115 6.46168 4.95475L6.54982 4.67387L6.31487 4.49882C6.28447 4.47621 6.30012 4.42751 6.33795 4.42718L6.63001 4.42493L6.7224 4.14543C6.73436 4.10923 6.78505 4.10923 6.79701 4.14543Z" fill="#F5F5F5"/>
<path d="M6.79701 5.60754L6.8894 5.88704L7.18146 5.88929C7.21929 5.88962 7.23494 5.93822 7.20453 5.96093L6.96959 6.13598L7.05772 6.41687C7.06917 6.45321 7.02808 6.48336 6.9973 6.46113L6.7597 6.2898L6.52211 6.46113C6.49133 6.48331 6.45034 6.45321 6.46168 6.41687L6.54982 6.13598L6.31487 5.96093C6.28447 5.93822 6.30012 5.88962 6.33795 5.88929L6.63001 5.88704L6.7224 5.60754C6.73436 5.57133 6.78505 5.57133 6.79701 5.60754Z" fill="#F5F5F5"/>
<path d="M6.79701 7.06965L6.8894 7.34915L7.18146 7.35139C7.21929 7.35173 7.23494 7.40033 7.20453 7.42303L6.96959 7.59808L7.05772 7.87897C7.06917 7.91531 7.02808 7.94546 6.9973 7.92323L6.7597 7.7519L6.52211 7.92323C6.49133 7.94546 6.45034 7.91531 6.46168 7.87897L6.54982 7.59808L6.31487 7.42303C6.28447 7.40033 6.30012 7.35173 6.33795 7.35139L6.63001 7.34915L6.7224 7.06965C6.73436 7.03349 6.78505 7.03349 6.79701 7.06965Z" fill="#F5F5F5"/>
<path d="M7.92201 1.96643L8.0144 2.24594L8.30646 2.24818C8.34429 2.24851 8.35994 2.29717 8.32953 2.31982L8.09459 2.49482L8.18272 2.77571C8.19417 2.81206 8.15308 2.8422 8.1223 2.81998L7.8847 2.64865L7.64711 2.81998C7.61633 2.8422 7.57534 2.81206 7.58668 2.77571L7.67482 2.49482L7.43987 2.31982C7.40947 2.29712 7.42512 2.24847 7.46295 2.24818L7.75501 2.24594L7.8474 1.96643C7.85927 1.93023 7.91005 1.93023 7.92201 1.96643Z" fill="#F5F5F5"/>
<path d="M7.92201 3.42854L8.0144 3.70804L8.30646 3.71029C8.34429 3.71062 8.35994 3.75922 8.32953 3.78193L8.09459 3.95698L8.18272 4.23786C8.19417 4.27421 8.15308 4.30435 8.1223 4.28213L7.8847 4.1108L7.64711 4.28213C7.61633 4.30431 7.57534 4.27421 7.58668 4.23786L7.67482 3.95698L7.43987 3.78193C7.40947 3.75922 7.42512 3.71062 7.46295 3.71029L7.75501 3.70804L7.8474 3.42854C7.85927 3.39239 7.91005 3.39239 7.92201 3.42854Z" fill="#F5F5F5"/>
<path d="M7.92201 4.8907L8.0144 5.1702L8.30646 5.17244C8.34429 5.17278 8.35994 5.22138 8.32953 5.24408L8.09459 5.41913L8.18272 5.70002C8.19417 5.73637 8.15308 5.76651 8.1223 5.74428L7.8847 5.57296L7.64711 5.74428C7.61633 5.76646 7.57534 5.73641 7.58668 5.70002L7.67482 5.41913L7.43987 5.24408C7.40947 5.22138 7.42512 5.17278 7.46295 5.17244L7.75501 5.1702L7.8474 4.8907C7.85927 4.85449 7.91005 4.85449 7.92201 4.8907Z" fill="#F5F5F5"/>
<path d="M7.92201 6.3528L8.0144 6.63231L8.30646 6.63455C8.34429 6.63489 8.35994 6.68354 8.32953 6.70619L8.09459 6.88124L8.18272 7.16213C8.19417 7.19848 8.15308 7.22862 8.1223 7.2064L7.8847 7.03507L7.64711 7.2064C7.61633 7.22858 7.57534 7.19848 7.58668 7.16213L7.67482 6.88124L7.43987 6.70619C7.40947 6.68359 7.42512 6.63489 7.46295 6.63455L7.75501 6.63231L7.8474 6.3528C7.85927 6.3166 7.91005 6.3166 7.92201 6.3528Z" fill="#F5F5F5"/>
<path d="M7.92201 7.81492L8.0144 8.09442L8.30646 8.09666C8.34429 8.097 8.35994 8.1456 8.32953 8.1683L8.09459 8.34335L8.18272 8.62424C8.19417 8.66058 8.15308 8.69073 8.1223 8.6685L7.8847 8.49717L7.64711 8.6685C7.61633 8.69068 7.57534 8.66058 7.58668 8.62424L7.67482 8.34335L7.43987 8.1683C7.40947 8.1456 7.42512 8.097 7.46295 8.09666L7.75501 8.09442L7.8474 7.81492C7.85927 7.77876 7.91005 7.77876 7.92201 7.81492Z" fill="#F5F5F5"/>
<path d="M9.04701 2.68327L9.1394 2.96278L9.43146 2.96502C9.46929 2.96535 9.48494 3.01401 9.45454 3.03666L9.21959 3.21171L9.30773 3.4926C9.31917 3.52894 9.27808 3.55909 9.2473 3.53686L9.00971 3.36553L8.77211 3.53686C8.74133 3.55904 8.70034 3.52894 8.71169 3.4926L8.79982 3.21171L8.56487 3.03666C8.53447 3.01396 8.55012 2.96535 8.58795 2.96502L8.88001 2.96278L8.9724 2.68327C8.98432 2.64712 9.03505 2.64712 9.04701 2.68327Z" fill="#F5F5F5"/>
<path d="M9.04701 4.14543L9.1394 4.42493L9.43146 4.42718C9.46929 4.42751 9.48494 4.47616 9.45454 4.49882L9.21959 4.67387L9.30773 4.95475C9.31917 4.9911 9.27808 5.02124 9.2473 4.99902L9.00971 4.82769L8.77211 4.99902C8.74133 5.0212 8.70034 4.99115 8.71169 4.95475L8.79982 4.67387L8.56487 4.49882C8.53447 4.47621 8.55012 4.42751 8.58795 4.42718L8.88001 4.42493L8.9724 4.14543C8.98432 4.10923 9.03505 4.10923 9.04701 4.14543Z" fill="#F5F5F5"/>
<path d="M9.04701 5.60754L9.1394 5.88704L9.43146 5.88929C9.46929 5.88962 9.48494 5.93822 9.45454 5.96093L9.21959 6.13598L9.30773 6.41687C9.31917 6.45321 9.27808 6.48336 9.2473 6.46113L9.00971 6.2898L8.77211 6.46113C8.74133 6.48331 8.70034 6.45321 8.71169 6.41687L8.79982 6.13598L8.56487 5.96093C8.53447 5.93822 8.55012 5.88962 8.58795 5.88929L8.88001 5.88704L8.9724 5.60754C8.98432 5.57133 9.03505 5.57133 9.04701 5.60754Z" fill="#F5F5F5"/>
<path d="M9.04701 7.06965L9.1394 7.34915L9.43146 7.35139C9.46929 7.35173 9.48494 7.40033 9.45454 7.42303L9.21959 7.59808L9.30773 7.87897C9.31917 7.91531 9.27808 7.94546 9.2473 7.92323L9.00971 7.7519L8.77211 7.92323C8.74133 7.94546 8.70034 7.91531 8.71169 7.87897L8.79982 7.59808L8.56487 7.42303C8.53447 7.40033 8.55012 7.35173 8.58795 7.35139L8.88001 7.34915L8.9724 7.06965C8.98432 7.03349 9.03505 7.03349 9.04701 7.06965Z" fill="#F5F5F5"/>
<path d="M10.172 1.96643L10.2644 2.24594L10.5565 2.24818C10.5943 2.24851 10.6099 2.29717 10.5795 2.31982L10.3446 2.49482L10.4327 2.77571C10.4442 2.81206 10.4031 2.8422 10.3723 2.81998L10.1347 2.64865L9.89711 2.81998C9.86633 2.8422 9.82534 2.81206 9.83669 2.77571L9.92482 2.49482L9.68987 2.31982C9.65947 2.29712 9.67512 2.24847 9.71295 2.24818L10.005 2.24594L10.0974 1.96643C10.1093 1.93023 10.16 1.93023 10.172 1.96643Z" fill="#F5F5F5"/>
<path d="M10.172 3.42854L10.2644 3.70804L10.5565 3.71029C10.5943 3.71062 10.6099 3.75922 10.5795 3.78193L10.3446 3.95698L10.4327 4.23786C10.4442 4.27421 10.4031 4.30435 10.3723 4.28213L10.1347 4.1108L9.89711 4.28213C9.86633 4.30431 9.82534 4.27421 9.83669 4.23786L9.92482 3.95698L9.68987 3.78193C9.65947 3.75922 9.67512 3.71062 9.71295 3.71029L10.005 3.70804L10.0974 3.42854C10.1093 3.39239 10.16 3.39239 10.172 3.42854Z" fill="#F5F5F5"/>
<path d="M10.172 4.8907L10.2644 5.1702L10.5565 5.17244C10.5943 5.17278 10.6099 5.22138 10.5795 5.24408L10.3446 5.41913L10.4327 5.70002C10.4442 5.73637 10.4031 5.76651 10.3723 5.74428L10.1347 5.57296L9.89711 5.74428C9.86633 5.76646 9.82534 5.73641 9.83669 5.70002L9.92482 5.41913L9.68987 5.24408C9.65947 5.22138 9.67512 5.17278 9.71295 5.17244L10.005 5.1702L10.0974 4.8907C10.1093 4.85449 10.16 4.85449 10.172 4.8907Z" fill="#F5F5F5"/>
<path d="M10.172 6.3528L10.2644 6.63231L10.5565 6.63455C10.5943 6.63489 10.6099 6.68354 10.5795 6.70619L10.3446 6.88124L10.4327 7.16213C10.4442 7.19848 10.4031 7.22862 10.3723 7.2064L10.1347 7.03507L9.89711 7.2064C9.86633 7.22858 9.82534 7.19848 9.83669 7.16213L9.92482 6.88124L9.68987 6.70619C9.65947 6.68359 9.67512 6.63489 9.71295 6.63455L10.005 6.63231L10.0974 6.3528C10.1093 6.3166 10.16 6.3166 10.172 6.3528Z" fill="#F5F5F5"/>
<path d="M10.172 7.81492L10.2644 8.09442L10.5565 8.09666C10.5943 8.097 10.6099 8.1456 10.5795 8.1683L10.3446 8.34335L10.4327 8.62424C10.4442 8.66058 10.4031 8.69073 10.3723 8.6685L10.1347 8.49717L9.89711 8.6685C9.86633 8.69068 9.82534 8.66058 9.83669 8.62424L9.92482 8.34335L9.68987 8.1683C9.65947 8.1456 9.67512 8.097 9.71295 8.09666L10.005 8.09442L10.0974 7.81492C10.1093 7.77876 10.16 7.77876 10.172 7.81492Z" fill="#F5F5F5"/>
<rect x="0.5" y="0.5" width="23" height="17" rx="3.5" stroke="#F4F6FC"/>
</g>
</svg>
