<svg width="20" height="20" viewBox="0 0 20 20" fill="none" xmlns="http://www.w3.org/2000/svg">
<path fill-rule="evenodd" clip-rule="evenodd" d="M4.16663 8.37083V8.2275C4.16663 5.06417 6.77817 2.5 9.99996 2.5V2.5C13.2217 2.5 15.8333 5.06417 15.8333 8.2275V8.37083C15.8333 11.255 12.1142 15.5967 10.6153 17.23C10.2851 17.59 9.71479 17.59 9.38463 17.23C7.88577 15.5967 4.16663 11.255 4.16663 8.37083Z" stroke="#95989D" stroke-width="1.5" stroke-linecap="round" stroke-linejoin="round"/>
<path d="M7.5 8.35592C7.5 9.72451 8.61875 10.833 10 10.833V10.833C11.3813 10.833 12.5 9.72451 12.5 8.35592V8.3101C12.5 6.9415 11.3813 5.83301 10 5.83301V5.83301C8.61875 5.83301 7.5 6.9415 7.5 8.3101" stroke="#95989D" stroke-width="1.5" stroke-linecap="round" stroke-linejoin="round"/>
</svg>
