<svg width="460" height="250" viewBox="0 0 460 250" fill="none" xmlns="http://www.w3.org/2000/svg">
<rect width="460" height="250" rx="10" fill="#F1F3F8"/>
<path fill-rule="evenodd" clip-rule="evenodd" d="M213.667 120.438V120.037C213.667 111.18 220.979 104 230 104V104C239.021 104 246.334 111.18 246.334 120.037V120.438C246.334 128.514 235.92 140.671 231.723 145.244C230.799 146.252 229.202 146.252 228.277 145.244C224.081 140.671 213.667 128.514 213.667 120.438Z" stroke="#C7CBCF" stroke-width="3" stroke-linecap="round" stroke-linejoin="round"/>
<path d="M223 120.398C223 124.23 226.132 127.333 230 127.333V127.333C233.868 127.333 237 124.23 237 120.398V120.269C237 116.437 233.868 113.333 230 113.333V113.333C226.132 113.333 223 116.437 223 120.269" stroke="#C7CBCF" stroke-width="3" stroke-linecap="round" stroke-linejoin="round"/>
</svg>
