<svg xmlns="http://www.w3.org/2000/svg" width="100" height="100" viewBox="0 0 100 100" clip-rule="evenodd" fill-rule="evenodd" stroke-linecap="round" stroke-linejoin="round"><defs><clipPath id="ClipPath-1"><path d="M-26.5 13.6c-0.6-1.8 20.9-21.6 22-20c3 4.5 9.6 7.6 17.2 7.6c6 0 11.4-1.9 14.8-5c2.5-2.2 26 16.9 24.1 20.1c-6 10-22.3 19-39 19c-19.2 0-35.2-9.3-39.1-21.7Z"/></clipPath></defs><style>
@keyframes a0_s { 0% { stroke: #55585e; animation-timing-function: steps(1); } 33.333% { stroke: #ffa900; animation-timing-function: steps(1); } 46.667% { stroke: #55585e; animation-timing-function: steps(1); } 60% { stroke: #ffa900; animation-timing-function: steps(1); } 73.333% { stroke: #55585e; } 100% { stroke: #55585e; } }
@keyframes a1_t { 0% { transform: translate(-37.4px,-89.8px); } 100% { transform: translate(-37.4px,-39.8px); } }
@keyframes a2_t { 0% { transform: translate(-52.4px,-80.8px); } 100% { transform: translate(-19.4px,-46.8px); } }
@keyframes a3_t { 0% { transform: translate(-22.4px,-80.8px); } 100% { transform: translate(-55.5px,-46.8px); } }
</style><title>icon5</title><g><path d="M78 54h-56c-6.6 0-12-5.4-12-12v-16c0-6.6 5.4-12 12-12h56c6.6 0 12 5.4 12 12v16c0 6.6-5.4 12-12 12Z" fill="none" stroke="#55585e" stroke-width="6px"/><path d="M74 26h-8" fill="none" stroke="#55585e" stroke-width="6px" style="animation: 1.5s linear infinite both a0_s;"/><path d="M74 54v-4c0-4.4-3.6-8-8-8h-32c-4.4 0-8 3.6-8 8v4" fill="none" stroke="#55585e" stroke-width="6px"/></g><g clip-path="url(#ClipPath-1)" transform="translate(37.4,64.7)"><path d="M50 80v6" fill="none" stroke="#5a81b2" stroke-width="6px" transform="translate(12.6,-6.8) translate(-50,-83)" style="animation: 1.5s linear infinite both a1_t;"/><path d="M71 77l-3-3" fill="none" stroke="#5a81b2" stroke-width="6px" transform="translate(17.1,-5.3) translate(-69.5,-75.5)" style="animation: 1.5s linear infinite both a2_t;"/><path d="M29 77l3-3" fill="none" stroke="#5a81b2" stroke-width="6px" transform="translate(8.1,-5.3) translate(-30.5,-75.5)" style="animation: 1.5s linear infinite both a3_t;"/></g></svg>