<svg width="48" height="48" viewBox="0 0 48 48" fill="none" xmlns="http://www.w3.org/2000/svg">
<path d="M39.4344 19.2222V7.99351C39.4344 6.88905 38.538 5.99268 37.4335 5.99268H33.718C32.6135 5.99268 31.7172 6.88905 31.7172 7.99351V12.6074" stroke="#7E7E3F" stroke-width="2" stroke-linecap="round" stroke-linejoin="round"/>
<path d="M39.4344 19.2222V7.99351C39.4344 6.88905 38.538 5.99268 37.4335 5.99268H33.718C32.6135 5.99268 31.7172 6.88905 31.7172 7.99351V12.6074" stroke="#FB5314" stroke-width="2" stroke-linecap="round" stroke-linejoin="round"/>
<path d="M5.99243 21.4271L21.3948 8.22561C22.8935 6.94107 25.1044 6.94107 26.603 8.22561L42.0074 21.4271" stroke="#7E7E3F" stroke-width="2" stroke-linecap="round" stroke-linejoin="round"/>
<path d="M5.99243 21.4271L21.3948 8.22561C22.8935 6.94107 25.1044 6.94107 26.603 8.22561L42.0074 21.4271" stroke="#FB5314" stroke-width="2" stroke-linecap="round" stroke-linejoin="round"/>
<path d="M8.56555 19.2222V38.006C8.56555 40.2169 10.3563 42.0077 12.5672 42.0077H21.9991" stroke="#7E7E3F" stroke-width="2" stroke-linecap="round" stroke-linejoin="round"/>
<path d="M8.56555 19.2222V38.006C8.56555 40.2169 10.3563 42.0077 12.5672 42.0077H21.9991" stroke="#FB5314" stroke-width="2" stroke-linecap="round" stroke-linejoin="round"/>
<path d="M42.0074 42.0079L38.728 38.7285" stroke="#7E7E3F" stroke-width="2" stroke-linecap="round" stroke-linejoin="round"/>
<path d="M42.0074 42.0079L38.728 38.7285" stroke="#FB5314" stroke-width="2" stroke-linecap="round" stroke-linejoin="round"/>
<path d="M33.4518 26.001C37.5675 26.001 40.9029 29.3384 40.9029 33.4521C40.9029 37.5658 37.5655 40.9032 33.4518 40.9032C29.3381 40.9032 26.0007 37.5678 26.0007 33.4521C26.0007 29.3364 29.3381 26.001 33.4518 26.001" stroke="#7E7E3F" stroke-width="2" stroke-linecap="round" stroke-linejoin="round"/>
<path d="M33.4518 26.001C37.5675 26.001 40.9029 29.3384 40.9029 33.4521C40.9029 37.5658 37.5655 40.9032 33.4518 40.9032C29.3381 40.9032 26.0007 37.5678 26.0007 33.4521C26.0007 29.3364 29.3381 26.001 33.4518 26.001" stroke="#FB5314" stroke-width="2" stroke-linecap="round" stroke-linejoin="round"/>
<path d="M36.351 32.0034L32.7275 35.6269L30.5526 33.452" stroke="#7E7E3F" stroke-width="2" stroke-linecap="round" stroke-linejoin="round"/>
<path d="M36.351 32.0034L32.7275 35.6269L30.5526 33.452" stroke="#FB5314" stroke-width="2" stroke-linecap="round" stroke-linejoin="round"/>
</svg>
