<svg xmlns="http://www.w3.org/2000/svg" width="45" height="45" viewBox="0 0 45 45"><style>
@keyframes a0_t { 0% { transform: translate(4.1px,25.5px) rotate(0deg) translate(-6px,-26px); } 50% { transform: translate(4.1px,25.5px) rotate(7deg) translate(-6px,-26px); } 100% { transform: translate(4.1px,25.5px) rotate(0deg) translate(-6px,-26px); } }
@keyframes a1_t { 0% { transform: translate(-1.9px,-0.5px); } 50% { transform: translate(-1.9px,7.5px); } 100% { transform: translate(-1.9px,-0.5px); } }
</style><title>ic03</title><g clip-rule="evenodd" fill-rule="evenodd" stroke-linecap="round" stroke-linejoin="round" transform="translate(4.1,25.5) translate(-6,-26)" style="animation: 4s linear infinite both a0_t;"><path d="M12 42h-4c-1.1 0-2-0.9-2-2v-12c0-1.1 .9-2 2-2h4c1.1 0 2 .9 2 2v12c0 1.1-0.9 2-2 2Z" fill="none" stroke="#fb5314" stroke-width="2px"/><path d="M26 34h4.7c.8 0 1.7-0.3 2.4-0.8l4.8-3.6c1.2-0.9 2.9-0.8 4 .3c1.1 1.1 1.1 3.1 0 4.2l-4.2 4.2c-1.1 1.1-2.5 1.9-4.1 2.2l-5.8 1.2c-1.2 .2-2.4 .2-3.5-0.1l-5.3-1.4c-0.7-0.1-1.3-0.2-2-0.2h-3" fill="none" stroke="#fb5314" stroke-width="2px"/><path d="M26 34h3c1.6 0 3-1.4 3-3v-0.6c0-1.4-0.9-2.6-2.3-3l-4.6-1.1c-0.7-0.2-1.5-0.3-2.3-0.3c-1.8 0-3.6 .5-5.2 1.6l-3.6 2.4" fill="none" stroke="#fb5314" stroke-width="2px"/></g><g clip-rule="evenodd" fill-rule="evenodd" stroke-linecap="round" stroke-linejoin="round" transform="translate(26.1,11.5) translate(-28,-12)" style="animation: 4s linear infinite both a1_t;"><path d="M26.9 8.3h-9.3c-0.5 0-1 .3-1.4 .6l-1.6 1.7c-0.8 .8-0.8 2 0 2.8l1.6 1.7c.4 .3 .9 .6 1.5 .6l9.2-0.1v.1c1.4 2.5 4 4.3 7.1 4.3c4.4 0 8-3.6 8-8c0-4.4-3.6-8-8-8c-3.1 0-5.7 1.8-7.1 4.3" fill="none" stroke="#fb5314" stroke-width="2px"/><path d="M34 12.5c.3 0 .5-0.2 .5-0.5c0-0.3-0.2-0.5-0.5-0.5c-0.3 0-0.5 .2-0.5 .5c0 .3 .2 .5 .5 .5" fill="none" stroke="#fb5314" stroke-width="2px"/></g></svg>