<svg width="48" height="48" viewBox="0 0 48 48" fill="none" xmlns="http://www.w3.org/2000/svg">
<path d="M21.4449 14.7262L22.3113 13.8598C24.6563 11.5148 28.4559 11.5148 30.8008 13.8598L39.8306 22.8896C42.7338 25.7928 42.7338 30.4987 39.8306 33.4019L39.3884 33.8441C36.4852 36.7473 31.7793 36.7473 28.876 33.8441L21.8471 26.8152" stroke="#7E7E3F" stroke-width="2" stroke-linecap="round" stroke-linejoin="round"/>
<path d="M21.4449 14.7262L22.3113 13.8598C24.6563 11.5148 28.4559 11.5148 30.8008 13.8598L39.8306 22.8896C42.7338 25.7928 42.7338 30.4987 39.8306 33.4019L39.3884 33.8441C36.4852 36.7473 31.7793 36.7473 28.876 33.8441L21.8471 26.8152" stroke="#FB5314" stroke-width="2" stroke-linecap="round" stroke-linejoin="round"/>
<path d="M10.9986 29.0282C8.04335 27.5516 5.99249 24.5283 5.99249 20.9989C5.99249 16.0268 10.0242 11.9951 14.9962 11.9951C19.9683 11.9951 24 16.0268 24 20.9989C24 24.5263 21.9511 27.5496 18.9979 29.0262V29.0222L18.9959 38.014C18.9939 38.5422 18.7838 39.0484 18.4097 39.4205L16.4048 41.4254C15.6245 42.2037 14.364 42.2017 13.5857 41.4234L11.5788 39.4125C11.2047 39.0384 10.9946 38.5302 10.9946 38.0019L10.9986 29.0242" stroke="#7E7E3F" stroke-width="2" stroke-linecap="round" stroke-linejoin="round"/>
<path d="M10.9986 29.0282C8.04335 27.5516 5.99249 24.5283 5.99249 20.9989C5.99249 16.0268 10.0242 11.9951 14.9962 11.9951C19.9683 11.9951 24 16.0268 24 20.9989C24 24.5263 21.9511 27.5496 18.9979 29.0262V29.0222L18.9959 38.014C18.9939 38.5422 18.7838 39.0484 18.4097 39.4205L16.4048 41.4254C15.6245 42.2037 14.364 42.2017 13.5857 41.4234L11.5788 39.4125C11.2047 39.0384 10.9946 38.5302 10.9946 38.0019L10.9986 29.0242" stroke="#FB5314" stroke-width="2" stroke-linecap="round" stroke-linejoin="round"/>
<path d="M14.9962 20.4987V11.495C14.9962 8.4557 17.4592 5.99268 20.4985 5.99268V5.99268C23.5378 5.99268 26.0008 8.4557 26.0008 11.495V12.1292" stroke="#7E7E3F" stroke-width="2" stroke-linecap="round" stroke-linejoin="round"/>
<path d="M14.9962 20.4987V11.495C14.9962 8.4557 17.4592 5.99268 20.4985 5.99268V5.99268C23.5378 5.99268 26.0008 8.4557 26.0008 11.495V12.1292" stroke="#FB5314" stroke-width="2" stroke-linecap="round" stroke-linejoin="round"/>
<path d="M14.9942 20.4987C14.7181 20.4987 14.494 20.7228 14.498 20.999C14.498 21.2751 14.7221 21.4992 14.9982 21.4992C15.2744 21.4992 15.4985 21.2751 15.4985 20.999C15.4965 20.7228 15.2724 20.4987 14.9942 20.4987" stroke="#7E7E3F" stroke-width="2" stroke-linecap="round" stroke-linejoin="round"/>
<path d="M14.9942 20.4987C14.7181 20.4987 14.494 20.7228 14.498 20.999C14.498 21.2751 14.7221 21.4992 14.9982 21.4992C15.2744 21.4992 15.4985 21.2751 15.4985 20.999C15.4965 20.7228 15.2724 20.4987 14.9942 20.4987" stroke="#FB5314" stroke-width="2" stroke-linecap="round" stroke-linejoin="round"/>
</svg>
