<svg width="16" height="16" viewBox="0 0 16 16" fill="none" xmlns="http://www.w3.org/2000/svg">
<circle cx="8" cy="8" r="8" fill="#85888F"/>
<path d="M8.66078 9.80398V9.49198C8.66078 8.79598 8.82878 8.59198 9.45278 8.03998C10.1968 7.39198 10.6528 6.93598 10.6528 5.91598C10.6528 4.40398 9.47678 3.59998 8.09678 3.59998C6.62078 3.59998 5.48078 4.49998 5.30078 6.02398L6.77678 6.15598C6.80078 5.50798 7.25678 4.90798 8.00078 4.90798C8.70878 4.90798 9.12878 5.38798 9.12878 6.01198C9.12878 6.49198 8.87678 6.80398 8.57678 7.07998L8.03678 7.59598C7.43678 8.17198 7.24478 8.57998 7.24478 9.34798V9.80398H8.66078ZM7.00478 11.472C7.00478 11.988 7.46078 12.384 7.96478 12.384C8.49278 12.384 8.92478 11.964 8.92478 11.448C8.92478 10.932 8.48078 10.536 7.96478 10.536C7.43678 10.536 7.00478 10.956 7.00478 11.472Z" fill="white"/>
</svg>
