<?xml version="1.0" standalone="no"?>
<!DOCTYPE svg PUBLIC "-//W3C//DTD SVG 20010904//EN"
 "http://www.w3.org/TR/2001/REC-SVG-20010904/DTD/svg10.dtd">
<svg version="1.0" xmlns="http://www.w3.org/2000/svg"
 width="117.000000pt" height="117.000000pt" viewBox="0 0 117.000000 117.000000"
 preserveAspectRatio="xMidYMid meet">
<metadata>
Created by potrace 1.11, written by Peter Selinger 2001-2013
</metadata>
<g transform="translate(0.000000,117.000000) scale(0.100000,-0.100000)"
fill="#000000" stroke="none">
<path d="M370 1146 c-246 -71 -405 -321 -360 -566 47 -264 300 -449 558 -411
43 7 106 25 145 43 l68 32 117 -116 c64 -64 127 -119 140 -123 32 -9 88 12
106 40 9 13 16 43 16 66 0 40 -5 47 -119 163 l-119 121 19 30 c11 17 29 61 40
99 28 88 23 231 -10 318 -47 123 -165 241 -289 289 -70 27 -241 36 -312 15z
m286 -176 c73 -36 127 -91 162 -169 37 -81 37 -193 0 -273 -35 -76 -98 -141
-167 -175 -48 -24 -68 -28 -146 -28 -77 0 -98 4 -146 26 -72 34 -134 96 -168
168 -22 47 -26 70 -26 146 0 78 4 97 28 147 85 174 290 244 463 158z"/>
</g>
</svg>
