<?xml version="1.0" standalone="no"?>
<!DOCTYPE svg PUBLIC "-//W3C//DTD SVG 20010904//EN"
 "http://www.w3.org/TR/2001/REC-SVG-20010904/DTD/svg10.dtd">
<svg version="1.0" xmlns="http://www.w3.org/2000/svg"
 width="2353.000000pt" height="2353.000000pt" viewBox="0 0 2353.000000 2353.000000"
 preserveAspectRatio="xMidYMid meet">
<metadata>
Created by potrace 1.11, written by Peter Selinger 2001-2013
</metadata>
<g transform="translate(0.000000,2353.000000) scale(0.100000,-0.100000)"
fill="#000000" stroke="none">
<path d="M11348 23525 c-2 -1 -75 -6 -163 -10 -88 -4 -176 -8 -195 -10 -19 -1
-80 -5 -135 -9 -94 -7 -119 -9 -235 -21 -25 -3 -70 -7 -100 -10 -30 -3 -71 -8
-90 -10 -19 -2 -60 -7 -90 -10 -30 -4 -66 -8 -80 -10 -21 -3 -129 -18 -220
-30 -14 -2 -70 -11 -125 -20 -159 -25 -176 -28 -320 -55 -60 -12 -121 -23
-135 -25 -14 -2 -47 -9 -75 -15 -27 -6 -59 -13 -70 -16 -11 -2 -31 -6 -45 -9
-14 -3 -34 -7 -45 -10 -60 -12 -245 -56 -275 -65 -19 -6 -47 -13 -62 -15 -43
-8 -311 -81 -443 -120 -66 -20 -127 -38 -135 -40 -28 -6 -455 -148 -465 -154
-5 -3 -14 -6 -20 -8 -53 -11 -525 -197 -747 -294 -727 -318 -1475 -737 -2058
-1154 -36 -25 -76 -54 -90 -63 -14 -9 -29 -20 -35 -25 -5 -4 -71 -52 -145
-107 -74 -55 -142 -106 -150 -113 -8 -6 -67 -52 -130 -102 -63 -49 -126 -99
-140 -111 -14 -12 -59 -50 -100 -84 -41 -34 -91 -76 -111 -93 -20 -18 -47 -41
-60 -52 -230 -195 -685 -633 -882 -850 -25 -27 -67 -73 -94 -101 -26 -28 -75
-82 -108 -119 -33 -38 -69 -79 -80 -91 -78 -86 -282 -333 -400 -484 -341 -437
-715 -994 -954 -1420 -23 -41 -46 -82 -51 -90 -48 -74 -400 -765 -400 -784 0
-2 -20 -47 -44 -98 -198 -422 -424 -1031 -573 -1543 -48 -165 -148 -542 -159
-600 -4 -20 -6 -29 -23 -100 -5 -22 -12 -51 -15 -65 -3 -14 -23 -115 -46 -225
-38 -183 -92 -503 -106 -616 -6 -52 -9 -50 91 -65 28 -5 52 -9 55 -9 3 -1 23
-5 45 -9 22 -4 60 -11 85 -16 25 -5 142 -28 260 -50 118 -22 235 -45 260 -50
46 -11 62 -14 140 -30 44 -9 165 -35 390 -85 63 -14 171 -39 240 -55 69 -17
154 -37 190 -45 36 -9 72 -17 80 -19 47 -13 113 -29 195 -49 81 -20 333 -88
495 -134 107 -31 215 -61 240 -68 106 -30 472 -151 660 -218 308 -110 782
-294 897 -347 24 -11 45 -20 48 -20 15 0 505 -222 735 -332 91 -44 169 -80
175 -81 5 -1 10 947 11 2558 l1 2560 21 77 c12 43 37 109 56 147 35 70 114
181 144 203 10 7 26 27 36 43 45 74 129 134 458 331 183 109 338 201 343 203
6 2 26 14 45 26 19 12 203 122 408 244 205 122 388 231 405 242 18 10 40 22
50 25 9 4 17 10 17 15 0 5 4 9 9 9 5 0 145 81 311 180 166 99 306 180 311 180
5 0 9 4 9 9 0 5 8 11 18 15 9 3 26 11 37 18 11 7 39 25 63 41 24 15 45 27 47
27 3 0 53 29 111 65 59 36 107 65 109 65 1 0 62 36 135 80 73 44 134 80 136
80 1 0 39 23 83 50 44 28 85 50 91 50 5 0 10 5 10 10 0 6 5 10 10 10 6 0 27
11 48 24 20 13 215 129 432 258 488 290 1037 617 1445 860 171 101 334 202
363 225 97 73 268 117 452 116 186 -2 336 -43 436 -120 55 -41 21 -21 724
-438 294 -175 589 -350 655 -390 170 -102 544 -325 580 -345 29 -16 283 -168
560 -334 72 -42 137 -81 145 -86 361 -215 1071 -637 1200 -713 74 -44 159 -95
187 -113 29 -19 55 -34 58 -34 3 0 24 -12 48 -27 23 -15 51 -32 62 -38 11 -6
166 -99 345 -205 179 -107 334 -199 345 -206 88 -48 458 -274 488 -298 21 -17
63 -61 93 -98 30 -37 66 -80 81 -95 60 -64 139 -207 160 -288 28 -109 29 -211
28 -2853 0 -1480 3 -2692 7 -2692 4 0 67 29 140 64 190 91 296 140 353 166 28
12 79 36 115 52 131 61 389 172 580 249 107 44 204 84 215 89 11 5 88 34 170
65 83 31 159 61 170 66 104 47 781 272 1110 369 180 53 671 185 765 205 42 9
207 47 220 50 33 9 598 123 635 129 22 3 49 7 60 10 11 2 40 7 65 11 52 9 76
13 110 20 14 3 43 7 65 10 22 4 65 10 95 15 30 5 75 12 100 15 25 3 56 8 70
10 37 7 78 13 140 21 30 4 64 8 75 9 11 2 47 6 80 10 33 4 69 9 80 11 11 2 49
7 85 10 36 4 74 8 85 10 11 1 24 3 28 3 8 1 4 68 -7 127 -2 11 -7 46 -11 79
-6 56 -50 351 -59 399 -2 11 -7 39 -11 61 -7 43 -44 237 -51 270 -2 10 -6 37
-10 59 -3 22 -8 44 -10 48 -4 6 -14 53 -30 138 -3 14 -7 33 -10 42 -3 10 -7
30 -10 45 -15 87 -137 551 -191 728 -223 731 -468 1343 -793 1980 -65 127
-137 264 -160 305 -23 41 -56 100 -72 130 -242 441 -671 1079 -1026 1525 -428
537 -919 1058 -1402 1485 -58 51 -121 107 -140 124 -130 116 -423 351 -630
506 -91 68 -182 136 -202 151 -20 16 -40 29 -43 29 -4 0 -13 7 -21 15 -28 27
-538 361 -714 467 -339 204 -828 465 -1105 590 -44 20 -114 52 -155 71 -317
145 -709 297 -1098 427 -224 74 -617 193 -683 205 -10 2 -52 13 -94 25 -77 21
-99 27 -145 36 -14 2 -31 7 -39 10 -13 4 -145 34 -211 48 -14 3 -79 17 -145
31 -66 14 -133 28 -150 30 -16 3 -52 10 -80 15 -65 12 -102 19 -145 26 -19 3
-46 7 -60 10 -54 10 -147 26 -180 30 -19 2 -98 13 -175 24 -180 26 -197 28
-275 35 -36 3 -76 8 -90 10 -51 7 -295 28 -480 41 -52 3 -117 8 -145 10 -60 5
-1032 14 -1037 9z"/>
<path d="M11560 19216 c-30 -18 -296 -176 -590 -351 -294 -175 -566 -337 -603
-359 -37 -23 -87 -52 -110 -65 -23 -13 -58 -33 -77 -46 -34 -22 -1030 -615
-1114 -664 -22 -13 -185 -109 -361 -214 -176 -106 -329 -197 -340 -203 -11 -6
-103 -60 -205 -121 -102 -61 -293 -175 -425 -253 -132 -79 -357 -213 -500
-298 -143 -85 -278 -165 -300 -177 l-40 -23 -2 -2740 -1 -2739 156 -99 c152
-95 502 -323 512 -334 3 -3 48 -34 100 -69 77 -52 407 -284 445 -313 6 -5 106
-80 224 -169 118 -89 219 -165 225 -170 6 -5 108 -86 226 -181 178 -142 326
-264 350 -288 3 -3 25 -21 50 -41 25 -21 59 -50 77 -65 17 -16 58 -51 90 -79
145 -126 264 -233 508 -459 234 -217 747 -736 965 -977 47 -51 94 -103 105
-114 11 -12 52 -57 90 -100 115 -130 726 -755 738 -755 2 0 35 37 73 82 93
110 223 259 243 279 9 9 43 47 76 85 225 257 704 741 1046 1055 152 140 298
271 384 344 32 28 63 55 69 60 6 6 74 64 151 129 77 66 142 122 145 126 3 3
14 13 26 21 12 8 43 33 70 55 27 23 92 76 144 118 52 41 100 79 105 84 13 10
210 166 250 196 100 79 219 167 477 358 338 248 847 599 1219 841 l117 75 0
2890 -1 2890 -191 115 c-105 62 -326 194 -491 292 -165 97 -311 185 -325 193
-51 33 -86 53 -102 58 -10 4 -18 10 -18 15 0 5 -4 9 -9 9 -5 0 -99 54 -208
119 -109 65 -214 128 -233 139 -19 11 -150 88 -290 172 -140 84 -270 161 -289
172 -76 44 -259 153 -306 182 -27 18 -81 50 -118 72 -114 65 -125 71 -489 289
-193 116 -356 212 -362 214 -6 2 -25 15 -42 28 -17 12 -34 23 -37 23 -3 0 -46
25 -96 55 -50 30 -105 63 -123 74 -31 17 -251 148 -771 458 -114 68 -213 126
-220 128 -7 2 -37 -11 -67 -29z"/>
<path d="M5 11613 c5 -392 8 -467 19 -603 3 -41 8 -111 11 -155 3 -44 8 -100
10 -125 3 -25 7 -71 10 -103 2 -32 7 -77 9 -100 3 -23 8 -68 11 -101 4 -32 8
-68 10 -80 2 -11 6 -47 10 -80 4 -32 8 -68 10 -80 6 -41 18 -121 20 -144 2
-12 8 -53 14 -90 6 -37 13 -80 15 -97 5 -35 30 -175 52 -295 9 -47 18 -96 20
-110 3 -14 7 -33 10 -42 3 -10 7 -30 10 -45 17 -102 38 -174 53 -182 9 -5 79
-25 156 -46 77 -20 167 -45 200 -55 851 -257 1578 -546 2376 -945 280 -140
300 -151 584 -308 587 -325 1160 -694 1710 -1101 82 -61 157 -116 165 -123
105 -82 298 -232 319 -248 21 -16 129 -104 276 -226 67 -56 276 -235 319 -274
337 -303 449 -408 716 -675 250 -251 339 -344 595 -626 37 -40 70 -78 199
-229 71 -82 139 -162 152 -177 19 -22 158 -195 328 -408 7 -9 32 -42 56 -75
25 -33 47 -62 50 -65 4 -3 18 -21 32 -40 14 -19 63 -87 109 -150 47 -63 109
-151 139 -195 30 -44 57 -82 61 -85 20 -17 448 -681 514 -797 6 -10 47 -81 91
-158 45 -77 94 -162 109 -190 215 -389 260 -474 429 -810 137 -273 172 -346
311 -650 13 -27 62 -140 110 -250 48 -110 88 -201 90 -203 4 -4 42 -10 130
-18 91 -8 97 -9 220 -18 50 -4 115 -9 145 -11 265 -20 1126 -27 1370 -11 63 4
144 9 180 11 36 2 97 6 135 9 39 4 99 9 135 11 71 6 151 14 190 20 14 2 55 6
92 10 37 3 75 7 85 9 18 4 116 16 163 21 85 8 130 18 130 28 0 7 -12 50 -26
97 -14 47 -37 123 -51 170 -85 289 -343 1017 -446 1260 -6 14 -11 27 -12 30
-1 3 -6 16 -12 30 -6 14 -28 66 -48 115 -36 87 -79 188 -115 270 -10 22 -32
74 -50 115 -18 41 -52 117 -76 168 -24 51 -44 95 -44 97 0 5 -131 277 -228
475 -118 238 -270 531 -370 710 -14 25 -38 70 -55 100 -16 30 -57 102 -90 160
-33 58 -71 125 -85 150 -151 273 -488 797 -746 1158 -72 101 -138 194 -146
206 -16 23 -222 296 -245 324 -8 10 -60 76 -116 147 -138 175 -527 639 -558
665 -3 3 -38 41 -76 84 -39 44 -79 89 -90 101 -11 11 -81 86 -155 165 -229
244 -669 679 -881 871 -15 13 -65 58 -110 100 -46 42 -124 111 -174 154 -49
43 -106 92 -125 109 -137 122 -541 450 -760 616 -47 36 -87 68 -90 71 -3 3
-12 10 -21 15 -9 5 -32 21 -50 36 -129 103 -896 638 -913 638 -2 0 -50 30
-108 68 -57 37 -113 72 -124 79 -81 51 -486 295 -514 310 -19 11 -102 58 -185
105 -82 46 -195 109 -250 138 -55 29 -122 65 -150 80 -209 114 -729 365 -1020
492 -38 17 -95 42 -125 55 -138 62 -590 243 -605 243 -4 0 -21 7 -38 15 -119
55 -853 300 -1107 369 -30 8 -98 27 -150 41 -52 15 -102 28 -110 30 -8 2 -42
11 -75 20 -78 21 -494 125 -522 131 -12 2 -71 16 -130 30 -109 26 -144 33
-448 99 -181 38 -341 71 -390 79 -48 8 -88 15 -115 21 -14 3 -54 10 -90 15
-36 5 -78 12 -95 15 -16 3 -46 7 -65 10 -19 3 -48 8 -63 11 l-28 6 6 -389z"/>
<path d="M23454 11710 c-28 -4 -78 -11 -110 -14 -33 -4 -72 -9 -89 -11 -16 -2
-46 -6 -65 -9 -19 -2 -80 -11 -135 -20 -55 -8 -118 -17 -140 -21 -23 -3 -50
-7 -62 -9 -11 -3 -38 -7 -59 -10 -59 -10 -216 -36 -244 -42 -14 -3 -38 -7 -55
-10 -76 -14 -470 -94 -555 -114 -81 -19 -189 -46 -615 -155 -27 -7 -72 -20
-100 -28 -27 -9 -84 -25 -125 -37 -266 -76 -668 -209 -1025 -339 -107 -40
-341 -131 -357 -141 -10 -5 -22 -10 -28 -10 -6 0 -29 -9 -53 -19 -23 -11 -98
-43 -167 -71 -69 -28 -138 -57 -155 -65 -16 -7 -88 -39 -160 -70 -168 -74
-301 -135 -490 -225 -940 -445 -1813 -963 -2750 -1633 -77 -56 -152 -110 -166
-121 -15 -12 -37 -29 -50 -38 -127 -90 -759 -583 -779 -608 -3 -3 -27 -24 -55
-45 -27 -22 -55 -44 -61 -50 -27 -24 -128 -110 -152 -129 -15 -12 -34 -28 -42
-36 -9 -8 -45 -40 -80 -70 -35 -30 -75 -65 -88 -78 -14 -12 -46 -40 -71 -61
-25 -22 -64 -57 -87 -78 -22 -21 -65 -60 -95 -87 -304 -274 -844 -818 -1039
-1046 -12 -14 -36 -41 -53 -60 -117 -129 -447 -532 -447 -546 0 -16 112 -245
358 -734 459 -909 625 -1244 729 -1470 l26 -54 79 84 c272 291 690 695 962
933 12 10 35 31 51 45 17 15 82 72 145 126 63 54 129 111 145 125 17 14 55 46
85 71 30 25 64 53 75 62 138 114 223 182 345 277 80 62 154 120 165 129 58 48
518 386 648 476 340 236 576 391 963 633 181 113 821 483 894 516 8 4 44 23
80 43 82 45 533 272 620 312 36 16 113 53 172 81 60 28 110 51 113 51 2 0 43
18 89 40 46 21 113 51 148 66 35 14 81 35 103 45 194 89 777 317 1105 432 174
61 488 166 516 172 11 2 55 15 99 29 258 84 960 268 1195 312 13 3 56 12 95
20 68 15 300 59 360 70 58 10 60 12 83 97 12 45 38 142 57 215 33 124 112 456
121 512 2 14 7 36 10 50 4 14 8 34 10 45 1 11 5 30 8 43 7 32 55 291 61 332 3
19 7 46 10 60 5 28 11 65 20 125 3 23 8 52 10 65 3 14 7 45 10 70 3 25 7 54 9
66 2 11 7 47 10 80 4 32 13 111 21 174 8 63 17 144 19 180 3 36 8 94 11 130 3
36 8 83 10 105 4 35 9 121 20 315 2 30 6 169 10 308 5 205 4 252 -7 251 -7 -1
-36 -5 -64 -9z"/>
<path d="M761 7593 c7 -16 15 -37 20 -48 5 -11 18 -45 29 -75 11 -30 25 -64
30 -75 5 -11 34 -81 64 -155 48 -118 89 -214 176 -405 37 -82 236 -484 283
-571 129 -238 203 -369 326 -572 47 -78 91 -150 96 -160 157 -268 606 -893
866 -1207 57 -69 258 -305 280 -330 15 -16 36 -39 46 -51 21 -25 169 -186 225
-247 146 -155 458 -463 623 -612 54 -49 106 -97 114 -105 101 -96 525 -445
686 -565 44 -33 85 -64 91 -70 11 -10 66 -50 264 -192 103 -73 410 -279 540
-360 115 -73 282 -173 287 -173 3 0 17 -8 31 -19 15 -10 52 -32 82 -49 30 -17
125 -69 210 -116 360 -200 910 -457 1345 -629 255 -101 826 -295 990 -338 17
-4 102 -27 190 -52 88 -24 172 -47 188 -51 l27 -7 -41 83 c-180 363 -360 704
-490 930 -22 36 -39 69 -39 73 0 3 -8 18 -19 33 -10 15 -56 90 -101 167 -123
208 -307 493 -465 720 -66 95 -296 413 -322 445 -7 8 -42 53 -78 100 -36 47
-71 92 -78 100 -7 8 -30 38 -52 65 -110 138 -390 471 -425 505 -3 3 -23 25
-44 50 -268 307 -746 788 -1106 1110 -46 41 -88 80 -94 85 -6 6 -90 78 -186
160 -96 82 -177 152 -180 155 -13 15 -415 330 -560 438 -237 177 -722 516
-775 542 -6 3 -35 21 -65 41 -375 248 -832 508 -1340 762 -435 218 -748 358
-1135 507 -155 60 -510 190 -520 190 -2 0 0 -12 6 -27z"/>
<path d="M22325 6735 c-296 -84 -460 -131 -530 -152 -221 -68 -778 -260 -890
-308 -16 -7 -52 -21 -80 -30 -27 -10 -54 -22 -59 -27 -6 -4 -16 -8 -22 -8 -11
0 -437 -174 -539 -220 -22 -10 -107 -48 -190 -85 -278 -124 -762 -361 -947
-463 -180 -100 -328 -182 -363 -202 -70 -39 -329 -191 -365 -215 -19 -12 -105
-65 -190 -118 -197 -122 -624 -404 -771 -509 -25 -18 -75 -53 -110 -77 -107
-75 -475 -347 -574 -426 -337 -269 -430 -344 -557 -452 -83 -70 -156 -132
-162 -138 -6 -5 -47 -41 -91 -80 -44 -38 -100 -89 -125 -112 -25 -23 -56 -51
-70 -63 -161 -137 -660 -638 -851 -855 -24 -27 -46 -52 -49 -55 -3 -3 -30 -34
-60 -69 -30 -35 -70 -80 -88 -100 -18 -20 -37 -52 -42 -72 -13 -47 -56 -111
-117 -174 l-22 -23 64 -182 c110 -308 306 -913 319 -985 10 -50 32 -115 39
-115 20 0 402 115 597 180 624 207 1293 495 1844 794 77 42 141 76 142 76 1 0
64 37 140 81 77 45 154 90 173 101 150 86 512 320 746 483 66 45 429 314 471
348 10 8 96 77 189 153 138 112 432 364 506 434 8 8 78 73 154 145 76 71 209
202 296 290 166 169 187 190 320 336 46 51 89 97 94 103 105 109 460 545 628
771 54 72 101 135 105 140 61 76 346 499 469 695 63 101 212 352 258 435 158
284 402 761 394 769 -2 2 -40 -7 -84 -19z"/>
</g>
</svg>
