<svg width="40" height="40" viewBox="0 0 40 40" fill="none" xmlns="http://www.w3.org/2000/svg">
<rect width="40" height="40" rx="20" fill="#888888"/>
<path d="M20.109 16.1718C19.4302 16.1718 18.3793 15.3634 17.2727 15.3926C15.8126 15.4121 14.4735 16.279 13.7202 17.6523C12.2044 20.4086 13.3297 24.4798 14.8083 26.72C15.5336 27.8108 16.3892 29.0381 17.5238 28.9991C18.6118 28.9504 19.021 28.2589 20.3415 28.2589C21.6528 28.2589 22.0247 28.9991 23.1779 28.9699C24.3496 28.9504 25.0936 27.8595 25.8097 26.7589C26.6373 25.4928 26.9814 24.2656 27 24.1974C26.9721 24.1876 24.7216 23.2818 24.6937 20.5547C24.6751 18.2756 26.4699 17.1848 26.5536 17.1361C25.5307 15.568 23.959 15.3926 23.4104 15.3537C21.9782 15.2368 20.7786 16.1718 20.109 16.1718ZM22.5269 13.8732C23.1314 13.1135 23.5313 12.0519 23.4197 11C22.5548 11.039 21.5133 11.6039 20.8902 12.3636C20.3322 13.0356 19.8486 14.1167 19.9788 15.1491C20.9367 15.2271 21.9224 14.6329 22.5269 13.8732Z" fill="white"/>
</svg>
