<svg width="24" height="24" viewBox="0 0 24 24" fill="none" xmlns="http://www.w3.org/2000/svg">
<path fill-rule="evenodd" clip-rule="evenodd" d="M20 12H4C2.895 12 2 12.895 2 14V16.933C2 17.485 2.448 17.933 3 17.933H21C21.552 17.933 22 17.485 22 16.933V14C22 12.895 21.105 12 20 12Z" stroke="#55585E" stroke-width="1.5" stroke-linecap="round" stroke-linejoin="round"/>
<path d="M4 11.9996V6.93262C4 5.27562 5.343 3.93262 7 3.93262H17C18.657 3.93262 20 5.27562 20 6.93262V11.9996" stroke="#55585E" stroke-width="1.5" stroke-linecap="round" stroke-linejoin="round"/>
<path d="M21 18V19.93" stroke="#55585E" stroke-width="1.5" stroke-linecap="round" stroke-linejoin="round"/>
<path d="M3 18V19.93" stroke="#55585E" stroke-width="1.5" stroke-linecap="round" stroke-linejoin="round"/>
<path d="M7.5 12V12C7.5 10.343 8.843 9 10.5 9H13.5C15.157 9 16.5 10.343 16.5 12V12" stroke="#55585E" stroke-width="1.5" stroke-linecap="round" stroke-linejoin="round"/>
</svg>
