<svg width="20" height="16" viewBox="0 0 20 16" fill="none" xmlns="http://www.w3.org/2000/svg">
<path fill-rule="evenodd" clip-rule="evenodd" d="M17.8253 1.42638C18.682 1.65702 19.3574 2.33247 19.5881 3.18914C20.0164 4.75421 19.9999 8.01614 19.9999 8.01614C19.9999 8.01614 19.9999 11.2616 19.5881 12.8267C19.3574 13.6833 18.682 14.3588 17.8253 14.5894C16.2602 15.0013 9.99996 15.0013 9.99996 15.0013C9.99996 15.0013 3.75616 15.0013 2.17462 14.5729C1.31795 14.3423 0.642501 13.6669 0.41186 12.8102C0 11.2616 0 7.99966 0 7.99966C0 7.99966 0 4.75421 0.41186 3.18914C0.642501 2.33247 1.33443 1.64055 2.17462 1.40991C3.73969 0.998047 9.99996 0.998047 9.99996 0.998047C9.99996 0.998047 16.2602 0.998047 17.8253 1.42638ZM13.2126 7.99936L8.00665 10.9977V5.00102L13.2126 7.99936Z" fill="#FF0000"/>
</svg>
