<svg width="24" height="24" viewBox="0 0 24 24" fill="none" xmlns="http://www.w3.org/2000/svg">
<path d="M21.7429 12.3311L12.7429 2.33115C12.3639 1.90915 11.6359 1.90915 11.2569 2.33115L2.25693 12.3311C1.99193 12.6241 1.92593 13.0461 2.08693 13.4071C2.24693 13.7681 2.60493 14.0001 2.99993 14.0001H4.99993V21.0001C4.99993 21.5521 5.44693 22.0001 5.99993 22.0001H8.99993C9.55293 22.0001 9.99993 21.5521 9.99993 21.0001V17.0001H13.9999V21.0001C13.9999 21.5521 14.4469 22.0001 14.9999 22.0001H17.9999C18.5529 22.0001 18.9999 21.5521 18.9999 21.0001V14.0001H20.9999C21.3949 14.0001 21.7529 13.7681 21.9129 13.4071C22.0739 13.0461 22.0079 12.6251 21.7429 12.3311Z" fill="white"/>
</svg>
