<svg width="20" height="16" viewBox="0 0 20 16" fill="none" xmlns="http://www.w3.org/2000/svg">
<path fill-rule="evenodd" clip-rule="evenodd" d="M17.8253 1.42681C18.682 1.65745 19.3574 2.3329 19.5881 3.18957C20.0164 4.75464 19.9999 8.01657 19.9999 8.01657C19.9999 8.01657 19.9999 11.262 19.5881 12.8271C19.3574 13.6838 18.682 14.3592 17.8253 14.5898C16.2602 15.0017 9.99996 15.0017 9.99996 15.0017C9.99996 15.0017 3.75616 15.0017 2.17462 14.5734C1.31795 14.3427 0.642501 13.6673 0.41186 12.8106C0 11.262 0 8.00009 0 8.00009C0 8.00009 0 4.75464 0.41186 3.18957C0.642501 2.3329 1.33443 1.64098 2.17462 1.41033C3.73969 0.998474 9.99996 0.998474 9.99996 0.998474C9.99996 0.998474 16.2602 0.998474 17.8253 1.42681ZM13.2126 7.99979L8.00665 10.9981V5.00145L13.2126 7.99979Z" fill="#FB5314"/>
</svg>
