<svg xmlns="http://www.w3.org/2000/svg" width="45" height="45" viewBox="0 0 45 45"><defs><mask id="Mask-1" style="mask-type: alpha;"><path d="M23.1-12.6h-45v45h45Zm-38.5 21.5c0 3.5 2 6.6 5 8v9c0 .5 .2 1 .6 1.4l2 2c.8 .8 2 .8 2.8 0l2-2c.4-0.4 .6-0.9 .6-1.4v-9c3-1.5 5-4.5 5-8c0-5-4-9-9-9c-5 0-9 4-9 9Z" fill-rule="evenodd"/></mask></defs><style>
@keyframes a0_t { 0% { transform: translate(.5px,1.5px); } 50% { transform: translate(.5px,-3.5px); } 100% { transform: translate(.5px,1.5px); } }
@keyframes a1_t { 0% { transform: rotate(20.4deg) translate(-21.4px,-12.1px); } 50% { transform: rotate(20.4deg) translate(-21.4px,-12.1px); animation-timing-function: cubic-bezier(0,0,.6,1); } 75% { transform: rotate(6.1deg) translate(-21.4px,-12.1px); animation-timing-function: cubic-bezier(.4,0,1,1); } 100% { transform: rotate(20.4deg) translate(-21.4px,-12.1px); } }
</style><title>ic04</title><g clip-rule="evenodd" fill-rule="evenodd" stroke-linecap="round" stroke-linejoin="round" transform="translate(24.5,25.5) translate(-24,-24)" style="animation: 4s linear infinite both a0_t;"><g mask="url(#Mask-1)" transform="translate(21.4,12.1)"><path d="M21.4 14.7l.9-0.8c2.4-2.4 6.2-2.4 8.5 0l9 9c2.9 2.9 2.9 7.6 0 10.5l-0.4 .4c-2.9 2.9-7.6 2.9-10.5 0l-7.1-7" fill="none" stroke="#fb5314" stroke-width="3px" transform="translate(0,0) rotate(20.4) translate(-21.4,-12.1)" style="animation: 4s linear infinite both a1_t;"/></g><path d="M11 29c-3-1.4-5-4.5-5-8c0-5 4-9 9-9c5 0 9 4 9 9c0 3.5-2 6.6-5 8v9c0 .5-0.2 1-0.6 1.4l-2 2c-0.8 .8-2 .8-2.8 0l-2-2c-0.4-0.4-0.6-0.9-0.6-1.4v-9" fill="none" stroke="#fb5314" stroke-width="3px"/><path d="M15 20.5v-9c0-3 2.5-5.5 5.5-5.5c3 0 5.5 2.5 5.5 5.5v.6" fill="none" stroke="#fb5314" stroke-width="3px"/><path d="M15 20.5c-0.3 0-0.5 .2-0.5 .5c0 .3 .2 .5 .5 .5c.3 0 .5-0.2 .5-0.5c0-0.3-0.2-0.5-0.5-0.5" fill="none" stroke="#fb5314" stroke-width="3px"/></g></svg>