<svg xmlns="http://www.w3.org/2000/svg" width="45" height="45" viewBox="0 0 45 45"><defs><mask id="Mask-1" style="mask-type: alpha;"><path d="M45 0h-45v45h45Zm-12.5 7.5v34h-20v-34c0-1.1 .9-2 2-2h16c1.1 0 2 .9 2 2Z" fill-rule="evenodd" transform="translate(20,23.5) translate(-22.5,-41)" style="animation: 5s linear 5s infinite both a2_t;"/></mask></defs><style>
@keyframes a0_t { 0% { transform: translate(10px,24px) scale(1,1) translate(-10px,-24px); } 40% { transform: translate(12px,24px) scale(.9,.9) translate(-10px,-24px); } 80% { transform: translate(10px,24px) scale(1,1) translate(-10px,-24px); } 100% { transform: translate(10px,24px) scale(1,1) translate(-10px,-24px); } }
@keyframes a1_t { 0% { transform: translate(30px,24px) scale(1,1) translateY(-24px); } 40% { transform: translate(28px,24px) scale(.9,.9) translateY(-24px); } 80% { transform: translate(30px,24px) scale(1,1) translateY(-24px); } 100% { transform: translate(30px,24px) scale(1,1) translateY(-24px); } }
@keyframes a2_t { 0% { transform: translate(20px,23.5px) scale(1,1) translate(-22.5px,-41px); } 40% { transform: translate(20px,23.5px) scale(1.1,1.1) translate(-22.5px,-41px); } 80% { transform: translate(20px,23.5px) scale(1,1) translate(-22.5px,-41px); } 100% { transform: translate(20px,23.5px) scale(1,1) translate(-22.5px,-41px); } }
@keyframes a3_t { 0% { transform: translate(22.5px,41.5px) scale(1,1) translate(-24px,-42px); } 40% { transform: translate(22.5px,41.5px) scale(1.1,1.1) translate(-24px,-42px); } 80% { transform: translate(22.5px,41.5px) scale(1,1) translate(-24px,-42px); } 100% { transform: translate(22.5px,41.5px) scale(1,1) translate(-24px,-42px); } }
</style><title>ic05</title><path d="M44.5 41.5h-44" fill="none" stroke="#fb5314" stroke-width="3px"/><g mask="url(#Mask-1)" transform="translate(2.5,17.5)"><g transform="translate(10,24) translate(-10,-24)" style="animation: 5s linear infinite both a0_t;"><path d="M10 0h-8c-1.1 0-2 .9-2 2v22" fill="none" stroke="#fb5314" stroke-width="3px" clip-rule="evenodd" stroke-linecap="round" stroke-linejoin="round"/><path d="M6 9h4" fill="none" stroke="#fb5314" stroke-width="3px" stroke-linecap="round"/><path d="M6 16h4" fill="none" stroke="#fb5314" stroke-width="3px" stroke-linecap="round"/></g><g transform="translate(30,24) translate(0,-24)" style="animation: 5s linear infinite both a1_t;"><path d="M10 24v-22c0-1.1-0.9-2-2-2h-8" fill="none" stroke="#fb5314" stroke-width="3px" clip-rule="evenodd" stroke-linecap="round" stroke-linejoin="round"/><path d="M0 9h4" fill="none" stroke="#fb5314" stroke-width="3px" stroke-linecap="round"/><path d="M0 16h4" fill="none" stroke="#fb5314" stroke-width="3px" stroke-linecap="round"/></g></g><g clip-rule="evenodd" fill-rule="evenodd" stroke-linecap="round" stroke-linejoin="round" transform="translate(22.5,41.5) translate(-24,-42)" style="animation: 5s linear infinite both a3_t;"><path d="M34 42v-34c0-1.1-0.9-2-2-2h-16c-1.1 0-2 .9-2 2v34" fill="none" stroke="#fb5314" stroke-width="3px"/><path d="M20 21h8" fill="none" stroke="#fb5314" stroke-width="3px"/><path d="M20 27h8" fill="none" stroke="#fb5314" stroke-width="3px"/><path d="M20 15h8" fill="none" stroke="#fb5314" stroke-width="3px"/><path d="M19 34h10" fill="none" stroke="#fb5314" stroke-width="3px"/><path d="M27 34v8" fill="none" stroke="#fb5314" stroke-width="3px"/><path d="M21 42v-8" fill="none" stroke="#fb5314" stroke-width="3px"/></g></svg>