<svg width="24" height="24" viewBox="0 0 24 24" fill="none" xmlns="http://www.w3.org/2000/svg">
<path fill-rule="evenodd" clip-rule="evenodd" d="M14.5268 9.12H11.4738C10.7908 9.12 10.3088 8.451 10.5248 7.804V7.804C10.8598 6.798 11.8008 6.12 12.8608 6.12H13.1388C14.1988 6.12 15.1398 6.798 15.4748 7.804V7.804C15.6908 8.451 15.2088 9.12 14.5268 9.12V9.12Z" stroke="#323232" stroke-width="1.5" stroke-linecap="round" stroke-linejoin="round"/>
<path d="M6.99326 13.263H4.00026C3.38626 13.263 2.91726 13.811 3.01226 14.417L3.35626 16.617C3.66026 18.565 5.33726 20 7.30826 20H16.6923C18.6633 20 20.3403 18.565 20.6443 16.618L20.9883 14.418C21.0833 13.812 20.6143 13.264 20.0003 13.264H12.2633" stroke="#323232" stroke-width="1.5" stroke-linecap="round" stroke-linejoin="round"/>
<path d="M13 6.12V6C13 4.343 14.343 3 16 3V3C17.657 3 19 4.343 19 6V13.263" stroke="#323232" stroke-width="1.5" stroke-linecap="round" stroke-linejoin="round"/>
<path fill-rule="evenodd" clip-rule="evenodd" d="M10.158 17.263H9.105C7.943 17.263 7 16.321 7 15.158V13.153C7 12.516 7.516 12 8.153 12H11.11C11.747 12 12.263 12.516 12.263 13.153V15.158C12.263 16.321 11.321 17.263 10.158 17.263Z" stroke="#323232" stroke-width="1.5" stroke-linecap="round" stroke-linejoin="round"/>
<path d="M6.04 19.8L5 21" stroke="#323232" stroke-width="1.5" stroke-linecap="round" stroke-linejoin="round"/>
<path d="M19 21L17.96 19.8" stroke="#323232" stroke-width="1.5" stroke-linecap="round" stroke-linejoin="round"/>
</svg>
