<svg width="470" height="543" viewBox="0 0 470 543" fill="none" xmlns="http://www.w3.org/2000/svg">
<path opacity="0.07" fill-rule="evenodd" clip-rule="evenodd" d="M-28.1249 74.0237C69.0418 -24.6746 226.561 -24.6746 323.694 74.0237C408.92 160.593 419.389 294.392 355.034 392.534L455.656 494.742C474.781 514.169 474.781 545.968 455.656 565.395V565.43C436.496 584.857 405.191 584.857 386.031 565.43L285.443 463.256C188.824 528.592 57.1012 517.992 -28.1249 431.388C-125.292 332.724 -125.292 172.722 -28.1249 74.0237ZM17.6871 120.558C89.5358 47.5767 206.033 47.5767 277.882 120.558C349.73 193.539 349.73 311.873 277.882 384.854C206.033 457.835 89.5358 457.835 17.6871 384.854C-54.1615 311.873 -54.1615 193.539 17.6871 120.558Z" fill="#FB5314"/>
</svg>
