<svg xmlns="http://www.w3.org/2000/svg" width="45" height="45" viewBox="0 0 45 45"><style>
@keyframes a0_t { 0% { transform: translate(1.9px,1.5px); } 25% { transform: translate(-4.1px,1.5px); } 50% { transform: translate(-4.1px,-3.5px); } 75% { transform: translate(1.9px,-3.5px); } 100% { transform: translate(1.9px,1.5px); } }
</style><title>ic01</title><g clip-rule="evenodd" fill-rule="evenodd" stroke-linecap="round" stroke-linejoin="round" transform="translate(-1.5,-1.5)"><path d="M39.4 19.2v-11.2c0-1.1-0.9-2-2-2h-3.7c-1.1 0-2 .9-2 2v4.6" fill="none" stroke="#fb5314" stroke-width="2px"/><path d="M6 21.4l15.4-13.2c1.5-1.3 3.7-1.3 5.2 0l15.4 13.2" fill="none" stroke="#fb5314" stroke-width="2px"/><path d="M8.6 19.2v18.8c0 2.2 1.8 4 4 4h9.4" fill="none" stroke="#fb5314" stroke-width="2px"/></g><g clip-rule="evenodd" fill-rule="evenodd" stroke-linecap="round" stroke-linejoin="round" transform="translate(35.9,35.5) translate(-34,-34)" style="animation: 4s linear infinite both a0_t;"><path d="M42 42l-3.3-3.3" fill="none" stroke="#fb5314" stroke-width="2px"/><path d="M33.5 26c4.1 0 7.4 3.3 7.4 7.5c0 4.1-3.3 7.4-7.4 7.4c-4.2 0-7.5-3.3-7.5-7.4c0-4.2 3.3-7.5 7.5-7.5" fill="none" stroke="#fb5314" stroke-width="2px"/><path d="M36.4 32l-3.7 3.6l-2.1-2.1" fill="none" stroke="#fb5314" stroke-width="2px"/></g></svg>