<svg width="48" height="48" viewBox="0 0 48 48" fill="none" xmlns="http://www.w3.org/2000/svg">
<path d="M28.0016 32.0296V41.0073C28.0016 41.5596 28.4298 42.0078 28.96 42.0078H39.0502C39.5785 42.0078 40.0066 41.5596 40.0066 41.0073V31.9756" stroke="#7E7E3F" stroke-width="2" stroke-linecap="round" stroke-linejoin="round"/>
<path d="M28.0016 32.0296V41.0073C28.0016 41.5596 28.4298 42.0078 28.96 42.0078H39.0502C39.5785 42.0078 40.0066 41.5596 40.0066 41.0073V31.9756" stroke="#FB5314" stroke-width="2" stroke-linecap="round" stroke-linejoin="round"/>
<path d="M26.0009 33.3382L34.1683 28.002L42.0075 33.3382" stroke="#7E7E3F" stroke-width="2" stroke-linecap="round" stroke-linejoin="round"/>
<path d="M26.0009 33.3382L34.1683 28.002L42.0075 33.3382" stroke="#FB5314" stroke-width="2" stroke-linecap="round" stroke-linejoin="round"/>
<path fill-rule="evenodd" clip-rule="evenodd" d="M20.9107 25.735C23.6545 25.735 25.8788 23.5107 25.8788 20.7669C25.8788 18.0231 23.6545 15.7988 20.9107 15.7988C18.1669 15.7988 15.9426 18.0231 15.9426 20.7669C15.9426 23.5107 18.1669 25.735 20.9107 25.735Z" stroke="#7E7E3F" stroke-width="2" stroke-linecap="round" stroke-linejoin="round"/>
<path fill-rule="evenodd" clip-rule="evenodd" d="M20.9107 25.735C23.6545 25.735 25.8788 23.5107 25.8788 20.7669C25.8788 18.0231 23.6545 15.7988 20.9107 15.7988C18.1669 15.7988 15.9426 18.0231 15.9426 20.7669C15.9426 23.5107 18.1669 25.735 20.9107 25.735Z" stroke="#FB5314" stroke-width="2" stroke-linecap="round" stroke-linejoin="round"/>
<path d="M35.7829 21.8473C36.043 17.7236 34.6104 13.5138 31.4591 10.3625C25.6327 4.53607 16.1887 4.53607 10.3623 10.3625C4.53589 16.1889 4.53589 25.6329 10.3623 31.4593L20.9107 42.0077" stroke="#7E7E3F" stroke-width="2" stroke-linecap="round" stroke-linejoin="round"/>
<path d="M35.7829 21.8473C36.043 17.7236 34.6104 13.5138 31.4591 10.3625C25.6327 4.53607 16.1887 4.53607 10.3623 10.3625C4.53589 16.1889 4.53589 25.6329 10.3623 31.4593L20.9107 42.0077" stroke="#FB5314" stroke-width="2" stroke-linecap="round" stroke-linejoin="round"/>
</svg>
